<svg width="70" height="70" viewBox="0 0 70 70" fill="none" xmlns="http://www.w3.org/2000/svg">
<mask id="mask0_50_5650" style="mask-type:luminance" maskUnits="userSpaceOnUse" x="0" y="0" width="70" height="70">
<path d="M0 0H70V70H0V0Z" fill="white"/>
</mask>
<g mask="url(#mask0_50_5650)">
<path d="M70 35C70 54.3381 54.3381 70 35 70C15.6619 70 0 54.3381 0 35C0 15.6619 15.6619 0 35 0C54.3381 0 70 15.6619 70 35ZM28.597 53.457C44.1222 53.457 52.6063 40.5979 52.6063 29.4477C52.6063 29.0831 52.6063 28.7109 52.5911 28.3615C54.2318 27.1766 55.6673 25.6879 56.8066 23.9865C55.3027 24.6549 53.6773 25.1107 51.9607 25.3234C53.7077 24.2676 55.0369 22.627 55.6673 20.6445C54.0419 21.6092 52.2418 22.3079 50.3125 22.6953C48.7782 21.0471 46.5907 20.0369 44.1526 20.0369C39.4965 20.0369 35.7216 23.8118 35.7216 28.4679C35.7216 29.1363 35.7899 29.7819 35.9494 30.3971C28.9312 30.0477 22.7181 26.6829 18.5558 21.5712C17.8342 22.8168 17.4164 24.2676 17.4164 25.8095C17.4164 28.7337 18.9052 31.3238 21.1762 32.8277C19.7938 32.7897 18.5026 32.4099 17.3633 31.7795C17.3633 31.8099 17.3633 31.8479 17.3633 31.8859C17.3633 35.9798 20.2648 39.375 24.1385 40.1573C23.4321 40.3548 22.6801 40.4536 21.913 40.4536C21.3661 40.4536 20.842 40.408 20.3179 40.3016C21.3889 43.6589 24.503 46.0894 28.1944 46.1654C25.3082 48.4212 21.6699 49.7656 17.7127 49.7656C17.0291 49.7656 16.3683 49.7352 15.6999 49.6441C19.3913 52.0595 23.8346 53.457 28.597 53.457Z" fill="#31762D"/>
</g>
</svg>
