<svg width="70" height="70" viewBox="0 0 70 70" fill="none" xmlns="http://www.w3.org/2000/svg">
<mask id="mask0_50_5645" style="mask-type:luminance" maskUnits="userSpaceOnUse" x="0" y="0" width="70" height="70">
<path d="M0 0H70V70H0V0Z" fill="white"/>
</mask>
<g mask="url(#mask0_50_5645)">
<path d="M34.9331 -0.0368958C15.6474 -0.0368958 -0.0371094 15.6476 -0.0371094 34.9333C-0.0371094 54.2116 15.6474 69.8961 34.9331 69.8961C54.2114 69.8961 69.8959 54.2116 69.8959 34.9333C69.8959 15.6476 54.2114 -0.0368958 34.9331 -0.0368958ZM43.6236 36.161H37.9391C37.9391 45.2533 37.9391 56.4438 37.9391 56.4438H29.509C29.509 56.4438 29.509 45.3574 29.509 36.161H25.4986V28.9958H29.509V24.3604C29.509 21.042 31.0864 15.856 38.0135 15.856L44.256 15.8783V22.8351C44.256 22.8351 40.4614 22.8351 39.7248 22.8351C38.9882 22.8351 37.9391 23.1997 37.9391 24.7845V28.9958H44.3602L43.6236 36.161Z" fill="#31762D"/>
</g>
</svg>
