<svg width="70" height="70" viewBox="0 0 70 70" fill="none" xmlns="http://www.w3.org/2000/svg">
<path d="M35 27.2421C30.7266 27.2421 27.2422 30.7266 27.2422 35C27.2422 39.2734 30.7266 42.7579 35 42.7579C39.2675 42.7579 42.7579 39.2734 42.7579 35C42.7579 30.7266 39.2675 27.2421 35 27.2421Z" fill="#7D4C1F"/>
<path d="M45.4238 15.9699H24.5708C19.8491 15.9699 15.9702 19.819 15.9702 24.5765V45.4235C15.9702 50.1511 19.8133 54.0301 24.5708 54.0301H45.4238C50.1514 54.0301 54.0303 50.181 54.0303 45.4235V24.5765C54.0004 19.819 50.1514 15.9699 45.4238 15.9699ZM35.0003 46.6667C28.5454 46.6667 23.3037 41.425 23.3037 34.9701C23.3037 28.5152 28.5454 23.2736 35.0003 23.2736C41.4552 23.2736 46.6968 28.5152 46.6968 34.9701C46.6669 41.425 41.4193 46.6667 35.0003 46.6667ZM47.5156 25.2399C45.9677 25.2399 44.6946 23.9669 44.6946 22.4249C44.6946 20.8769 45.9677 19.6038 47.5156 19.6038C49.0576 19.6038 50.3307 20.8769 50.3307 22.4249C50.3307 23.9968 49.0875 25.2399 47.5156 25.2399Z" fill="#7D4C1F"/>
<mask id="mask0_50_5713" style="mask-type:luminance" maskUnits="userSpaceOnUse" x="0" y="0" width="70" height="70">
<path d="M0 0H70V70H0V0Z" fill="white"/>
</mask>
<g mask="url(#mask0_50_5713)">
<path d="M35 0C15.6651 0 0 15.6651 0 35C0 54.3289 15.6651 70 35 70C54.3289 70 70 54.3289 70 35C69.9701 15.6651 54.299 0 35 0ZM57.9389 45.4235C57.9389 52.3327 52.3028 57.9688 45.3936 57.9688H24.5705C17.6614 57.9688 12.0253 52.3327 12.0253 45.4235V24.5765C12.0253 17.6674 17.6614 12.0312 24.5705 12.0312H45.4235C52.3327 12.0312 57.9688 17.6674 57.9688 24.5765V45.4235H57.9389Z" fill="#7D4C1F"/>
</g>
</svg>
