<svg width="70" height="70" viewBox="0 0 70 70" fill="none" xmlns="http://www.w3.org/2000/svg">
<path d="M35 0C15.7038 0 0 15.7038 0 35C0 54.3019 15.7038 70 35 70C54.3019 70 70 54.3019 70 35C70 15.7038 54.3019 0 35 0ZM43.7072 36.2317H38.0108C38.0108 45.3324 38.0108 56.5314 38.0108 56.5314H29.5715C29.5715 56.5314 29.5715 45.4407 29.5715 36.2317H25.5629V29.0583H29.5715V24.4225C29.5715 21.0981 31.151 15.9034 38.0906 15.9034L44.3402 15.9262V22.8943C44.3402 22.8943 40.5368 22.8943 39.8012 22.8943C39.06 22.8943 38.0108 23.2592 38.0108 24.8444V29.0583H44.4428L43.7072 36.2317Z" fill="#7D4C1F"/>
</svg>
