<svg width="70" height="70" viewBox="0 0 70 70" fill="none" xmlns="http://www.w3.org/2000/svg">
<mask id="mask0_50_5655" style="mask-type:luminance" maskUnits="userSpaceOnUse" x="0" y="0" width="70" height="70">
<path d="M0 0H70V70H0V0Z" fill="white"/>
</mask>
<g mask="url(#mask0_50_5655)">
<path d="M34.926 -0.0339508C15.6487 -0.0339508 -0.0397949 15.6545 -0.0397949 34.9319C-0.0397949 54.2149 15.6487 69.8977 34.926 69.8977C54.2091 69.8977 69.8918 54.2149 69.8918 34.9319C69.8918 15.6545 54.2091 -0.0339508 34.926 -0.0339508ZM43.6247 36.1623H37.9338C37.9338 45.2541 37.9338 56.4423 37.9338 56.4423H29.5028C29.5028 56.4423 29.5028 45.3624 29.5028 36.1623H25.4981V28.996H29.5028V24.3647C29.5028 21.0435 31.0808 15.8539 38.0136 15.8539L44.2571 15.8767V22.838C44.2571 22.838 40.4574 22.838 39.7226 22.838C38.982 22.838 37.9338 23.2025 37.9338 24.7862V28.996H44.3596L43.6247 36.1623Z" fill="#2B706E"/>
</g>
</svg>
