<svg width="414" height="80" viewBox="0 0 414 80" fill="none" xmlns="http://www.w3.org/2000/svg">
<g filter="url(#filter0_d_112_6554)">
<rect x="4" width="406" height="72" rx="15" fill="#195DC4"/>
<path d="M160.786 42L158.266 37.32H157.888V42H154.36V29.31H159.922C160.942 29.31 161.806 29.49 162.514 29.85C163.222 30.198 163.756 30.684 164.116 31.308C164.476 31.92 164.656 32.61 164.656 33.378C164.656 34.242 164.416 35.004 163.936 35.664C163.468 36.312 162.778 36.774 161.866 37.05L164.728 42H160.786ZM157.888 34.908H159.634C160.114 34.908 160.474 34.794 160.714 34.566C160.954 34.338 161.074 34.008 161.074 33.576C161.074 33.168 160.948 32.85 160.696 32.622C160.456 32.382 160.102 32.262 159.634 32.262H157.888V34.908ZM169.788 32.136V34.206H173.838V36.888H169.788V39.174H174.378V42H166.26V29.31H174.378V32.136H169.788ZM180.909 42.126C179.433 42.126 178.221 41.778 177.273 41.082C176.325 40.374 175.815 39.366 175.743 38.058H179.505C179.541 38.502 179.673 38.826 179.901 39.03C180.129 39.234 180.423 39.336 180.783 39.336C181.107 39.336 181.371 39.258 181.575 39.102C181.791 38.934 181.899 38.706 181.899 38.418C181.899 38.046 181.725 37.758 181.377 37.554C181.029 37.35 180.465 37.122 179.685 36.87C178.857 36.594 178.185 36.33 177.669 36.078C177.165 35.814 176.721 35.436 176.337 34.944C175.965 34.44 175.779 33.786 175.779 32.982C175.779 32.166 175.983 31.47 176.391 30.894C176.799 30.306 177.363 29.862 178.083 29.562C178.803 29.262 179.619 29.112 180.531 29.112C182.007 29.112 183.183 29.46 184.059 30.156C184.947 30.84 185.421 31.806 185.481 33.054H181.647C181.635 32.67 181.515 32.382 181.287 32.19C181.071 31.998 180.789 31.902 180.441 31.902C180.177 31.902 179.961 31.98 179.793 32.136C179.625 32.292 179.541 32.514 179.541 32.802C179.541 33.042 179.631 33.252 179.811 33.432C180.003 33.6 180.237 33.75 180.513 33.882C180.789 34.002 181.197 34.158 181.737 34.35C182.541 34.626 183.201 34.902 183.717 35.178C184.245 35.442 184.695 35.82 185.067 36.312C185.451 36.792 185.643 37.404 185.643 38.148C185.643 38.904 185.451 39.582 185.067 40.182C184.695 40.782 184.149 41.256 183.429 41.604C182.721 41.952 181.881 42.126 180.909 42.126ZM197.309 33.54C197.309 34.308 197.129 35.01 196.769 35.646C196.421 36.27 195.887 36.774 195.167 37.158C194.459 37.53 193.589 37.716 192.557 37.716H190.811V42H187.283V29.31H192.557C193.577 29.31 194.441 29.49 195.149 29.85C195.869 30.21 196.409 30.708 196.769 31.344C197.129 31.98 197.309 32.712 197.309 33.54ZM192.215 34.908C193.211 34.908 193.709 34.452 193.709 33.54C193.709 32.616 193.211 32.154 192.215 32.154H190.811V34.908H192.215ZM204.811 42.126C203.623 42.126 202.531 41.85 201.535 41.298C200.539 40.734 199.747 39.96 199.159 38.976C198.583 37.98 198.295 36.858 198.295 35.61C198.295 34.362 198.583 33.246 199.159 32.262C199.747 31.266 200.539 30.492 201.535 29.94C202.531 29.388 203.623 29.112 204.811 29.112C206.011 29.112 207.103 29.388 208.087 29.94C209.083 30.492 209.869 31.266 210.445 32.262C211.021 33.246 211.309 34.362 211.309 35.61C211.309 36.858 211.021 37.98 210.445 38.976C209.869 39.96 209.083 40.734 208.087 41.298C207.091 41.85 205.999 42.126 204.811 42.126ZM204.811 38.85C205.711 38.85 206.419 38.556 206.935 37.968C207.463 37.38 207.727 36.594 207.727 35.61C207.727 34.602 207.463 33.81 206.935 33.234C206.419 32.646 205.711 32.352 204.811 32.352C203.899 32.352 203.185 32.646 202.669 33.234C202.153 33.81 201.895 34.602 201.895 35.61C201.895 36.606 202.153 37.398 202.669 37.986C203.185 38.562 203.899 38.85 204.811 38.85ZM224.649 42H221.121L216.423 34.908V42H212.895V29.31H216.423L221.121 36.492V29.31H224.649V42ZM231.68 29.31C233.012 29.31 234.176 29.58 235.172 30.12C236.18 30.648 236.954 31.392 237.494 32.352C238.034 33.312 238.304 34.41 238.304 35.646C238.304 36.87 238.028 37.962 237.476 38.922C236.936 39.882 236.162 40.638 235.154 41.19C234.158 41.73 233 42 231.68 42H226.658V29.31H231.68ZM231.41 38.886C232.442 38.886 233.252 38.604 233.84 38.04C234.428 37.476 234.722 36.678 234.722 35.646C234.722 34.602 234.428 33.798 233.84 33.234C233.252 32.658 232.442 32.37 231.41 32.37H230.186V38.886H231.41ZM243.423 32.136V34.206H247.473V36.888H243.423V39.174H248.013V42H239.895V29.31H248.013V32.136H243.423ZM256.182 42L253.662 37.32H253.284V42H249.756V29.31H255.318C256.338 29.31 257.202 29.49 257.91 29.85C258.618 30.198 259.152 30.684 259.512 31.308C259.872 31.92 260.052 32.61 260.052 33.378C260.052 34.242 259.812 35.004 259.332 35.664C258.864 36.312 258.174 36.774 257.262 37.05L260.124 42H256.182ZM253.284 34.908H255.03C255.51 34.908 255.87 34.794 256.11 34.566C256.35 34.338 256.47 34.008 256.47 33.576C256.47 33.168 256.344 32.85 256.092 32.622C255.852 32.382 255.498 32.262 255.03 32.262H253.284V34.908Z" fill="white"/>
<rect x="4" width="406" height="72" rx="15" fill="#195DC4"/>
<path d="M170.448 29.31V32.118H167.064V42H163.536V32.118H160.188V29.31H170.448ZM175.281 32.136V34.206H179.331V36.888H175.281V39.174H179.871V42H171.753V29.31H179.871V32.136H175.281ZM188.04 42L185.52 37.32H185.142V42H181.614V29.31H187.176C188.196 29.31 189.06 29.49 189.768 29.85C190.476 30.198 191.01 30.684 191.37 31.308C191.73 31.92 191.91 32.61 191.91 33.378C191.91 34.242 191.67 35.004 191.19 35.664C190.722 36.312 190.032 36.774 189.12 37.05L191.982 42H188.04ZM185.142 34.908H186.888C187.368 34.908 187.728 34.794 187.968 34.566C188.208 34.338 188.328 34.008 188.328 33.576C188.328 33.168 188.202 32.85 187.95 32.622C187.71 32.382 187.356 32.262 186.888 32.262H185.142V34.908ZM208.329 29.31V42H204.801V34.998L202.407 42H199.455L197.043 34.944V42H193.515V29.31H197.781L200.967 37.554L204.081 29.31H208.329ZM213.865 29.31V42H210.337V29.31H213.865ZM227.628 42H224.1L219.402 34.908V42H215.874V29.31H219.402L224.1 36.492V29.31H227.628V42ZM237.666 39.93H233.166L232.482 42H228.774L233.4 29.31H237.468L242.076 42H238.35L237.666 39.93ZM236.784 37.23L235.416 33.126L234.066 37.23H236.784ZM249.652 42L247.132 37.32H246.754V42H243.226V29.31H248.788C249.808 29.31 250.672 29.49 251.38 29.85C252.088 30.198 252.622 30.684 252.982 31.308C253.342 31.92 253.522 32.61 253.522 33.378C253.522 34.242 253.282 35.004 252.802 35.664C252.334 36.312 251.644 36.774 250.732 37.05L253.594 42H249.652ZM246.754 34.908H248.5C248.98 34.908 249.34 34.794 249.58 34.566C249.82 34.338 249.94 34.008 249.94 33.576C249.94 33.168 249.814 32.85 249.562 32.622C249.322 32.382 248.968 32.262 248.5 32.262H246.754V34.908Z" fill="white"/>
</g>
<defs>
<filter id="filter0_d_112_6554" x="0" y="0" width="414" height="80" filterUnits="userSpaceOnUse" color-interpolation-filters="sRGB">
<feFlood flood-opacity="0" result="BackgroundImageFix"/>
<feColorMatrix in="SourceAlpha" type="matrix" values="0 0 0 0 0 0 0 0 0 0 0 0 0 0 0 0 0 0 127 0" result="hardAlpha"/>
<feOffset dy="4"/>
<feGaussianBlur stdDeviation="2"/>
<feComposite in2="hardAlpha" operator="out"/>
<feColorMatrix type="matrix" values="0 0 0 0 0 0 0 0 0 0 0 0 0 0 0 0 0 0 0.25 0"/>
<feBlend mode="normal" in2="BackgroundImageFix" result="effect1_dropShadow_112_6554"/>
<feBlend mode="normal" in="SourceGraphic" in2="effect1_dropShadow_112_6554" result="shape"/>
</filter>
</defs>
</svg>
