<svg width="406" height="72" viewBox="0 0 406 72" fill="none" xmlns="http://www.w3.org/2000/svg">
<rect width="406" height="72" rx="15" fill="#802D0E"/>
<path d="M166.448 29.31V32.118H163.064V42H159.536V32.118H156.188V29.31H166.448ZM171.281 32.136V34.206H175.331V36.888H171.281V39.174H175.871V42H167.753V29.31H175.871V32.136H171.281ZM184.04 42L181.52 37.32H181.142V42H177.614V29.31H183.176C184.196 29.31 185.06 29.49 185.768 29.85C186.476 30.198 187.01 30.684 187.37 31.308C187.73 31.92 187.91 32.61 187.91 33.378C187.91 34.242 187.67 35.004 187.19 35.664C186.722 36.312 186.032 36.774 185.12 37.05L187.982 42H184.04ZM181.142 34.908H182.888C183.368 34.908 183.728 34.794 183.968 34.566C184.208 34.338 184.328 34.008 184.328 33.576C184.328 33.168 184.202 32.85 183.95 32.622C183.71 32.382 183.356 32.262 182.888 32.262H181.142V34.908ZM204.329 29.31V42H200.801V34.998L198.407 42H195.455L193.043 34.944V42H189.515V29.31H193.781L196.967 37.554L200.081 29.31H204.329ZM209.865 29.31V42H206.337V29.31H209.865ZM223.628 42H220.1L215.402 34.908V42H211.874V29.31H215.402L220.1 36.492V29.31H223.628V42ZM233.666 39.93H229.166L228.482 42H224.774L229.4 29.31H233.468L238.076 42H234.35L233.666 39.93ZM232.784 37.23L231.416 33.126L230.066 37.23H232.784ZM245.652 42L243.132 37.32H242.754V42H239.226V29.31H244.788C245.808 29.31 246.672 29.49 247.38 29.85C248.088 30.198 248.622 30.684 248.982 31.308C249.342 31.92 249.522 32.61 249.522 33.378C249.522 34.242 249.282 35.004 248.802 35.664C248.334 36.312 247.644 36.774 246.732 37.05L249.594 42H245.652ZM242.754 34.908H244.5C244.98 34.908 245.34 34.794 245.58 34.566C245.82 34.338 245.94 34.008 245.94 33.576C245.94 33.168 245.814 32.85 245.562 32.622C245.322 32.382 244.968 32.262 244.5 32.262H242.754V34.908Z" fill="white"/>
</svg>
