<svg width="406" height="72" viewBox="0 0 406 72" fill="none" xmlns="http://www.w3.org/2000/svg">
<rect width="406" height="72" rx="15" fill="#6D800E"/>
<path d="M156.786 42L154.266 37.32H153.888V42H150.36V29.31H155.922C156.942 29.31 157.806 29.49 158.514 29.85C159.222 30.198 159.756 30.684 160.116 31.308C160.476 31.92 160.656 32.61 160.656 33.378C160.656 34.242 160.416 35.004 159.936 35.664C159.468 36.312 158.778 36.774 157.866 37.05L160.728 42H156.786ZM153.888 34.908H155.634C156.114 34.908 156.474 34.794 156.714 34.566C156.954 34.338 157.074 34.008 157.074 33.576C157.074 33.168 156.948 32.85 156.696 32.622C156.456 32.382 156.102 32.262 155.634 32.262H153.888V34.908ZM165.788 32.136V34.206H169.838V36.888H165.788V39.174H170.378V42H162.26V29.31H170.378V32.136H165.788ZM176.909 42.126C175.433 42.126 174.221 41.778 173.273 41.082C172.325 40.374 171.815 39.366 171.743 38.058H175.505C175.541 38.502 175.673 38.826 175.901 39.03C176.129 39.234 176.423 39.336 176.783 39.336C177.107 39.336 177.371 39.258 177.575 39.102C177.791 38.934 177.899 38.706 177.899 38.418C177.899 38.046 177.725 37.758 177.377 37.554C177.029 37.35 176.465 37.122 175.685 36.87C174.857 36.594 174.185 36.33 173.669 36.078C173.165 35.814 172.721 35.436 172.337 34.944C171.965 34.44 171.779 33.786 171.779 32.982C171.779 32.166 171.983 31.47 172.391 30.894C172.799 30.306 173.363 29.862 174.083 29.562C174.803 29.262 175.619 29.112 176.531 29.112C178.007 29.112 179.183 29.46 180.059 30.156C180.947 30.84 181.421 31.806 181.481 33.054H177.647C177.635 32.67 177.515 32.382 177.287 32.19C177.071 31.998 176.789 31.902 176.441 31.902C176.177 31.902 175.961 31.98 175.793 32.136C175.625 32.292 175.541 32.514 175.541 32.802C175.541 33.042 175.631 33.252 175.811 33.432C176.003 33.6 176.237 33.75 176.513 33.882C176.789 34.002 177.197 34.158 177.737 34.35C178.541 34.626 179.201 34.902 179.717 35.178C180.245 35.442 180.695 35.82 181.067 36.312C181.451 36.792 181.643 37.404 181.643 38.148C181.643 38.904 181.451 39.582 181.067 40.182C180.695 40.782 180.149 41.256 179.429 41.604C178.721 41.952 177.881 42.126 176.909 42.126ZM193.309 33.54C193.309 34.308 193.129 35.01 192.769 35.646C192.421 36.27 191.887 36.774 191.167 37.158C190.459 37.53 189.589 37.716 188.557 37.716H186.811V42H183.283V29.31H188.557C189.577 29.31 190.441 29.49 191.149 29.85C191.869 30.21 192.409 30.708 192.769 31.344C193.129 31.98 193.309 32.712 193.309 33.54ZM188.215 34.908C189.211 34.908 189.709 34.452 189.709 33.54C189.709 32.616 189.211 32.154 188.215 32.154H186.811V34.908H188.215ZM200.811 42.126C199.623 42.126 198.531 41.85 197.535 41.298C196.539 40.734 195.747 39.96 195.159 38.976C194.583 37.98 194.295 36.858 194.295 35.61C194.295 34.362 194.583 33.246 195.159 32.262C195.747 31.266 196.539 30.492 197.535 29.94C198.531 29.388 199.623 29.112 200.811 29.112C202.011 29.112 203.103 29.388 204.087 29.94C205.083 30.492 205.869 31.266 206.445 32.262C207.021 33.246 207.309 34.362 207.309 35.61C207.309 36.858 207.021 37.98 206.445 38.976C205.869 39.96 205.083 40.734 204.087 41.298C203.091 41.85 201.999 42.126 200.811 42.126ZM200.811 38.85C201.711 38.85 202.419 38.556 202.935 37.968C203.463 37.38 203.727 36.594 203.727 35.61C203.727 34.602 203.463 33.81 202.935 33.234C202.419 32.646 201.711 32.352 200.811 32.352C199.899 32.352 199.185 32.646 198.669 33.234C198.153 33.81 197.895 34.602 197.895 35.61C197.895 36.606 198.153 37.398 198.669 37.986C199.185 38.562 199.899 38.85 200.811 38.85ZM220.649 42H217.121L212.423 34.908V42H208.895V29.31H212.423L217.121 36.492V29.31H220.649V42ZM227.68 29.31C229.012 29.31 230.176 29.58 231.172 30.12C232.18 30.648 232.954 31.392 233.494 32.352C234.034 33.312 234.304 34.41 234.304 35.646C234.304 36.87 234.028 37.962 233.476 38.922C232.936 39.882 232.162 40.638 231.154 41.19C230.158 41.73 229 42 227.68 42H222.658V29.31H227.68ZM227.41 38.886C228.442 38.886 229.252 38.604 229.84 38.04C230.428 37.476 230.722 36.678 230.722 35.646C230.722 34.602 230.428 33.798 229.84 33.234C229.252 32.658 228.442 32.37 227.41 32.37H226.186V38.886H227.41ZM239.423 32.136V34.206H243.473V36.888H239.423V39.174H244.013V42H235.895V29.31H244.013V32.136H239.423ZM252.182 42L249.662 37.32H249.284V42H245.756V29.31H251.318C252.338 29.31 253.202 29.49 253.91 29.85C254.618 30.198 255.152 30.684 255.512 31.308C255.872 31.92 256.052 32.61 256.052 33.378C256.052 34.242 255.812 35.004 255.332 35.664C254.864 36.312 254.174 36.774 253.262 37.05L256.124 42H252.182ZM249.284 34.908H251.03C251.51 34.908 251.87 34.794 252.11 34.566C252.35 34.338 252.47 34.008 252.47 33.576C252.47 33.168 252.344 32.85 252.092 32.622C251.852 32.382 251.498 32.262 251.03 32.262H249.284V34.908Z" fill="white"/>
<rect width="406" height="72" rx="15" fill="#6D800E"/>
<path d="M166.448 29.31V32.118H163.064V42H159.536V32.118H156.188V29.31H166.448ZM171.281 32.136V34.206H175.331V36.888H171.281V39.174H175.871V42H167.753V29.31H175.871V32.136H171.281ZM184.04 42L181.52 37.32H181.142V42H177.614V29.31H183.176C184.196 29.31 185.06 29.49 185.768 29.85C186.476 30.198 187.01 30.684 187.37 31.308C187.73 31.92 187.91 32.61 187.91 33.378C187.91 34.242 187.67 35.004 187.19 35.664C186.722 36.312 186.032 36.774 185.12 37.05L187.982 42H184.04ZM181.142 34.908H182.888C183.368 34.908 183.728 34.794 183.968 34.566C184.208 34.338 184.328 34.008 184.328 33.576C184.328 33.168 184.202 32.85 183.95 32.622C183.71 32.382 183.356 32.262 182.888 32.262H181.142V34.908ZM204.329 29.31V42H200.801V34.998L198.407 42H195.455L193.043 34.944V42H189.515V29.31H193.781L196.967 37.554L200.081 29.31H204.329ZM209.865 29.31V42H206.337V29.31H209.865ZM223.628 42H220.1L215.402 34.908V42H211.874V29.31H215.402L220.1 36.492V29.31H223.628V42ZM233.666 39.93H229.166L228.482 42H224.774L229.4 29.31H233.468L238.076 42H234.35L233.666 39.93ZM232.784 37.23L231.416 33.126L230.066 37.23H232.784ZM245.652 42L243.132 37.32H242.754V42H239.226V29.31H244.788C245.808 29.31 246.672 29.49 247.38 29.85C248.088 30.198 248.622 30.684 248.982 31.308C249.342 31.92 249.522 32.61 249.522 33.378C249.522 34.242 249.282 35.004 248.802 35.664C248.334 36.312 247.644 36.774 246.732 37.05L249.594 42H245.652ZM242.754 34.908H244.5C244.98 34.908 245.34 34.794 245.58 34.566C245.82 34.338 245.94 34.008 245.94 33.576C245.94 33.168 245.814 32.85 245.562 32.622C245.322 32.382 244.968 32.262 244.5 32.262H242.754V34.908Z" fill="white"/>
</svg>
