<svg width="70" height="70" viewBox="0 0 70 70" fill="none" xmlns="http://www.w3.org/2000/svg">
<path d="M34.9996 27.2422C30.7262 27.2422 27.2417 30.7266 27.2417 35C27.2417 39.2734 30.7262 42.7579 34.9996 42.7579C39.267 42.7579 42.7574 39.2734 42.7574 35C42.7574 30.7266 39.267 27.2422 34.9996 27.2422Z" fill="#737D1F"/>
<path d="M45.4233 15.9699H24.5703C19.8487 15.9699 15.9697 19.819 15.9697 24.5765V45.4235C15.9697 50.1511 19.8128 54.03 24.5703 54.03H45.4233C50.1509 54.03 54.0298 50.181 54.0298 45.4235V24.5765C54 19.819 50.1509 15.9699 45.4233 15.9699ZM34.9998 46.6667C28.5449 46.6667 23.3032 41.425 23.3032 34.9701C23.3032 28.5152 28.5449 23.2736 34.9998 23.2736C41.4547 23.2736 46.6963 28.5152 46.6963 34.9701C46.6665 41.425 41.4188 46.6667 34.9998 46.6667ZM47.5152 25.2399C45.9672 25.2399 44.6941 23.9669 44.6941 22.4249C44.6941 20.8769 45.9672 19.6038 47.5152 19.6038C49.0572 19.6038 50.3302 20.8769 50.3302 22.4249C50.3302 23.9967 49.087 25.2399 47.5152 25.2399Z" fill="#737D1F"/>
<mask id="mask0_50_5698" style="mask-type:luminance" maskUnits="userSpaceOnUse" x="0" y="0" width="70" height="70">
<path d="M0 0H70V70H0V0Z" fill="white"/>
</mask>
<g mask="url(#mask0_50_5698)">
<path d="M35 0C15.6651 0 0 15.6651 0 35C0 54.3289 15.6651 70 35 70C54.3289 70 70 54.3289 70 35C69.9701 15.6651 54.299 0 35 0ZM57.9389 45.4235C57.9389 52.3327 52.3028 57.9688 45.3936 57.9688H24.5705C17.6614 57.9688 12.0253 52.3327 12.0253 45.4235V24.5765C12.0253 17.6674 17.6614 12.0312 24.5705 12.0312H45.4235C52.3327 12.0312 57.9688 17.6674 57.9688 24.5765V45.4235H57.9389Z" fill="#737D1F"/>
</g>
</svg>
