<svg width="70" height="70" viewBox="0 0 70 70" fill="none" xmlns="http://www.w3.org/2000/svg">
<mask id="mask0_50_5693" style="mask-type:luminance" maskUnits="userSpaceOnUse" x="0" y="0" width="70" height="70">
<path d="M0 0H70V70H0V0Z" fill="white"/>
</mask>
<g mask="url(#mask0_50_5693)">
<path d="M70 35C70 54.3415 54.3353 70 35 70C15.6585 70 0 54.3415 0 35C0 15.6647 15.6585 0 35 0C54.3353 0 70 15.6647 70 35ZM28.592 53.464C44.1146 53.464 52.605 40.5985 52.605 29.4509C52.605 29.0863 52.605 28.7218 52.5865 28.3695C54.2302 27.1769 55.6638 25.6939 56.8008 23.9945C55.2993 24.6619 53.6679 25.113 51.9562 25.3231C53.705 24.2726 55.0335 22.6289 55.6638 20.6515C54.0387 21.6155 52.2343 22.3137 50.3125 22.6969C48.7677 21.0531 46.5802 20.0397 44.1517 20.0397C39.4924 20.0397 35.7168 23.8215 35.7168 28.4746C35.7168 29.1419 35.7848 29.7846 35.9454 30.3964C28.9257 30.0503 22.7154 26.6887 18.5505 21.5784C17.8275 22.8204 17.4073 24.2726 17.4073 25.8113C17.4073 28.7341 18.8965 31.3294 21.1705 32.831C19.7925 32.794 18.4949 32.4108 17.3579 31.7805C17.3579 31.8176 17.3579 31.8485 17.3579 31.8856C17.3579 35.9825 20.2622 39.375 24.1305 40.166C23.4322 40.3575 22.6783 40.4626 21.9059 40.4626C21.3621 40.4626 20.843 40.407 20.3178 40.3019C21.3807 43.6635 24.4951 46.0982 28.1903 46.1661C25.3046 48.4216 21.6649 49.7687 17.7101 49.7687C17.0242 49.7687 16.363 49.7378 15.6956 49.6513C19.3847 52.0613 23.8339 53.464 28.592 53.464Z" fill="#737D1F"/>
</g>
</svg>
