<svg width="70" height="70" viewBox="0 0 70 70" fill="none" xmlns="http://www.w3.org/2000/svg">
<mask id="mask0_50_5721" style="mask-type:luminance" maskUnits="userSpaceOnUse" x="0" y="0" width="70" height="70">
<path d="M0 0H70V70H0V0Z" fill="white"/>
</mask>
<g mask="url(#mask0_50_5721)">
<path d="M34.9263 -0.033947C15.6489 -0.033947 -0.0395508 15.6545 -0.0395508 34.9319C-0.0395508 54.2149 15.6489 69.8977 34.9263 69.8977C54.2093 69.8977 69.8921 54.2149 69.8921 34.9319C69.8921 15.6545 54.2093 -0.033947 34.9263 -0.033947ZM43.625 36.1623H37.9341C37.9341 45.2541 37.9341 56.4423 37.9341 56.4423H29.5031C29.5031 56.4423 29.5031 45.3624 29.5031 36.1623H25.4984V28.996H29.5031V24.3647C29.5031 21.0435 31.081 15.8539 38.0138 15.8539L44.2573 15.8767V22.838C44.2573 22.838 40.4577 22.838 39.7228 22.838C38.9823 22.838 37.9341 23.2025 37.9341 24.7862V28.996H44.3599L43.625 36.1623Z" fill="#2B5370"/>
</g>
</svg>
