<svg width="345" height="72" viewBox="0 0 345 72" fill="none" xmlns="http://www.w3.org/2000/svg">
<mask id="mask0_50_5739" style="mask-type:luminance" maskUnits="userSpaceOnUse" x="0" y="0" width="344" height="72">
<path d="M0 0H343.921V72H0V0Z" fill="white"/>
</mask>
<g mask="url(#mask0_50_5739)">
<mask id="mask1_50_5739" style="mask-type:luminance" maskUnits="userSpaceOnUse" x="0" y="0" width="346" height="72">
<path d="M13.2905 0H331.715C335.24 0 338.626 1.5 341.118 4.16667C343.61 6.83333 345.006 10.4506 345.006 14.2222V57.0062C345.006 60.7778 343.61 64.3951 341.118 67.0617C338.626 69.7284 335.24 71.2284 331.715 71.2284H13.2905C9.766 71.2284 6.38568 69.7284 3.89371 67.0617C1.39597 64.3951 0 60.7778 0 57.0062V14.2222C0 10.4506 1.39597 6.83333 3.89371 4.16667C6.38568 1.5 9.766 0 13.2905 0Z" fill="white"/>
</mask>
<g mask="url(#mask1_50_5739)">
<path d="M0 0H343.143V72H0V0Z" fill="#BFFFCE"/>
</g>
</g>
<path d="M66.048 28.152V39.624C66.048 41.4 65.544 42.768 64.536 43.728C63.544 44.688 62.2 45.168 60.504 45.168C58.728 45.168 57.304 44.664 56.232 43.656C55.16 42.648 54.624 41.216 54.624 39.36H58.704C58.704 40.064 58.848 40.6 59.136 40.968C59.424 41.32 59.84 41.496 60.384 41.496C60.88 41.496 61.264 41.336 61.536 41.016C61.808 40.696 61.944 40.232 61.944 39.624V28.152H66.048ZM75.459 45.192C74.147 45.192 72.963 44.912 71.907 44.352C70.867 43.792 70.043 42.992 69.435 41.952C68.843 40.912 68.547 39.696 68.547 38.304C68.547 36.928 68.851 35.72 69.459 34.68C70.067 33.624 70.899 32.816 71.955 32.256C73.011 31.696 74.195 31.416 75.507 31.416C76.819 31.416 78.003 31.696 79.059 32.256C80.115 32.816 80.947 33.624 81.555 34.68C82.163 35.72 82.467 36.928 82.467 38.304C82.467 39.68 82.155 40.896 81.531 41.952C80.923 42.992 80.083 43.792 79.011 44.352C77.955 44.912 76.771 45.192 75.459 45.192ZM75.459 41.64C76.243 41.64 76.907 41.352 77.451 40.776C78.011 40.2 78.291 39.376 78.291 38.304C78.291 37.232 78.019 36.408 77.475 35.832C76.947 35.256 76.291 34.968 75.507 34.968C74.707 34.968 74.043 35.256 73.515 35.832C72.987 36.392 72.723 37.216 72.723 38.304C72.723 39.376 72.979 40.2 73.491 40.776C74.019 41.352 74.675 41.64 75.459 41.64ZM89.7323 31.416C90.6763 31.416 91.5003 31.608 92.2043 31.992C92.9243 32.376 93.4763 32.88 93.8603 33.504V31.608H97.9643V44.976C97.9643 46.208 97.7163 47.32 97.2203 48.312C96.7403 49.32 95.9963 50.12 94.9883 50.712C93.9963 51.304 92.7563 51.6 91.2683 51.6C89.2843 51.6 87.6763 51.128 86.4443 50.184C85.2123 49.256 84.5083 47.992 84.3323 46.392H88.3883C88.5163 46.904 88.8203 47.304 89.3003 47.592C89.7803 47.896 90.3723 48.048 91.0763 48.048C91.9243 48.048 92.5963 47.8 93.0923 47.304C93.6043 46.824 93.8603 46.048 93.8603 44.976V43.08C93.4603 43.704 92.9083 44.216 92.2043 44.616C91.5003 45 90.6763 45.192 89.7323 45.192C88.6283 45.192 87.6283 44.912 86.7323 44.352C85.8363 43.776 85.1243 42.968 84.5963 41.928C84.0843 40.872 83.8283 39.656 83.8283 38.28C83.8283 36.904 84.0843 35.696 84.5963 34.656C85.1243 33.616 85.8363 32.816 86.7323 32.256C87.6283 31.696 88.6283 31.416 89.7323 31.416ZM93.8603 38.304C93.8603 37.28 93.5723 36.472 92.9963 35.88C92.4363 35.288 91.7483 34.992 90.9323 34.992C90.1163 34.992 89.4203 35.288 88.8443 35.88C88.2843 36.456 88.0043 37.256 88.0043 38.28C88.0043 39.304 88.2843 40.12 88.8443 40.728C89.4203 41.32 90.1163 41.616 90.9323 41.616C91.7483 41.616 92.4363 41.32 92.9963 40.728C93.5723 40.136 93.8603 39.328 93.8603 38.304ZM100.117 38.28C100.117 36.904 100.373 35.696 100.885 34.656C101.413 33.616 102.125 32.816 103.021 32.256C103.917 31.696 104.917 31.416 106.021 31.416C106.965 31.416 107.789 31.608 108.493 31.992C109.213 32.376 109.765 32.88 110.149 33.504V31.608H114.253V45H110.149V43.104C109.749 43.728 109.189 44.232 108.469 44.616C107.765 45 106.941 45.192 105.997 45.192C104.909 45.192 103.917 44.912 103.021 44.352C102.125 43.776 101.413 42.968 100.885 41.928C100.373 40.872 100.117 39.656 100.117 38.28ZM110.149 38.304C110.149 37.28 109.861 36.472 109.285 35.88C108.725 35.288 108.037 34.992 107.221 34.992C106.405 34.992 105.709 35.288 105.133 35.88C104.573 36.456 104.293 37.256 104.293 38.28C104.293 39.304 104.573 40.12 105.133 40.728C105.709 41.32 106.405 41.616 107.221 41.616C108.037 41.616 108.725 41.32 109.285 40.728C109.861 40.136 110.149 39.328 110.149 38.304ZM121.326 33.84C121.806 33.104 122.406 32.528 123.126 32.112C123.846 31.68 124.646 31.464 125.526 31.464V35.808H124.398C123.374 35.808 122.606 36.032 122.094 36.48C121.582 36.912 121.326 37.68 121.326 38.784V45H117.222V31.608H121.326V33.84ZM140.734 31.464C142.302 31.464 143.55 31.976 144.478 33C145.422 34.008 145.894 35.4 145.894 37.176V45H141.814V37.728C141.814 36.832 141.582 36.136 141.118 35.64C140.654 35.144 140.03 34.896 139.246 34.896C138.462 34.896 137.838 35.144 137.374 35.64C136.91 36.136 136.678 36.832 136.678 37.728V45H132.574V31.608H136.678V33.384C137.094 32.792 137.654 32.328 138.358 31.992C139.062 31.64 139.854 31.464 140.734 31.464ZM154.842 45.192C153.53 45.192 152.346 44.912 151.29 44.352C150.25 43.792 149.426 42.992 148.818 41.952C148.226 40.912 147.93 39.696 147.93 38.304C147.93 36.928 148.234 35.72 148.842 34.68C149.45 33.624 150.282 32.816 151.338 32.256C152.394 31.696 153.578 31.416 154.89 31.416C156.202 31.416 157.386 31.696 158.442 32.256C159.498 32.816 160.33 33.624 160.938 34.68C161.546 35.72 161.85 36.928 161.85 38.304C161.85 39.68 161.538 40.896 160.914 41.952C160.306 42.992 159.466 43.792 158.394 44.352C157.338 44.912 156.154 45.192 154.842 45.192ZM154.842 41.64C155.626 41.64 156.29 41.352 156.834 40.776C157.394 40.2 157.674 39.376 157.674 38.304C157.674 37.232 157.402 36.408 156.858 35.832C156.33 35.256 155.674 34.968 154.89 34.968C154.09 34.968 153.426 35.256 152.898 35.832C152.37 36.392 152.106 37.216 152.106 38.304C152.106 39.376 152.362 40.2 152.874 40.776C153.402 41.352 154.058 41.64 154.842 41.64ZM170.051 41.16L172.955 31.608H177.323L172.571 45H167.507L162.755 31.608H167.147L170.051 41.16ZM178.235 38.28C178.235 36.904 178.491 35.696 179.003 34.656C179.531 33.616 180.243 32.816 181.139 32.256C182.035 31.696 183.035 31.416 184.139 31.416C185.083 31.416 185.907 31.608 186.611 31.992C187.331 32.376 187.883 32.88 188.267 33.504V31.608H192.371V45H188.267V43.104C187.867 43.728 187.307 44.232 186.587 44.616C185.883 45 185.059 45.192 184.115 45.192C183.027 45.192 182.035 44.912 181.139 44.352C180.243 43.776 179.531 42.968 179.003 41.928C178.491 40.872 178.235 39.656 178.235 38.28ZM188.267 38.304C188.267 37.28 187.979 36.472 187.403 35.88C186.843 35.288 186.155 34.992 185.339 34.992C184.523 34.992 183.827 35.288 183.251 35.88C182.691 36.456 182.411 37.256 182.411 38.28C182.411 39.304 182.691 40.12 183.251 40.728C183.827 41.32 184.523 41.616 185.339 41.616C186.155 41.616 186.843 41.32 187.403 40.728C187.979 40.136 188.267 39.328 188.267 38.304ZM212.428 31.464C214.092 31.464 215.412 31.968 216.388 32.976C217.38 33.984 217.876 35.384 217.876 37.176V45H213.796V37.728C213.796 36.864 213.564 36.2 213.1 35.736C212.652 35.256 212.028 35.016 211.228 35.016C210.428 35.016 209.796 35.256 209.332 35.736C208.884 36.2 208.66 36.864 208.66 37.728V45H204.58V37.728C204.58 36.864 204.348 36.2 203.884 35.736C203.436 35.256 202.812 35.016 202.012 35.016C201.212 35.016 200.58 35.256 200.116 35.736C199.668 36.2 199.444 36.864 199.444 37.728V45H195.34V31.608H199.444V33.288C199.86 32.728 200.404 32.288 201.076 31.968C201.748 31.632 202.508 31.464 203.356 31.464C204.364 31.464 205.26 31.68 206.044 32.112C206.844 32.544 207.468 33.16 207.916 33.96C208.38 33.224 209.012 32.624 209.812 32.16C210.612 31.696 211.484 31.464 212.428 31.464ZM233.37 38.088C233.37 38.472 233.346 38.872 233.298 39.288H224.01C224.074 40.12 224.338 40.76 224.802 41.208C225.282 41.64 225.866 41.856 226.554 41.856C227.578 41.856 228.29 41.424 228.69 40.56H233.058C232.834 41.44 232.426 42.232 231.834 42.936C231.258 43.64 230.53 44.192 229.65 44.592C228.77 44.992 227.786 45.192 226.698 45.192C225.386 45.192 224.218 44.912 223.194 44.352C222.17 43.792 221.37 42.992 220.794 41.952C220.218 40.912 219.93 39.696 219.93 38.304C219.93 36.912 220.21 35.696 220.77 34.656C221.346 33.616 222.146 32.816 223.17 32.256C224.194 31.696 225.37 31.416 226.698 31.416C227.994 31.416 229.146 31.688 230.154 32.232C231.162 32.776 231.946 33.552 232.506 34.56C233.082 35.568 233.37 36.744 233.37 38.088ZM229.17 37.008C229.17 36.304 228.93 35.744 228.45 35.328C227.97 34.912 227.37 34.704 226.65 34.704C225.962 34.704 225.378 34.904 224.898 35.304C224.434 35.704 224.146 36.272 224.034 37.008H229.17ZM243.695 31.464C245.263 31.464 246.511 31.976 247.439 33C248.383 34.008 248.855 35.4 248.855 37.176V45H244.775V37.728C244.775 36.832 244.543 36.136 244.079 35.64C243.615 35.144 242.991 34.896 242.207 34.896C241.423 34.896 240.799 35.144 240.335 35.64C239.871 36.136 239.639 36.832 239.639 37.728V45H235.535V31.608H239.639V33.384C240.055 32.792 240.615 32.328 241.319 31.992C242.023 31.64 242.815 31.464 243.695 31.464ZM259.171 41.52V45H257.083C255.595 45 254.435 44.64 253.603 43.92C252.771 43.184 252.355 41.992 252.355 40.344V35.016H250.723V31.608H252.355V28.344H256.459V31.608H259.147V35.016H256.459V40.392C256.459 40.792 256.555 41.08 256.747 41.256C256.939 41.432 257.259 41.52 257.707 41.52H259.171ZM274.081 38.088C274.081 38.472 274.057 38.872 274.009 39.288H264.721C264.785 40.12 265.049 40.76 265.513 41.208C265.993 41.64 266.577 41.856 267.265 41.856C268.289 41.856 269.001 41.424 269.401 40.56H273.769C273.545 41.44 273.137 42.232 272.545 42.936C271.969 43.64 271.241 44.192 270.361 44.592C269.481 44.992 268.497 45.192 267.409 45.192C266.097 45.192 264.929 44.912 263.905 44.352C262.881 43.792 262.081 42.992 261.505 41.952C260.929 40.912 260.641 39.696 260.641 38.304C260.641 36.912 260.921 35.696 261.481 34.656C262.057 33.616 262.857 32.816 263.881 32.256C264.905 31.696 266.081 31.416 267.409 31.416C268.705 31.416 269.857 31.688 270.865 32.232C271.873 32.776 272.657 33.552 273.217 34.56C273.793 35.568 274.081 36.744 274.081 38.088ZM269.881 37.008C269.881 36.304 269.641 35.744 269.161 35.328C268.681 34.912 268.081 34.704 267.361 34.704C266.673 34.704 266.089 34.904 265.609 35.304C265.145 35.704 264.857 36.272 264.745 37.008H269.881Z" fill="black"/>
</svg>
