<svg width="345" height="71" viewBox="0 0 345 71" fill="none" xmlns="http://www.w3.org/2000/svg">
<mask id="mask0_50_8331" style="mask-type:luminance" maskUnits="userSpaceOnUse" x="0" y="0" width="344" height="71">
<path d="M0 0H343.921V71H0V0Z" fill="white"/>
</mask>
<g mask="url(#mask0_50_8331)">
<mask id="mask1_50_8331" style="mask-type:luminance" maskUnits="userSpaceOnUse" x="0" y="0" width="346" height="71">
<path d="M13.2905 0H331.715C335.24 0 338.626 1.48479 341.118 4.13533C343.61 6.792 345.006 10.3874 345.006 14.1362V56.6552C345.006 60.404 343.61 63.9994 341.118 66.6499C338.626 69.3005 335.24 70.7914 331.715 70.7914H13.2905C9.766 70.7914 6.38568 69.3005 3.89371 66.6499C1.39597 63.9994 0 60.404 0 56.6552V14.1362C0 10.3874 1.39597 6.792 3.89371 4.13533C6.38568 1.48479 9.766 0 13.2905 0Z" fill="white"/>
</mask>
<g mask="url(#mask1_50_8331)">
<path d="M0 0H343.143V71.5645H0V0Z" fill="#B7CDEB"/>
</g>
</g>
<mask id="mask2_50_8331" style="mask-type:luminance" maskUnits="userSpaceOnUse" x="0" y="0" width="345" height="71">
<path d="M0 0H345V70.7988H0V0Z" fill="white"/>
</mask>
<g mask="url(#mask2_50_8331)">
</g>
<path d="M63.048 25.152V36.624C63.048 38.4 62.544 39.768 61.536 40.728C60.544 41.688 59.2 42.168 57.504 42.168C55.728 42.168 54.304 41.664 53.232 40.656C52.16 39.648 51.624 38.216 51.624 36.36H55.704C55.704 37.064 55.848 37.6 56.136 37.968C56.424 38.32 56.84 38.496 57.384 38.496C57.88 38.496 58.264 38.336 58.536 38.016C58.808 37.696 58.944 37.232 58.944 36.624V25.152H63.048ZM72.459 42.192C71.147 42.192 69.963 41.912 68.907 41.352C67.867 40.792 67.043 39.992 66.435 38.952C65.843 37.912 65.547 36.696 65.547 35.304C65.547 33.928 65.851 32.72 66.459 31.68C67.067 30.624 67.899 29.816 68.955 29.256C70.011 28.696 71.195 28.416 72.507 28.416C73.819 28.416 75.003 28.696 76.059 29.256C77.115 29.816 77.947 30.624 78.555 31.68C79.163 32.72 79.467 33.928 79.467 35.304C79.467 36.68 79.155 37.896 78.531 38.952C77.923 39.992 77.083 40.792 76.011 41.352C74.955 41.912 73.771 42.192 72.459 42.192ZM72.459 38.64C73.243 38.64 73.907 38.352 74.451 37.776C75.011 37.2 75.291 36.376 75.291 35.304C75.291 34.232 75.019 33.408 74.475 32.832C73.947 32.256 73.291 31.968 72.507 31.968C71.707 31.968 71.043 32.256 70.515 32.832C69.987 33.392 69.723 34.216 69.723 35.304C69.723 36.376 69.979 37.2 70.491 37.776C71.019 38.352 71.675 38.64 72.459 38.64ZM86.7323 28.416C87.6763 28.416 88.5003 28.608 89.2043 28.992C89.9243 29.376 90.4763 29.88 90.8603 30.504V28.608H94.9643V41.976C94.9643 43.208 94.7163 44.32 94.2203 45.312C93.7403 46.32 92.9963 47.12 91.9883 47.712C90.9963 48.304 89.7563 48.6 88.2683 48.6C86.2843 48.6 84.6763 48.128 83.4443 47.184C82.2123 46.256 81.5083 44.992 81.3323 43.392H85.3883C85.5163 43.904 85.8203 44.304 86.3003 44.592C86.7803 44.896 87.3723 45.048 88.0763 45.048C88.9243 45.048 89.5963 44.8 90.0923 44.304C90.6043 43.824 90.8603 43.048 90.8603 41.976V40.08C90.4603 40.704 89.9083 41.216 89.2043 41.616C88.5003 42 87.6763 42.192 86.7323 42.192C85.6283 42.192 84.6283 41.912 83.7323 41.352C82.8363 40.776 82.1243 39.968 81.5963 38.928C81.0843 37.872 80.8283 36.656 80.8283 35.28C80.8283 33.904 81.0843 32.696 81.5963 31.656C82.1243 30.616 82.8363 29.816 83.7323 29.256C84.6283 28.696 85.6283 28.416 86.7323 28.416ZM90.8603 35.304C90.8603 34.28 90.5723 33.472 89.9963 32.88C89.4363 32.288 88.7483 31.992 87.9323 31.992C87.1163 31.992 86.4203 32.288 85.8443 32.88C85.2843 33.456 85.0043 34.256 85.0043 35.28C85.0043 36.304 85.2843 37.12 85.8443 37.728C86.4203 38.32 87.1163 38.616 87.9323 38.616C88.7483 38.616 89.4363 38.32 89.9963 37.728C90.5723 37.136 90.8603 36.328 90.8603 35.304ZM97.1173 35.28C97.1173 33.904 97.3733 32.696 97.8853 31.656C98.4133 30.616 99.1253 29.816 100.021 29.256C100.917 28.696 101.917 28.416 103.021 28.416C103.965 28.416 104.789 28.608 105.493 28.992C106.213 29.376 106.765 29.88 107.149 30.504V28.608H111.253V42H107.149V40.104C106.749 40.728 106.189 41.232 105.469 41.616C104.765 42 103.941 42.192 102.997 42.192C101.909 42.192 100.917 41.912 100.021 41.352C99.1253 40.776 98.4133 39.968 97.8853 38.928C97.3733 37.872 97.1173 36.656 97.1173 35.28ZM107.149 35.304C107.149 34.28 106.861 33.472 106.285 32.88C105.725 32.288 105.037 31.992 104.221 31.992C103.405 31.992 102.709 32.288 102.133 32.88C101.573 33.456 101.293 34.256 101.293 35.28C101.293 36.304 101.573 37.12 102.133 37.728C102.709 38.32 103.405 38.616 104.221 38.616C105.037 38.616 105.725 38.32 106.285 37.728C106.861 37.136 107.149 36.328 107.149 35.304ZM118.326 30.84C118.806 30.104 119.406 29.528 120.126 29.112C120.846 28.68 121.646 28.464 122.526 28.464V32.808H121.398C120.374 32.808 119.606 33.032 119.094 33.48C118.582 33.912 118.326 34.68 118.326 35.784V42H114.222V28.608H118.326V30.84ZM137.734 28.464C139.302 28.464 140.55 28.976 141.478 30C142.422 31.008 142.894 32.4 142.894 34.176V42H138.814V34.728C138.814 33.832 138.582 33.136 138.118 32.64C137.654 32.144 137.03 31.896 136.246 31.896C135.462 31.896 134.838 32.144 134.374 32.64C133.91 33.136 133.678 33.832 133.678 34.728V42H129.574V28.608H133.678V30.384C134.094 29.792 134.654 29.328 135.358 28.992C136.062 28.64 136.854 28.464 137.734 28.464ZM151.842 42.192C150.53 42.192 149.346 41.912 148.29 41.352C147.25 40.792 146.426 39.992 145.818 38.952C145.226 37.912 144.93 36.696 144.93 35.304C144.93 33.928 145.234 32.72 145.842 31.68C146.45 30.624 147.282 29.816 148.338 29.256C149.394 28.696 150.578 28.416 151.89 28.416C153.202 28.416 154.386 28.696 155.442 29.256C156.498 29.816 157.33 30.624 157.938 31.68C158.546 32.72 158.85 33.928 158.85 35.304C158.85 36.68 158.538 37.896 157.914 38.952C157.306 39.992 156.466 40.792 155.394 41.352C154.338 41.912 153.154 42.192 151.842 42.192ZM151.842 38.64C152.626 38.64 153.29 38.352 153.834 37.776C154.394 37.2 154.674 36.376 154.674 35.304C154.674 34.232 154.402 33.408 153.858 32.832C153.33 32.256 152.674 31.968 151.89 31.968C151.09 31.968 150.426 32.256 149.898 32.832C149.37 33.392 149.106 34.216 149.106 35.304C149.106 36.376 149.362 37.2 149.874 37.776C150.402 38.352 151.058 38.64 151.842 38.64ZM167.051 38.16L169.955 28.608H174.323L169.571 42H164.507L159.755 28.608H164.147L167.051 38.16ZM175.235 35.28C175.235 33.904 175.491 32.696 176.003 31.656C176.531 30.616 177.243 29.816 178.139 29.256C179.035 28.696 180.035 28.416 181.139 28.416C182.083 28.416 182.907 28.608 183.611 28.992C184.331 29.376 184.883 29.88 185.267 30.504V28.608H189.371V42H185.267V40.104C184.867 40.728 184.307 41.232 183.587 41.616C182.883 42 182.059 42.192 181.115 42.192C180.027 42.192 179.035 41.912 178.139 41.352C177.243 40.776 176.531 39.968 176.003 38.928C175.491 37.872 175.235 36.656 175.235 35.28ZM185.267 35.304C185.267 34.28 184.979 33.472 184.403 32.88C183.843 32.288 183.155 31.992 182.339 31.992C181.523 31.992 180.827 32.288 180.251 32.88C179.691 33.456 179.411 34.256 179.411 35.28C179.411 36.304 179.691 37.12 180.251 37.728C180.827 38.32 181.523 38.616 182.339 38.616C183.155 38.616 183.843 38.32 184.403 37.728C184.979 37.136 185.267 36.328 185.267 35.304ZM209.428 28.464C211.092 28.464 212.412 28.968 213.388 29.976C214.38 30.984 214.876 32.384 214.876 34.176V42H210.796V34.728C210.796 33.864 210.564 33.2 210.1 32.736C209.652 32.256 209.028 32.016 208.228 32.016C207.428 32.016 206.796 32.256 206.332 32.736C205.884 33.2 205.66 33.864 205.66 34.728V42H201.58V34.728C201.58 33.864 201.348 33.2 200.884 32.736C200.436 32.256 199.812 32.016 199.012 32.016C198.212 32.016 197.58 32.256 197.116 32.736C196.668 33.2 196.444 33.864 196.444 34.728V42H192.34V28.608H196.444V30.288C196.86 29.728 197.404 29.288 198.076 28.968C198.748 28.632 199.508 28.464 200.356 28.464C201.364 28.464 202.26 28.68 203.044 29.112C203.844 29.544 204.468 30.16 204.916 30.96C205.38 30.224 206.012 29.624 206.812 29.16C207.612 28.696 208.484 28.464 209.428 28.464ZM230.37 35.088C230.37 35.472 230.346 35.872 230.298 36.288H221.01C221.074 37.12 221.338 37.76 221.802 38.208C222.282 38.64 222.866 38.856 223.554 38.856C224.578 38.856 225.29 38.424 225.69 37.56H230.058C229.834 38.44 229.426 39.232 228.834 39.936C228.258 40.64 227.53 41.192 226.65 41.592C225.77 41.992 224.786 42.192 223.698 42.192C222.386 42.192 221.218 41.912 220.194 41.352C219.17 40.792 218.37 39.992 217.794 38.952C217.218 37.912 216.93 36.696 216.93 35.304C216.93 33.912 217.21 32.696 217.77 31.656C218.346 30.616 219.146 29.816 220.17 29.256C221.194 28.696 222.37 28.416 223.698 28.416C224.994 28.416 226.146 28.688 227.154 29.232C228.162 29.776 228.946 30.552 229.506 31.56C230.082 32.568 230.37 33.744 230.37 35.088ZM226.17 34.008C226.17 33.304 225.93 32.744 225.45 32.328C224.97 31.912 224.37 31.704 223.65 31.704C222.962 31.704 222.378 31.904 221.898 32.304C221.434 32.704 221.146 33.272 221.034 34.008H226.17ZM240.695 28.464C242.263 28.464 243.511 28.976 244.439 30C245.383 31.008 245.855 32.4 245.855 34.176V42H241.775V34.728C241.775 33.832 241.543 33.136 241.079 32.64C240.615 32.144 239.991 31.896 239.207 31.896C238.423 31.896 237.799 32.144 237.335 32.64C236.871 33.136 236.639 33.832 236.639 34.728V42H232.535V28.608H236.639V30.384C237.055 29.792 237.615 29.328 238.319 28.992C239.023 28.64 239.815 28.464 240.695 28.464ZM256.171 38.52V42H254.083C252.595 42 251.435 41.64 250.603 40.92C249.771 40.184 249.355 38.992 249.355 37.344V32.016H247.723V28.608H249.355V25.344H253.459V28.608H256.147V32.016H253.459V37.392C253.459 37.792 253.555 38.08 253.747 38.256C253.939 38.432 254.259 38.52 254.707 38.52H256.171ZM271.081 35.088C271.081 35.472 271.057 35.872 271.009 36.288H261.721C261.785 37.12 262.049 37.76 262.513 38.208C262.993 38.64 263.577 38.856 264.265 38.856C265.289 38.856 266.001 38.424 266.401 37.56H270.769C270.545 38.44 270.137 39.232 269.545 39.936C268.969 40.64 268.241 41.192 267.361 41.592C266.481 41.992 265.497 42.192 264.409 42.192C263.097 42.192 261.929 41.912 260.905 41.352C259.881 40.792 259.081 39.992 258.505 38.952C257.929 37.912 257.641 36.696 257.641 35.304C257.641 33.912 257.921 32.696 258.481 31.656C259.057 30.616 259.857 29.816 260.881 29.256C261.905 28.696 263.081 28.416 264.409 28.416C265.705 28.416 266.857 28.688 267.865 29.232C268.873 29.776 269.657 30.552 270.217 31.56C270.793 32.568 271.081 33.744 271.081 35.088ZM266.881 34.008C266.881 33.304 266.641 32.744 266.161 32.328C265.681 31.912 265.081 31.704 264.361 31.704C263.673 31.704 263.089 31.904 262.609 32.304C262.145 32.704 261.857 33.272 261.745 34.008H266.881Z" fill="black"/>
</svg>
