<svg width="345" height="71" viewBox="0 0 345 71" fill="none" xmlns="http://www.w3.org/2000/svg">
<mask id="mask0_50_8077" style="mask-type:luminance" maskUnits="userSpaceOnUse" x="0" y="0" width="344" height="71">
<path d="M0 0H343.921V71H0V0Z" fill="white"/>
</mask>
<g mask="url(#mask0_50_8077)">
<mask id="mask1_50_8077" style="mask-type:luminance" maskUnits="userSpaceOnUse" x="0" y="0" width="346" height="71">
<path d="M13.2905 0H331.715C335.24 0 338.626 1.48479 341.118 4.13533C343.61 6.792 345.006 10.3874 345.006 14.1362V56.6552C345.006 60.404 343.61 63.9994 341.118 66.6499C338.626 69.3005 335.24 70.7914 331.715 70.7914H13.2905C9.766 70.7914 6.38568 69.3005 3.89371 66.6499C1.39597 63.9994 0 60.404 0 56.6552V14.1362C0 10.3874 1.39597 6.792 3.89371 4.13533C6.38568 1.48479 9.766 0 13.2905 0Z" fill="white"/>
</mask>
<g mask="url(#mask1_50_8077)">
<path d="M0 0H343.143V71.5645H0V0Z" fill="#C1FFE9"/>
</g>
</g>
<mask id="mask2_50_8077" style="mask-type:luminance" maskUnits="userSpaceOnUse" x="0" y="0" width="345" height="71">
<path d="M0 0H345V70.7988H0V0Z" fill="white"/>
</mask>
<g mask="url(#mask2_50_8077)">
</g>
<path d="M63.048 27.152V38.624C63.048 40.4 62.544 41.768 61.536 42.728C60.544 43.688 59.2 44.168 57.504 44.168C55.728 44.168 54.304 43.664 53.232 42.656C52.16 41.648 51.624 40.216 51.624 38.36H55.704C55.704 39.064 55.848 39.6 56.136 39.968C56.424 40.32 56.84 40.496 57.384 40.496C57.88 40.496 58.264 40.336 58.536 40.016C58.808 39.696 58.944 39.232 58.944 38.624V27.152H63.048ZM72.459 44.192C71.147 44.192 69.963 43.912 68.907 43.352C67.867 42.792 67.043 41.992 66.435 40.952C65.843 39.912 65.547 38.696 65.547 37.304C65.547 35.928 65.851 34.72 66.459 33.68C67.067 32.624 67.899 31.816 68.955 31.256C70.011 30.696 71.195 30.416 72.507 30.416C73.819 30.416 75.003 30.696 76.059 31.256C77.115 31.816 77.947 32.624 78.555 33.68C79.163 34.72 79.467 35.928 79.467 37.304C79.467 38.68 79.155 39.896 78.531 40.952C77.923 41.992 77.083 42.792 76.011 43.352C74.955 43.912 73.771 44.192 72.459 44.192ZM72.459 40.64C73.243 40.64 73.907 40.352 74.451 39.776C75.011 39.2 75.291 38.376 75.291 37.304C75.291 36.232 75.019 35.408 74.475 34.832C73.947 34.256 73.291 33.968 72.507 33.968C71.707 33.968 71.043 34.256 70.515 34.832C69.987 35.392 69.723 36.216 69.723 37.304C69.723 38.376 69.979 39.2 70.491 39.776C71.019 40.352 71.675 40.64 72.459 40.64ZM86.7323 30.416C87.6763 30.416 88.5003 30.608 89.2043 30.992C89.9243 31.376 90.4763 31.88 90.8603 32.504V30.608H94.9643V43.976C94.9643 45.208 94.7163 46.32 94.2203 47.312C93.7403 48.32 92.9963 49.12 91.9883 49.712C90.9963 50.304 89.7563 50.6 88.2683 50.6C86.2843 50.6 84.6763 50.128 83.4443 49.184C82.2123 48.256 81.5083 46.992 81.3323 45.392H85.3883C85.5163 45.904 85.8203 46.304 86.3003 46.592C86.7803 46.896 87.3723 47.048 88.0763 47.048C88.9243 47.048 89.5963 46.8 90.0923 46.304C90.6043 45.824 90.8603 45.048 90.8603 43.976V42.08C90.4603 42.704 89.9083 43.216 89.2043 43.616C88.5003 44 87.6763 44.192 86.7323 44.192C85.6283 44.192 84.6283 43.912 83.7323 43.352C82.8363 42.776 82.1243 41.968 81.5963 40.928C81.0843 39.872 80.8283 38.656 80.8283 37.28C80.8283 35.904 81.0843 34.696 81.5963 33.656C82.1243 32.616 82.8363 31.816 83.7323 31.256C84.6283 30.696 85.6283 30.416 86.7323 30.416ZM90.8603 37.304C90.8603 36.28 90.5723 35.472 89.9963 34.88C89.4363 34.288 88.7483 33.992 87.9323 33.992C87.1163 33.992 86.4203 34.288 85.8443 34.88C85.2843 35.456 85.0043 36.256 85.0043 37.28C85.0043 38.304 85.2843 39.12 85.8443 39.728C86.4203 40.32 87.1163 40.616 87.9323 40.616C88.7483 40.616 89.4363 40.32 89.9963 39.728C90.5723 39.136 90.8603 38.328 90.8603 37.304ZM97.1173 37.28C97.1173 35.904 97.3733 34.696 97.8853 33.656C98.4133 32.616 99.1253 31.816 100.021 31.256C100.917 30.696 101.917 30.416 103.021 30.416C103.965 30.416 104.789 30.608 105.493 30.992C106.213 31.376 106.765 31.88 107.149 32.504V30.608H111.253V44H107.149V42.104C106.749 42.728 106.189 43.232 105.469 43.616C104.765 44 103.941 44.192 102.997 44.192C101.909 44.192 100.917 43.912 100.021 43.352C99.1253 42.776 98.4133 41.968 97.8853 40.928C97.3733 39.872 97.1173 38.656 97.1173 37.28ZM107.149 37.304C107.149 36.28 106.861 35.472 106.285 34.88C105.725 34.288 105.037 33.992 104.221 33.992C103.405 33.992 102.709 34.288 102.133 34.88C101.573 35.456 101.293 36.256 101.293 37.28C101.293 38.304 101.573 39.12 102.133 39.728C102.709 40.32 103.405 40.616 104.221 40.616C105.037 40.616 105.725 40.32 106.285 39.728C106.861 39.136 107.149 38.328 107.149 37.304ZM118.326 32.84C118.806 32.104 119.406 31.528 120.126 31.112C120.846 30.68 121.646 30.464 122.526 30.464V34.808H121.398C120.374 34.808 119.606 35.032 119.094 35.48C118.582 35.912 118.326 36.68 118.326 37.784V44H114.222V30.608H118.326V32.84ZM137.734 30.464C139.302 30.464 140.55 30.976 141.478 32C142.422 33.008 142.894 34.4 142.894 36.176V44H138.814V36.728C138.814 35.832 138.582 35.136 138.118 34.64C137.654 34.144 137.03 33.896 136.246 33.896C135.462 33.896 134.838 34.144 134.374 34.64C133.91 35.136 133.678 35.832 133.678 36.728V44H129.574V30.608H133.678V32.384C134.094 31.792 134.654 31.328 135.358 30.992C136.062 30.64 136.854 30.464 137.734 30.464ZM151.842 44.192C150.53 44.192 149.346 43.912 148.29 43.352C147.25 42.792 146.426 41.992 145.818 40.952C145.226 39.912 144.93 38.696 144.93 37.304C144.93 35.928 145.234 34.72 145.842 33.68C146.45 32.624 147.282 31.816 148.338 31.256C149.394 30.696 150.578 30.416 151.89 30.416C153.202 30.416 154.386 30.696 155.442 31.256C156.498 31.816 157.33 32.624 157.938 33.68C158.546 34.72 158.85 35.928 158.85 37.304C158.85 38.68 158.538 39.896 157.914 40.952C157.306 41.992 156.466 42.792 155.394 43.352C154.338 43.912 153.154 44.192 151.842 44.192ZM151.842 40.64C152.626 40.64 153.29 40.352 153.834 39.776C154.394 39.2 154.674 38.376 154.674 37.304C154.674 36.232 154.402 35.408 153.858 34.832C153.33 34.256 152.674 33.968 151.89 33.968C151.09 33.968 150.426 34.256 149.898 34.832C149.37 35.392 149.106 36.216 149.106 37.304C149.106 38.376 149.362 39.2 149.874 39.776C150.402 40.352 151.058 40.64 151.842 40.64ZM167.051 40.16L169.955 30.608H174.323L169.571 44H164.507L159.755 30.608H164.147L167.051 40.16ZM175.235 37.28C175.235 35.904 175.491 34.696 176.003 33.656C176.531 32.616 177.243 31.816 178.139 31.256C179.035 30.696 180.035 30.416 181.139 30.416C182.083 30.416 182.907 30.608 183.611 30.992C184.331 31.376 184.883 31.88 185.267 32.504V30.608H189.371V44H185.267V42.104C184.867 42.728 184.307 43.232 183.587 43.616C182.883 44 182.059 44.192 181.115 44.192C180.027 44.192 179.035 43.912 178.139 43.352C177.243 42.776 176.531 41.968 176.003 40.928C175.491 39.872 175.235 38.656 175.235 37.28ZM185.267 37.304C185.267 36.28 184.979 35.472 184.403 34.88C183.843 34.288 183.155 33.992 182.339 33.992C181.523 33.992 180.827 34.288 180.251 34.88C179.691 35.456 179.411 36.256 179.411 37.28C179.411 38.304 179.691 39.12 180.251 39.728C180.827 40.32 181.523 40.616 182.339 40.616C183.155 40.616 183.843 40.32 184.403 39.728C184.979 39.136 185.267 38.328 185.267 37.304ZM209.428 30.464C211.092 30.464 212.412 30.968 213.388 31.976C214.38 32.984 214.876 34.384 214.876 36.176V44H210.796V36.728C210.796 35.864 210.564 35.2 210.1 34.736C209.652 34.256 209.028 34.016 208.228 34.016C207.428 34.016 206.796 34.256 206.332 34.736C205.884 35.2 205.66 35.864 205.66 36.728V44H201.58V36.728C201.58 35.864 201.348 35.2 200.884 34.736C200.436 34.256 199.812 34.016 199.012 34.016C198.212 34.016 197.58 34.256 197.116 34.736C196.668 35.2 196.444 35.864 196.444 36.728V44H192.34V30.608H196.444V32.288C196.86 31.728 197.404 31.288 198.076 30.968C198.748 30.632 199.508 30.464 200.356 30.464C201.364 30.464 202.26 30.68 203.044 31.112C203.844 31.544 204.468 32.16 204.916 32.96C205.38 32.224 206.012 31.624 206.812 31.16C207.612 30.696 208.484 30.464 209.428 30.464ZM230.37 37.088C230.37 37.472 230.346 37.872 230.298 38.288H221.01C221.074 39.12 221.338 39.76 221.802 40.208C222.282 40.64 222.866 40.856 223.554 40.856C224.578 40.856 225.29 40.424 225.69 39.56H230.058C229.834 40.44 229.426 41.232 228.834 41.936C228.258 42.64 227.53 43.192 226.65 43.592C225.77 43.992 224.786 44.192 223.698 44.192C222.386 44.192 221.218 43.912 220.194 43.352C219.17 42.792 218.37 41.992 217.794 40.952C217.218 39.912 216.93 38.696 216.93 37.304C216.93 35.912 217.21 34.696 217.77 33.656C218.346 32.616 219.146 31.816 220.17 31.256C221.194 30.696 222.37 30.416 223.698 30.416C224.994 30.416 226.146 30.688 227.154 31.232C228.162 31.776 228.946 32.552 229.506 33.56C230.082 34.568 230.37 35.744 230.37 37.088ZM226.17 36.008C226.17 35.304 225.93 34.744 225.45 34.328C224.97 33.912 224.37 33.704 223.65 33.704C222.962 33.704 222.378 33.904 221.898 34.304C221.434 34.704 221.146 35.272 221.034 36.008H226.17ZM240.695 30.464C242.263 30.464 243.511 30.976 244.439 32C245.383 33.008 245.855 34.4 245.855 36.176V44H241.775V36.728C241.775 35.832 241.543 35.136 241.079 34.64C240.615 34.144 239.991 33.896 239.207 33.896C238.423 33.896 237.799 34.144 237.335 34.64C236.871 35.136 236.639 35.832 236.639 36.728V44H232.535V30.608H236.639V32.384C237.055 31.792 237.615 31.328 238.319 30.992C239.023 30.64 239.815 30.464 240.695 30.464ZM256.171 40.52V44H254.083C252.595 44 251.435 43.64 250.603 42.92C249.771 42.184 249.355 40.992 249.355 39.344V34.016H247.723V30.608H249.355V27.344H253.459V30.608H256.147V34.016H253.459V39.392C253.459 39.792 253.555 40.08 253.747 40.256C253.939 40.432 254.259 40.52 254.707 40.52H256.171ZM271.081 37.088C271.081 37.472 271.057 37.872 271.009 38.288H261.721C261.785 39.12 262.049 39.76 262.513 40.208C262.993 40.64 263.577 40.856 264.265 40.856C265.289 40.856 266.001 40.424 266.401 39.56H270.769C270.545 40.44 270.137 41.232 269.545 41.936C268.969 42.64 268.241 43.192 267.361 43.592C266.481 43.992 265.497 44.192 264.409 44.192C263.097 44.192 261.929 43.912 260.905 43.352C259.881 42.792 259.081 41.992 258.505 40.952C257.929 39.912 257.641 38.696 257.641 37.304C257.641 35.912 257.921 34.696 258.481 33.656C259.057 32.616 259.857 31.816 260.881 31.256C261.905 30.696 263.081 30.416 264.409 30.416C265.705 30.416 266.857 30.688 267.865 31.232C268.873 31.776 269.657 32.552 270.217 33.56C270.793 34.568 271.081 35.744 271.081 37.088ZM266.881 36.008C266.881 35.304 266.641 34.744 266.161 34.328C265.681 33.912 265.081 33.704 264.361 33.704C263.673 33.704 263.089 33.904 262.609 34.304C262.145 34.704 261.857 35.272 261.745 36.008H266.881Z" fill="black"/>
</svg>
