<svg width="345" height="71" viewBox="0 0 345 71" fill="none" xmlns="http://www.w3.org/2000/svg">
<mask id="mask0_50_8335" style="mask-type:luminance" maskUnits="userSpaceOnUse" x="0" y="0" width="344" height="71">
<path d="M0 0H343.921V71H0V0Z" fill="white"/>
</mask>
<g mask="url(#mask0_50_8335)">
<mask id="mask1_50_8335" style="mask-type:luminance" maskUnits="userSpaceOnUse" x="0" y="0" width="346" height="71">
<path d="M13.2905 0H331.715C335.24 0 338.626 1.48479 341.118 4.13533C343.61 6.792 345.006 10.3874 345.006 14.1362V56.6552C345.006 60.404 343.61 63.9994 341.118 66.6499C338.626 69.3005 335.24 70.7914 331.715 70.7914H13.2905C9.766 70.7914 6.38568 69.3005 3.89371 66.6499C1.39597 63.9994 0 60.404 0 56.6552V14.1362C0 10.3874 1.39597 6.792 3.89371 4.13533C6.38568 1.48479 9.766 0 13.2905 0Z" fill="white"/>
</mask>
<g mask="url(#mask1_50_8335)">
<path d="M0 0H343.143V71.5645H0V0Z" fill="#F2F4DE"/>
</g>
</g>
<mask id="mask2_50_8335" style="mask-type:luminance" maskUnits="userSpaceOnUse" x="0" y="0" width="345" height="71">
<path d="M0 0H345V70.7988H0V0Z" fill="white"/>
</mask>
<g mask="url(#mask2_50_8335)">
</g>
<path d="M63.048 29.152V40.624C63.048 42.4 62.544 43.768 61.536 44.728C60.544 45.688 59.2 46.168 57.504 46.168C55.728 46.168 54.304 45.664 53.232 44.656C52.16 43.648 51.624 42.216 51.624 40.36H55.704C55.704 41.064 55.848 41.6 56.136 41.968C56.424 42.32 56.84 42.496 57.384 42.496C57.88 42.496 58.264 42.336 58.536 42.016C58.808 41.696 58.944 41.232 58.944 40.624V29.152H63.048ZM72.459 46.192C71.147 46.192 69.963 45.912 68.907 45.352C67.867 44.792 67.043 43.992 66.435 42.952C65.843 41.912 65.547 40.696 65.547 39.304C65.547 37.928 65.851 36.72 66.459 35.68C67.067 34.624 67.899 33.816 68.955 33.256C70.011 32.696 71.195 32.416 72.507 32.416C73.819 32.416 75.003 32.696 76.059 33.256C77.115 33.816 77.947 34.624 78.555 35.68C79.163 36.72 79.467 37.928 79.467 39.304C79.467 40.68 79.155 41.896 78.531 42.952C77.923 43.992 77.083 44.792 76.011 45.352C74.955 45.912 73.771 46.192 72.459 46.192ZM72.459 42.64C73.243 42.64 73.907 42.352 74.451 41.776C75.011 41.2 75.291 40.376 75.291 39.304C75.291 38.232 75.019 37.408 74.475 36.832C73.947 36.256 73.291 35.968 72.507 35.968C71.707 35.968 71.043 36.256 70.515 36.832C69.987 37.392 69.723 38.216 69.723 39.304C69.723 40.376 69.979 41.2 70.491 41.776C71.019 42.352 71.675 42.64 72.459 42.64ZM86.7323 32.416C87.6763 32.416 88.5003 32.608 89.2043 32.992C89.9243 33.376 90.4763 33.88 90.8603 34.504V32.608H94.9643V45.976C94.9643 47.208 94.7163 48.32 94.2203 49.312C93.7403 50.32 92.9963 51.12 91.9883 51.712C90.9963 52.304 89.7563 52.6 88.2683 52.6C86.2843 52.6 84.6763 52.128 83.4443 51.184C82.2123 50.256 81.5083 48.992 81.3323 47.392H85.3883C85.5163 47.904 85.8203 48.304 86.3003 48.592C86.7803 48.896 87.3723 49.048 88.0763 49.048C88.9243 49.048 89.5963 48.8 90.0923 48.304C90.6043 47.824 90.8603 47.048 90.8603 45.976V44.08C90.4603 44.704 89.9083 45.216 89.2043 45.616C88.5003 46 87.6763 46.192 86.7323 46.192C85.6283 46.192 84.6283 45.912 83.7323 45.352C82.8363 44.776 82.1243 43.968 81.5963 42.928C81.0843 41.872 80.8283 40.656 80.8283 39.28C80.8283 37.904 81.0843 36.696 81.5963 35.656C82.1243 34.616 82.8363 33.816 83.7323 33.256C84.6283 32.696 85.6283 32.416 86.7323 32.416ZM90.8603 39.304C90.8603 38.28 90.5723 37.472 89.9963 36.88C89.4363 36.288 88.7483 35.992 87.9323 35.992C87.1163 35.992 86.4203 36.288 85.8443 36.88C85.2843 37.456 85.0043 38.256 85.0043 39.28C85.0043 40.304 85.2843 41.12 85.8443 41.728C86.4203 42.32 87.1163 42.616 87.9323 42.616C88.7483 42.616 89.4363 42.32 89.9963 41.728C90.5723 41.136 90.8603 40.328 90.8603 39.304ZM97.1173 39.28C97.1173 37.904 97.3733 36.696 97.8853 35.656C98.4133 34.616 99.1253 33.816 100.021 33.256C100.917 32.696 101.917 32.416 103.021 32.416C103.965 32.416 104.789 32.608 105.493 32.992C106.213 33.376 106.765 33.88 107.149 34.504V32.608H111.253V46H107.149V44.104C106.749 44.728 106.189 45.232 105.469 45.616C104.765 46 103.941 46.192 102.997 46.192C101.909 46.192 100.917 45.912 100.021 45.352C99.1253 44.776 98.4133 43.968 97.8853 42.928C97.3733 41.872 97.1173 40.656 97.1173 39.28ZM107.149 39.304C107.149 38.28 106.861 37.472 106.285 36.88C105.725 36.288 105.037 35.992 104.221 35.992C103.405 35.992 102.709 36.288 102.133 36.88C101.573 37.456 101.293 38.256 101.293 39.28C101.293 40.304 101.573 41.12 102.133 41.728C102.709 42.32 103.405 42.616 104.221 42.616C105.037 42.616 105.725 42.32 106.285 41.728C106.861 41.136 107.149 40.328 107.149 39.304ZM118.326 34.84C118.806 34.104 119.406 33.528 120.126 33.112C120.846 32.68 121.646 32.464 122.526 32.464V36.808H121.398C120.374 36.808 119.606 37.032 119.094 37.48C118.582 37.912 118.326 38.68 118.326 39.784V46H114.222V32.608H118.326V34.84ZM137.734 32.464C139.302 32.464 140.55 32.976 141.478 34C142.422 35.008 142.894 36.4 142.894 38.176V46H138.814V38.728C138.814 37.832 138.582 37.136 138.118 36.64C137.654 36.144 137.03 35.896 136.246 35.896C135.462 35.896 134.838 36.144 134.374 36.64C133.91 37.136 133.678 37.832 133.678 38.728V46H129.574V32.608H133.678V34.384C134.094 33.792 134.654 33.328 135.358 32.992C136.062 32.64 136.854 32.464 137.734 32.464ZM151.842 46.192C150.53 46.192 149.346 45.912 148.29 45.352C147.25 44.792 146.426 43.992 145.818 42.952C145.226 41.912 144.93 40.696 144.93 39.304C144.93 37.928 145.234 36.72 145.842 35.68C146.45 34.624 147.282 33.816 148.338 33.256C149.394 32.696 150.578 32.416 151.89 32.416C153.202 32.416 154.386 32.696 155.442 33.256C156.498 33.816 157.33 34.624 157.938 35.68C158.546 36.72 158.85 37.928 158.85 39.304C158.85 40.68 158.538 41.896 157.914 42.952C157.306 43.992 156.466 44.792 155.394 45.352C154.338 45.912 153.154 46.192 151.842 46.192ZM151.842 42.64C152.626 42.64 153.29 42.352 153.834 41.776C154.394 41.2 154.674 40.376 154.674 39.304C154.674 38.232 154.402 37.408 153.858 36.832C153.33 36.256 152.674 35.968 151.89 35.968C151.09 35.968 150.426 36.256 149.898 36.832C149.37 37.392 149.106 38.216 149.106 39.304C149.106 40.376 149.362 41.2 149.874 41.776C150.402 42.352 151.058 42.64 151.842 42.64ZM167.051 42.16L169.955 32.608H174.323L169.571 46H164.507L159.755 32.608H164.147L167.051 42.16ZM175.235 39.28C175.235 37.904 175.491 36.696 176.003 35.656C176.531 34.616 177.243 33.816 178.139 33.256C179.035 32.696 180.035 32.416 181.139 32.416C182.083 32.416 182.907 32.608 183.611 32.992C184.331 33.376 184.883 33.88 185.267 34.504V32.608H189.371V46H185.267V44.104C184.867 44.728 184.307 45.232 183.587 45.616C182.883 46 182.059 46.192 181.115 46.192C180.027 46.192 179.035 45.912 178.139 45.352C177.243 44.776 176.531 43.968 176.003 42.928C175.491 41.872 175.235 40.656 175.235 39.28ZM185.267 39.304C185.267 38.28 184.979 37.472 184.403 36.88C183.843 36.288 183.155 35.992 182.339 35.992C181.523 35.992 180.827 36.288 180.251 36.88C179.691 37.456 179.411 38.256 179.411 39.28C179.411 40.304 179.691 41.12 180.251 41.728C180.827 42.32 181.523 42.616 182.339 42.616C183.155 42.616 183.843 42.32 184.403 41.728C184.979 41.136 185.267 40.328 185.267 39.304ZM209.428 32.464C211.092 32.464 212.412 32.968 213.388 33.976C214.38 34.984 214.876 36.384 214.876 38.176V46H210.796V38.728C210.796 37.864 210.564 37.2 210.1 36.736C209.652 36.256 209.028 36.016 208.228 36.016C207.428 36.016 206.796 36.256 206.332 36.736C205.884 37.2 205.66 37.864 205.66 38.728V46H201.58V38.728C201.58 37.864 201.348 37.2 200.884 36.736C200.436 36.256 199.812 36.016 199.012 36.016C198.212 36.016 197.58 36.256 197.116 36.736C196.668 37.2 196.444 37.864 196.444 38.728V46H192.34V32.608H196.444V34.288C196.86 33.728 197.404 33.288 198.076 32.968C198.748 32.632 199.508 32.464 200.356 32.464C201.364 32.464 202.26 32.68 203.044 33.112C203.844 33.544 204.468 34.16 204.916 34.96C205.38 34.224 206.012 33.624 206.812 33.16C207.612 32.696 208.484 32.464 209.428 32.464ZM230.37 39.088C230.37 39.472 230.346 39.872 230.298 40.288H221.01C221.074 41.12 221.338 41.76 221.802 42.208C222.282 42.64 222.866 42.856 223.554 42.856C224.578 42.856 225.29 42.424 225.69 41.56H230.058C229.834 42.44 229.426 43.232 228.834 43.936C228.258 44.64 227.53 45.192 226.65 45.592C225.77 45.992 224.786 46.192 223.698 46.192C222.386 46.192 221.218 45.912 220.194 45.352C219.17 44.792 218.37 43.992 217.794 42.952C217.218 41.912 216.93 40.696 216.93 39.304C216.93 37.912 217.21 36.696 217.77 35.656C218.346 34.616 219.146 33.816 220.17 33.256C221.194 32.696 222.37 32.416 223.698 32.416C224.994 32.416 226.146 32.688 227.154 33.232C228.162 33.776 228.946 34.552 229.506 35.56C230.082 36.568 230.37 37.744 230.37 39.088ZM226.17 38.008C226.17 37.304 225.93 36.744 225.45 36.328C224.97 35.912 224.37 35.704 223.65 35.704C222.962 35.704 222.378 35.904 221.898 36.304C221.434 36.704 221.146 37.272 221.034 38.008H226.17ZM240.695 32.464C242.263 32.464 243.511 32.976 244.439 34C245.383 35.008 245.855 36.4 245.855 38.176V46H241.775V38.728C241.775 37.832 241.543 37.136 241.079 36.64C240.615 36.144 239.991 35.896 239.207 35.896C238.423 35.896 237.799 36.144 237.335 36.64C236.871 37.136 236.639 37.832 236.639 38.728V46H232.535V32.608H236.639V34.384C237.055 33.792 237.615 33.328 238.319 32.992C239.023 32.64 239.815 32.464 240.695 32.464ZM256.171 42.52V46H254.083C252.595 46 251.435 45.64 250.603 44.92C249.771 44.184 249.355 42.992 249.355 41.344V36.016H247.723V32.608H249.355V29.344H253.459V32.608H256.147V36.016H253.459V41.392C253.459 41.792 253.555 42.08 253.747 42.256C253.939 42.432 254.259 42.52 254.707 42.52H256.171ZM271.081 39.088C271.081 39.472 271.057 39.872 271.009 40.288H261.721C261.785 41.12 262.049 41.76 262.513 42.208C262.993 42.64 263.577 42.856 264.265 42.856C265.289 42.856 266.001 42.424 266.401 41.56H270.769C270.545 42.44 270.137 43.232 269.545 43.936C268.969 44.64 268.241 45.192 267.361 45.592C266.481 45.992 265.497 46.192 264.409 46.192C263.097 46.192 261.929 45.912 260.905 45.352C259.881 44.792 259.081 43.992 258.505 42.952C257.929 41.912 257.641 40.696 257.641 39.304C257.641 37.912 257.921 36.696 258.481 35.656C259.057 34.616 259.857 33.816 260.881 33.256C261.905 32.696 263.081 32.416 264.409 32.416C265.705 32.416 266.857 32.688 267.865 33.232C268.873 33.776 269.657 34.552 270.217 35.56C270.793 36.568 271.081 37.744 271.081 39.088ZM266.881 38.008C266.881 37.304 266.641 36.744 266.161 36.328C265.681 35.912 265.081 35.704 264.361 35.704C263.673 35.704 263.089 35.904 262.609 36.304C262.145 36.704 261.857 37.272 261.745 38.008H266.881Z" fill="black"/>
<path d="M63.048 29.152V40.624C63.048 42.4 62.544 43.768 61.536 44.728C60.544 45.688 59.2 46.168 57.504 46.168C55.728 46.168 54.304 45.664 53.232 44.656C52.16 43.648 51.624 42.216 51.624 40.36H55.704C55.704 41.064 55.848 41.6 56.136 41.968C56.424 42.32 56.84 42.496 57.384 42.496C57.88 42.496 58.264 42.336 58.536 42.016C58.808 41.696 58.944 41.232 58.944 40.624V29.152H63.048ZM72.459 46.192C71.147 46.192 69.963 45.912 68.907 45.352C67.867 44.792 67.043 43.992 66.435 42.952C65.843 41.912 65.547 40.696 65.547 39.304C65.547 37.928 65.851 36.72 66.459 35.68C67.067 34.624 67.899 33.816 68.955 33.256C70.011 32.696 71.195 32.416 72.507 32.416C73.819 32.416 75.003 32.696 76.059 33.256C77.115 33.816 77.947 34.624 78.555 35.68C79.163 36.72 79.467 37.928 79.467 39.304C79.467 40.68 79.155 41.896 78.531 42.952C77.923 43.992 77.083 44.792 76.011 45.352C74.955 45.912 73.771 46.192 72.459 46.192ZM72.459 42.64C73.243 42.64 73.907 42.352 74.451 41.776C75.011 41.2 75.291 40.376 75.291 39.304C75.291 38.232 75.019 37.408 74.475 36.832C73.947 36.256 73.291 35.968 72.507 35.968C71.707 35.968 71.043 36.256 70.515 36.832C69.987 37.392 69.723 38.216 69.723 39.304C69.723 40.376 69.979 41.2 70.491 41.776C71.019 42.352 71.675 42.64 72.459 42.64ZM86.7323 32.416C87.6763 32.416 88.5003 32.608 89.2043 32.992C89.9243 33.376 90.4763 33.88 90.8603 34.504V32.608H94.9643V45.976C94.9643 47.208 94.7163 48.32 94.2203 49.312C93.7403 50.32 92.9963 51.12 91.9883 51.712C90.9963 52.304 89.7563 52.6 88.2683 52.6C86.2843 52.6 84.6763 52.128 83.4443 51.184C82.2123 50.256 81.5083 48.992 81.3323 47.392H85.3883C85.5163 47.904 85.8203 48.304 86.3003 48.592C86.7803 48.896 87.3723 49.048 88.0763 49.048C88.9243 49.048 89.5963 48.8 90.0923 48.304C90.6043 47.824 90.8603 47.048 90.8603 45.976V44.08C90.4603 44.704 89.9083 45.216 89.2043 45.616C88.5003 46 87.6763 46.192 86.7323 46.192C85.6283 46.192 84.6283 45.912 83.7323 45.352C82.8363 44.776 82.1243 43.968 81.5963 42.928C81.0843 41.872 80.8283 40.656 80.8283 39.28C80.8283 37.904 81.0843 36.696 81.5963 35.656C82.1243 34.616 82.8363 33.816 83.7323 33.256C84.6283 32.696 85.6283 32.416 86.7323 32.416ZM90.8603 39.304C90.8603 38.28 90.5723 37.472 89.9963 36.88C89.4363 36.288 88.7483 35.992 87.9323 35.992C87.1163 35.992 86.4203 36.288 85.8443 36.88C85.2843 37.456 85.0043 38.256 85.0043 39.28C85.0043 40.304 85.2843 41.12 85.8443 41.728C86.4203 42.32 87.1163 42.616 87.9323 42.616C88.7483 42.616 89.4363 42.32 89.9963 41.728C90.5723 41.136 90.8603 40.328 90.8603 39.304ZM97.1173 39.28C97.1173 37.904 97.3733 36.696 97.8853 35.656C98.4133 34.616 99.1253 33.816 100.021 33.256C100.917 32.696 101.917 32.416 103.021 32.416C103.965 32.416 104.789 32.608 105.493 32.992C106.213 33.376 106.765 33.88 107.149 34.504V32.608H111.253V46H107.149V44.104C106.749 44.728 106.189 45.232 105.469 45.616C104.765 46 103.941 46.192 102.997 46.192C101.909 46.192 100.917 45.912 100.021 45.352C99.1253 44.776 98.4133 43.968 97.8853 42.928C97.3733 41.872 97.1173 40.656 97.1173 39.28ZM107.149 39.304C107.149 38.28 106.861 37.472 106.285 36.88C105.725 36.288 105.037 35.992 104.221 35.992C103.405 35.992 102.709 36.288 102.133 36.88C101.573 37.456 101.293 38.256 101.293 39.28C101.293 40.304 101.573 41.12 102.133 41.728C102.709 42.32 103.405 42.616 104.221 42.616C105.037 42.616 105.725 42.32 106.285 41.728C106.861 41.136 107.149 40.328 107.149 39.304ZM118.326 34.84C118.806 34.104 119.406 33.528 120.126 33.112C120.846 32.68 121.646 32.464 122.526 32.464V36.808H121.398C120.374 36.808 119.606 37.032 119.094 37.48C118.582 37.912 118.326 38.68 118.326 39.784V46H114.222V32.608H118.326V34.84ZM137.734 32.464C139.302 32.464 140.55 32.976 141.478 34C142.422 35.008 142.894 36.4 142.894 38.176V46H138.814V38.728C138.814 37.832 138.582 37.136 138.118 36.64C137.654 36.144 137.03 35.896 136.246 35.896C135.462 35.896 134.838 36.144 134.374 36.64C133.91 37.136 133.678 37.832 133.678 38.728V46H129.574V32.608H133.678V34.384C134.094 33.792 134.654 33.328 135.358 32.992C136.062 32.64 136.854 32.464 137.734 32.464ZM151.842 46.192C150.53 46.192 149.346 45.912 148.29 45.352C147.25 44.792 146.426 43.992 145.818 42.952C145.226 41.912 144.93 40.696 144.93 39.304C144.93 37.928 145.234 36.72 145.842 35.68C146.45 34.624 147.282 33.816 148.338 33.256C149.394 32.696 150.578 32.416 151.89 32.416C153.202 32.416 154.386 32.696 155.442 33.256C156.498 33.816 157.33 34.624 157.938 35.68C158.546 36.72 158.85 37.928 158.85 39.304C158.85 40.68 158.538 41.896 157.914 42.952C157.306 43.992 156.466 44.792 155.394 45.352C154.338 45.912 153.154 46.192 151.842 46.192ZM151.842 42.64C152.626 42.64 153.29 42.352 153.834 41.776C154.394 41.2 154.674 40.376 154.674 39.304C154.674 38.232 154.402 37.408 153.858 36.832C153.33 36.256 152.674 35.968 151.89 35.968C151.09 35.968 150.426 36.256 149.898 36.832C149.37 37.392 149.106 38.216 149.106 39.304C149.106 40.376 149.362 41.2 149.874 41.776C150.402 42.352 151.058 42.64 151.842 42.64ZM167.051 42.16L169.955 32.608H174.323L169.571 46H164.507L159.755 32.608H164.147L167.051 42.16ZM175.235 39.28C175.235 37.904 175.491 36.696 176.003 35.656C176.531 34.616 177.243 33.816 178.139 33.256C179.035 32.696 180.035 32.416 181.139 32.416C182.083 32.416 182.907 32.608 183.611 32.992C184.331 33.376 184.883 33.88 185.267 34.504V32.608H189.371V46H185.267V44.104C184.867 44.728 184.307 45.232 183.587 45.616C182.883 46 182.059 46.192 181.115 46.192C180.027 46.192 179.035 45.912 178.139 45.352C177.243 44.776 176.531 43.968 176.003 42.928C175.491 41.872 175.235 40.656 175.235 39.28ZM185.267 39.304C185.267 38.28 184.979 37.472 184.403 36.88C183.843 36.288 183.155 35.992 182.339 35.992C181.523 35.992 180.827 36.288 180.251 36.88C179.691 37.456 179.411 38.256 179.411 39.28C179.411 40.304 179.691 41.12 180.251 41.728C180.827 42.32 181.523 42.616 182.339 42.616C183.155 42.616 183.843 42.32 184.403 41.728C184.979 41.136 185.267 40.328 185.267 39.304ZM209.428 32.464C211.092 32.464 212.412 32.968 213.388 33.976C214.38 34.984 214.876 36.384 214.876 38.176V46H210.796V38.728C210.796 37.864 210.564 37.2 210.1 36.736C209.652 36.256 209.028 36.016 208.228 36.016C207.428 36.016 206.796 36.256 206.332 36.736C205.884 37.2 205.66 37.864 205.66 38.728V46H201.58V38.728C201.58 37.864 201.348 37.2 200.884 36.736C200.436 36.256 199.812 36.016 199.012 36.016C198.212 36.016 197.58 36.256 197.116 36.736C196.668 37.2 196.444 37.864 196.444 38.728V46H192.34V32.608H196.444V34.288C196.86 33.728 197.404 33.288 198.076 32.968C198.748 32.632 199.508 32.464 200.356 32.464C201.364 32.464 202.26 32.68 203.044 33.112C203.844 33.544 204.468 34.16 204.916 34.96C205.38 34.224 206.012 33.624 206.812 33.16C207.612 32.696 208.484 32.464 209.428 32.464ZM230.37 39.088C230.37 39.472 230.346 39.872 230.298 40.288H221.01C221.074 41.12 221.338 41.76 221.802 42.208C222.282 42.64 222.866 42.856 223.554 42.856C224.578 42.856 225.29 42.424 225.69 41.56H230.058C229.834 42.44 229.426 43.232 228.834 43.936C228.258 44.64 227.53 45.192 226.65 45.592C225.77 45.992 224.786 46.192 223.698 46.192C222.386 46.192 221.218 45.912 220.194 45.352C219.17 44.792 218.37 43.992 217.794 42.952C217.218 41.912 216.93 40.696 216.93 39.304C216.93 37.912 217.21 36.696 217.77 35.656C218.346 34.616 219.146 33.816 220.17 33.256C221.194 32.696 222.37 32.416 223.698 32.416C224.994 32.416 226.146 32.688 227.154 33.232C228.162 33.776 228.946 34.552 229.506 35.56C230.082 36.568 230.37 37.744 230.37 39.088ZM226.17 38.008C226.17 37.304 225.93 36.744 225.45 36.328C224.97 35.912 224.37 35.704 223.65 35.704C222.962 35.704 222.378 35.904 221.898 36.304C221.434 36.704 221.146 37.272 221.034 38.008H226.17ZM240.695 32.464C242.263 32.464 243.511 32.976 244.439 34C245.383 35.008 245.855 36.4 245.855 38.176V46H241.775V38.728C241.775 37.832 241.543 37.136 241.079 36.64C240.615 36.144 239.991 35.896 239.207 35.896C238.423 35.896 237.799 36.144 237.335 36.64C236.871 37.136 236.639 37.832 236.639 38.728V46H232.535V32.608H236.639V34.384C237.055 33.792 237.615 33.328 238.319 32.992C239.023 32.64 239.815 32.464 240.695 32.464ZM256.171 42.52V46H254.083C252.595 46 251.435 45.64 250.603 44.92C249.771 44.184 249.355 42.992 249.355 41.344V36.016H247.723V32.608H249.355V29.344H253.459V32.608H256.147V36.016H253.459V41.392C253.459 41.792 253.555 42.08 253.747 42.256C253.939 42.432 254.259 42.52 254.707 42.52H256.171ZM271.081 39.088C271.081 39.472 271.057 39.872 271.009 40.288H261.721C261.785 41.12 262.049 41.76 262.513 42.208C262.993 42.64 263.577 42.856 264.265 42.856C265.289 42.856 266.001 42.424 266.401 41.56H270.769C270.545 42.44 270.137 43.232 269.545 43.936C268.969 44.64 268.241 45.192 267.361 45.592C266.481 45.992 265.497 46.192 264.409 46.192C263.097 46.192 261.929 45.912 260.905 45.352C259.881 44.792 259.081 43.992 258.505 42.952C257.929 41.912 257.641 40.696 257.641 39.304C257.641 37.912 257.921 36.696 258.481 35.656C259.057 34.616 259.857 33.816 260.881 33.256C261.905 32.696 263.081 32.416 264.409 32.416C265.705 32.416 266.857 32.688 267.865 33.232C268.873 33.776 269.657 34.552 270.217 35.56C270.793 36.568 271.081 37.744 271.081 39.088ZM266.881 38.008C266.881 37.304 266.641 36.744 266.161 36.328C265.681 35.912 265.081 35.704 264.361 35.704C263.673 35.704 263.089 35.904 262.609 36.304C262.145 36.704 261.857 37.272 261.745 38.008H266.881Z" fill="black"/>
</svg>
