<svg width="336" height="231" viewBox="0 0 336 231" fill="none" xmlns="http://www.w3.org/2000/svg">
<rect width="336" height="231" rx="10" fill="#717171"/>
<path d="M199.391 65.7856C200.631 63.0567 202.307 57.1678 197.573 51.1652C192.453 44.6794 184.632 44.9305 181.459 45.3616C180.053 41.5525 175.992 36 168 36C160.013 36 155.952 41.5525 154.546 45.3616C151.363 44.9352 143.547 44.6794 138.432 51.1652C133.698 57.1678 135.369 63.0567 136.609 65.7856C132.317 67.4864 128 72.1815 128 80.9082C128 90.4167 133.929 96.3245 143.477 96.3245H154.119V114.422C154.119 115.185 154.777 115.801 155.585 115.801C156.394 115.801 157.046 115.185 157.046 114.422V94.9459C157.046 94.7611 157.006 94.5811 156.936 94.4153C156.86 94.2447 156.75 94.0931 156.619 93.9652L147.613 85.4753C147.041 84.9399 146.117 84.9399 145.545 85.4753C144.973 86.0154 144.973 86.8919 145.545 87.4272L152.051 93.5625H143.477C135.615 93.5625 130.927 88.8343 130.927 80.9082C130.927 72.6173 135.279 68.7419 139.009 67.946C139.476 67.8418 139.862 67.5338 140.038 67.1122C140.219 66.6952 140.169 66.2167 139.908 65.8377C139.862 65.7761 135.55 59.4419 140.781 52.8139C146.002 46.1907 154.852 48.1995 155.224 48.2847C155.605 48.37 156.012 48.3132 156.348 48.1237C156.68 47.9294 156.921 47.6167 157.011 47.2519C157.096 46.9061 159.185 38.7621 168 38.7621C176.82 38.7621 178.909 46.9061 178.994 47.2519C179.079 47.6167 179.325 47.9294 179.657 48.1237C179.993 48.3132 180.4 48.37 180.781 48.2847C181.153 48.1947 189.993 46.186 195.224 52.8139C200.415 59.3945 196.273 65.5819 196.097 65.8425C195.836 66.2215 195.786 66.6953 195.967 67.1169C196.148 67.5338 196.529 67.8418 196.996 67.946C200.726 68.7419 205.078 72.6173 205.078 80.9082C205.078 88.8343 200.385 93.5625 192.528 93.5625H183.954L190.46 87.4272C191.032 86.8919 191.032 86.0154 190.46 85.4753C189.888 84.9399 188.959 84.9399 188.392 85.4753L179.386 93.9652C179.255 94.0931 179.145 94.2447 179.069 94.4153C178.999 94.5811 178.959 94.7611 178.959 94.9459V114.422C178.959 115.185 179.611 115.801 180.42 115.801C181.228 115.801 181.886 115.185 181.886 114.422V96.3245H192.528C202.071 96.3245 208.005 90.4167 208.005 80.9082C208.005 72.1815 203.688 67.4864 199.391 65.7856Z" fill="white"/>
<path d="M80.512 154.248C82.272 154.248 83.816 154.592 85.144 155.28C86.488 155.968 87.52 156.952 88.24 158.232C88.976 159.496 89.344 160.968 89.344 162.648C89.344 164.328 88.976 165.8 88.24 167.064C87.52 168.312 86.488 169.28 85.144 169.968C83.816 170.656 82.272 171 80.512 171H74.656V154.248H80.512ZM80.392 168.144C82.152 168.144 83.512 167.664 84.472 166.704C85.432 165.744 85.912 164.392 85.912 162.648C85.912 160.904 85.432 159.544 84.472 158.568C83.512 157.576 82.152 157.08 80.392 157.08H78.016V168.144H80.392ZM104.219 164.064C104.219 164.544 104.187 164.976 104.123 165.36H94.4031C94.4831 166.32 94.8191 167.072 95.4111 167.616C96.0031 168.16 96.7311 168.432 97.5951 168.432C98.8431 168.432 99.7311 167.896 100.259 166.824H103.883C103.499 168.104 102.763 169.16 101.675 169.992C100.587 170.808 99.2511 171.216 97.6671 171.216C96.3871 171.216 95.2351 170.936 94.2111 170.376C93.2031 169.8 92.4111 168.992 91.8351 167.952C91.2751 166.912 90.9951 165.712 90.9951 164.352C90.9951 162.976 91.2751 161.768 91.8351 160.728C92.3951 159.688 93.1791 158.888 94.1871 158.328C95.1951 157.768 96.3551 157.488 97.6671 157.488C98.9311 157.488 100.059 157.76 101.051 158.304C102.059 158.848 102.835 159.624 103.379 160.632C103.939 161.624 104.219 162.768 104.219 164.064ZM100.739 163.104C100.723 162.24 100.411 161.552 99.8031 161.04C99.1951 160.512 98.4511 160.248 97.5711 160.248C96.7391 160.248 96.0351 160.504 95.4591 161.016C94.8991 161.512 94.5551 162.208 94.4271 163.104H100.739ZM111.76 171.216C110.672 171.216 109.696 171.024 108.832 170.64C107.968 170.24 107.28 169.704 106.768 169.032C106.272 168.36 106 167.616 105.952 166.8H109.336C109.4 167.312 109.648 167.736 110.08 168.072C110.528 168.408 111.08 168.576 111.736 168.576C112.376 168.576 112.872 168.448 113.224 168.192C113.592 167.936 113.776 167.608 113.776 167.208C113.776 166.776 113.552 166.456 113.104 166.248C112.672 166.024 111.976 165.784 111.016 165.528C110.024 165.288 109.208 165.04 108.568 164.784C107.944 164.528 107.4 164.136 106.936 163.608C106.488 163.08 106.264 162.368 106.264 161.472C106.264 160.736 106.472 160.064 106.888 159.456C107.32 158.848 107.928 158.368 108.712 158.016C109.512 157.664 110.448 157.488 111.52 157.488C113.104 157.488 114.368 157.888 115.312 158.688C116.256 159.472 116.776 160.536 116.872 161.88H113.656C113.608 161.352 113.384 160.936 112.984 160.632C112.6 160.312 112.08 160.152 111.424 160.152C110.816 160.152 110.344 160.264 110.008 160.488C109.688 160.712 109.528 161.024 109.528 161.424C109.528 161.872 109.752 162.216 110.2 162.456C110.648 162.68 111.344 162.912 112.288 163.152C113.248 163.392 114.04 163.64 114.664 163.896C115.288 164.152 115.824 164.552 116.272 165.096C116.736 165.624 116.976 166.328 116.992 167.208C116.992 167.976 116.776 168.664 116.344 169.272C115.928 169.88 115.32 170.36 114.52 170.712C113.736 171.048 112.816 171.216 111.76 171.216ZM136.262 157.512C137.894 157.512 139.206 158.016 140.198 159.024C141.206 160.016 141.71 161.408 141.71 163.2V171H138.35V163.656C138.35 162.616 138.086 161.824 137.558 161.28C137.03 160.72 136.31 160.44 135.398 160.44C134.486 160.44 133.758 160.72 133.214 161.28C132.686 161.824 132.422 162.616 132.422 163.656V171H129.062V163.656C129.062 162.616 128.798 161.824 128.27 161.28C127.742 160.72 127.022 160.44 126.11 160.44C125.182 160.44 124.446 160.72 123.902 161.28C123.374 161.824 123.11 162.616 123.11 163.656V171H119.75V157.704H123.11V159.312C123.542 158.752 124.094 158.312 124.766 157.992C125.454 157.672 126.206 157.512 127.022 157.512C128.062 157.512 128.99 157.736 129.806 158.184C130.622 158.616 131.254 159.24 131.702 160.056C132.134 159.288 132.758 158.672 133.574 158.208C134.406 157.744 135.302 157.512 136.262 157.512ZM144.034 164.304C144.034 162.96 144.298 161.768 144.826 160.728C145.37 159.688 146.098 158.888 147.01 158.328C147.938 157.768 148.97 157.488 150.106 157.488C151.098 157.488 151.962 157.688 152.698 158.088C153.45 158.488 154.05 158.992 154.498 159.6V157.704H157.882V171H154.498V169.056C154.066 169.68 153.466 170.2 152.698 170.616C151.946 171.016 151.074 171.216 150.082 171.216C148.962 171.216 147.938 170.928 147.01 170.352C146.098 169.776 145.37 168.968 144.826 167.928C144.298 166.872 144.034 165.664 144.034 164.304ZM154.498 164.352C154.498 163.536 154.338 162.84 154.018 162.264C153.698 161.672 153.266 161.224 152.722 160.92C152.178 160.6 151.594 160.44 150.97 160.44C150.346 160.44 149.77 160.592 149.242 160.896C148.714 161.2 148.282 161.648 147.946 162.24C147.626 162.816 147.466 163.504 147.466 164.304C147.466 165.104 147.626 165.808 147.946 166.416C148.282 167.008 148.714 167.464 149.242 167.784C149.786 168.104 150.362 168.264 150.97 168.264C151.594 168.264 152.178 168.112 152.722 167.808C153.266 167.488 153.698 167.04 154.018 166.464C154.338 165.872 154.498 165.168 154.498 164.352ZM165.076 160.464V166.896C165.076 167.344 165.18 167.672 165.388 167.88C165.612 168.072 165.98 168.168 166.492 168.168H168.052V171H165.94C163.108 171 161.692 169.624 161.692 166.872V160.464H160.108V157.704H161.692V154.416H165.076V157.704H168.052V160.464H165.076ZM169.604 164.304C169.604 162.96 169.868 161.768 170.396 160.728C170.941 159.688 171.669 158.888 172.581 158.328C173.509 157.768 174.541 157.488 175.677 157.488C176.669 157.488 177.533 157.688 178.269 158.088C179.021 158.488 179.621 158.992 180.069 159.6V157.704H183.453V171H180.069V169.056C179.637 169.68 179.037 170.2 178.269 170.616C177.517 171.016 176.645 171.216 175.653 171.216C174.533 171.216 173.509 170.928 172.581 170.352C171.669 169.776 170.941 168.968 170.396 167.928C169.868 166.872 169.604 165.664 169.604 164.304ZM180.069 164.352C180.069 163.536 179.909 162.84 179.589 162.264C179.269 161.672 178.837 161.224 178.293 160.92C177.749 160.6 177.165 160.44 176.541 160.44C175.917 160.44 175.341 160.592 174.812 160.896C174.285 161.2 173.853 161.648 173.517 162.24C173.197 162.816 173.037 163.504 173.037 164.304C173.037 165.104 173.197 165.808 173.517 166.416C173.853 167.008 174.285 167.464 174.812 167.784C175.357 168.104 175.933 168.264 176.541 168.264C177.165 168.264 177.749 168.112 178.293 167.808C178.837 167.488 179.269 167.04 179.589 166.464C179.909 165.872 180.069 165.168 180.069 164.352ZM203.246 157.512C204.878 157.512 206.19 158.016 207.182 159.024C208.19 160.016 208.694 161.408 208.694 163.2V171H205.334V163.656C205.334 162.616 205.07 161.824 204.542 161.28C204.014 160.72 203.294 160.44 202.382 160.44C201.47 160.44 200.742 160.72 200.198 161.28C199.67 161.824 199.406 162.616 199.406 163.656V171H196.046V163.656C196.046 162.616 195.782 161.824 195.254 161.28C194.726 160.72 194.006 160.44 193.094 160.44C192.166 160.44 191.43 160.72 190.886 161.28C190.358 161.824 190.094 162.616 190.094 163.656V171H186.734V157.704H190.094V159.312C190.526 158.752 191.078 158.312 191.75 157.992C192.438 157.672 193.19 157.512 194.006 157.512C195.046 157.512 195.974 157.736 196.79 158.184C197.606 158.616 198.238 159.24 198.686 160.056C199.118 159.288 199.742 158.672 200.558 158.208C201.39 157.744 202.286 157.512 203.246 157.512ZM224.243 164.064C224.243 164.544 224.211 164.976 224.147 165.36H214.427C214.507 166.32 214.843 167.072 215.435 167.616C216.027 168.16 216.755 168.432 217.619 168.432C218.867 168.432 219.755 167.896 220.283 166.824H223.907C223.523 168.104 222.787 169.16 221.699 169.992C220.611 170.808 219.275 171.216 217.691 171.216C216.411 171.216 215.259 170.936 214.235 170.376C213.227 169.8 212.435 168.992 211.859 167.952C211.299 166.912 211.019 165.712 211.019 164.352C211.019 162.976 211.299 161.768 211.859 160.728C212.419 159.688 213.203 158.888 214.211 158.328C215.219 157.768 216.379 157.488 217.691 157.488C218.955 157.488 220.083 157.76 221.075 158.304C222.083 158.848 222.859 159.624 223.403 160.632C223.963 161.624 224.243 162.768 224.243 164.064ZM220.763 163.104C220.747 162.24 220.435 161.552 219.827 161.04C219.219 160.512 218.475 160.248 217.595 160.248C216.763 160.248 216.059 160.504 215.483 161.016C214.923 161.512 214.579 162.208 214.451 163.104H220.763ZM234.063 157.512C235.647 157.512 236.927 158.016 237.903 159.024C238.879 160.016 239.367 161.408 239.367 163.2V171H236.007V163.656C236.007 162.6 235.743 161.792 235.215 161.232C234.687 160.656 233.967 160.368 233.055 160.368C232.127 160.368 231.391 160.656 230.847 161.232C230.319 161.792 230.055 162.6 230.055 163.656V171H226.695V157.704H230.055V159.36C230.503 158.784 231.071 158.336 231.759 158.016C232.463 157.68 233.231 157.512 234.063 157.512ZM246.474 160.464V166.896C246.474 167.344 246.578 167.672 246.786 167.88C247.01 168.072 247.378 168.168 247.89 168.168H249.45V171H247.338C244.506 171 243.09 169.624 243.09 166.872V160.464H241.506V157.704H243.09V154.416H246.474V157.704H249.45V160.464H246.474ZM257.771 171.216C256.491 171.216 255.339 170.936 254.315 170.376C253.291 169.8 252.483 168.992 251.891 167.952C251.315 166.912 251.027 165.712 251.027 164.352C251.027 162.992 251.323 161.792 251.915 160.752C252.523 159.712 253.347 158.912 254.387 158.352C255.427 157.776 256.587 157.488 257.867 157.488C259.147 157.488 260.307 157.776 261.347 158.352C262.387 158.912 263.203 159.712 263.795 160.752C264.403 161.792 264.707 162.992 264.707 164.352C264.707 165.712 264.395 166.912 263.771 167.952C263.163 168.992 262.331 169.8 261.275 170.376C260.235 170.936 259.067 171.216 257.771 171.216ZM257.771 168.288C258.379 168.288 258.947 168.144 259.475 167.856C260.019 167.552 260.451 167.104 260.771 166.512C261.091 165.92 261.251 165.2 261.251 164.352C261.251 163.088 260.915 162.12 260.243 161.448C259.587 160.76 258.779 160.416 257.819 160.416C256.859 160.416 256.051 160.76 255.395 161.448C254.755 162.12 254.435 163.088 254.435 164.352C254.435 165.616 254.747 166.592 255.371 167.28C256.011 167.952 256.811 168.288 257.771 168.288Z" fill="white"/>
</svg>
