<svg width="336" height="231" viewBox="0 0 336 231" fill="none" xmlns="http://www.w3.org/2000/svg">
<rect width="336" height="231" rx="10" fill="#717171"/>
<path d="M105.016 143.96V148.16H110.656V150.824H105.016V155.264H111.376V158H101.656V141.224H111.376V143.96H105.016ZM120.525 147.464H118.197V158H114.789V147.464H113.277V144.704H114.789V144.032C114.789 142.4 115.253 141.2 116.181 140.432C117.109 139.664 118.509 139.304 120.381 139.352V142.184C119.565 142.168 118.997 142.304 118.677 142.592C118.357 142.88 118.197 143.4 118.197 144.152V144.704H120.525V147.464ZM135.063 151.064C135.063 151.544 135.031 151.976 134.967 152.36H125.247C125.327 153.32 125.663 154.072 126.255 154.616C126.847 155.16 127.575 155.432 128.439 155.432C129.687 155.432 130.575 154.896 131.103 153.824H134.727C134.343 155.104 133.607 156.16 132.519 156.992C131.431 157.808 130.095 158.216 128.511 158.216C127.231 158.216 126.079 157.936 125.055 157.376C124.047 156.8 123.255 155.992 122.679 154.952C122.119 153.912 121.839 152.712 121.839 151.352C121.839 149.976 122.119 148.768 122.679 147.728C123.239 146.688 124.023 145.888 125.031 145.328C126.039 144.768 127.199 144.488 128.511 144.488C129.775 144.488 130.903 144.76 131.895 145.304C132.903 145.848 133.679 146.624 134.223 147.632C134.783 148.624 135.063 149.768 135.063 151.064ZM131.583 150.104C131.567 149.24 131.255 148.552 130.647 148.04C130.039 147.512 129.295 147.248 128.415 147.248C127.583 147.248 126.879 147.504 126.303 148.016C125.743 148.512 125.399 149.208 125.271 150.104H131.583ZM139.219 143.12C138.627 143.12 138.131 142.936 137.731 142.568C137.347 142.184 137.155 141.712 137.155 141.152C137.155 140.592 137.347 140.128 137.731 139.76C138.131 139.376 138.627 139.184 139.219 139.184C139.811 139.184 140.299 139.376 140.683 139.76C141.083 140.128 141.283 140.592 141.283 141.152C141.283 141.712 141.083 142.184 140.683 142.568C140.299 142.936 139.811 143.12 139.219 143.12ZM140.875 144.704V158H137.515V144.704H140.875ZM148.107 147.464V153.896C148.107 154.344 148.211 154.672 148.419 154.88C148.643 155.072 149.011 155.168 149.523 155.168H151.083V158H148.971C146.139 158 144.723 156.624 144.723 153.872V147.464H143.139V144.704H144.723V141.416H148.107V144.704H151.083V147.464H148.107ZM159.404 158.216C158.124 158.216 156.972 157.936 155.948 157.376C154.924 156.8 154.116 155.992 153.524 154.952C152.948 153.912 152.66 152.712 152.66 151.352C152.66 149.992 152.956 148.792 153.548 147.752C154.156 146.712 154.98 145.912 156.02 145.352C157.06 144.776 158.22 144.488 159.5 144.488C160.78 144.488 161.94 144.776 162.98 145.352C164.02 145.912 164.836 146.712 165.428 147.752C166.036 148.792 166.34 149.992 166.34 151.352C166.34 152.712 166.028 153.912 165.404 154.952C164.796 155.992 163.964 156.8 162.908 157.376C161.868 157.936 160.7 158.216 159.404 158.216ZM159.404 155.288C160.012 155.288 160.58 155.144 161.108 154.856C161.652 154.552 162.084 154.104 162.404 153.512C162.724 152.92 162.884 152.2 162.884 151.352C162.884 150.088 162.548 149.12 161.876 148.448C161.22 147.76 160.412 147.416 159.452 147.416C158.492 147.416 157.684 147.76 157.028 148.448C156.388 149.12 156.068 150.088 156.068 151.352C156.068 152.616 156.38 153.592 157.004 154.28C157.644 154.952 158.444 155.288 159.404 155.288ZM186.883 151.064C186.883 151.544 186.851 151.976 186.787 152.36H177.067C177.147 153.32 177.483 154.072 178.075 154.616C178.667 155.16 179.395 155.432 180.259 155.432C181.507 155.432 182.395 154.896 182.923 153.824H186.547C186.163 155.104 185.427 156.16 184.339 156.992C183.251 157.808 181.915 158.216 180.331 158.216C179.051 158.216 177.899 157.936 176.875 157.376C175.867 156.8 175.075 155.992 174.499 154.952C173.939 153.912 173.659 152.712 173.659 151.352C173.659 149.976 173.939 148.768 174.499 147.728C175.059 146.688 175.843 145.888 176.851 145.328C177.859 144.768 179.019 144.488 180.331 144.488C181.595 144.488 182.723 144.76 183.715 145.304C184.723 145.848 185.499 146.624 186.043 147.632C186.603 148.624 186.883 149.768 186.883 151.064ZM183.403 150.104C183.387 149.24 183.075 148.552 182.467 148.04C181.859 147.512 181.115 147.248 180.235 147.248C179.403 147.248 178.699 147.504 178.123 148.016C177.563 148.512 177.219 149.208 177.091 150.104H183.403ZM194.424 158.216C193.336 158.216 192.36 158.024 191.496 157.64C190.632 157.24 189.944 156.704 189.432 156.032C188.936 155.36 188.664 154.616 188.616 153.8H192C192.064 154.312 192.312 154.736 192.744 155.072C193.192 155.408 193.744 155.576 194.4 155.576C195.04 155.576 195.536 155.448 195.888 155.192C196.256 154.936 196.44 154.608 196.44 154.208C196.44 153.776 196.216 153.456 195.768 153.248C195.336 153.024 194.64 152.784 193.68 152.528C192.688 152.288 191.872 152.04 191.232 151.784C190.608 151.528 190.064 151.136 189.6 150.608C189.152 150.08 188.928 149.368 188.928 148.472C188.928 147.736 189.136 147.064 189.552 146.456C189.984 145.848 190.592 145.368 191.376 145.016C192.176 144.664 193.112 144.488 194.184 144.488C195.768 144.488 197.032 144.888 197.976 145.688C198.92 146.472 199.44 147.536 199.536 148.88H196.32C196.272 148.352 196.048 147.936 195.648 147.632C195.264 147.312 194.744 147.152 194.088 147.152C193.48 147.152 193.008 147.264 192.672 147.488C192.352 147.712 192.192 148.024 192.192 148.424C192.192 148.872 192.416 149.216 192.864 149.456C193.312 149.68 194.008 149.912 194.952 150.152C195.912 150.392 196.704 150.64 197.328 150.896C197.952 151.152 198.488 151.552 198.936 152.096C199.4 152.624 199.64 153.328 199.656 154.208C199.656 154.976 199.44 155.664 199.008 156.272C198.592 156.88 197.984 157.36 197.184 157.712C196.4 158.048 195.48 158.216 194.424 158.216ZM206.326 147.464V153.896C206.326 154.344 206.43 154.672 206.638 154.88C206.862 155.072 207.23 155.168 207.742 155.168H209.302V158H207.19C204.358 158 202.942 156.624 202.942 153.872V147.464H201.358V144.704H202.942V141.416H206.326V144.704H209.302V147.464H206.326ZM224.271 144.704V158H220.887V156.32C220.455 156.896 219.887 157.352 219.183 157.688C218.495 158.008 217.743 158.168 216.927 158.168C215.887 158.168 214.967 157.952 214.167 157.52C213.367 157.072 212.735 156.424 212.271 155.576C211.823 154.712 211.599 153.688 211.599 152.504V144.704H214.959V152.024C214.959 153.08 215.223 153.896 215.751 154.472C216.279 155.032 216.999 155.312 217.911 155.312C218.839 155.312 219.567 155.032 220.095 154.472C220.623 153.896 220.887 153.08 220.887 152.024V144.704H224.271ZM233.682 147.464H231.354V158H227.946V147.464H226.434V144.704H227.946V144.032C227.946 142.4 228.41 141.2 229.338 140.432C230.266 139.664 231.666 139.304 233.538 139.352V142.184C232.722 142.168 232.154 142.304 231.834 142.592C231.514 142.88 231.354 143.4 231.354 144.152V144.704H233.682V147.464ZM234.995 151.304C234.995 149.96 235.259 148.768 235.787 147.728C236.331 146.688 237.059 145.888 237.971 145.328C238.899 144.768 239.931 144.488 241.067 144.488C242.059 144.488 242.923 144.688 243.659 145.088C244.411 145.488 245.011 145.992 245.459 146.6V144.704H248.843V158H245.459V156.056C245.027 156.68 244.427 157.2 243.659 157.616C242.907 158.016 242.035 158.216 241.043 158.216C239.923 158.216 238.899 157.928 237.971 157.352C237.059 156.776 236.331 155.968 235.787 154.928C235.259 153.872 234.995 152.664 234.995 151.304ZM245.459 151.352C245.459 150.536 245.299 149.84 244.979 149.264C244.659 148.672 244.227 148.224 243.683 147.92C243.139 147.6 242.555 147.44 241.931 147.44C241.307 147.44 240.731 147.592 240.203 147.896C239.675 148.2 239.243 148.648 238.907 149.24C238.587 149.816 238.427 150.504 238.427 151.304C238.427 152.104 238.587 152.808 238.907 153.416C239.243 154.008 239.675 154.464 240.203 154.784C240.747 155.104 241.323 155.264 241.931 155.264C242.555 155.264 243.139 155.112 243.683 154.808C244.227 154.488 244.659 154.04 244.979 153.464C245.299 152.872 245.459 152.168 245.459 151.352Z" fill="white"/>
<mask id="mask0_369_13731" style="mask-type:luminance" maskUnits="userSpaceOnUse" x="128" y="22" width="80" height="80">
<path d="M128 22H208V102H128V22Z" fill="white"/>
</mask>
<g mask="url(#mask0_369_13731)">
<path d="M168 22C145.942 22 128 39.9458 128 62C128 84.0583 145.942 102 168 102C190.054 102 208 84.0583 208 62C208 39.9458 190.054 22 168 22ZM145.333 76.6667C145.333 72.8667 146.283 69.2917 147.942 66.1417C148.646 66.4417 149.333 66.7667 149.996 67.1542C151.758 68.1792 151.996 68.7125 152.004 68.7167C151.963 68.825 151.667 69.1167 151.45 69.325C150.838 69.9208 150.004 70.7333 149.421 72.1917C148.925 73.475 148.292 75.8792 149.633 77.5083C150.308 78.3417 151.142 78.5167 151.696 78.6333C152.108 78.7208 152.221 78.7542 152.333 78.8792C152.775 79.3833 152.75 80.5833 152.288 81.1708C152.067 81.45 151.758 81.5125 150.942 81.6083C150.337 81.6833 149.588 81.775 148.804 82.1083C147.942 82.4833 147.192 83.1 146.546 83.9208C145.771 81.6417 145.333 79.2042 145.333 76.6667ZM149.854 84.5583C150.288 84.375 150.763 84.3208 151.267 84.2583C152.242 84.1417 153.458 83.9917 154.379 82.825C155.654 81.2125 155.633 78.5958 154.329 77.1167C153.617 76.3125 152.792 76.1375 152.246 76.025C151.825 75.9375 151.767 75.9083 151.696 75.8208C151.367 75.425 151.454 74.325 151.904 73.1625C152.267 72.25 152.796 71.7333 153.308 71.2375C153.938 70.625 154.713 69.8708 154.667 68.625C154.625 67.3292 153.596 66.1625 151.333 64.85C150.683 64.4708 150.017 64.1417 149.333 63.8333C150.646 61.9292 152.25 60.2458 154.071 58.825C154.929 59.6667 155.888 60.2667 156.925 60.6042C157.592 60.8167 158.208 60.9042 158.796 60.9042C159.992 60.9042 161.071 60.55 162.188 60.1833C163.763 59.6625 165.392 59.1292 167.892 59.3292C169.392 59.45 170.267 59.7625 171.113 60.0667C172.108 60.425 173.142 60.8 174.775 60.6625C176.863 60.4917 178.879 59.5833 180.779 57.9667C181.875 58.7167 182.904 59.5625 183.85 60.4917C182.563 61.0792 181.746 61.875 181.4 62.9083C181.096 63.8083 181.263 64.5958 181.4 65.2333C181.529 65.8417 181.621 66.2833 181.408 66.8917C181.125 67.6917 180.438 68.5792 179.792 68.6833C179.346 68.7542 178.863 68.35 178.133 67.6667C177.233 66.8292 176.108 65.7875 174.479 66.0125C173.067 66.2083 172.463 67.2667 171.979 68.1125C171.538 68.8875 171.121 69.6167 170.071 70.1417C168.896 70.7292 167.721 70.8042 166.775 70.8667C165.717 70.9333 164.4 71.0208 164.05 72.3042C163.675 73.625 164.829 74.3583 165.667 74.8917C166.504 75.425 167.542 76.0875 168.146 77.275C168.6 78.1625 168.608 78.9458 168.621 79.7708C168.633 80.8042 168.646 82.0917 169.825 83.0375C170.579 83.6458 171.538 83.9 172.5 83.9C173.529 83.9 174.563 83.6083 175.346 83.1458C176.85 82.2542 177.446 80.8 177.925 79.6333C178.367 78.5583 178.604 78.075 179.05 77.9417C179.271 77.875 179.504 77.925 179.708 77.9667C180.471 78.1375 180.921 78.8375 181.588 79.9667C182.283 81.1458 183.15 82.6125 184.875 83.2542C186.038 83.675 186.996 83.5167 188.229 83.3125C188.75 83.2208 189.263 83.0833 189.767 82.9208C188.479 87.3917 185.867 91.3042 182.363 94.1833C181.833 93.8833 181.358 93.5458 181.008 93.1292C180.433 92.4625 180.071 91.6667 179.75 90.9625C179.258 89.8833 178.7 88.6667 177.342 88.6667H177.313C176.025 88.6833 175.521 89.8333 175.154 90.675C174.85 91.375 174.471 92.2458 173.683 93.0958C171.846 95.0958 169.329 95.325 169.2 95.3375C168.6 95.3958 166.525 95.4958 164.767 94.2417C164.079 93.7583 163.763 93.2958 163.458 92.85C163.088 92.3083 162.629 91.6375 161.675 91.3792C159.9 90.9 157.983 92.2208 155.546 95.5833C152.283 93.4292 149.621 90.4542 147.829 86.9583C148.379 85.7292 149.054 84.9042 149.854 84.5583ZM156.333 57.2708C159.746 55.2083 163.729 54 168 54C171.713 54 175.208 54.9167 178.304 56.5042C177.075 57.3875 175.817 57.9 174.554 58.0042C173.5 58.0917 172.908 57.8792 172.013 57.5583C171.1 57.2292 169.958 56.8208 168.104 56.6708C165.071 56.425 163.013 57.1042 161.354 57.6458C159.896 58.125 158.929 58.4458 157.742 58.0667C157.242 57.9042 156.775 57.6333 156.333 57.2708ZM190.429 79.7708C189.571 80.2125 188.679 80.525 187.767 80.6875C186.675 80.8708 186.271 80.925 185.796 80.75C184.963 80.4417 184.463 79.5917 183.883 78.6125C183.138 77.3542 182.217 75.7917 180.246 75.3583C179.917 75.2875 179.158 75.125 178.292 75.3875C176.579 75.8875 175.958 77.4042 175.458 78.6208C175.067 79.5833 174.725 80.4167 173.988 80.85C173.133 81.3542 171.95 81.325 171.5 80.9583C171.333 80.825 171.296 80.6208 171.283 79.7375C171.271 78.7958 171.258 77.5042 170.517 76.0583C169.9 74.8458 169.033 74.0167 168.229 73.4125C169.125 73.2958 170.179 73.0667 171.258 72.525C173.033 71.6375 173.792 70.3125 174.292 69.4375C174.488 69.0958 174.733 68.6708 174.842 68.6542C175.183 68.6083 175.654 69.0042 176.313 69.6167C177.213 70.45 178.433 71.6 180.208 71.3167C182.013 71.025 183.371 69.3292 183.925 67.7708C184.379 66.4583 184.167 65.4292 184.004 64.6792C183.908 64.225 183.858 63.9583 183.929 63.7542C184.067 63.3375 184.742 62.9333 185.754 62.6208C188.821 66.4875 190.663 71.3583 190.663 76.6667C190.663 77.7208 190.567 78.75 190.425 79.7667L190.429 79.7708ZM157.871 96.9167C160.038 93.9875 160.95 93.95 160.938 93.9292C161 93.9833 161.15 94.1958 161.254 94.3542C161.613 94.875 162.146 95.6583 163.225 96.4167C165.667 98.1583 168.4 98.0958 169.442 97.9917C169.813 97.9625 173.154 97.6125 175.642 94.9042C176.533 93.9417 177.042 92.9708 177.392 92.2167C177.742 92.9792 178.217 93.975 178.979 94.8583C179.288 95.2208 179.642 95.5417 180.025 95.8458C176.533 98.0417 172.421 99.3333 168 99.3333C164.358 99.3333 160.925 98.45 157.871 96.9125V96.9167ZM185.438 94.9958C190.288 90.3792 193.333 83.8792 193.333 76.6667C193.333 62.6958 181.967 51.3333 168 51.3333C154.029 51.3333 142.667 62.6958 142.667 76.6667C142.667 83.8792 145.708 90.3792 150.563 94.9958C138.737 88.725 130.667 76.2917 130.667 62C130.667 41.4167 147.413 24.6667 168 24.6667C188.583 24.6667 205.333 41.4167 205.333 62C205.333 76.2917 197.258 88.725 185.438 94.9958Z" fill="white"/>
</g>
<path d="M202.275 52.2749L200.388 50.3916L193.333 57.4499V53.9999H190.667V60.6666C190.667 61.4041 191.263 61.9999 192 61.9999H198.667V59.3333H195.217L202.275 52.2749Z" fill="white"/>
<path d="M142.667 53.9997V51.333H136C135.263 51.333 134.667 51.9288 134.667 52.6663V59.333H137.333V55.8872L144.388 62.9413L146.275 61.058L139.217 53.9997H142.667Z" fill="white"/>
<path d="M176.888 31.333C176.525 31.333 176.163 31.358 175.783 31.3997C174.492 28.958 171.475 27.333 168 27.333C164.525 27.333 161.504 28.958 160.217 31.3997C159.838 31.3538 159.471 31.333 159.113 31.333C154.454 31.333 150.667 34.3247 150.667 37.9997C150.667 41.6747 154.454 44.6663 159.113 44.6663V41.9997C155.979 41.9997 153.333 40.1663 153.333 37.9997C153.333 35.833 155.979 33.9997 159.113 33.9997C159.617 33.9997 160.142 34.0622 160.771 34.1955C161.454 34.3413 162.138 33.9288 162.329 33.2538C162.863 31.3663 165.246 29.9997 168 29.9997C170.75 29.9997 173.138 31.3663 173.671 33.2538C173.858 33.9288 174.546 34.3413 175.229 34.1955C175.854 34.0622 176.383 33.9997 176.888 33.9997C180.021 33.9997 182.667 35.833 182.667 37.9997C182.667 40.1663 180.021 41.9997 176.888 41.9997V44.6663C181.542 44.6663 185.333 41.6747 185.333 37.9997C185.333 34.3247 181.542 31.333 176.888 31.333Z" fill="white"/>
<path d="M166.667 36.667H169.333V46.0003H166.667V36.667Z" fill="white"/>
<path d="M170.717 48.3001L173.383 38.9668L175.946 39.7001L173.279 49.0335L170.717 48.3001Z" fill="white"/>
<path d="M160.05 39.7001L162.613 38.9668L165.279 48.3001L162.717 49.0335L160.05 39.7001Z" fill="white"/>
</svg>
