<svg width="336" height="231" viewBox="0 0 336 231" fill="none" xmlns="http://www.w3.org/2000/svg">
<rect width="336" height="231" rx="10" fill="#717171"/>
<path d="M112.136 174.952L109.592 171.904C108.888 172.08 108.168 172.168 107.432 172.168C105.864 172.168 104.424 171.8 103.112 171.064C101.8 170.328 100.76 169.312 99.992 168.016C99.224 166.704 98.84 165.224 98.84 163.576C98.84 161.944 99.224 160.48 99.992 159.184C100.76 157.872 101.8 156.848 103.112 156.112C104.424 155.376 105.864 155.008 107.432 155.008C109.016 155.008 110.456 155.376 111.752 156.112C113.064 156.848 114.096 157.872 114.848 159.184C115.616 160.48 116 161.944 116 163.576C116 165.064 115.68 166.424 115.04 167.656C114.416 168.872 113.56 169.864 112.472 170.632L116.312 174.952H112.136ZM102.296 163.576C102.296 164.696 102.512 165.68 102.944 166.528C103.376 167.376 103.976 168.032 104.744 168.496C105.528 168.944 106.424 169.168 107.432 169.168C108.44 169.168 109.328 168.944 110.096 168.496C110.864 168.032 111.464 167.376 111.896 166.528C112.328 165.68 112.544 164.696 112.544 163.576C112.544 162.456 112.328 161.48 111.896 160.648C111.464 159.8 110.864 159.152 110.096 158.704C109.328 158.256 108.44 158.032 107.432 158.032C106.424 158.032 105.528 158.256 104.744 158.704C103.976 159.152 103.376 159.8 102.944 160.648C102.512 161.48 102.296 162.456 102.296 163.576ZM131.099 158.704V172H127.715V170.32C127.283 170.896 126.715 171.352 126.011 171.688C125.323 172.008 124.571 172.168 123.755 172.168C122.715 172.168 121.795 171.952 120.995 171.52C120.195 171.072 119.563 170.424 119.099 169.576C118.651 168.712 118.427 167.688 118.427 166.504V158.704H121.787V166.024C121.787 167.08 122.051 167.896 122.579 168.472C123.107 169.032 123.827 169.312 124.739 169.312C125.667 169.312 126.395 169.032 126.923 168.472C127.451 167.896 127.715 167.08 127.715 166.024V158.704H131.099ZM146.774 165.064C146.774 165.544 146.742 165.976 146.678 166.36H136.958C137.038 167.32 137.374 168.072 137.966 168.616C138.558 169.16 139.286 169.432 140.15 169.432C141.398 169.432 142.286 168.896 142.814 167.824H146.438C146.054 169.104 145.318 170.16 144.23 170.992C143.142 171.808 141.806 172.216 140.222 172.216C138.942 172.216 137.79 171.936 136.766 171.376C135.758 170.8 134.966 169.992 134.39 168.952C133.83 167.912 133.55 166.712 133.55 165.352C133.55 163.976 133.83 162.768 134.39 161.728C134.95 160.688 135.734 159.888 136.742 159.328C137.75 158.768 138.91 158.488 140.222 158.488C141.486 158.488 142.614 158.76 143.606 159.304C144.614 159.848 145.39 160.624 145.934 161.632C146.494 162.624 146.774 163.768 146.774 165.064ZM143.294 164.104C143.278 163.24 142.966 162.552 142.358 162.04C141.75 161.512 141.006 161.248 140.126 161.248C139.294 161.248 138.59 161.504 138.014 162.016C137.454 162.512 137.11 163.208 136.982 164.104H143.294ZM150.93 157.12C150.338 157.12 149.842 156.936 149.442 156.568C149.058 156.184 148.866 155.712 148.866 155.152C148.866 154.592 149.058 154.128 149.442 153.76C149.842 153.376 150.338 153.184 150.93 153.184C151.522 153.184 152.01 153.376 152.394 153.76C152.794 154.128 152.994 154.592 152.994 155.152C152.994 155.712 152.794 156.184 152.394 156.568C152.01 156.936 151.522 157.12 150.93 157.12ZM152.586 158.704V172H149.226V158.704H152.586ZM172.418 158.512C174.05 158.512 175.362 159.016 176.354 160.024C177.362 161.016 177.866 162.408 177.866 164.2V172H174.506V164.656C174.506 163.616 174.242 162.824 173.714 162.28C173.186 161.72 172.466 161.44 171.554 161.44C170.642 161.44 169.914 161.72 169.37 162.28C168.842 162.824 168.578 163.616 168.578 164.656V172H165.218V164.656C165.218 163.616 164.954 162.824 164.426 162.28C163.898 161.72 163.178 161.44 162.266 161.44C161.338 161.44 160.602 161.72 160.058 162.28C159.53 162.824 159.266 163.616 159.266 164.656V172H155.906V158.704H159.266V160.312C159.698 159.752 160.25 159.312 160.922 158.992C161.61 158.672 162.362 158.512 163.178 158.512C164.218 158.512 165.146 158.736 165.962 159.184C166.778 159.616 167.41 160.24 167.858 161.056C168.29 160.288 168.914 159.672 169.73 159.208C170.562 158.744 171.458 158.512 172.418 158.512ZM180.19 165.304C180.19 163.96 180.454 162.768 180.982 161.728C181.526 160.688 182.254 159.888 183.166 159.328C184.094 158.768 185.126 158.488 186.262 158.488C187.254 158.488 188.118 158.688 188.854 159.088C189.606 159.488 190.206 159.992 190.654 160.6V158.704H194.038V172H190.654V170.056C190.222 170.68 189.622 171.2 188.854 171.616C188.102 172.016 187.23 172.216 186.238 172.216C185.118 172.216 184.094 171.928 183.166 171.352C182.254 170.776 181.526 169.968 180.982 168.928C180.454 167.872 180.19 166.664 180.19 165.304ZM190.654 165.352C190.654 164.536 190.494 163.84 190.174 163.264C189.854 162.672 189.422 162.224 188.878 161.92C188.334 161.6 187.75 161.44 187.126 161.44C186.502 161.44 185.926 161.592 185.398 161.896C184.87 162.2 184.438 162.648 184.102 163.24C183.782 163.816 183.622 164.504 183.622 165.304C183.622 166.104 183.782 166.808 184.102 167.416C184.438 168.008 184.87 168.464 185.398 168.784C185.942 169.104 186.518 169.264 187.126 169.264C187.75 169.264 188.334 169.112 188.878 168.808C189.422 168.488 189.854 168.04 190.174 167.464C190.494 166.872 190.654 166.168 190.654 165.352ZM196.456 165.304C196.456 163.96 196.72 162.768 197.248 161.728C197.792 160.688 198.528 159.888 199.456 159.328C200.384 158.768 201.416 158.488 202.552 158.488C203.416 158.488 204.24 158.68 205.024 159.064C205.808 159.432 206.432 159.928 206.896 160.552V154.24H210.304V172H206.896V170.032C206.48 170.688 205.896 171.216 205.144 171.616C204.392 172.016 203.52 172.216 202.528 172.216C201.408 172.216 200.384 171.928 199.456 171.352C198.528 170.776 197.792 169.968 197.248 168.928C196.72 167.872 196.456 166.664 196.456 165.304ZM206.92 165.352C206.92 164.536 206.76 163.84 206.44 163.264C206.12 162.672 205.688 162.224 205.144 161.92C204.6 161.6 204.016 161.44 203.392 161.44C202.768 161.44 202.192 161.592 201.664 161.896C201.136 162.2 200.704 162.648 200.368 163.24C200.048 163.816 199.888 164.504 199.888 165.304C199.888 166.104 200.048 166.808 200.368 167.416C200.704 168.008 201.136 168.464 201.664 168.784C202.208 169.104 202.784 169.264 203.392 169.264C204.016 169.264 204.6 169.112 205.144 168.808C205.688 168.488 206.12 168.04 206.44 167.464C206.76 166.872 206.92 166.168 206.92 165.352ZM212.722 165.304C212.722 163.96 212.986 162.768 213.514 161.728C214.058 160.688 214.786 159.888 215.698 159.328C216.626 158.768 217.658 158.488 218.794 158.488C219.786 158.488 220.65 158.688 221.386 159.088C222.138 159.488 222.738 159.992 223.186 160.6V158.704H226.57V172H223.186V170.056C222.754 170.68 222.154 171.2 221.386 171.616C220.634 172.016 219.762 172.216 218.77 172.216C217.65 172.216 216.626 171.928 215.698 171.352C214.786 170.776 214.058 169.968 213.514 168.928C212.986 167.872 212.722 166.664 212.722 165.304ZM223.186 165.352C223.186 164.536 223.026 163.84 222.706 163.264C222.386 162.672 221.954 162.224 221.41 161.92C220.866 161.6 220.282 161.44 219.658 161.44C219.034 161.44 218.458 161.592 217.93 161.896C217.402 162.2 216.97 162.648 216.634 163.24C216.314 163.816 216.154 164.504 216.154 165.304C216.154 166.104 216.314 166.808 216.634 167.416C216.97 168.008 217.402 168.464 217.93 168.784C218.474 169.104 219.05 169.264 219.658 169.264C220.282 169.264 220.866 169.112 221.41 168.808C221.954 168.488 222.386 168.04 222.706 167.464C223.026 166.872 223.186 166.168 223.186 165.352ZM234.939 172.216C233.851 172.216 232.875 172.024 232.011 171.64C231.147 171.24 230.459 170.704 229.947 170.032C229.451 169.36 229.179 168.616 229.131 167.8H232.515C232.579 168.312 232.827 168.736 233.259 169.072C233.707 169.408 234.259 169.576 234.915 169.576C235.555 169.576 236.051 169.448 236.403 169.192C236.771 168.936 236.955 168.608 236.955 168.208C236.955 167.776 236.731 167.456 236.283 167.248C235.851 167.024 235.155 166.784 234.195 166.528C233.203 166.288 232.387 166.04 231.747 165.784C231.123 165.528 230.579 165.136 230.115 164.608C229.667 164.08 229.443 163.368 229.443 162.472C229.443 161.736 229.651 161.064 230.067 160.456C230.499 159.848 231.107 159.368 231.891 159.016C232.691 158.664 233.627 158.488 234.699 158.488C236.283 158.488 237.547 158.888 238.491 159.688C239.435 160.472 239.955 161.536 240.051 162.88H236.835C236.787 162.352 236.563 161.936 236.163 161.632C235.779 161.312 235.259 161.152 234.603 161.152C233.995 161.152 233.523 161.264 233.187 161.488C232.867 161.712 232.707 162.024 232.707 162.424C232.707 162.872 232.931 163.216 233.379 163.456C233.827 163.68 234.523 163.912 235.467 164.152C236.427 164.392 237.219 164.64 237.843 164.896C238.467 165.152 239.003 165.552 239.451 166.096C239.915 166.624 240.155 167.328 240.171 168.208C240.171 168.976 239.955 169.664 239.523 170.272C239.107 170.88 238.499 171.36 237.699 171.712C236.915 172.048 235.995 172.216 234.939 172.216Z" fill="white"/>
<path d="M138.916 81.531C140.2 85.9462 142.227 89.6461 148.533 91.9413C148.533 89.9479 148.687 88.4128 148.513 86.9075C147.924 81.7769 145.896 76.5121 146.793 71.5379C148.801 60.4978 157.501 52.3528 169.756 46C169.563 49.1708 168.859 51.9504 169.335 54.6033C170.366 60.3413 175.586 64.0971 181.342 67.4952C189.542 72.3278 195.431 78.4049 198.282 85.9462C202.124 96.0995 199.734 105.176 188.971 112.49C187.707 113.336 186.18 113.951 184.455 114.51C187.499 108.917 188.243 103.339 186.314 97.262C184.287 99.2964 182.507 101.104 180.712 102.911C180.291 102.78 179.889 102.668 179.468 102.538C179.468 100.817 179.18 99.0542 179.527 97.3626C180.96 90.1044 175.76 81.2291 167.119 77.3728C169.796 83.9119 164.477 87.4962 159.43 91.4272C149.698 98.9946 148.821 107.3 156.237 116C134.846 112.531 130.736 97.6197 138.916 81.531Z" fill="white"/>
</svg>
