<svg width="160" height="184" viewBox="0 0 160 184" fill="none" xmlns="http://www.w3.org/2000/svg">
<path d="M144.325 152.375C134.806 133.45 120.138 119.88 103.019 113.448C111.487 107.65 118.066 98.8172 121.745 88.3042C125.425 77.7911 126.002 66.1796 123.388 55.2529C120.774 44.3261 115.113 34.6883 107.275 27.8194C99.4369 20.9505 89.8548 17.2305 80.0002 17.2305C70.1457 17.2305 60.5635 20.9505 52.7254 27.8194C44.8872 34.6883 39.2264 44.3261 36.6124 55.2529C33.9983 66.1796 34.5754 77.7911 38.2551 88.3042C41.9349 98.8172 48.5138 107.65 56.9815 113.448C39.8627 119.873 25.194 133.443 15.6752 152.375C15.3262 153.03 15.0946 153.758 14.9943 154.517C14.8939 155.276 14.9268 156.051 15.091 156.795C15.2552 157.539 15.5473 158.238 15.9502 158.85C16.353 159.463 16.8585 159.976 17.4366 160.36C18.0148 160.744 18.654 160.991 19.3165 161.087C19.979 161.182 20.6515 161.124 21.2941 160.915C21.9368 160.707 22.5366 160.353 23.0583 159.874C23.5799 159.394 24.0129 158.8 24.3315 158.125C36.1065 134.723 56.919 120.75 80.0002 120.75C103.081 120.75 123.894 134.723 135.669 158.125C135.988 158.8 136.421 159.394 136.942 159.874C137.464 160.353 138.064 160.707 138.706 160.915C139.349 161.124 140.021 161.182 140.684 161.087C141.346 160.991 141.986 160.744 142.564 160.36C143.142 159.976 143.647 159.463 144.05 158.85C144.453 158.238 144.745 157.539 144.909 156.795C145.074 156.051 145.106 155.276 145.006 154.517C144.906 153.758 144.674 153.03 144.325 152.375ZM45.0002 69C45.0002 61.0393 47.0529 53.2574 50.8988 46.6383C54.7446 40.0192 60.2109 34.8603 66.6063 31.8139C73.0017 28.7674 80.0391 27.9704 86.8284 29.5234C93.6177 31.0765 99.8541 34.9099 104.749 40.539C109.644 46.168 112.977 53.3399 114.328 61.1476C115.678 68.9554 114.985 77.0483 112.336 84.403C109.687 91.7577 105.201 98.0439 99.4452 102.467C93.6895 106.889 86.9226 109.25 80.0002 109.25C70.7207 109.239 61.8241 104.994 55.2625 97.4485C48.7008 89.9026 45.0102 79.6715 45.0002 69Z" fill="#0F7668"/>
</svg>
