<svg width="100" height="100" viewBox="0 0 100 100" fill="none" xmlns="http://www.w3.org/2000/svg">
<mask id="mask0_50_5317" style="mask-type:luminance" maskUnits="userSpaceOnUse" x="0" y="0" width="100" height="100">
<path d="M0 0H100V100H0V0Z" fill="white"/>
</mask>
<g mask="url(#mask0_50_5317)">
<path d="M47.8455 58.0134C47.8577 58.2644 47.815 58.5094 47.7295 58.7421C47.6441 58.9748 47.5098 59.1892 47.3389 59.3668C47.168 59.5505 46.9727 59.6975 46.7407 59.7955C46.5149 59.8996 46.2769 59.9547 46.0266 59.9608C45.7703 59.9669 45.5261 59.9302 45.2881 59.8383C45.0562 59.7526 44.8426 59.6179 44.6594 59.4464C44.4763 59.2688 44.3299 59.0667 44.2261 58.834C44.1223 58.6074 44.0674 58.3624 44.0613 58.1052C44.0552 57.8541 44.0979 57.6092 44.1956 57.3703C44.2871 57.1376 44.4214 56.9233 44.5984 56.7395C44.7693 56.5619 44.9768 56.4211 45.2088 56.317C45.4407 56.219 45.6848 56.17 45.9412 56.1639C46.1853 56.1578 46.4295 56.2006 46.6614 56.2864C46.8933 56.3782 47.1009 56.513 47.284 56.6844C47.461 56.862 47.6013 57.0641 47.699 57.2907C47.7967 57.5234 47.8455 57.7623 47.8455 58.0134ZM55.8899 58.0562C55.896 57.8051 55.8472 57.5663 55.7556 57.3336C55.6641 57.1009 55.5298 56.8926 55.3528 56.715C55.1758 56.5374 54.9744 56.3966 54.7425 56.3047C54.5105 56.2067 54.2725 56.1578 54.0222 56.1639C53.772 56.1578 53.5279 56.2006 53.2959 56.2925C53.064 56.3843 52.8565 56.5191 52.6795 56.6906C52.4964 56.862 52.356 57.0641 52.2522 57.2907C52.1546 57.5234 52.0996 57.7623 52.0874 58.0134C52.0874 58.2706 52.1363 58.5216 52.2339 58.7605C52.3316 58.9993 52.4658 59.2137 52.6489 59.3974C52.8321 59.5811 53.0457 59.722 53.2837 59.82C53.5218 59.9179 53.7659 59.9669 54.0283 59.9669C54.2786 59.9608 54.5166 59.9118 54.7486 59.8138C54.9744 59.7158 55.1758 59.575 55.3528 59.3974C55.5298 59.2198 55.658 59.0116 55.7556 58.7789C55.8472 58.5461 55.8899 58.3073 55.8899 58.0562ZM52.6551 98.9283C51.0559 99.014 49.4507 99.014 47.8455 98.9405C46.2403 98.8609 44.6411 98.7078 43.0542 98.4751C41.4612 98.2424 39.8865 97.9301 38.3301 97.5442C36.7737 97.1523 35.2356 96.6869 33.7219 96.148C32.2083 95.609 30.7251 94.9966 29.2725 94.3046C27.8198 93.6187 26.4038 92.8655 25.0244 92.0387C23.645 91.212 22.3084 90.3178 21.0144 89.3625C19.7205 88.4071 18.4815 87.3844 17.2913 86.3066C16.095 85.2226 14.9597 84.0897 13.8794 82.8955C12.7991 81.7074 11.7798 80.4642 10.8155 79.1659C9.8572 77.8737 8.96609 76.5387 8.13601 75.1608C7.30593 73.7767 6.5491 72.3559 5.8594 70.9045C5.1697 69.447 4.55325 67.9588 4.01004 66.4462C3.46682 64.9274 2.99685 63.3903 2.60623 61.8225C2.2095 60.2609 1.89822 58.6809 1.65408 57.0886C1.41604 55.4964 1.25735 53.8918 1.17801 52.2873C1.09256 50.6767 1.09256 49.0661 1.1658 47.4554C1.24514 45.8448 1.39773 44.2403 1.62967 42.648C1.8616 41.0497 2.17288 39.4758 2.5635 37.908C2.94803 36.3464 3.41189 34.8031 3.949 33.2843C4.48611 31.7656 5.10257 30.2774 5.78616 28.8199C6.46975 27.3624 7.22049 25.9416 8.04446 24.5575C8.86843 23.1735 9.75955 21.8323 10.7117 20.534C11.6638 19.2357 12.6831 17.9925 13.7573 16.7983C14.8377 15.598 15.9668 14.4589 17.157 13.375C18.3472 12.291 19.5862 11.2683 20.874 10.3068C22.1619 9.33921 23.4925 8.4451 24.8719 7.61222C26.2451 6.78547 27.6612 6.01996 29.1077 5.32794C30.5603 4.63592 32.0435 4.01739 33.551 3.47235C35.0647 2.92731 36.6028 2.45575 38.1592 2.06381C39.7156 1.66575 41.2903 1.35342 42.8772 1.11458C44.4641 0.869619 46.0633 0.710393 47.6685 0.63078C49.2676 0.545042 50.8728 0.545043 52.4781 0.618532C54.0833 0.698144 55.6824 0.851247 57.2693 1.08396C58.8623 1.31668 60.437 1.629 61.9934 2.02094C63.5498 2.40676 65.0879 2.87219 66.6016 3.41111C68.1153 3.95615 69.5984 4.56856 71.051 5.25446C72.5037 5.94035 73.9197 6.69361 75.2991 7.52036C76.6785 8.34711 78.0152 9.24123 79.3091 10.1966C80.6031 11.1581 81.8421 12.1747 83.0322 13.2525C84.2285 14.3365 85.3638 15.4694 86.4441 16.6636C87.5244 17.8578 88.5437 19.101 89.5081 20.3932C90.4663 21.6853 91.3574 23.0204 92.1875 24.4044C93.0176 25.7823 93.7744 27.2031 94.4641 28.6607C95.1538 30.1121 95.7703 31.6002 96.3135 33.119C96.8567 34.6316 97.3267 36.1749 97.7173 37.7365C98.114 39.2982 98.4253 40.8782 98.6695 42.4705C98.9075 44.0627 99.0662 45.6672 99.1455 47.2779C99.2249 48.8885 99.231 50.493 99.1516 52.1036C99.0723 53.7143 98.9197 55.3188 98.6817 56.911C98.4497 58.5033 98.1385 60.0833 97.7478 61.6449C97.3633 63.2127 96.8994 64.7498 96.3562 66.2686C95.8191 67.7874 95.2088 69.2755 94.5252 70.7331C93.8355 72.1906 93.0847 73.6114 92.2608 74.9954C91.4368 76.3733 90.5457 77.7145 89.5935 79.0128C88.6414 80.305 87.6221 81.5543 86.5479 82.7485C85.4737 83.9427 84.3384 85.0818 83.1482 86.1718C81.9641 87.2558 80.7251 88.2785 79.4373 89.24C78.1494 90.2015 76.8189 91.1017 75.4395 91.9285C74.0662 92.7613 72.6563 93.5269 71.2036 94.2189C69.751 94.9109 68.2739 95.5294 66.7603 96.0745C65.2527 96.6195 63.7207 97.0911 62.1643 97.4891C60.6079 97.8872 59.0332 98.2056 57.4463 98.4445C55.8594 98.6833 54.2603 98.8487 52.6551 98.9283ZM17.2547 81.1868C19.4092 78.7801 26.178 71.3148 31.9336 64.9519C31.8421 63.2801 32.0801 61.6511 32.6538 60.071C33.2276 58.4972 34.0882 57.0947 35.2356 55.876C35.4981 55.527 35.6568 55.1412 35.7178 54.7125C35.9864 53.3713 36.1572 52.0056 36.4624 50.6767C36.6333 50.199 36.5418 49.7765 36.1878 49.409C34.0332 46.9839 32.2632 44.3015 30.8777 41.3681C29.4922 38.4286 28.5462 35.3543 28.0396 32.1453C27.7954 30.3264 27.8931 28.5321 28.3264 26.75C28.3936 26.4315 28.4973 26.1314 28.6316 25.8375C28.7659 25.5435 28.9307 25.2679 29.126 25.0107C29.3213 24.7535 29.5471 24.5208 29.7974 24.3187C30.0415 24.1105 30.3101 23.9329 30.6031 23.792C30.8899 23.645 31.189 23.5348 31.5003 23.4613C31.8176 23.3817 32.135 23.3388 32.4585 23.3388C32.7759 23.3327 33.0994 23.3633 33.4107 23.4307C33.7281 23.4981 34.0332 23.6022 34.3262 23.7369C36.9751 24.8637 39.1236 26.6213 40.7654 28.9975C43.4021 32.3412 45.3858 36.034 46.7224 40.0821C46.8384 40.425 46.9483 40.7006 47.0093 40.8904C49.0723 40.3454 51.1353 40.3454 53.1922 40.8904C53.2715 40.67 53.4058 40.2903 53.5401 39.9106C55.2307 34.6316 58.075 30.0692 62.0606 26.2233C63.2447 25.1393 64.5813 24.3064 66.0706 23.7124C67.0593 23.3021 68.0603 23.2654 69.0735 23.6022C74.5301 18.0293 76.5198 15.5919 78.1922 13.9139C77.0752 13.032 75.9217 12.2053 74.7315 11.4336C73.5352 10.662 72.3084 9.9455 71.051 9.29022C69.7876 8.62882 68.4998 8.03479 67.1875 7.50199C65.8692 6.96307 64.5325 6.49152 63.1714 6.08121C61.8103 5.67089 60.437 5.32795 59.0454 5.04624C57.6477 4.76453 56.25 4.55631 54.834 4.40321C53.4241 4.25623 52.0081 4.17662 50.586 4.15825C49.1699 4.146 47.7478 4.19499 46.3379 4.31747C44.9219 4.43383 43.512 4.61755 42.1143 4.86864C40.7166 5.11973 39.3372 5.43818 37.9639 5.81787C36.5967 6.19756 35.2478 6.64462 33.9234 7.15292C32.5989 7.66122 31.2989 8.23076 30.0232 8.86154C28.7476 9.48619 27.5086 10.1782 26.3001 10.9253C25.0916 11.6725 23.9197 12.4747 22.7844 13.3321C21.6492 14.1895 20.5567 15.0958 19.5069 16.0573C18.4632 17.0188 17.4561 18.0231 16.5039 19.0765C15.5457 20.136 14.6424 21.2322 13.794 22.3712C12.9395 23.5103 12.1399 24.6861 11.4014 25.8987C10.6568 27.1174 9.97317 28.3606 9.34451 29.6405C8.72195 30.9204 8.15432 32.2249 7.65383 33.5599C7.14724 34.8888 6.70779 36.2423 6.32937 37.6141C5.95095 38.992 5.63968 40.376 5.39553 41.7784C5.14529 43.1808 4.96219 44.5955 4.84622 46.0163C4.73025 47.4371 4.68142 48.8579 4.69973 50.2848C4.71804 51.7056 4.80349 53.1263 4.94998 54.5471C5.10257 55.9618 5.31619 57.3703 5.59695 58.7666C5.87771 60.1629 6.22561 61.5408 6.63455 62.9065C7.04959 64.266 7.51956 65.6133 8.05667 66.93C8.59378 68.2467 9.19192 69.5389 9.845 70.8065C10.5042 72.0681 11.2183 73.299 11.9873 74.4932C12.7625 75.6874 13.5865 76.8449 14.4654 77.9656C15.3443 79.0802 16.2781 80.158 17.2547 81.1868ZM54.4678 67.4628C53.7842 68.1793 53.064 68.853 52.3804 69.5756C52.0447 69.8267 51.9043 70.1635 51.9715 70.5799C52.0386 71.0025 52.2766 71.2781 52.6734 71.4128C53.5401 71.8599 54.4556 72.1416 55.4199 72.2579C56.3904 72.3804 57.3487 72.3192 58.2947 72.0926C59.2407 71.8599 60.1135 71.4679 60.9192 70.9229C61.7249 70.3717 62.4146 69.6981 62.9761 68.902C63.5437 68.1058 63.9527 67.2423 64.209 66.2931C64.4593 65.35 64.5386 64.3946 64.4409 63.4209C64.3433 62.4472 64.0808 61.5224 63.6414 60.6467C63.208 59.7771 62.6343 59.0055 61.9202 58.3441C61.4746 57.9766 61.1389 57.5357 60.9131 57.0029C60.6812 56.4762 60.5896 55.925 60.6262 55.3555C60.6446 54.6512 60.5896 53.9531 60.4676 53.2672C60.3394 52.5752 60.1502 51.9015 59.8938 51.2463C59.6375 50.5971 59.3201 49.9724 58.9417 49.3845C58.5572 48.7966 58.1238 48.2516 57.6355 47.7494C57.1472 47.2411 56.6101 46.794 56.0364 46.4021C55.4566 46.004 54.8462 45.6672 54.1992 45.3978C53.5523 45.1222 52.887 44.9201 52.2034 44.7792C51.5198 44.6384 50.824 44.5649 50.1282 44.5649C49.4263 44.5649 48.7305 44.6322 48.0469 44.7731C47.3633 44.9078 46.6919 45.1099 46.051 45.3855C45.4041 45.655 44.7876 45.9857 44.2139 46.3776C43.6341 46.7757 43.0969 47.2227 42.6026 47.7188C42.1143 48.221 41.6809 48.766 41.2964 49.3539C40.9119 49.9418 40.5945 50.5604 40.3321 51.2156C40.0757 51.8648 39.8804 52.5384 39.7583 53.2304C39.6301 53.9225 39.5752 54.6145 39.5874 55.3188C39.6363 55.8944 39.5447 56.4456 39.3189 56.9723C39.0991 57.5051 38.7635 57.9521 38.324 58.3196C37.6099 58.9748 37.0362 59.7342 36.5967 60.5977C36.1572 61.4612 35.8887 62.3737 35.7788 63.3413C35.6751 64.3028 35.7422 65.252 35.9802 66.1951C36.2183 67.1321 36.6089 68.0017 37.1643 68.7917C37.7136 69.6001 38.3911 70.2799 39.1846 70.8433C39.9842 71.4006 40.857 71.8048 41.7969 72.0559C42.7368 72.3008 43.6951 72.3743 44.6656 72.2763C45.6299 72.1783 46.5515 71.9089 47.4243 71.4802C48.407 70.9841 48.523 70.2615 47.7356 69.4531C47.0642 68.7672 46.3684 68.1058 45.7154 67.4138C45.5078 67.2362 45.3491 67.028 45.2332 66.7891C45.1172 66.5442 45.0501 66.2931 45.0379 66.0236C45.0318 65.7542 45.0745 65.497 45.1721 65.2459C45.2698 64.9948 45.4102 64.7743 45.6055 64.5845C45.7947 64.4008 46.0144 64.2538 46.2647 64.1558C46.5149 64.0639 46.7713 64.0211 47.0398 64.0333C47.3084 64.0456 47.5586 64.1068 47.7967 64.2293C48.0408 64.3456 48.2483 64.511 48.4192 64.7131C48.9624 65.2459 49.4507 65.8338 50.1038 66.5503C50.7813 65.8154 51.2512 65.2581 51.7761 64.7376C51.947 64.5294 52.1546 64.3579 52.3987 64.2354C52.6428 64.1129 52.8992 64.0456 53.1739 64.0272C53.4485 64.0149 53.711 64.0578 53.9612 64.1558C54.2176 64.2599 54.4373 64.4008 54.6326 64.5967C54.8218 64.7927 54.9683 65.0193 55.0659 65.2704C55.1636 65.5276 55.2002 65.7909 55.188 66.0665C55.1697 66.336 55.1026 66.5993 54.9744 66.8381C54.8523 67.0831 54.6814 67.2913 54.4678 67.4628ZM38.4644 46.3164L43.3716 42.152C43.1763 41.5947 42.9383 40.8047 42.6392 40.0453C41.1255 35.8258 38.7696 32.1514 35.5713 29.022C34.9365 28.4402 34.2407 27.9441 33.4839 27.5277C32.4402 26.952 31.9641 27.2154 31.7749 28.4035C31.6712 29.071 31.6406 29.7385 31.6895 30.406C32.1289 34.7419 33.5205 38.7409 35.8582 42.4153C36.6699 43.7994 37.6465 45.0977 38.4644 46.3164ZM61.9507 45.9673C65.0879 42.0356 67.1814 37.6018 68.2312 32.6781C68.4754 31.2573 68.5364 29.8304 68.4204 28.3973C68.3472 27.2093 67.7735 26.9582 66.7298 27.5338C66.0279 27.9074 65.3748 28.3667 64.7827 28.8995C60.9864 32.6229 58.3313 37.0384 56.8238 42.1459L61.7554 46.3225C61.8103 46.1939 61.8714 46.0775 61.9507 45.9673ZM95.5628 47.4616C95.3614 43.4993 94.6594 39.635 93.451 35.8565C92.2302 32.1085 90.5579 28.5749 88.44 25.2496C86.3159 21.9303 83.8135 18.9295 80.9326 16.2472C78.8574 18.2987 76.7334 20.7912 71.637 26.0028C71.7407 26.211 71.8323 26.4193 71.9116 26.6336C72.4732 28.4463 72.5708 30.2774 72.2107 32.1391C71.6736 35.3298 70.7215 38.3796 69.3421 41.3008C67.9627 44.2219 66.211 46.9043 64.093 49.3355C63.6841 49.7397 63.5742 50.2174 63.7696 50.7624C64.0991 52.0608 64.2273 53.3958 64.4898 54.7064C64.563 55.1657 64.7461 55.576 65.0269 55.9434C65.7532 56.7212 66.3697 57.5724 66.864 58.5155C67.3645 59.4525 67.7368 60.4385 67.9688 61.4735C68.2068 62.5145 68.3045 63.5618 68.2678 64.6273C68.2251 65.6868 68.0481 66.7279 67.7307 67.7384C67.4134 68.755 66.9739 69.7103 66.4002 70.6106C65.8325 71.5047 65.1551 72.3131 64.3738 73.0296C63.5926 73.7461 62.7259 74.3463 61.7859 74.8362C60.8399 75.32 59.8511 75.6752 58.8135 75.8956C57.4463 76.1957 56.0669 76.2508 54.6814 76.0549C53.2898 75.8589 51.9776 75.4302 50.7447 74.7627C50.3174 74.5851 49.8963 74.5851 49.469 74.7627C48.7488 75.1485 47.9981 75.4547 47.2168 75.6874C46.4295 75.914 45.636 76.061 44.8242 76.1284C44.0064 76.1957 43.1946 76.1774 42.3889 76.0794C41.5772 75.9753 40.7898 75.7915 40.0147 75.5343C39.2456 75.271 38.5071 74.928 37.8052 74.5116C37.0972 74.1013 36.4441 73.6175 35.8399 73.0663C35.2356 72.5213 34.6924 71.915 34.2102 71.2536C33.7342 70.5922 33.3252 69.8879 32.9834 69.1469L19.8242 83.6977C21.4844 85.1981 23.2422 86.5638 25.1038 87.807C26.9654 89.044 28.9063 90.1402 30.9265 91.0895C32.9468 92.0387 35.0281 92.8348 37.1704 93.4779C39.3067 94.1209 41.4795 94.6047 43.689 94.9293C45.8985 95.2477 48.1201 95.4069 50.354 95.3947C52.5879 95.3886 54.8096 95.2171 57.013 94.8803C59.2224 94.5434 61.3953 94.0474 63.5315 93.3921C65.6616 92.7368 67.7368 91.9223 69.7571 90.9609C71.7713 89.9933 73.7061 88.8909 75.5554 87.6355C77.4109 86.3862 79.1626 85.0083 80.8106 83.4956C82.4585 81.9891 83.9905 80.3662 85.4004 78.627C86.8103 76.8939 88.0921 75.0628 89.2334 73.1398C90.3748 71.2107 91.3697 69.2143 92.218 67.1382C93.0664 65.0683 93.7561 62.9432 94.2932 60.7692C94.8303 58.5951 95.2027 56.3905 95.4163 54.1613C95.6299 51.9321 95.6787 49.6969 95.5628 47.4616Z" fill="#A8B814"/>
</g>
</svg>
