<svg width="100" height="100" viewBox="0 0 100 100" fill="none" xmlns="http://www.w3.org/2000/svg">
<mask id="mask0_50_5310" style="mask-type:luminance" maskUnits="userSpaceOnUse" x="0" y="0" width="100" height="100">
<path d="M0 0H100V100H0V0Z" fill="white"/>
</mask>
<g mask="url(#mask0_50_5310)">
<path d="M89.2382 37.3682C90.7882 33.9571 92.884 26.596 86.9666 19.0927C80.566 10.9854 70.7894 11.2993 66.8235 11.8382C65.0665 7.07688 59.99 0.136215 50 0.136215C40.0163 0.136215 34.9398 7.07688 33.1827 11.8382C29.2043 11.3052 19.434 10.9854 13.0397 19.0927C7.12224 26.596 9.21185 33.9571 10.7618 37.3682C5.39659 39.4943 0 45.363 0 56.2715C0 68.1571 7.41089 75.5419 19.3461 75.5419H32.6493V98.1642C32.6493 99.1176 33.4714 99.8875 34.4817 99.8875C35.492 99.8875 36.3077 99.1176 36.3077 98.1642V73.8186C36.3077 73.5876 36.2575 73.3626 36.1697 73.1553C36.0756 72.9421 35.9375 72.7526 35.7743 72.5927L24.5168 61.9803C23.8015 61.3112 22.6468 61.3112 21.9315 61.9803C21.2161 62.6555 21.2161 63.751 21.9315 64.4202L30.064 72.0893H19.3461C9.51933 72.0893 3.65838 66.1791 3.65838 56.2715C3.65838 45.9079 9.0989 41.0636 13.7613 40.0687C14.3449 39.9384 14.8281 39.5535 15.0477 39.0264C15.2736 38.5053 15.2108 37.9072 14.8845 37.4334C14.8281 37.3564 9.43775 29.4386 15.9764 21.1536C22.5025 12.8746 33.5655 15.3855 34.0299 15.4921C34.5068 15.5987 35.0151 15.5277 35.4355 15.2908C35.8496 15.048 36.1509 14.6571 36.2638 14.2011C36.3705 13.7688 38.9809 3.58878 50 3.58878C61.0254 3.58878 63.6358 13.7688 63.7425 14.2011C63.8492 14.6571 64.1566 15.048 64.5708 15.2908C64.9912 15.5277 65.4995 15.5987 65.9764 15.4921C66.4408 15.3796 77.4912 12.8687 84.0299 21.1536C90.5183 29.3794 85.3414 37.1136 85.1217 37.4393C84.7954 37.9131 84.7327 38.5053 84.9586 39.0323C85.1845 39.5535 85.6614 39.9384 86.245 40.0687C90.9074 41.0636 96.3479 45.9079 96.3479 56.2715C96.3479 66.1791 90.4807 72.0893 80.6601 72.0893H69.9423L78.0748 64.4202C78.7902 63.751 78.7902 62.6555 78.0748 61.9803C77.3594 61.3112 76.1985 61.3112 75.4895 61.9803L64.2319 72.5927C64.0688 72.7526 63.9307 72.9421 63.8366 73.1553C63.7487 73.3626 63.6985 73.5876 63.6985 73.8186V98.1642C63.6985 99.1176 64.5143 99.8875 65.5246 99.8875C66.5349 99.8875 67.3569 99.1176 67.3569 98.1642V75.5419H80.6601C92.5891 75.5419 100.006 68.1571 100.006 56.2715C100.006 45.363 94.6097 39.4943 89.2382 37.3682Z" fill="#0E8024"/>
</g>
</svg>
