<svg width="136" height="41" viewBox="0 0 136 41" fill="none" xmlns="http://www.w3.org/2000/svg">
<path d="M16.4104 26.0797H8.25724L7.01765 29.8154H0.300293L8.68076 6.91021H16.0519L24.3999 29.8154H17.6486L16.4104 26.0797ZM14.8123 21.2061L12.3331 13.7979L9.88788 21.2061H14.8123Z" fill="#F2F2F2"/>
<path d="M50.4958 11.4266C52.8009 11.4266 54.6108 12.1201 55.9264 13.5068C57.2416 14.8928 57.8994 16.7879 57.8994 19.192V29.8154H51.5067V20.0359C51.5067 19.0619 51.2344 18.304 50.6906 17.763C50.1476 17.2212 49.4086 16.95 48.4741 16.95C47.5393 16.95 46.8 17.2212 46.2562 17.763C45.7131 18.304 45.4416 19.0619 45.4416 20.0359V29.8154H39.0489V20.0359C39.0489 19.0619 38.7825 18.304 38.2505 17.763C37.7182 17.2212 36.9844 16.95 36.0488 16.95C35.0925 16.95 34.3421 17.2212 33.7983 17.763C33.2553 18.304 32.9838 19.0619 32.9838 20.0359V29.8154H26.5925V11.5883H32.9838V13.9935C33.5493 13.2135 34.2831 12.5906 35.1855 12.1249C36.0875 11.6596 37.1253 11.4266 38.2992 11.4266C39.6469 11.4266 40.8481 11.7191 41.9029 12.3043C42.9572 12.8886 43.7892 13.7112 44.3983 14.7727C45.0505 13.777 45.9086 12.9702 46.9733 12.3528C48.0388 11.7353 49.2127 11.4266 50.4958 11.4266Z" fill="#A8CA32"/>
<path d="M60.4468 20.6857C60.4468 18.802 60.7891 17.1565 61.4739 15.7489C62.1593 14.3404 63.0945 13.2577 64.2792 12.4998C65.4634 11.7412 66.7841 11.3619 68.2414 11.3619C69.5024 11.3619 70.5896 11.6111 71.5027 12.1087C72.4154 12.6067 73.1219 13.2782 73.6218 14.1228V11.5883H80.0145V29.8154H73.6218V27.2808C73.1219 28.1258 72.4102 28.7977 71.4864 29.2964C70.5627 29.7945 69.481 30.0433 68.2414 30.0433C66.7841 30.0433 65.4634 29.6647 64.2792 28.9068C63.0945 28.1482 62.1593 27.0599 61.4739 25.6416C60.7891 24.2225 60.4468 22.5704 60.4468 20.6857ZM73.6218 20.6857C73.6218 19.5165 73.3008 18.5962 72.6596 17.9247C72.0192 17.2536 71.2312 16.9176 70.2956 16.9176C69.3393 16.9176 68.5458 17.2481 67.9153 17.9085C67.2844 18.5694 66.9693 19.4948 66.9693 20.6857C66.9693 21.8559 67.2844 22.7821 67.9153 23.4643C68.5458 24.1464 69.3393 24.4875 70.2956 24.4875C71.2312 24.4875 72.0192 24.152 72.6596 23.4805C73.3008 22.8093 73.6218 21.8776 73.6218 20.6857Z" fill="white"/>
<path d="M94.5699 24.389V29.8154H91.7986C87.1243 29.8154 84.7875 27.5087 84.7875 22.8953V16.8853H82.5371V11.5883H84.7875V7.17043H91.2112V11.5883H94.5375V16.8853H91.2112V22.9924C91.2112 23.4904 91.3252 23.8476 91.5536 24.0641C91.7816 24.281 92.1679 24.389 92.712 24.389H94.5699Z" fill="#A8CA32"/>
<path d="M115.106 20.4916C115.106 20.9896 115.073 21.4876 115.008 21.9853H102.91C102.975 22.9821 103.251 23.7241 103.741 24.2111C104.229 24.6985 104.855 24.9418 105.616 24.9418C106.682 24.9418 107.442 24.4655 107.899 23.5128H114.714C114.431 24.7694 113.882 25.8908 113.067 26.8765C112.252 27.8616 111.225 28.636 109.986 29.1994C108.746 29.7621 107.377 30.0433 105.877 30.0433C104.072 30.0433 102.469 29.6647 101.067 28.9068C99.6648 28.1482 98.5668 27.0655 97.7729 25.6578C96.979 24.2494 96.582 22.5921 96.582 20.6857C96.582 18.7796 96.9735 17.1279 97.7567 15.7312C98.5395 14.3346 99.6323 13.2577 101.034 12.4998C102.436 11.7412 104.051 11.3619 105.877 11.3619C107.681 11.3619 109.279 11.7305 110.67 12.4674C112.061 13.2036 113.149 14.2592 113.932 15.6342C114.715 17.0095 115.106 18.6285 115.106 20.4916ZM108.584 18.8994C108.584 18.1195 108.323 17.5072 107.8 17.0632C107.279 16.6192 106.626 16.3972 105.843 16.3972C105.061 16.3972 104.42 16.6085 103.919 17.0308C103.419 17.4535 103.094 18.0761 102.942 18.8994H108.584Z" fill="white"/>
<path d="M116.786 20.6857C116.786 18.802 117.177 17.1565 117.961 15.7489C118.743 14.3404 119.836 13.2577 121.238 12.4998C122.64 11.7412 124.243 11.3619 126.047 11.3619C128.374 11.3619 130.331 11.9955 131.918 13.2628C133.506 14.5293 134.527 16.2998 134.984 18.5745H128.2C127.809 17.3829 127.048 16.7868 125.917 16.7868C125.112 16.7868 124.476 17.1172 124.009 17.7777C123.542 18.4385 123.308 19.4077 123.308 20.6857C123.308 21.964 123.542 22.9387 124.009 23.6098C124.476 24.2813 125.112 24.6169 125.917 24.6169C127.069 24.6169 127.83 24.0215 128.2 22.8306H134.984C134.527 25.0829 133.506 26.8482 131.918 28.1262C130.331 29.4045 128.374 30.0433 126.047 30.0433C124.243 30.0433 122.64 29.6647 121.238 28.9068C119.836 28.1482 118.743 27.0655 117.961 25.6578C117.177 24.2494 116.786 22.5921 116.786 20.6857Z" fill="#A8CA32"/>
</svg>
