<svg width="100" height="100" viewBox="0 0 100 100" fill="none" xmlns="http://www.w3.org/2000/svg">
<mask id="mask0_50_5334" style="mask-type:luminance" maskUnits="userSpaceOnUse" x="0" y="0" width="100" height="100">
<path d="M0 0H100V100H0V0Z" fill="white"/>
</mask>
<g mask="url(#mask0_50_5334)">
<path fill-rule="evenodd" clip-rule="evenodd" d="M67.2423 0C68.1963 0 68.9693 0.773026 68.9693 1.72697V6.89693C68.9693 7.85088 68.1963 8.6239 67.2423 8.6239C66.2939 8.6239 65.5208 7.85088 65.5208 6.89693V1.72697C65.5208 0.773026 66.2939 0 67.2423 0ZM51.727 32.7577C51.727 24.1886 58.6732 17.2423 67.2423 17.2423C75.8114 17.2423 82.7632 24.1886 82.7632 32.7577C82.7632 41.3322 75.8114 48.2785 67.2423 48.2785C58.6732 48.2785 51.727 41.3322 51.727 32.7577ZM67.2423 13.7939C56.7708 13.7939 48.2785 22.2862 48.2785 32.7577C48.2785 43.2346 56.7708 51.727 67.2423 51.727C77.7193 51.727 86.2116 43.2346 86.2116 32.7577C86.2116 22.2862 77.7193 13.7939 67.2423 13.7939ZM3.44846 77.5877C3.44846 71.1678 6.64474 65.4879 11.5296 62.0559L12.7851 62.8947C13.6952 63.4978 13.8213 64.7807 13.0482 65.5482L8.3443 70.2522C6.27741 72.3246 7.74123 75.8662 10.6689 75.8662C11.4419 75.8662 12.0724 76.4912 12.0724 77.2643V78.5965C12.0724 80.4221 13.5471 81.8969 15.3728 81.8969C16.4638 81.8969 17.1546 83.0647 16.6338 84.0186L14.0132 88.8158L11.5461 93.1305C6.65022 89.7039 3.44846 84.0186 3.44846 77.5877ZM15.4879 67.9879C17.7357 65.7401 17.4342 62.034 14.9013 60.17C17.2039 59.1721 19.7478 58.6239 22.4178 58.6239C27.1546 58.6239 31.4857 60.3564 34.8081 63.2292L29.0461 65.6305C27.1217 66.4309 25.8662 68.3169 25.8662 70.4057V72.8728C25.8662 74.83 26.9737 76.6228 28.7226 77.4945L32.2971 79.2818C32.7467 79.5066 33.0757 79.9178 33.1963 80.4057L35.8388 90.9814C32.4068 94.4243 27.659 96.5515 22.4178 96.5515C19.6053 96.5515 16.9408 95.943 14.5395 94.8465L17.023 90.4989L19.6601 85.6689C21.409 82.4561 19.1393 78.5526 15.5208 78.4539V77.2643C15.5208 74.7149 13.5471 72.6206 11.0471 72.4287L15.4879 67.9879ZM38.5417 87.5713C40.3399 84.6711 41.3816 81.25 41.3816 77.5877C41.3816 73.1798 39.8794 69.1228 37.3575 65.9046L30.3728 68.8103C29.7314 69.0789 29.3147 69.7094 29.3147 70.4057V72.8728C29.3147 73.5252 29.682 74.1228 30.2632 74.4134L33.8377 76.2007C35.1864 76.875 36.1787 78.1031 36.5406 79.5724L38.5417 87.5713ZM22.4178 55.1754C10.0384 55.1754 0 65.2083 0 77.5877C0 89.9671 10.0384 100 22.4178 100C34.7971 100 44.83 89.9671 44.83 77.5877C44.83 65.2083 34.7971 55.1754 22.4178 55.1754ZM98.2785 34.4846C99.2325 34.4846 100 33.7116 100 32.7577C100 31.8092 99.2325 31.0362 98.2785 31.0362H93.1031C92.1546 31.0362 91.3816 31.8092 91.3816 32.7577C91.3816 33.7116 92.1546 34.4846 93.1031 34.4846H98.2785ZM90.4057 55.9265C89.7368 56.5954 88.6404 56.5954 87.9715 55.9265L84.3092 52.2643C83.6404 51.5954 83.6404 50.5044 84.3092 49.83C84.9836 49.1557 86.0746 49.1557 86.7489 49.83L90.4057 53.4868C91.08 54.1612 91.08 55.2522 90.4057 55.9265ZM46.5186 55.9265C45.8443 56.5954 44.7533 56.5954 44.0789 55.9265C43.4046 55.2522 43.4046 54.1612 44.0789 53.4868L47.7357 49.83C48.4101 49.1557 49.5011 49.1557 50.1754 49.83C50.8498 50.5044 50.8498 51.5954 50.1754 52.2643L46.5186 55.9265ZM67.2423 56.8969C68.1963 56.8969 68.9693 57.67 68.9693 58.6239V63.7939C68.9693 64.7478 68.1963 65.5208 67.2423 65.5208C66.2939 65.5208 65.5208 64.7478 65.5208 63.7939V58.6239C65.5208 57.67 66.2939 56.8969 67.2423 56.8969ZM41.3816 34.4846C42.3355 34.4846 43.1031 33.7116 43.1031 32.7577C43.1031 31.8092 42.3355 31.0362 41.3816 31.0362H36.2116C35.2577 31.0362 34.4846 31.8092 34.4846 32.7577C34.4846 33.7116 35.2577 34.4846 36.2116 34.4846H41.3816ZM50.1754 15.6908C49.5011 16.3651 48.4101 16.3651 47.7357 15.6908L44.0789 12.034C43.4046 11.3596 43.4046 10.2686 44.0789 9.5943C44.7533 8.92544 45.8443 8.92544 46.5186 9.5943L50.1754 13.2566C50.8498 13.9254 50.8498 15.0164 50.1754 15.6908ZM86.7489 15.6908C86.0746 16.3651 84.9836 16.3651 84.3092 15.6908C83.6404 15.0164 83.6404 13.9254 84.3092 13.2566L87.9715 9.5943C88.6404 8.92544 89.7368 8.92544 90.4057 9.5943C91.08 10.2686 91.08 11.3596 90.4057 12.034L86.7489 15.6908Z" fill="#5055CF"/>
</g>
</svg>
