<svg width="62" height="86" viewBox="0 0 62 86" fill="none" xmlns="http://www.w3.org/2000/svg">
<path d="M3.6947 43.6523C4.90619 49.0768 6.81932 53.6224 12.7692 56.4422C12.7692 53.9932 12.9142 52.1072 12.7505 50.2578C12.1939 43.9544 10.2807 37.4862 11.1274 31.3751C13.0218 17.8116 21.2309 7.80487 32.7939 0C32.6115 3.89557 31.9472 7.31048 32.3963 10.5698C33.3692 17.6193 38.2947 22.2336 43.7254 26.4084C51.4621 32.3456 57.019 39.8117 59.7086 49.0768C63.3338 61.5509 61.0792 72.702 50.9242 81.6879C49.7314 82.727 48.2907 83.4823 46.6629 84.1689C49.5349 77.2979 50.2366 70.4452 48.417 62.9791C46.5039 65.4785 44.8246 67.6986 43.1313 69.9188C42.7337 69.7586 42.3549 69.6212 41.9573 69.461C41.9573 67.3461 41.686 65.1809 42.0134 63.1027C43.3652 54.1854 38.4584 43.2815 30.3054 38.5437C32.8313 46.5774 27.8123 50.9811 23.0505 55.8105C13.8684 65.1077 13.0405 75.3112 20.0381 86C-0.145587 81.7382 -4.02329 63.4185 3.6947 43.6523Z" fill="#F4B046"/>
</svg>
