<svg width="100" height="100" viewBox="0 0 100 100" fill="none" xmlns="http://www.w3.org/2000/svg">
<mask id="mask0_50_5322" style="mask-type:luminance" maskUnits="userSpaceOnUse" x="0" y="0" width="100" height="100">
<path d="M0 0H100V100H0V0Z" fill="white"/>
</mask>
<g mask="url(#mask0_50_5322)">
<path d="M50 0C22.4271 0 0 22.4323 0 50C0 77.5729 22.4271 100 50 100C77.5677 100 100 77.5729 100 50C100 22.4323 77.5677 0 50 0ZM21.6667 68.3333C21.6667 63.5833 22.8542 59.1146 24.9271 55.1771C25.8073 55.5521 26.6667 55.9583 27.4948 56.4427C29.6979 57.724 29.9948 58.3906 30.0052 58.3958C29.9531 58.5312 29.5833 58.8958 29.3125 59.1562C28.5469 59.901 27.5052 60.9167 26.776 62.7396C26.1562 64.3438 25.3646 67.349 27.0417 69.3854C27.8854 70.4271 28.9271 70.6458 29.6198 70.7917C30.1354 70.901 30.276 70.9427 30.4167 71.099C30.9688 71.7292 30.9375 73.2292 30.3594 73.9635C30.0833 74.3125 29.6979 74.3906 28.6771 74.5104C27.9219 74.6042 26.9844 74.7188 26.0052 75.1354C24.9271 75.6042 23.9896 76.375 23.1823 77.401C22.2135 74.5521 21.6667 71.5052 21.6667 68.3333ZM27.3177 78.1979C27.8594 77.9688 28.4531 77.901 29.0833 77.8229C30.3021 77.6771 31.8229 77.4896 32.974 76.0312C34.5677 74.0156 34.5417 70.7448 32.9115 68.8958C32.0208 67.8906 30.9896 67.6719 30.3073 67.5312C29.7813 67.4219 29.7083 67.3854 29.6198 67.276C29.2083 66.7812 29.3177 65.4062 29.8802 63.9531C30.3333 62.8125 30.9948 62.1667 31.6354 61.5469C32.4219 60.7812 33.3906 59.8385 33.3333 58.2812C33.2812 56.6615 31.9948 55.2031 29.1667 53.5625C28.3542 53.0885 27.5208 52.6771 26.6667 52.2917C28.3073 49.9115 30.3125 47.8073 32.5885 46.0312C33.6615 47.0833 34.8594 47.8333 36.1562 48.2552C36.9896 48.5208 37.7604 48.6302 38.4948 48.6302C39.9896 48.6302 41.3385 48.1875 42.7344 47.7292C44.7031 47.0781 46.7396 46.4115 49.8646 46.6615C51.7396 46.8125 52.8333 47.2031 53.8906 47.5833C55.1354 48.0312 56.4271 48.5 58.4688 48.3281C61.0781 48.1146 63.599 46.9792 65.974 44.9583C67.3438 45.8958 68.6302 46.9531 69.8125 48.1146C68.2031 48.849 67.1823 49.8438 66.75 51.1354C66.3698 52.2604 66.5781 53.2448 66.75 54.0417C66.9115 54.8021 67.026 55.3542 66.7604 56.1146C66.4062 57.1146 65.5469 58.224 64.7396 58.3542C64.1823 58.4427 63.5781 57.9375 62.6667 57.0833C61.5417 56.0365 60.1354 54.7344 58.099 55.0156C56.3333 55.2604 55.5781 56.5833 54.974 57.6406C54.4219 58.6094 53.901 59.5208 52.5885 60.1771C51.1198 60.9115 49.651 61.0052 48.4688 61.0833C47.1458 61.1667 45.5 61.276 45.0625 62.8802C44.5938 64.5312 46.0365 65.4479 47.0833 66.1146C48.1302 66.7812 49.4271 67.6094 50.1823 69.0938C50.75 70.2031 50.7604 71.1823 50.776 72.2135C50.7917 73.5052 50.8073 75.1146 52.2812 76.2969C53.224 77.0573 54.4219 77.375 55.625 77.375C56.9115 77.375 58.2031 77.0104 59.1823 76.4323C61.0625 75.3177 61.8073 73.5 62.4062 72.0417C62.9583 70.6979 63.2552 70.0938 63.8125 69.9271C64.0885 69.8438 64.3802 69.9062 64.6354 69.9583C65.5885 70.1719 66.151 71.0469 66.9844 72.4583C67.8542 73.9323 68.9375 75.7656 71.0938 76.5677C72.5469 77.0938 73.7448 76.8958 75.2865 76.6406C75.9375 76.526 76.5781 76.3542 77.2083 76.151C75.599 81.7396 72.3333 86.6302 67.9531 90.2292C67.2917 89.8542 66.6979 89.4323 66.2604 88.9115C65.5417 88.0781 65.0885 87.0833 64.6875 86.2031C64.0729 84.8542 63.375 83.3333 61.6771 83.3333H61.6406C60.0313 83.3542 59.401 84.7917 58.9427 85.8438C58.5625 86.7188 58.0885 87.8073 57.1042 88.8698C54.8073 91.3698 51.6615 91.6562 51.5 91.6719C50.75 91.7448 48.1563 91.8698 45.9583 90.3021C45.099 89.6979 44.7031 89.1198 44.3229 88.5625C43.8594 87.8854 43.2865 87.0469 42.0938 86.724C39.875 86.125 37.4792 87.776 34.4323 91.9792C30.3542 89.2865 27.026 85.5677 24.7865 81.1979C25.474 79.6615 26.3177 78.6302 27.3177 78.1979ZM35.4167 44.0885C39.6823 41.5104 44.6615 40 50 40C54.6406 40 59.0104 41.1458 62.8802 43.1302C61.3438 44.2344 59.7708 44.875 58.1927 45.0052C56.875 45.1146 56.1354 44.849 55.0156 44.4479C53.875 44.0365 52.4479 43.526 50.1302 43.3385C46.3385 43.0312 43.7656 43.8802 41.6927 44.5573C39.8698 45.1562 38.6615 45.5573 37.1771 45.0833C36.5521 44.8802 35.9688 44.5417 35.4167 44.0885ZM78.0365 72.2135C76.9635 72.7656 75.849 73.1562 74.7083 73.3594C73.3438 73.5885 72.8385 73.6562 72.2448 73.4375C71.2031 73.0521 70.5781 71.9896 69.8542 70.7656C68.9219 69.1927 67.7708 67.2396 65.3073 66.6979C64.8958 66.6094 63.9479 66.4062 62.8646 66.7344C60.724 67.3594 59.9479 69.2552 59.3229 70.776C58.8333 71.9792 58.4062 73.0208 57.4844 73.5625C56.4167 74.1927 54.9375 74.1562 54.375 73.6979C54.1667 73.5312 54.1198 73.276 54.1042 72.1719C54.0885 70.9948 54.0729 69.3802 53.1458 67.5729C52.375 66.0573 51.2917 65.0208 50.2865 64.2656C51.4062 64.1198 52.724 63.8333 54.0729 63.1562C56.2917 62.0469 57.2396 60.3906 57.8646 59.2969C58.1094 58.8698 58.4167 58.3385 58.5521 58.3177C58.9792 58.2604 59.5677 58.7552 60.3906 59.5208C61.5156 60.5625 63.0417 62 65.2604 61.6458C67.5156 61.2812 69.2135 59.1615 69.9062 57.2135C70.474 55.5729 70.2083 54.2865 70.0052 53.349C69.8854 52.7812 69.8229 52.4479 69.9115 52.1927C70.0833 51.6719 70.9271 51.1667 72.1927 50.776C76.026 55.6094 78.3281 61.6979 78.3281 68.3333C78.3281 69.651 78.2083 70.9375 78.0312 72.2083L78.0365 72.2135ZM37.3385 93.6458C40.0469 89.9844 41.1875 89.9375 41.1719 89.9115C41.25 89.9792 41.4375 90.2448 41.5677 90.4427C42.0156 91.0938 42.6823 92.0729 44.0312 93.0208C47.0833 95.1979 50.5 95.1198 51.8021 94.9896C52.2656 94.9531 56.4427 94.5156 59.5521 91.1302C60.6667 89.9271 61.3021 88.7135 61.7396 87.7708C62.1771 88.724 62.7708 89.9688 63.724 91.0729C64.1094 91.526 64.5521 91.9271 65.0312 92.3073C60.6667 95.0521 55.526 96.6667 50 96.6667C45.4479 96.6667 41.1563 95.5625 37.3385 93.6406V93.6458ZM71.7969 91.2448C77.8594 85.474 81.6667 77.349 81.6667 68.3333C81.6667 50.8698 67.4583 36.6667 50 36.6667C32.5365 36.6667 18.3333 50.8698 18.3333 68.3333C18.3333 77.349 22.1354 85.474 28.2031 91.2448C13.4219 83.4062 3.33333 67.8646 3.33333 50C3.33333 24.2708 24.2656 3.33333 50 3.33333C75.7292 3.33333 96.6667 24.2708 96.6667 50C96.6667 67.8646 86.5729 83.4062 71.7969 91.2448Z" fill="#19C4AF"/>
</g>
<path d="M92.8438 37.8438L90.4844 35.4896L81.6667 44.3125V40H78.3334V48.3334C78.3334 49.2552 79.0782 50 80 50H88.3334V46.6667H84.0209L92.8438 37.8438Z" fill="#19C4AF"/>
<path d="M18.3334 40.0001V36.6667H10C9.07817 36.6667 8.33337 37.4115 8.33337 38.3334V46.6667H11.6667V42.3595L20.4844 51.1772L22.8438 48.823L14.0209 40.0001H18.3334Z" fill="#19C4AF"/>
<path d="M61.1094 11.6667C60.6563 11.6667 60.2032 11.698 59.7292 11.7501C58.1146 8.698 54.3438 6.66675 50 6.66675C45.6563 6.66675 41.8802 8.698 40.2709 11.7501C39.7969 11.6928 39.3386 11.6667 38.8907 11.6667C33.0677 11.6667 28.3334 15.4063 28.3334 20.0001C28.3334 24.5938 33.0677 28.3334 38.8907 28.3334V25.0001C34.974 25.0001 31.6667 22.7084 31.6667 20.0001C31.6667 17.2917 34.974 15.0001 38.8907 15.0001C39.5209 15.0001 40.1771 15.0782 40.9636 15.2449C41.8178 15.4272 42.6719 14.9115 42.9115 14.0678C43.5782 11.7084 46.5573 10.0001 50 10.0001C53.4375 10.0001 56.4219 11.7084 57.0886 14.0678C57.323 14.9115 58.1823 15.4272 59.0365 15.2449C59.8178 15.0782 60.4792 15.0001 61.1094 15.0001C65.0261 15.0001 68.3334 17.2917 68.3334 20.0001C68.3334 22.7084 65.0261 25.0001 61.1094 25.0001V28.3334C66.9271 28.3334 71.6667 24.5938 71.6667 20.0001C71.6667 15.4063 66.9271 11.6667 61.1094 11.6667Z" fill="#19C4AF"/>
<path d="M48.3334 18.3334H51.6667V30H48.3334V18.3334Z" fill="#19C4AF"/>
<path d="M53.3959 32.875L56.7292 21.2084L59.9323 22.125L56.599 33.7917L53.3959 32.875Z" fill="#19C4AF"/>
<path d="M40.0625 22.125L43.2656 21.2084L46.599 32.875L43.3958 33.7917L40.0625 22.125Z" fill="#19C4AF"/>
</svg>
