<svg width="345" height="72" viewBox="0 0 345 72" fill="none" xmlns="http://www.w3.org/2000/svg">
<mask id="mask0_50_5748" style="mask-type:luminance" maskUnits="userSpaceOnUse" x="0" y="0" width="344" height="72">
<path d="M0 0H343.921V72H0V0Z" fill="white"/>
</mask>
<g mask="url(#mask0_50_5748)">
<mask id="mask1_50_5748" style="mask-type:luminance" maskUnits="userSpaceOnUse" x="0" y="0" width="346" height="72">
<path d="M13.2905 0H331.715C335.24 0 338.626 1.5 341.118 4.16667C343.61 6.83333 345.006 10.4506 345.006 14.2222V57.0062C345.006 60.7778 343.61 64.3951 341.118 67.0617C338.626 69.7284 335.24 71.2284 331.715 71.2284H13.2905C9.766 71.2284 6.38568 69.7284 3.89371 67.0617C1.39597 64.3951 0 60.7778 0 57.0062V14.2222C0 10.4506 1.39597 6.83333 3.89371 4.16667C6.38568 1.5 9.766 0 13.2905 0Z" fill="white"/>
</mask>
<g mask="url(#mask1_50_5748)">
<path d="M0 0H343.143V72H0V0Z" fill="#F9EDDF"/>
</g>
</g>
<path d="M51.592 29.44V32.848H57.088V36.016H51.592V39.712H57.808V43H47.488V26.152H57.808V29.44H51.592ZM65.9204 43.192C64.7524 43.192 63.7124 42.992 62.8004 42.592C61.8884 42.192 61.1684 41.648 60.6404 40.96C60.1124 40.256 59.8164 39.472 59.7524 38.608H63.8084C63.8564 39.072 64.0724 39.448 64.4564 39.736C64.8404 40.024 65.3124 40.168 65.8724 40.168C66.3844 40.168 66.7764 40.072 67.0484 39.88C67.3364 39.672 67.4804 39.408 67.4804 39.088C67.4804 38.704 67.2804 38.424 66.8804 38.248C66.4804 38.056 65.8324 37.848 64.9364 37.624C63.9764 37.4 63.1764 37.168 62.5364 36.928C61.8964 36.672 61.3444 36.28 60.8804 35.752C60.4164 35.208 60.1844 34.48 60.1844 33.568C60.1844 32.8 60.3924 32.104 60.8084 31.48C61.2404 30.84 61.8644 30.336 62.6804 29.968C63.5124 29.6 64.4964 29.416 65.6324 29.416C67.3124 29.416 68.6324 29.832 69.5924 30.664C70.5684 31.496 71.1284 32.6 71.2724 33.976H67.4804C67.4164 33.512 67.2084 33.144 66.8564 32.872C66.5204 32.6 66.0724 32.464 65.5124 32.464C65.0324 32.464 64.6644 32.56 64.4084 32.752C64.1524 32.928 64.0244 33.176 64.0244 33.496C64.0244 33.88 64.2244 34.168 64.6244 34.36C65.0404 34.552 65.6804 34.744 66.5444 34.936C67.5364 35.192 68.3444 35.448 68.9684 35.704C69.5924 35.944 70.1364 36.344 70.6004 36.904C71.0804 37.448 71.3284 38.184 71.3444 39.112C71.3444 39.896 71.1204 40.6 70.6724 41.224C70.2404 41.832 69.6084 42.312 68.7764 42.664C67.9604 43.016 67.0084 43.192 65.9204 43.192ZM73.0392 36.304C73.0392 34.912 73.3192 33.696 73.8792 32.656C74.4552 31.616 75.2472 30.816 76.2552 30.256C77.2792 29.696 78.4472 29.416 79.7592 29.416C81.4392 29.416 82.8392 29.856 83.9592 30.736C85.0952 31.616 85.8392 32.856 86.1912 34.456H81.8232C81.4552 33.432 80.7432 32.92 79.6872 32.92C78.9352 32.92 78.3352 33.216 77.8872 33.808C77.4392 34.384 77.2152 35.216 77.2152 36.304C77.2152 37.392 77.4392 38.232 77.8872 38.824C78.3352 39.4 78.9352 39.688 79.6872 39.688C80.7432 39.688 81.4552 39.176 81.8232 38.152H86.1912C85.8392 39.72 85.0952 40.952 83.9592 41.848C82.8232 42.744 81.4232 43.192 79.7592 43.192C78.4472 43.192 77.2792 42.912 76.2552 42.352C75.2472 41.792 74.4552 40.992 73.8792 39.952C73.3192 38.912 73.0392 37.696 73.0392 36.304ZM94.4824 43.192C93.1704 43.192 91.9864 42.912 90.9304 42.352C89.8904 41.792 89.0664 40.992 88.4584 39.952C87.8664 38.912 87.5704 37.696 87.5704 36.304C87.5704 34.928 87.8744 33.72 88.4824 32.68C89.0904 31.624 89.9224 30.816 90.9784 30.256C92.0344 29.696 93.2184 29.416 94.5304 29.416C95.8424 29.416 97.0264 29.696 98.0824 30.256C99.1384 30.816 99.9704 31.624 100.578 32.68C101.186 33.72 101.49 34.928 101.49 36.304C101.49 37.68 101.178 38.896 100.554 39.952C99.9464 40.992 99.1064 41.792 98.0344 42.352C96.9784 42.912 95.7944 43.192 94.4824 43.192ZM94.4824 39.64C95.2664 39.64 95.9304 39.352 96.4744 38.776C97.0344 38.2 97.3144 37.376 97.3144 36.304C97.3144 35.232 97.0424 34.408 96.4984 33.832C95.9704 33.256 95.3144 32.968 94.5304 32.968C93.7304 32.968 93.0664 33.256 92.5384 33.832C92.0104 34.392 91.7464 35.216 91.7464 36.304C91.7464 37.376 92.0024 38.2 92.5144 38.776C93.0424 39.352 93.6984 39.64 94.4824 39.64ZM107.772 25.24V43H103.668V25.24H107.772ZM118.978 29.464C120.514 29.464 121.746 29.976 122.674 31C123.602 32.008 124.066 33.4 124.066 35.176V43H119.986V35.728C119.986 34.832 119.754 34.136 119.29 33.64C118.826 33.144 118.202 32.896 117.418 32.896C116.634 32.896 116.01 33.144 115.546 33.64C115.082 34.136 114.85 34.832 114.85 35.728V43H110.746V25.24H114.85V31.408C115.266 30.816 115.834 30.344 116.554 29.992C117.274 29.64 118.082 29.464 118.978 29.464ZM139.542 36.088C139.542 36.472 139.518 36.872 139.47 37.288H130.182C130.246 38.12 130.51 38.76 130.974 39.208C131.454 39.64 132.038 39.856 132.726 39.856C133.75 39.856 134.462 39.424 134.862 38.56H139.23C139.006 39.44 138.598 40.232 138.006 40.936C137.43 41.64 136.702 42.192 135.822 42.592C134.942 42.992 133.958 43.192 132.87 43.192C131.558 43.192 130.39 42.912 129.366 42.352C128.342 41.792 127.542 40.992 126.966 39.952C126.39 38.912 126.102 37.696 126.102 36.304C126.102 34.912 126.382 33.696 126.942 32.656C127.518 31.616 128.318 30.816 129.342 30.256C130.366 29.696 131.542 29.416 132.87 29.416C134.166 29.416 135.318 29.688 136.326 30.232C137.334 30.776 138.118 31.552 138.678 32.56C139.254 33.568 139.542 34.744 139.542 36.088ZM135.342 35.008C135.342 34.304 135.102 33.744 134.622 33.328C134.142 32.912 133.542 32.704 132.822 32.704C132.134 32.704 131.55 32.904 131.07 33.304C130.606 33.704 130.318 34.272 130.206 35.008H135.342ZM145.811 31.84C146.291 31.104 146.891 30.528 147.611 30.112C148.331 29.68 149.131 29.464 150.011 29.464V33.808H148.883C147.859 33.808 147.091 34.032 146.579 34.48C146.067 34.912 145.811 35.68 145.811 36.784V43H141.707V29.608H145.811V31.84ZM163.154 43.192C161.842 43.192 160.658 42.912 159.602 42.352C158.562 41.792 157.738 40.992 157.13 39.952C156.538 38.912 156.242 37.696 156.242 36.304C156.242 34.928 156.546 33.72 157.154 32.68C157.762 31.624 158.594 30.816 159.65 30.256C160.706 29.696 161.89 29.416 163.202 29.416C164.514 29.416 165.698 29.696 166.754 30.256C167.81 30.816 168.642 31.624 169.25 32.68C169.858 33.72 170.162 34.928 170.162 36.304C170.162 37.68 169.85 38.896 169.226 39.952C168.618 40.992 167.778 41.792 166.706 42.352C165.65 42.912 164.466 43.192 163.154 43.192ZM163.154 39.64C163.938 39.64 164.602 39.352 165.146 38.776C165.706 38.2 165.986 37.376 165.986 36.304C165.986 35.232 165.714 34.408 165.17 33.832C164.642 33.256 163.986 32.968 163.202 32.968C162.402 32.968 161.738 33.256 161.21 33.832C160.682 34.392 160.418 35.216 160.418 36.304C160.418 37.376 160.674 38.2 161.186 38.776C161.714 39.352 162.37 39.64 163.154 39.64ZM185.564 29.608V43H181.46V41.176C181.044 41.768 180.476 42.248 179.756 42.616C179.052 42.968 178.268 43.144 177.404 43.144C176.38 43.144 175.476 42.92 174.692 42.472C173.908 42.008 173.3 41.344 172.868 40.48C172.436 39.616 172.22 38.6 172.22 37.432V29.608H176.3V36.88C176.3 37.776 176.532 38.472 176.996 38.968C177.46 39.464 178.084 39.712 178.868 39.712C179.668 39.712 180.3 39.464 180.764 38.968C181.228 38.472 181.46 37.776 181.46 36.88V29.608H185.564ZM195.975 39.52V43H193.887C192.399 43 191.239 42.64 190.407 41.92C189.575 41.184 189.159 39.992 189.159 38.344V33.016H187.527V29.608H189.159V26.344H193.263V29.608H195.951V33.016H193.263V38.392C193.263 38.792 193.359 39.08 193.551 39.256C193.743 39.432 194.063 39.52 194.511 39.52H195.975ZM202.365 31.84C202.845 31.104 203.445 30.528 204.165 30.112C204.885 29.68 205.685 29.464 206.565 29.464V33.808H205.437C204.413 33.808 203.645 34.032 203.133 34.48C202.621 34.912 202.365 35.68 202.365 36.784V43H198.261V29.608H202.365V31.84ZM214.623 43.192C213.311 43.192 212.127 42.912 211.071 42.352C210.031 41.792 209.207 40.992 208.599 39.952C208.007 38.912 207.711 37.696 207.711 36.304C207.711 34.928 208.015 33.72 208.623 32.68C209.231 31.624 210.063 30.816 211.119 30.256C212.175 29.696 213.359 29.416 214.671 29.416C215.983 29.416 217.167 29.696 218.223 30.256C219.279 30.816 220.111 31.624 220.719 32.68C221.327 33.72 221.631 34.928 221.631 36.304C221.631 37.68 221.319 38.896 220.695 39.952C220.087 40.992 219.247 41.792 218.175 42.352C217.119 42.912 215.935 43.192 214.623 43.192ZM214.623 39.64C215.407 39.64 216.071 39.352 216.615 38.776C217.175 38.2 217.455 37.376 217.455 36.304C217.455 35.232 217.183 34.408 216.639 33.832C216.111 33.256 215.455 32.968 214.671 32.968C213.871 32.968 213.207 33.256 212.679 33.832C212.151 34.392 211.887 35.216 211.887 36.304C211.887 37.376 212.143 38.2 212.655 38.776C213.183 39.352 213.839 39.64 214.623 39.64ZM236.358 39.52V43H234.27C232.782 43 231.622 42.64 230.79 41.92C229.958 41.184 229.542 39.992 229.542 38.344V33.016H227.91V29.608H229.542V26.344H233.646V29.608H236.334V33.016H233.646V38.392C233.646 38.792 233.742 39.08 233.934 39.256C234.126 39.432 234.446 39.52 234.894 39.52H236.358ZM251.268 36.088C251.268 36.472 251.244 36.872 251.196 37.288H241.908C241.972 38.12 242.236 38.76 242.7 39.208C243.18 39.64 243.764 39.856 244.452 39.856C245.476 39.856 246.188 39.424 246.588 38.56H250.956C250.732 39.44 250.324 40.232 249.732 40.936C249.156 41.64 248.428 42.192 247.548 42.592C246.668 42.992 245.684 43.192 244.596 43.192C243.284 43.192 242.116 42.912 241.092 42.352C240.068 41.792 239.268 40.992 238.692 39.952C238.116 38.912 237.828 37.696 237.828 36.304C237.828 34.912 238.108 33.696 238.668 32.656C239.244 31.616 240.044 30.816 241.068 30.256C242.092 29.696 243.268 29.416 244.596 29.416C245.892 29.416 247.044 29.688 248.052 30.232C249.06 30.776 249.844 31.552 250.404 32.56C250.98 33.568 251.268 34.744 251.268 36.088ZM247.068 35.008C247.068 34.304 246.828 33.744 246.348 33.328C245.868 32.912 245.268 32.704 244.548 32.704C243.86 32.704 243.276 32.904 242.796 33.304C242.332 33.704 242.044 34.272 241.932 35.008H247.068ZM270.521 29.464C272.185 29.464 273.505 29.968 274.481 30.976C275.473 31.984 275.969 33.384 275.969 35.176V43H271.889V35.728C271.889 34.864 271.657 34.2 271.193 33.736C270.745 33.256 270.121 33.016 269.321 33.016C268.521 33.016 267.889 33.256 267.425 33.736C266.977 34.2 266.753 34.864 266.753 35.728V43H262.673V35.728C262.673 34.864 262.441 34.2 261.977 33.736C261.529 33.256 260.905 33.016 260.105 33.016C259.305 33.016 258.673 33.256 258.209 33.736C257.761 34.2 257.537 34.864 257.537 35.728V43H253.433V29.608H257.537V31.288C257.953 30.728 258.497 30.288 259.169 29.968C259.841 29.632 260.601 29.464 261.449 29.464C262.457 29.464 263.353 29.68 264.137 30.112C264.937 30.544 265.561 31.16 266.009 31.96C266.473 31.224 267.105 30.624 267.905 30.16C268.705 29.696 269.577 29.464 270.521 29.464ZM278.024 36.28C278.024 34.904 278.28 33.696 278.792 32.656C279.32 31.616 280.032 30.816 280.928 30.256C281.824 29.696 282.824 29.416 283.928 29.416C284.872 29.416 285.696 29.608 286.4 29.992C287.12 30.376 287.672 30.88 288.056 31.504V29.608H292.16V43H288.056V41.104C287.656 41.728 287.096 42.232 286.376 42.616C285.672 43 284.848 43.192 283.904 43.192C282.816 43.192 281.824 42.912 280.928 42.352C280.032 41.776 279.32 40.968 278.792 39.928C278.28 38.872 278.024 37.656 278.024 36.28ZM288.056 36.304C288.056 35.28 287.768 34.472 287.192 33.88C286.632 33.288 285.944 32.992 285.128 32.992C284.312 32.992 283.616 33.288 283.04 33.88C282.48 34.456 282.2 35.256 282.2 36.28C282.2 37.304 282.48 38.12 283.04 38.728C283.616 39.32 284.312 39.616 285.128 39.616C285.944 39.616 286.632 39.32 287.192 38.728C287.768 38.136 288.056 37.328 288.056 36.304Z" fill="black"/>
</svg>
