<svg width="345" height="72" viewBox="0 0 345 72" fill="none" xmlns="http://www.w3.org/2000/svg">
<mask id="mask0_50_5742" style="mask-type:luminance" maskUnits="userSpaceOnUse" x="0" y="0" width="344" height="72">
<path d="M0 0H343.921V72H0V0Z" fill="white"/>
</mask>
<g mask="url(#mask0_50_5742)">
<mask id="mask1_50_5742" style="mask-type:luminance" maskUnits="userSpaceOnUse" x="0" y="0" width="346" height="72">
<path d="M13.2905 0H331.715C335.24 0 338.626 1.5 341.118 4.16667C343.61 6.83333 345.006 10.4506 345.006 14.2222V57.0062C345.006 60.7778 343.61 64.3951 341.118 67.0617C338.626 69.7284 335.24 71.2284 331.715 71.2284H13.2905C9.766 71.2284 6.38568 69.7284 3.89371 67.0617C1.39597 64.3951 0 60.7778 0 57.0062V14.2222C0 10.4506 1.39597 6.83333 3.89371 4.16667C6.38568 1.5 9.766 0 13.2905 0Z" fill="white"/>
</mask>
<g mask="url(#mask1_50_5742)">
<path d="M0 0H343.143V72H0V0Z" fill="#BFFFCE"/>
</g>
</g>
<path d="M52.592 29.44V32.848H58.088V36.016H52.592V39.712H58.808V43H48.488V26.152H58.808V29.44H52.592ZM66.9204 43.192C65.7524 43.192 64.7124 42.992 63.8004 42.592C62.8884 42.192 62.1684 41.648 61.6404 40.96C61.1124 40.256 60.8164 39.472 60.7524 38.608H64.8084C64.8564 39.072 65.0724 39.448 65.4564 39.736C65.8404 40.024 66.3124 40.168 66.8724 40.168C67.3844 40.168 67.7764 40.072 68.0484 39.88C68.3364 39.672 68.4804 39.408 68.4804 39.088C68.4804 38.704 68.2804 38.424 67.8804 38.248C67.4804 38.056 66.8324 37.848 65.9364 37.624C64.9764 37.4 64.1764 37.168 63.5364 36.928C62.8964 36.672 62.3444 36.28 61.8804 35.752C61.4164 35.208 61.1844 34.48 61.1844 33.568C61.1844 32.8 61.3924 32.104 61.8084 31.48C62.2404 30.84 62.8644 30.336 63.6804 29.968C64.5124 29.6 65.4964 29.416 66.6324 29.416C68.3124 29.416 69.6324 29.832 70.5924 30.664C71.5684 31.496 72.1284 32.6 72.2724 33.976H68.4804C68.4164 33.512 68.2084 33.144 67.8564 32.872C67.5204 32.6 67.0724 32.464 66.5124 32.464C66.0324 32.464 65.6644 32.56 65.4084 32.752C65.1524 32.928 65.0244 33.176 65.0244 33.496C65.0244 33.88 65.2244 34.168 65.6244 34.36C66.0404 34.552 66.6804 34.744 67.5444 34.936C68.5364 35.192 69.3444 35.448 69.9684 35.704C70.5924 35.944 71.1364 36.344 71.6004 36.904C72.0804 37.448 72.3284 38.184 72.3444 39.112C72.3444 39.896 72.1204 40.6 71.6724 41.224C71.2404 41.832 70.6084 42.312 69.7764 42.664C68.9604 43.016 68.0084 43.192 66.9204 43.192ZM74.0392 36.304C74.0392 34.912 74.3192 33.696 74.8792 32.656C75.4552 31.616 76.2472 30.816 77.2552 30.256C78.2792 29.696 79.4472 29.416 80.7592 29.416C82.4392 29.416 83.8392 29.856 84.9592 30.736C86.0952 31.616 86.8392 32.856 87.1912 34.456H82.8232C82.4552 33.432 81.7432 32.92 80.6872 32.92C79.9352 32.92 79.3352 33.216 78.8872 33.808C78.4392 34.384 78.2152 35.216 78.2152 36.304C78.2152 37.392 78.4392 38.232 78.8872 38.824C79.3352 39.4 79.9352 39.688 80.6872 39.688C81.7432 39.688 82.4552 39.176 82.8232 38.152H87.1912C86.8392 39.72 86.0952 40.952 84.9592 41.848C83.8232 42.744 82.4232 43.192 80.7592 43.192C79.4472 43.192 78.2792 42.912 77.2552 42.352C76.2472 41.792 75.4552 40.992 74.8792 39.952C74.3192 38.912 74.0392 37.696 74.0392 36.304ZM95.4824 43.192C94.1704 43.192 92.9864 42.912 91.9304 42.352C90.8904 41.792 90.0664 40.992 89.4584 39.952C88.8664 38.912 88.5704 37.696 88.5704 36.304C88.5704 34.928 88.8744 33.72 89.4824 32.68C90.0904 31.624 90.9224 30.816 91.9784 30.256C93.0344 29.696 94.2184 29.416 95.5304 29.416C96.8424 29.416 98.0264 29.696 99.0824 30.256C100.138 30.816 100.97 31.624 101.578 32.68C102.186 33.72 102.49 34.928 102.49 36.304C102.49 37.68 102.178 38.896 101.554 39.952C100.946 40.992 100.106 41.792 99.0344 42.352C97.9784 42.912 96.7944 43.192 95.4824 43.192ZM95.4824 39.64C96.2664 39.64 96.9304 39.352 97.4744 38.776C98.0344 38.2 98.3144 37.376 98.3144 36.304C98.3144 35.232 98.0424 34.408 97.4984 33.832C96.9704 33.256 96.3144 32.968 95.5304 32.968C94.7304 32.968 94.0664 33.256 93.5384 33.832C93.0104 34.392 92.7464 35.216 92.7464 36.304C92.7464 37.376 93.0024 38.2 93.5144 38.776C94.0424 39.352 94.6984 39.64 95.4824 39.64ZM108.772 25.24V43H104.668V25.24H108.772ZM119.978 29.464C121.514 29.464 122.746 29.976 123.674 31C124.602 32.008 125.066 33.4 125.066 35.176V43H120.986V35.728C120.986 34.832 120.754 34.136 120.29 33.64C119.826 33.144 119.202 32.896 118.418 32.896C117.634 32.896 117.01 33.144 116.546 33.64C116.082 34.136 115.85 34.832 115.85 35.728V43H111.746V25.24H115.85V31.408C116.266 30.816 116.834 30.344 117.554 29.992C118.274 29.64 119.082 29.464 119.978 29.464ZM140.542 36.088C140.542 36.472 140.518 36.872 140.47 37.288H131.182C131.246 38.12 131.51 38.76 131.974 39.208C132.454 39.64 133.038 39.856 133.726 39.856C134.75 39.856 135.462 39.424 135.862 38.56H140.23C140.006 39.44 139.598 40.232 139.006 40.936C138.43 41.64 137.702 42.192 136.822 42.592C135.942 42.992 134.958 43.192 133.87 43.192C132.558 43.192 131.39 42.912 130.366 42.352C129.342 41.792 128.542 40.992 127.966 39.952C127.39 38.912 127.102 37.696 127.102 36.304C127.102 34.912 127.382 33.696 127.942 32.656C128.518 31.616 129.318 30.816 130.342 30.256C131.366 29.696 132.542 29.416 133.87 29.416C135.166 29.416 136.318 29.688 137.326 30.232C138.334 30.776 139.118 31.552 139.678 32.56C140.254 33.568 140.542 34.744 140.542 36.088ZM136.342 35.008C136.342 34.304 136.102 33.744 135.622 33.328C135.142 32.912 134.542 32.704 133.822 32.704C133.134 32.704 132.55 32.904 132.07 33.304C131.606 33.704 131.318 34.272 131.206 35.008H136.342ZM146.811 31.84C147.291 31.104 147.891 30.528 148.611 30.112C149.331 29.68 150.131 29.464 151.011 29.464V33.808H149.883C148.859 33.808 148.091 34.032 147.579 34.48C147.067 34.912 146.811 35.68 146.811 36.784V43H142.707V29.608H146.811V31.84ZM164.154 43.192C162.842 43.192 161.658 42.912 160.602 42.352C159.562 41.792 158.738 40.992 158.13 39.952C157.538 38.912 157.242 37.696 157.242 36.304C157.242 34.928 157.546 33.72 158.154 32.68C158.762 31.624 159.594 30.816 160.65 30.256C161.706 29.696 162.89 29.416 164.202 29.416C165.514 29.416 166.698 29.696 167.754 30.256C168.81 30.816 169.642 31.624 170.25 32.68C170.858 33.72 171.162 34.928 171.162 36.304C171.162 37.68 170.85 38.896 170.226 39.952C169.618 40.992 168.778 41.792 167.706 42.352C166.65 42.912 165.466 43.192 164.154 43.192ZM164.154 39.64C164.938 39.64 165.602 39.352 166.146 38.776C166.706 38.2 166.986 37.376 166.986 36.304C166.986 35.232 166.714 34.408 166.17 33.832C165.642 33.256 164.986 32.968 164.202 32.968C163.402 32.968 162.738 33.256 162.21 33.832C161.682 34.392 161.418 35.216 161.418 36.304C161.418 37.376 161.674 38.2 162.186 38.776C162.714 39.352 163.37 39.64 164.154 39.64ZM186.564 29.608V43H182.46V41.176C182.044 41.768 181.476 42.248 180.756 42.616C180.052 42.968 179.268 43.144 178.404 43.144C177.38 43.144 176.476 42.92 175.692 42.472C174.908 42.008 174.3 41.344 173.868 40.48C173.436 39.616 173.22 38.6 173.22 37.432V29.608H177.3V36.88C177.3 37.776 177.532 38.472 177.996 38.968C178.46 39.464 179.084 39.712 179.868 39.712C180.668 39.712 181.3 39.464 181.764 38.968C182.228 38.472 182.46 37.776 182.46 36.88V29.608H186.564ZM196.975 39.52V43H194.887C193.399 43 192.239 42.64 191.407 41.92C190.575 41.184 190.159 39.992 190.159 38.344V33.016H188.527V29.608H190.159V26.344H194.263V29.608H196.951V33.016H194.263V38.392C194.263 38.792 194.359 39.08 194.551 39.256C194.743 39.432 195.063 39.52 195.511 39.52H196.975ZM203.365 31.84C203.845 31.104 204.445 30.528 205.165 30.112C205.885 29.68 206.685 29.464 207.565 29.464V33.808H206.437C205.413 33.808 204.645 34.032 204.133 34.48C203.621 34.912 203.365 35.68 203.365 36.784V43H199.261V29.608H203.365V31.84ZM215.623 43.192C214.311 43.192 213.127 42.912 212.071 42.352C211.031 41.792 210.207 40.992 209.599 39.952C209.007 38.912 208.711 37.696 208.711 36.304C208.711 34.928 209.015 33.72 209.623 32.68C210.231 31.624 211.063 30.816 212.119 30.256C213.175 29.696 214.359 29.416 215.671 29.416C216.983 29.416 218.167 29.696 219.223 30.256C220.279 30.816 221.111 31.624 221.719 32.68C222.327 33.72 222.631 34.928 222.631 36.304C222.631 37.68 222.319 38.896 221.695 39.952C221.087 40.992 220.247 41.792 219.175 42.352C218.119 42.912 216.935 43.192 215.623 43.192ZM215.623 39.64C216.407 39.64 217.071 39.352 217.615 38.776C218.175 38.2 218.455 37.376 218.455 36.304C218.455 35.232 218.183 34.408 217.639 33.832C217.111 33.256 216.455 32.968 215.671 32.968C214.871 32.968 214.207 33.256 213.679 33.832C213.151 34.392 212.887 35.216 212.887 36.304C212.887 37.376 213.143 38.2 213.655 38.776C214.183 39.352 214.839 39.64 215.623 39.64ZM237.358 39.52V43H235.27C233.782 43 232.622 42.64 231.79 41.92C230.958 41.184 230.542 39.992 230.542 38.344V33.016H228.91V29.608H230.542V26.344H234.646V29.608H237.334V33.016H234.646V38.392C234.646 38.792 234.742 39.08 234.934 39.256C235.126 39.432 235.446 39.52 235.894 39.52H237.358ZM252.268 36.088C252.268 36.472 252.244 36.872 252.196 37.288H242.908C242.972 38.12 243.236 38.76 243.7 39.208C244.18 39.64 244.764 39.856 245.452 39.856C246.476 39.856 247.188 39.424 247.588 38.56H251.956C251.732 39.44 251.324 40.232 250.732 40.936C250.156 41.64 249.428 42.192 248.548 42.592C247.668 42.992 246.684 43.192 245.596 43.192C244.284 43.192 243.116 42.912 242.092 42.352C241.068 41.792 240.268 40.992 239.692 39.952C239.116 38.912 238.828 37.696 238.828 36.304C238.828 34.912 239.108 33.696 239.668 32.656C240.244 31.616 241.044 30.816 242.068 30.256C243.092 29.696 244.268 29.416 245.596 29.416C246.892 29.416 248.044 29.688 249.052 30.232C250.06 30.776 250.844 31.552 251.404 32.56C251.98 33.568 252.268 34.744 252.268 36.088ZM248.068 35.008C248.068 34.304 247.828 33.744 247.348 33.328C246.868 32.912 246.268 32.704 245.548 32.704C244.86 32.704 244.276 32.904 243.796 33.304C243.332 33.704 243.044 34.272 242.932 35.008H248.068ZM271.521 29.464C273.185 29.464 274.505 29.968 275.481 30.976C276.473 31.984 276.969 33.384 276.969 35.176V43H272.889V35.728C272.889 34.864 272.657 34.2 272.193 33.736C271.745 33.256 271.121 33.016 270.321 33.016C269.521 33.016 268.889 33.256 268.425 33.736C267.977 34.2 267.753 34.864 267.753 35.728V43H263.673V35.728C263.673 34.864 263.441 34.2 262.977 33.736C262.529 33.256 261.905 33.016 261.105 33.016C260.305 33.016 259.673 33.256 259.209 33.736C258.761 34.2 258.537 34.864 258.537 35.728V43H254.433V29.608H258.537V31.288C258.953 30.728 259.497 30.288 260.169 29.968C260.841 29.632 261.601 29.464 262.449 29.464C263.457 29.464 264.353 29.68 265.137 30.112C265.937 30.544 266.561 31.16 267.009 31.96C267.473 31.224 268.105 30.624 268.905 30.16C269.705 29.696 270.577 29.464 271.521 29.464ZM279.024 36.28C279.024 34.904 279.28 33.696 279.792 32.656C280.32 31.616 281.032 30.816 281.928 30.256C282.824 29.696 283.824 29.416 284.928 29.416C285.872 29.416 286.696 29.608 287.4 29.992C288.12 30.376 288.672 30.88 289.056 31.504V29.608H293.16V43H289.056V41.104C288.656 41.728 288.096 42.232 287.376 42.616C286.672 43 285.848 43.192 284.904 43.192C283.816 43.192 282.824 42.912 281.928 42.352C281.032 41.776 280.32 40.968 279.792 39.928C279.28 38.872 279.024 37.656 279.024 36.28ZM289.056 36.304C289.056 35.28 288.768 34.472 288.192 33.88C287.632 33.288 286.944 32.992 286.128 32.992C285.312 32.992 284.616 33.288 284.04 33.88C283.48 34.456 283.2 35.256 283.2 36.28C283.2 37.304 283.48 38.12 284.04 38.728C284.616 39.32 285.312 39.616 286.128 39.616C286.944 39.616 287.632 39.32 288.192 38.728C288.768 38.136 289.056 37.328 289.056 36.304Z" fill="black"/>
</svg>
