<svg width="353" height="80" viewBox="0 0 353 80" fill="none" xmlns="http://www.w3.org/2000/svg">
<g filter="url(#filter0_d_50_8332)">
<mask id="mask0_50_8332" style="mask-type:luminance" maskUnits="userSpaceOnUse" x="4" y="0" width="344" height="72">
<path d="M4 0H347.921V72H4V0Z" fill="white"/>
</mask>
<g mask="url(#mask0_50_8332)">
<mask id="mask1_50_8332" style="mask-type:luminance" maskUnits="userSpaceOnUse" x="4" y="0" width="346" height="72">
<path d="M17.2905 0H335.715C339.24 0 342.626 1.5 345.118 4.16667C347.61 6.83333 349.006 10.4506 349.006 14.2222V57.0062C349.006 60.7778 347.61 64.3951 345.118 67.0617C342.626 69.7284 339.24 71.2284 335.715 71.2284H17.2905C13.766 71.2284 10.3857 69.7284 7.89371 67.0617C5.39597 64.3951 4 60.7778 4 57.0062V14.2222C4 10.4506 5.39597 6.83333 7.89371 4.16667C10.3857 1.5 13.766 0 17.2905 0Z" fill="white"/>
</mask>
<g mask="url(#mask1_50_8332)">
<path d="M4 0H347.143V72H4V0Z" fill="#B7CDEB"/>
</g>
</g>
<path d="M55.592 29.44V32.848H61.088V36.016H55.592V39.712H61.808V43H51.488V26.152H61.808V29.44H55.592ZM69.9204 43.192C68.7524 43.192 67.7124 42.992 66.8004 42.592C65.8884 42.192 65.1684 41.648 64.6404 40.96C64.1124 40.256 63.8164 39.472 63.7524 38.608H67.8084C67.8564 39.072 68.0724 39.448 68.4564 39.736C68.8404 40.024 69.3124 40.168 69.8724 40.168C70.3844 40.168 70.7764 40.072 71.0484 39.88C71.3364 39.672 71.4804 39.408 71.4804 39.088C71.4804 38.704 71.2804 38.424 70.8804 38.248C70.4804 38.056 69.8324 37.848 68.9364 37.624C67.9764 37.4 67.1764 37.168 66.5364 36.928C65.8964 36.672 65.3444 36.28 64.8804 35.752C64.4164 35.208 64.1844 34.48 64.1844 33.568C64.1844 32.8 64.3924 32.104 64.8084 31.48C65.2404 30.84 65.8644 30.336 66.6804 29.968C67.5124 29.6 68.4964 29.416 69.6324 29.416C71.3124 29.416 72.6324 29.832 73.5924 30.664C74.5684 31.496 75.1284 32.6 75.2724 33.976H71.4804C71.4164 33.512 71.2084 33.144 70.8564 32.872C70.5204 32.6 70.0724 32.464 69.5124 32.464C69.0324 32.464 68.6644 32.56 68.4084 32.752C68.1524 32.928 68.0244 33.176 68.0244 33.496C68.0244 33.88 68.2244 34.168 68.6244 34.36C69.0404 34.552 69.6804 34.744 70.5444 34.936C71.5364 35.192 72.3444 35.448 72.9684 35.704C73.5924 35.944 74.1364 36.344 74.6004 36.904C75.0804 37.448 75.3284 38.184 75.3444 39.112C75.3444 39.896 75.1204 40.6 74.6724 41.224C74.2404 41.832 73.6084 42.312 72.7764 42.664C71.9604 43.016 71.0084 43.192 69.9204 43.192ZM77.0392 36.304C77.0392 34.912 77.3192 33.696 77.8792 32.656C78.4552 31.616 79.2472 30.816 80.2552 30.256C81.2792 29.696 82.4472 29.416 83.7592 29.416C85.4392 29.416 86.8392 29.856 87.9592 30.736C89.0952 31.616 89.8392 32.856 90.1912 34.456H85.8232C85.4552 33.432 84.7432 32.92 83.6872 32.92C82.9352 32.92 82.3352 33.216 81.8872 33.808C81.4392 34.384 81.2152 35.216 81.2152 36.304C81.2152 37.392 81.4392 38.232 81.8872 38.824C82.3352 39.4 82.9352 39.688 83.6872 39.688C84.7432 39.688 85.4552 39.176 85.8232 38.152H90.1912C89.8392 39.72 89.0952 40.952 87.9592 41.848C86.8232 42.744 85.4232 43.192 83.7592 43.192C82.4472 43.192 81.2792 42.912 80.2552 42.352C79.2472 41.792 78.4552 40.992 77.8792 39.952C77.3192 38.912 77.0392 37.696 77.0392 36.304ZM98.4824 43.192C97.1704 43.192 95.9864 42.912 94.9304 42.352C93.8904 41.792 93.0664 40.992 92.4584 39.952C91.8664 38.912 91.5704 37.696 91.5704 36.304C91.5704 34.928 91.8744 33.72 92.4824 32.68C93.0904 31.624 93.9224 30.816 94.9784 30.256C96.0344 29.696 97.2184 29.416 98.5304 29.416C99.8424 29.416 101.026 29.696 102.082 30.256C103.138 30.816 103.97 31.624 104.578 32.68C105.186 33.72 105.49 34.928 105.49 36.304C105.49 37.68 105.178 38.896 104.554 39.952C103.946 40.992 103.106 41.792 102.034 42.352C100.978 42.912 99.7944 43.192 98.4824 43.192ZM98.4824 39.64C99.2664 39.64 99.9304 39.352 100.474 38.776C101.034 38.2 101.314 37.376 101.314 36.304C101.314 35.232 101.042 34.408 100.498 33.832C99.9704 33.256 99.3144 32.968 98.5304 32.968C97.7304 32.968 97.0664 33.256 96.5384 33.832C96.0104 34.392 95.7464 35.216 95.7464 36.304C95.7464 37.376 96.0024 38.2 96.5144 38.776C97.0424 39.352 97.6984 39.64 98.4824 39.64ZM111.772 25.24V43H107.668V25.24H111.772ZM122.978 29.464C124.514 29.464 125.746 29.976 126.674 31C127.602 32.008 128.066 33.4 128.066 35.176V43H123.986V35.728C123.986 34.832 123.754 34.136 123.29 33.64C122.826 33.144 122.202 32.896 121.418 32.896C120.634 32.896 120.01 33.144 119.546 33.64C119.082 34.136 118.85 34.832 118.85 35.728V43H114.746V25.24H118.85V31.408C119.266 30.816 119.834 30.344 120.554 29.992C121.274 29.64 122.082 29.464 122.978 29.464ZM143.542 36.088C143.542 36.472 143.518 36.872 143.47 37.288H134.182C134.246 38.12 134.51 38.76 134.974 39.208C135.454 39.64 136.038 39.856 136.726 39.856C137.75 39.856 138.462 39.424 138.862 38.56H143.23C143.006 39.44 142.598 40.232 142.006 40.936C141.43 41.64 140.702 42.192 139.822 42.592C138.942 42.992 137.958 43.192 136.87 43.192C135.558 43.192 134.39 42.912 133.366 42.352C132.342 41.792 131.542 40.992 130.966 39.952C130.39 38.912 130.102 37.696 130.102 36.304C130.102 34.912 130.382 33.696 130.942 32.656C131.518 31.616 132.318 30.816 133.342 30.256C134.366 29.696 135.542 29.416 136.87 29.416C138.166 29.416 139.318 29.688 140.326 30.232C141.334 30.776 142.118 31.552 142.678 32.56C143.254 33.568 143.542 34.744 143.542 36.088ZM139.342 35.008C139.342 34.304 139.102 33.744 138.622 33.328C138.142 32.912 137.542 32.704 136.822 32.704C136.134 32.704 135.55 32.904 135.07 33.304C134.606 33.704 134.318 34.272 134.206 35.008H139.342ZM149.811 31.84C150.291 31.104 150.891 30.528 151.611 30.112C152.331 29.68 153.131 29.464 154.011 29.464V33.808H152.883C151.859 33.808 151.091 34.032 150.579 34.48C150.067 34.912 149.811 35.68 149.811 36.784V43H145.707V29.608H149.811V31.84ZM167.154 43.192C165.842 43.192 164.658 42.912 163.602 42.352C162.562 41.792 161.738 40.992 161.13 39.952C160.538 38.912 160.242 37.696 160.242 36.304C160.242 34.928 160.546 33.72 161.154 32.68C161.762 31.624 162.594 30.816 163.65 30.256C164.706 29.696 165.89 29.416 167.202 29.416C168.514 29.416 169.698 29.696 170.754 30.256C171.81 30.816 172.642 31.624 173.25 32.68C173.858 33.72 174.162 34.928 174.162 36.304C174.162 37.68 173.85 38.896 173.226 39.952C172.618 40.992 171.778 41.792 170.706 42.352C169.65 42.912 168.466 43.192 167.154 43.192ZM167.154 39.64C167.938 39.64 168.602 39.352 169.146 38.776C169.706 38.2 169.986 37.376 169.986 36.304C169.986 35.232 169.714 34.408 169.17 33.832C168.642 33.256 167.986 32.968 167.202 32.968C166.402 32.968 165.738 33.256 165.21 33.832C164.682 34.392 164.418 35.216 164.418 36.304C164.418 37.376 164.674 38.2 165.186 38.776C165.714 39.352 166.37 39.64 167.154 39.64ZM189.564 29.608V43H185.46V41.176C185.044 41.768 184.476 42.248 183.756 42.616C183.052 42.968 182.268 43.144 181.404 43.144C180.38 43.144 179.476 42.92 178.692 42.472C177.908 42.008 177.3 41.344 176.868 40.48C176.436 39.616 176.22 38.6 176.22 37.432V29.608H180.3V36.88C180.3 37.776 180.532 38.472 180.996 38.968C181.46 39.464 182.084 39.712 182.868 39.712C183.668 39.712 184.3 39.464 184.764 38.968C185.228 38.472 185.46 37.776 185.46 36.88V29.608H189.564ZM199.975 39.52V43H197.887C196.399 43 195.239 42.64 194.407 41.92C193.575 41.184 193.159 39.992 193.159 38.344V33.016H191.527V29.608H193.159V26.344H197.263V29.608H199.951V33.016H197.263V38.392C197.263 38.792 197.359 39.08 197.551 39.256C197.743 39.432 198.063 39.52 198.511 39.52H199.975ZM206.365 31.84C206.845 31.104 207.445 30.528 208.165 30.112C208.885 29.68 209.685 29.464 210.565 29.464V33.808H209.437C208.413 33.808 207.645 34.032 207.133 34.48C206.621 34.912 206.365 35.68 206.365 36.784V43H202.261V29.608H206.365V31.84ZM218.623 43.192C217.311 43.192 216.127 42.912 215.071 42.352C214.031 41.792 213.207 40.992 212.599 39.952C212.007 38.912 211.711 37.696 211.711 36.304C211.711 34.928 212.015 33.72 212.623 32.68C213.231 31.624 214.063 30.816 215.119 30.256C216.175 29.696 217.359 29.416 218.671 29.416C219.983 29.416 221.167 29.696 222.223 30.256C223.279 30.816 224.111 31.624 224.719 32.68C225.327 33.72 225.631 34.928 225.631 36.304C225.631 37.68 225.319 38.896 224.695 39.952C224.087 40.992 223.247 41.792 222.175 42.352C221.119 42.912 219.935 43.192 218.623 43.192ZM218.623 39.64C219.407 39.64 220.071 39.352 220.615 38.776C221.175 38.2 221.455 37.376 221.455 36.304C221.455 35.232 221.183 34.408 220.639 33.832C220.111 33.256 219.455 32.968 218.671 32.968C217.871 32.968 217.207 33.256 216.679 33.832C216.151 34.392 215.887 35.216 215.887 36.304C215.887 37.376 216.143 38.2 216.655 38.776C217.183 39.352 217.839 39.64 218.623 39.64ZM240.358 39.52V43H238.27C236.782 43 235.622 42.64 234.79 41.92C233.958 41.184 233.542 39.992 233.542 38.344V33.016H231.91V29.608H233.542V26.344H237.646V29.608H240.334V33.016H237.646V38.392C237.646 38.792 237.742 39.08 237.934 39.256C238.126 39.432 238.446 39.52 238.894 39.52H240.358ZM255.268 36.088C255.268 36.472 255.244 36.872 255.196 37.288H245.908C245.972 38.12 246.236 38.76 246.7 39.208C247.18 39.64 247.764 39.856 248.452 39.856C249.476 39.856 250.188 39.424 250.588 38.56H254.956C254.732 39.44 254.324 40.232 253.732 40.936C253.156 41.64 252.428 42.192 251.548 42.592C250.668 42.992 249.684 43.192 248.596 43.192C247.284 43.192 246.116 42.912 245.092 42.352C244.068 41.792 243.268 40.992 242.692 39.952C242.116 38.912 241.828 37.696 241.828 36.304C241.828 34.912 242.108 33.696 242.668 32.656C243.244 31.616 244.044 30.816 245.068 30.256C246.092 29.696 247.268 29.416 248.596 29.416C249.892 29.416 251.044 29.688 252.052 30.232C253.06 30.776 253.844 31.552 254.404 32.56C254.98 33.568 255.268 34.744 255.268 36.088ZM251.068 35.008C251.068 34.304 250.828 33.744 250.348 33.328C249.868 32.912 249.268 32.704 248.548 32.704C247.86 32.704 247.276 32.904 246.796 33.304C246.332 33.704 246.044 34.272 245.932 35.008H251.068ZM274.521 29.464C276.185 29.464 277.505 29.968 278.481 30.976C279.473 31.984 279.969 33.384 279.969 35.176V43H275.889V35.728C275.889 34.864 275.657 34.2 275.193 33.736C274.745 33.256 274.121 33.016 273.321 33.016C272.521 33.016 271.889 33.256 271.425 33.736C270.977 34.2 270.753 34.864 270.753 35.728V43H266.673V35.728C266.673 34.864 266.441 34.2 265.977 33.736C265.529 33.256 264.905 33.016 264.105 33.016C263.305 33.016 262.673 33.256 262.209 33.736C261.761 34.2 261.537 34.864 261.537 35.728V43H257.433V29.608H261.537V31.288C261.953 30.728 262.497 30.288 263.169 29.968C263.841 29.632 264.601 29.464 265.449 29.464C266.457 29.464 267.353 29.68 268.137 30.112C268.937 30.544 269.561 31.16 270.009 31.96C270.473 31.224 271.105 30.624 271.905 30.16C272.705 29.696 273.577 29.464 274.521 29.464ZM282.024 36.28C282.024 34.904 282.28 33.696 282.792 32.656C283.32 31.616 284.032 30.816 284.928 30.256C285.824 29.696 286.824 29.416 287.928 29.416C288.872 29.416 289.696 29.608 290.4 29.992C291.12 30.376 291.672 30.88 292.056 31.504V29.608H296.16V43H292.056V41.104C291.656 41.728 291.096 42.232 290.376 42.616C289.672 43 288.848 43.192 287.904 43.192C286.816 43.192 285.824 42.912 284.928 42.352C284.032 41.776 283.32 40.968 282.792 39.928C282.28 38.872 282.024 37.656 282.024 36.28ZM292.056 36.304C292.056 35.28 291.768 34.472 291.192 33.88C290.632 33.288 289.944 32.992 289.128 32.992C288.312 32.992 287.616 33.288 287.04 33.88C286.48 34.456 286.2 35.256 286.2 36.28C286.2 37.304 286.48 38.12 287.04 38.728C287.616 39.32 288.312 39.616 289.128 39.616C289.944 39.616 290.632 39.32 291.192 38.728C291.768 38.136 292.056 37.328 292.056 36.304Z" fill="black"/>
</g>
<defs>
<filter id="filter0_d_50_8332" x="0" y="0" width="353" height="80" filterUnits="userSpaceOnUse" color-interpolation-filters="sRGB">
<feFlood flood-opacity="0" result="BackgroundImageFix"/>
<feColorMatrix in="SourceAlpha" type="matrix" values="0 0 0 0 0 0 0 0 0 0 0 0 0 0 0 0 0 0 127 0" result="hardAlpha"/>
<feOffset dy="4"/>
<feGaussianBlur stdDeviation="2"/>
<feComposite in2="hardAlpha" operator="out"/>
<feColorMatrix type="matrix" values="0 0 0 0 0 0 0 0 0 0 0 0 0 0 0 0 0 0 0.25 0"/>
<feBlend mode="normal" in2="BackgroundImageFix" result="effect1_dropShadow_50_8332"/>
<feBlend mode="normal" in="SourceGraphic" in2="effect1_dropShadow_50_8332" result="shape"/>
</filter>
</defs>
</svg>
