<svg width="345" height="71" viewBox="0 0 345 71" fill="none" xmlns="http://www.w3.org/2000/svg">
<mask id="mask0_50_8411" style="mask-type:luminance" maskUnits="userSpaceOnUse" x="0" y="0" width="344" height="71">
<path d="M0 0H343.921V71H0V0Z" fill="white"/>
</mask>
<g mask="url(#mask0_50_8411)">
<mask id="mask1_50_8411" style="mask-type:luminance" maskUnits="userSpaceOnUse" x="0" y="0" width="346" height="71">
<path d="M13.2905 0H331.715C335.24 0 338.626 1.48479 341.118 4.13533C343.61 6.792 345.006 10.3874 345.006 14.1362V56.6552C345.006 60.404 343.61 63.9994 341.118 66.6499C338.626 69.3005 335.24 70.7914 331.715 70.7914H13.2905C9.766 70.7914 6.38568 69.3005 3.89371 66.6499C1.39597 63.9994 0 60.404 0 56.6552V14.1362C0 10.3874 1.39597 6.792 3.89371 4.13533C6.38568 1.48479 9.766 0 13.2905 0Z" fill="white"/>
</mask>
<g mask="url(#mask1_50_8411)">
<path d="M0 0H343.143V71.5645H0V0Z" fill="#F2F4DE"/>
</g>
</g>
<mask id="mask2_50_8411" style="mask-type:luminance" maskUnits="userSpaceOnUse" x="0" y="0" width="345" height="71">
<path d="M0 0H345V70.7988H0V0Z" fill="white"/>
</mask>
<g mask="url(#mask2_50_8411)">
</g>
<path d="M56.592 32.44V35.848H62.088V39.016H56.592V42.712H62.808V46H52.488V29.152H62.808V32.44H56.592ZM70.9204 46.192C69.7524 46.192 68.7124 45.992 67.8004 45.592C66.8884 45.192 66.1684 44.648 65.6404 43.96C65.1124 43.256 64.8164 42.472 64.7524 41.608H68.8084C68.8564 42.072 69.0724 42.448 69.4564 42.736C69.8404 43.024 70.3124 43.168 70.8724 43.168C71.3844 43.168 71.7764 43.072 72.0484 42.88C72.3364 42.672 72.4804 42.408 72.4804 42.088C72.4804 41.704 72.2804 41.424 71.8804 41.248C71.4804 41.056 70.8324 40.848 69.9364 40.624C68.9764 40.4 68.1764 40.168 67.5364 39.928C66.8964 39.672 66.3444 39.28 65.8804 38.752C65.4164 38.208 65.1844 37.48 65.1844 36.568C65.1844 35.8 65.3924 35.104 65.8084 34.48C66.2404 33.84 66.8644 33.336 67.6804 32.968C68.5124 32.6 69.4964 32.416 70.6324 32.416C72.3124 32.416 73.6324 32.832 74.5924 33.664C75.5684 34.496 76.1284 35.6 76.2724 36.976H72.4804C72.4164 36.512 72.2084 36.144 71.8564 35.872C71.5204 35.6 71.0724 35.464 70.5124 35.464C70.0324 35.464 69.6644 35.56 69.4084 35.752C69.1524 35.928 69.0244 36.176 69.0244 36.496C69.0244 36.88 69.2244 37.168 69.6244 37.36C70.0404 37.552 70.6804 37.744 71.5444 37.936C72.5364 38.192 73.3444 38.448 73.9684 38.704C74.5924 38.944 75.1364 39.344 75.6004 39.904C76.0804 40.448 76.3284 41.184 76.3444 42.112C76.3444 42.896 76.1204 43.6 75.6724 44.224C75.2404 44.832 74.6084 45.312 73.7764 45.664C72.9604 46.016 72.0084 46.192 70.9204 46.192ZM78.0392 39.304C78.0392 37.912 78.3192 36.696 78.8792 35.656C79.4552 34.616 80.2472 33.816 81.2552 33.256C82.2792 32.696 83.4472 32.416 84.7592 32.416C86.4392 32.416 87.8392 32.856 88.9592 33.736C90.0952 34.616 90.8392 35.856 91.1912 37.456H86.8232C86.4552 36.432 85.7432 35.92 84.6872 35.92C83.9352 35.92 83.3352 36.216 82.8872 36.808C82.4392 37.384 82.2152 38.216 82.2152 39.304C82.2152 40.392 82.4392 41.232 82.8872 41.824C83.3352 42.4 83.9352 42.688 84.6872 42.688C85.7432 42.688 86.4552 42.176 86.8232 41.152H91.1912C90.8392 42.72 90.0952 43.952 88.9592 44.848C87.8232 45.744 86.4232 46.192 84.7592 46.192C83.4472 46.192 82.2792 45.912 81.2552 45.352C80.2472 44.792 79.4552 43.992 78.8792 42.952C78.3192 41.912 78.0392 40.696 78.0392 39.304ZM99.4824 46.192C98.1704 46.192 96.9864 45.912 95.9304 45.352C94.8904 44.792 94.0664 43.992 93.4584 42.952C92.8664 41.912 92.5704 40.696 92.5704 39.304C92.5704 37.928 92.8744 36.72 93.4824 35.68C94.0904 34.624 94.9224 33.816 95.9784 33.256C97.0344 32.696 98.2184 32.416 99.5304 32.416C100.842 32.416 102.026 32.696 103.082 33.256C104.138 33.816 104.97 34.624 105.578 35.68C106.186 36.72 106.49 37.928 106.49 39.304C106.49 40.68 106.178 41.896 105.554 42.952C104.946 43.992 104.106 44.792 103.034 45.352C101.978 45.912 100.794 46.192 99.4824 46.192ZM99.4824 42.64C100.266 42.64 100.93 42.352 101.474 41.776C102.034 41.2 102.314 40.376 102.314 39.304C102.314 38.232 102.042 37.408 101.498 36.832C100.97 36.256 100.314 35.968 99.5304 35.968C98.7304 35.968 98.0664 36.256 97.5384 36.832C97.0104 37.392 96.7464 38.216 96.7464 39.304C96.7464 40.376 97.0024 41.2 97.5144 41.776C98.0424 42.352 98.6984 42.64 99.4824 42.64ZM112.772 28.24V46H108.668V28.24H112.772ZM123.978 32.464C125.514 32.464 126.746 32.976 127.674 34C128.602 35.008 129.066 36.4 129.066 38.176V46H124.986V38.728C124.986 37.832 124.754 37.136 124.29 36.64C123.826 36.144 123.202 35.896 122.418 35.896C121.634 35.896 121.01 36.144 120.546 36.64C120.082 37.136 119.85 37.832 119.85 38.728V46H115.746V28.24H119.85V34.408C120.266 33.816 120.834 33.344 121.554 32.992C122.274 32.64 123.082 32.464 123.978 32.464ZM144.542 39.088C144.542 39.472 144.518 39.872 144.47 40.288H135.182C135.246 41.12 135.51 41.76 135.974 42.208C136.454 42.64 137.038 42.856 137.726 42.856C138.75 42.856 139.462 42.424 139.862 41.56H144.23C144.006 42.44 143.598 43.232 143.006 43.936C142.43 44.64 141.702 45.192 140.822 45.592C139.942 45.992 138.958 46.192 137.87 46.192C136.558 46.192 135.39 45.912 134.366 45.352C133.342 44.792 132.542 43.992 131.966 42.952C131.39 41.912 131.102 40.696 131.102 39.304C131.102 37.912 131.382 36.696 131.942 35.656C132.518 34.616 133.318 33.816 134.342 33.256C135.366 32.696 136.542 32.416 137.87 32.416C139.166 32.416 140.318 32.688 141.326 33.232C142.334 33.776 143.118 34.552 143.678 35.56C144.254 36.568 144.542 37.744 144.542 39.088ZM140.342 38.008C140.342 37.304 140.102 36.744 139.622 36.328C139.142 35.912 138.542 35.704 137.822 35.704C137.134 35.704 136.55 35.904 136.07 36.304C135.606 36.704 135.318 37.272 135.206 38.008H140.342ZM150.811 34.84C151.291 34.104 151.891 33.528 152.611 33.112C153.331 32.68 154.131 32.464 155.011 32.464V36.808H153.883C152.859 36.808 152.091 37.032 151.579 37.48C151.067 37.912 150.811 38.68 150.811 39.784V46H146.707V32.608H150.811V34.84ZM168.154 46.192C166.842 46.192 165.658 45.912 164.602 45.352C163.562 44.792 162.738 43.992 162.13 42.952C161.538 41.912 161.242 40.696 161.242 39.304C161.242 37.928 161.546 36.72 162.154 35.68C162.762 34.624 163.594 33.816 164.65 33.256C165.706 32.696 166.89 32.416 168.202 32.416C169.514 32.416 170.698 32.696 171.754 33.256C172.81 33.816 173.642 34.624 174.25 35.68C174.858 36.72 175.162 37.928 175.162 39.304C175.162 40.68 174.85 41.896 174.226 42.952C173.618 43.992 172.778 44.792 171.706 45.352C170.65 45.912 169.466 46.192 168.154 46.192ZM168.154 42.64C168.938 42.64 169.602 42.352 170.146 41.776C170.706 41.2 170.986 40.376 170.986 39.304C170.986 38.232 170.714 37.408 170.17 36.832C169.642 36.256 168.986 35.968 168.202 35.968C167.402 35.968 166.738 36.256 166.21 36.832C165.682 37.392 165.418 38.216 165.418 39.304C165.418 40.376 165.674 41.2 166.186 41.776C166.714 42.352 167.37 42.64 168.154 42.64ZM190.564 32.608V46H186.46V44.176C186.044 44.768 185.476 45.248 184.756 45.616C184.052 45.968 183.268 46.144 182.404 46.144C181.38 46.144 180.476 45.92 179.692 45.472C178.908 45.008 178.3 44.344 177.868 43.48C177.436 42.616 177.22 41.6 177.22 40.432V32.608H181.3V39.88C181.3 40.776 181.532 41.472 181.996 41.968C182.46 42.464 183.084 42.712 183.868 42.712C184.668 42.712 185.3 42.464 185.764 41.968C186.228 41.472 186.46 40.776 186.46 39.88V32.608H190.564ZM200.975 42.52V46H198.887C197.399 46 196.239 45.64 195.407 44.92C194.575 44.184 194.159 42.992 194.159 41.344V36.016H192.527V32.608H194.159V29.344H198.263V32.608H200.951V36.016H198.263V41.392C198.263 41.792 198.359 42.08 198.551 42.256C198.743 42.432 199.063 42.52 199.511 42.52H200.975ZM207.365 34.84C207.845 34.104 208.445 33.528 209.165 33.112C209.885 32.68 210.685 32.464 211.565 32.464V36.808H210.437C209.413 36.808 208.645 37.032 208.133 37.48C207.621 37.912 207.365 38.68 207.365 39.784V46H203.261V32.608H207.365V34.84ZM219.623 46.192C218.311 46.192 217.127 45.912 216.071 45.352C215.031 44.792 214.207 43.992 213.599 42.952C213.007 41.912 212.711 40.696 212.711 39.304C212.711 37.928 213.015 36.72 213.623 35.68C214.231 34.624 215.063 33.816 216.119 33.256C217.175 32.696 218.359 32.416 219.671 32.416C220.983 32.416 222.167 32.696 223.223 33.256C224.279 33.816 225.111 34.624 225.719 35.68C226.327 36.72 226.631 37.928 226.631 39.304C226.631 40.68 226.319 41.896 225.695 42.952C225.087 43.992 224.247 44.792 223.175 45.352C222.119 45.912 220.935 46.192 219.623 46.192ZM219.623 42.64C220.407 42.64 221.071 42.352 221.615 41.776C222.175 41.2 222.455 40.376 222.455 39.304C222.455 38.232 222.183 37.408 221.639 36.832C221.111 36.256 220.455 35.968 219.671 35.968C218.871 35.968 218.207 36.256 217.679 36.832C217.151 37.392 216.887 38.216 216.887 39.304C216.887 40.376 217.143 41.2 217.655 41.776C218.183 42.352 218.839 42.64 219.623 42.64ZM241.358 42.52V46H239.27C237.782 46 236.622 45.64 235.79 44.92C234.958 44.184 234.542 42.992 234.542 41.344V36.016H232.91V32.608H234.542V29.344H238.646V32.608H241.334V36.016H238.646V41.392C238.646 41.792 238.742 42.08 238.934 42.256C239.126 42.432 239.446 42.52 239.894 42.52H241.358ZM256.268 39.088C256.268 39.472 256.244 39.872 256.196 40.288H246.908C246.972 41.12 247.236 41.76 247.7 42.208C248.18 42.64 248.764 42.856 249.452 42.856C250.476 42.856 251.188 42.424 251.588 41.56H255.956C255.732 42.44 255.324 43.232 254.732 43.936C254.156 44.64 253.428 45.192 252.548 45.592C251.668 45.992 250.684 46.192 249.596 46.192C248.284 46.192 247.116 45.912 246.092 45.352C245.068 44.792 244.268 43.992 243.692 42.952C243.116 41.912 242.828 40.696 242.828 39.304C242.828 37.912 243.108 36.696 243.668 35.656C244.244 34.616 245.044 33.816 246.068 33.256C247.092 32.696 248.268 32.416 249.596 32.416C250.892 32.416 252.044 32.688 253.052 33.232C254.06 33.776 254.844 34.552 255.404 35.56C255.98 36.568 256.268 37.744 256.268 39.088ZM252.068 38.008C252.068 37.304 251.828 36.744 251.348 36.328C250.868 35.912 250.268 35.704 249.548 35.704C248.86 35.704 248.276 35.904 247.796 36.304C247.332 36.704 247.044 37.272 246.932 38.008H252.068ZM275.521 32.464C277.185 32.464 278.505 32.968 279.481 33.976C280.473 34.984 280.969 36.384 280.969 38.176V46H276.889V38.728C276.889 37.864 276.657 37.2 276.193 36.736C275.745 36.256 275.121 36.016 274.321 36.016C273.521 36.016 272.889 36.256 272.425 36.736C271.977 37.2 271.753 37.864 271.753 38.728V46H267.673V38.728C267.673 37.864 267.441 37.2 266.977 36.736C266.529 36.256 265.905 36.016 265.105 36.016C264.305 36.016 263.673 36.256 263.209 36.736C262.761 37.2 262.537 37.864 262.537 38.728V46H258.433V32.608H262.537V34.288C262.953 33.728 263.497 33.288 264.169 32.968C264.841 32.632 265.601 32.464 266.449 32.464C267.457 32.464 268.353 32.68 269.137 33.112C269.937 33.544 270.561 34.16 271.009 34.96C271.473 34.224 272.105 33.624 272.905 33.16C273.705 32.696 274.577 32.464 275.521 32.464ZM283.024 39.28C283.024 37.904 283.28 36.696 283.792 35.656C284.32 34.616 285.032 33.816 285.928 33.256C286.824 32.696 287.824 32.416 288.928 32.416C289.872 32.416 290.696 32.608 291.4 32.992C292.12 33.376 292.672 33.88 293.056 34.504V32.608H297.16V46H293.056V44.104C292.656 44.728 292.096 45.232 291.376 45.616C290.672 46 289.848 46.192 288.904 46.192C287.816 46.192 286.824 45.912 285.928 45.352C285.032 44.776 284.32 43.968 283.792 42.928C283.28 41.872 283.024 40.656 283.024 39.28ZM293.056 39.304C293.056 38.28 292.768 37.472 292.192 36.88C291.632 36.288 290.944 35.992 290.128 35.992C289.312 35.992 288.616 36.288 288.04 36.88C287.48 37.456 287.2 38.256 287.2 39.28C287.2 40.304 287.48 41.12 288.04 41.728C288.616 42.32 289.312 42.616 290.128 42.616C290.944 42.616 291.632 42.32 292.192 41.728C292.768 41.136 293.056 40.328 293.056 39.304Z" fill="black"/>
</svg>
