<svg width="277" height="428" viewBox="0 0 277 428" fill="none" xmlns="http://www.w3.org/2000/svg">
<mask id="mask0_369_14168" style="mask-type:luminance" maskUnits="userSpaceOnUse" x="52" y="38" width="106" height="122">
<path d="M52.731 38.6387H157.529V159.786H52.731V38.6387Z" fill="white"/>
</mask>
<g mask="url(#mask0_369_14168)">
<mask id="mask1_369_14168" style="mask-type:luminance" maskUnits="userSpaceOnUse" x="52" y="38" width="106" height="122">
<path d="M68.1824 42.6066C72.0344 48.0012 74.5158 50.8545 76.7232 53.1283C78.9305 55.3871 81.6861 57.0962 83.8935 59.3699C86.1008 61.6437 88.3081 63.9174 90.2414 66.4735C91.9005 68.7473 92.9969 71.5858 94.9302 73.8595C96.8634 76.1333 99.3449 77.5451 101.552 79.8188C103.76 82.3749 105.678 86.0753 107.886 88.6315C109.819 91.1876 112.026 93.179 113.959 95.4527C116.167 98.0088 118.374 101.13 120.582 103.686C122.774 106.242 125.256 108.233 127.752 110.789C130.233 113.628 132.989 116.749 135.47 119.587C137.952 122.44 140.159 125.279 142.366 127.835C144.574 130.109 147.603 132.947 148.974 134.359C149.537 135.221 149.811 135.503 150.359 136.068C151.181 136.633 152.566 137.212 153.389 138.06C154.225 138.907 155.322 140.051 155.87 141.18C156.418 142.325 156.981 143.736 157.255 144.881C157.529 146.01 157.529 147.437 157.255 148.566C156.981 149.711 156.707 151.122 156.144 152.267C155.596 153.396 154.774 154.823 153.937 155.67C153.115 156.517 152.018 157.379 150.907 157.944C149.811 158.508 148.426 158.791 147.329 159.073C145.944 159.37 144.848 159.073 143.463 158.791C142.366 158.508 140.981 158.226 139.885 157.661C138.774 157.097 137.952 155.952 137.115 155.105C136.293 154.243 135.47 153.114 134.922 151.984C134.359 150.84 134.085 149.428 134.085 148.002C134.085 146.857 134.085 145.445 134.359 144.301C134.634 143.172 135.196 141.745 135.744 140.616C136.293 139.471 137.404 138.624 138.226 137.777C139.322 136.915 140.433 136.35 141.53 135.786C142.641 135.221 144.011 134.939 145.396 134.939C146.493 134.939 147.878 135.221 148.974 135.503C150.085 135.786 151.455 136.35 152.566 137.212C153.663 138.06 154.225 138.907 155.048 140.051C155.87 141.18 156.707 142.325 156.981 143.454C157.255 144.598 157.255 146.01 157.255 147.437C157.255 148.566 156.981 149.993 156.707 151.122C156.418 152.267 155.596 153.396 154.774 154.54C153.937 155.388 153.115 156.517 152.018 157.097C150.907 157.944 149.537 158.508 148.426 158.791C147.329 159.073 145.944 159.073 144.848 159.073C143.737 159.073 141.256 158.226 141.256 158.226C141.256 158.226 131.604 148.566 128.3 144.881C125.819 142.325 124.434 140.051 122.5 137.777C120.582 135.503 118.922 133.512 116.989 131.238C115.056 128.965 113.411 126.973 111.478 124.714C109.271 122.44 107.063 120.167 104.856 117.611C102.375 114.757 99.8931 111.072 97.6857 108.233C95.7525 105.677 93.5452 103.968 91.9005 101.412C90.2414 99.1383 89.1305 96.0174 87.4858 93.7437C85.8267 91.4699 83.6193 89.4785 81.6861 87.2048C79.7529 84.931 78.1082 82.3749 76.4491 79.8188C74.79 77.2627 73.1453 74.989 71.212 72.4328C69.0047 69.5944 66.5232 67.0383 64.0418 64.1998C61.5603 61.3613 57.6939 58.2405 56.0492 55.9667C54.9383 54.5401 54.6642 53.1283 54.116 52.2663C53.8418 51.7016 53.2792 51.1369 53.0051 50.5573C52.731 49.9926 52.731 49.1455 52.731 48.2984C52.731 47.7188 52.731 46.8717 52.731 46.307C52.731 45.7423 53.0051 44.8803 53.2792 44.3156C53.5677 43.7509 53.8418 42.889 54.116 42.3242C54.3901 41.7595 54.9383 41.1948 55.4865 40.9124C56.0492 40.3328 56.5974 40.0505 57.1456 39.7681C57.6939 39.4858 58.5306 39.2034 59.0789 38.921C59.9012 38.6387 60.4494 38.6387 61.2862 38.6387C61.8344 38.6387 62.6568 38.6387 63.2194 38.921C63.7677 39.2034 64.59 39.4858 65.1382 39.7681C65.7009 40.0505 66.2491 40.3328 66.7974 40.9124C67.3456 41.4771 68.1824 42.6066 68.1824 42.6066Z" fill="white"/>
</mask>
<g mask="url(#mask1_369_14168)">
<path d="M41.7085 27.27H168.566V169.313H41.7085V27.27Z" fill="#182B17"/>
</g>
</g>
<mask id="mask2_369_14168" style="mask-type:luminance" maskUnits="userSpaceOnUse" x="161" y="39" width="48" height="75">
<path d="M161.944 39.2036H208.817V113.063H161.944V39.2036Z" fill="white"/>
</mask>
<g mask="url(#mask2_369_14168)">
<mask id="mask3_369_14168" style="mask-type:luminance" maskUnits="userSpaceOnUse" x="161" y="39" width="47" height="73">
<path d="M177.929 43.4687C182.618 51.4194 184.277 54.2579 185.936 56.814C187.581 59.6525 189.24 62.491 190.899 65.3294C192.27 67.8856 193.929 70.1593 195.314 72.7154C196.684 75.5687 198.343 78.4072 199.728 81.2457C201.099 84.3665 203.58 88.914 203.855 90.6231C203.855 91.1878 203.58 91.4701 203.58 92.0349C203.855 92.8968 205.24 93.7439 205.788 94.591C206.336 95.4529 207.173 96.5824 207.447 97.7267C207.721 98.8561 207.995 99.9856 207.995 101.13C207.995 102.259 207.721 103.121 207.447 104.251C207.173 105.395 206.61 106.524 205.788 107.372C205.24 108.233 204.129 109.081 203.306 109.645C202.484 110.225 201.373 110.79 200.277 111.072C199.166 111.354 197.795 111.354 196.684 111.354C195.588 111.354 194.751 110.79 193.655 110.507C192.558 109.943 191.447 109.645 190.625 108.798C189.788 108.233 189.24 107.089 188.692 106.242C188.143 105.113 187.581 103.968 187.307 102.839C187.033 101.695 187.033 100.565 187.307 99.4208C187.581 98.2914 187.581 97.1471 188.143 96.3C188.692 95.1706 189.24 94.3086 190.077 93.4615C190.899 92.6144 191.721 91.7525 192.832 91.1878C193.929 90.6231 195.04 90.3407 196.136 90.3407C197.247 90.3407 198.343 90.0435 199.44 90.3407C200.551 90.6231 201.647 90.9054 202.484 91.4701C203.58 92.0349 204.403 92.8968 205.24 93.7439C206.062 94.591 206.61 95.4529 207.173 96.5824C207.721 97.4294 207.995 98.5737 207.995 99.7032C207.995 100.847 207.995 102.259 207.721 103.404C207.447 104.533 206.899 105.677 206.336 106.524C205.788 107.372 204.965 108.516 204.129 109.081C203.306 109.943 202.21 110.507 201.099 110.79C200.002 111.072 199.166 111.354 198.069 111.354C196.958 111.354 195.588 111.354 194.477 111.072C193.38 110.79 191.721 109.645 191.721 109.645C191.721 109.645 187.869 100.847 185.936 96.5824C184.003 92.6144 181.796 89.1964 180.136 85.5108C178.766 82.3751 178.492 79.2543 177.107 76.4158C175.736 73.295 173.24 70.7389 171.321 67.6032C169.662 64.7647 167.729 61.0792 166.359 58.5231C165.248 56.5317 163.877 54.2579 163.04 52.8312C162.766 51.9842 162.492 51.4194 162.218 50.8547C161.944 49.9928 161.944 49.4281 161.944 48.581C161.944 48.0014 161.944 47.1543 161.944 46.5896C161.944 45.7425 162.218 44.8806 162.492 44.3158C162.766 43.7511 163.04 43.1715 163.589 42.6068C164.151 42.0421 164.699 41.7597 165.248 41.195C165.796 40.9126 166.359 40.3331 166.907 40.0507C167.455 39.7683 168.277 39.486 168.84 39.486C169.662 39.2036 170.211 39.2036 171.047 39.2036C171.596 39.2036 172.418 39.486 172.966 39.7683C173.529 40.0507 174.351 40.3331 174.899 40.6154C175.448 40.9126 176.01 41.195 176.558 41.7597C177.107 42.3244 177.929 43.4687 177.929 43.4687Z" fill="white"/>
</mask>
<g mask="url(#mask3_369_14168)">
<path d="M150.907 27.835H219.854V121.579H150.907V27.835Z" fill="#182B17"/>
</g>
</g>
<mask id="mask4_369_14168" style="mask-type:luminance" maskUnits="userSpaceOnUse" x="80" y="193" width="72" height="35">
<path d="M80.8638 193.729H151.427V227.821H80.8638V193.729Z" fill="white"/>
</mask>
<g mask="url(#mask4_369_14168)">
<mask id="mask5_369_14168" style="mask-type:luminance" maskUnits="userSpaceOnUse" x="80" y="193" width="71" height="33">
<path d="M92.9969 194.309C99.8931 196.865 103.76 197.995 106.789 199.139C109.545 200.268 112.026 201.695 114.782 202.542C117.537 203.389 120.293 203.389 123.063 203.672C125.819 203.969 128.848 203.672 131.604 203.672C134.634 203.672 138.5 203.969 140.707 204.251C142.078 204.534 142.641 204.534 143.737 204.816C144.848 205.098 145.944 205.663 146.767 206.525C147.603 207.09 148.426 208.219 148.974 209.081C149.537 209.928 150.085 210.775 150.359 211.919C150.633 213.049 150.907 214.193 150.907 215.323C150.907 216.467 150.633 217.596 150.085 218.741C149.811 219.87 148.974 220.717 148.426 221.579C147.603 222.426 146.767 223.273 145.944 223.853C145.122 224.418 144.011 224.982 142.915 225.265C141.804 225.547 140.707 225.265 139.596 225.265C138.5 225.265 137.404 224.982 136.293 224.418C135.196 223.853 134.359 223.273 133.537 222.426C132.715 221.579 132.152 220.717 131.604 219.87C131.056 218.741 130.781 217.596 130.507 216.467C130.233 215.323 130.233 214.193 130.507 213.049C130.781 211.919 131.056 210.775 131.604 209.928C132.152 208.799 132.715 207.937 133.537 207.09C134.359 206.243 135.196 205.663 136.293 205.381C137.404 204.816 138.5 204.534 139.596 204.534C140.707 204.534 141.804 204.251 142.915 204.534C144.011 204.816 145.122 205.381 145.944 205.945C146.767 206.525 147.878 207.09 148.426 207.937C149.248 208.799 149.537 209.928 150.085 211.058C150.359 212.202 150.907 213.049 150.907 214.193C150.907 215.323 150.633 216.467 150.359 217.596C150.085 218.741 149.537 219.87 148.974 220.717C148.426 221.579 147.603 222.709 146.767 223.273C145.944 224.135 144.848 224.7 143.737 224.982C142.641 225.265 140.707 225.265 140.707 225.265C140.707 225.265 130.781 224.418 126.641 223.853C123.063 223.571 120.019 223.571 116.989 222.709C113.96 221.862 111.204 220.435 108.16 219.305C105.13 218.161 101.826 217.314 98.7822 216.185C96.0266 215.04 92.7228 213.911 90.5155 212.767C88.8564 211.919 87.4858 211.355 86.3749 210.775C85.5526 210.493 85.0043 210.21 84.4417 209.646C83.8935 209.363 83.3452 208.799 82.797 208.219C82.2488 207.654 81.9602 206.807 81.6861 206.243C81.412 205.663 81.412 204.816 81.1379 204.251C81.1379 203.672 80.8638 202.824 80.8638 202.26C80.8638 201.413 80.8638 200.833 81.1379 199.986C81.412 199.421 81.6861 198.559 81.9602 197.995C82.2488 197.43 82.797 196.865 83.3452 196.286C83.8935 195.721 84.4417 195.156 85.0043 194.874C85.5526 194.591 86.1008 194.309 86.649 194.027C87.2117 193.729 88.034 193.729 88.8564 193.729C89.419 193.729 90.2414 193.729 90.7896 193.729C91.6119 193.729 92.9969 194.309 92.9969 194.309Z" fill="white"/>
</mask>
<g mask="url(#mask5_369_14168)">
<path d="M69.8271 182.375H160.833V236.351H69.8271V182.375Z" fill="#182B17"/>
</g>
</g>
<mask id="mask6_369_14168" style="mask-type:luminance" maskUnits="userSpaceOnUse" x="52" y="279" width="118" height="86">
<path d="M52.457 279.522H169.893V364.751H52.457V279.522Z" fill="white"/>
</mask>
<g mask="url(#mask6_369_14168)">
<mask id="mask7_369_14168" style="mask-type:luminance" maskUnits="userSpaceOnUse" x="52" y="279" width="117" height="85">
<path d="M56.0494 347.705C63.2196 342.028 65.7011 340.319 67.9084 338.328C70.3899 336.336 72.5972 334.063 75.3528 332.071C78.1084 330.095 81.1381 328.103 84.1678 326.112C87.2119 324.121 90.5157 321.847 93.5454 320.153C96.3009 318.444 98.5083 317.314 101.264 315.605C104.308 313.896 107.612 311.905 110.367 310.211C112.849 308.502 115.33 307.075 117.812 305.663C120.293 304.236 123.063 302.825 125.819 301.398C128.3 299.971 131.056 298.56 133.537 296.851C136.019 294.859 137.678 292.585 140.433 290.326C144.011 287.191 150.633 281.796 153.663 280.384C155.048 279.805 156.144 279.522 157.255 279.522C158.352 279.522 159.737 279.805 160.833 280.087C161.944 280.384 163.041 280.949 164.152 281.796C164.974 282.361 166.085 283.505 166.633 284.352C167.455 285.497 168.004 286.626 168.278 287.77C168.566 288.9 168.84 290.326 168.84 291.456C168.84 292.585 168.84 294.012 168.278 295.156C167.729 296.286 167.181 297.415 166.359 298.277C165.522 299.124 164.7 300.269 163.877 300.833C162.767 301.398 161.67 301.963 160.559 302.245C159.463 302.542 158.078 302.542 156.981 302.542C155.87 302.542 154.5 302.245 153.389 301.68C152.292 301.116 151.182 300.551 150.359 299.689C149.537 298.842 148.7 297.995 148.152 296.851C147.604 295.721 147.055 294.577 146.767 293.447C146.493 292.303 146.493 290.891 146.493 289.747C146.493 288.617 147.055 287.191 147.604 286.061C148.152 284.917 148.974 283.788 149.811 282.941C150.633 282.079 151.456 281.514 152.567 280.949C153.663 280.384 155.048 280.087 156.144 279.805C157.255 279.522 158.626 279.522 159.737 279.805C160.833 280.087 161.944 280.384 163.041 280.949C164.152 281.514 165.248 282.643 166.085 283.505C166.907 284.352 167.455 285.497 168.004 286.626C168.566 287.77 168.84 288.9 168.84 290.029C168.84 291.174 168.84 292.585 168.566 293.73C168.278 294.859 167.729 296.003 167.181 297.133C166.633 298.277 165.522 299.124 164.7 299.971C163.877 300.833 161.67 301.963 161.67 301.963C161.67 301.963 158.914 304.519 157.255 305.946C155.322 307.655 152.292 309.349 150.085 311.058C147.878 312.767 145.945 315.041 143.463 316.735C141.256 318.444 138.5 319.573 136.019 321C133.537 322.426 130.782 323.274 128.3 324.685C125.819 325.83 123.611 327.256 120.856 328.668C117.812 330.377 114.234 332.369 111.204 334.063C108.16 335.489 105.13 336.901 102.375 338.328C99.6192 339.755 97.1377 341.166 94.6562 342.593C91.9007 344.287 88.8566 346.279 86.3751 347.988C83.8936 349.697 81.9604 351.108 79.479 352.817C76.7234 354.526 73.6937 356.785 71.2122 358.494C69.279 359.921 67.6199 361.333 66.2493 362.195C65.427 362.76 64.8643 363.042 64.3161 363.324C63.7679 363.607 62.9311 363.889 62.3829 363.889C61.5605 363.889 61.0123 363.889 60.1755 363.889C59.6273 363.889 58.8049 363.607 58.2567 363.324C57.6941 363.042 56.8717 362.76 56.3235 362.477C55.7608 362.195 55.2126 361.615 54.6644 361.051C54.1161 360.486 53.842 359.639 53.5679 359.059C53.2794 358.494 53.0053 357.647 52.7311 357.083C52.457 356.503 52.457 355.656 52.457 355.091C52.457 354.229 52.457 353.665 52.7311 352.817C52.7311 352.253 53.0053 351.391 53.2794 350.826C53.5679 350.261 53.842 349.697 54.3903 349.117C54.9385 348.552 56.0494 347.705 56.0494 347.705Z" fill="white"/>
</mask>
<g mask="url(#mask7_369_14168)">
<path d="M41.4346 268.168H179.314V376.105H41.4346V268.168Z" fill="#182B17"/>
</g>
</g>
<mask id="mask8_369_14168" style="mask-type:luminance" maskUnits="userSpaceOnUse" x="147" y="338" width="51" height="64">
<path d="M147.877 338.596H197.521V401.399H147.877V338.596Z" fill="white"/>
</mask>
<g mask="url(#mask8_369_14168)">
<mask id="mask9_369_14168" style="mask-type:luminance" maskUnits="userSpaceOnUse" x="147" y="338" width="50" height="63">
<path d="M150.359 386.047C157.255 378.097 159.462 375.823 161.107 373.267C162.766 370.993 164.151 368.437 165.796 365.881C167.455 363.325 168.566 361.051 170.485 357.93C173.529 353.1 179.04 342.876 181.796 340.32C182.906 339.175 183.729 339.175 184.825 338.893C185.936 338.611 186.758 338.893 187.869 338.893C188.966 338.893 190.077 339.175 191.173 339.755C191.995 340.32 192.832 340.884 193.655 341.732C194.477 342.593 195.04 343.441 195.588 344.288C196.136 345.15 196.41 346.279 196.684 347.423C196.958 348.553 196.958 349.697 196.684 350.827C196.41 351.971 196.136 353.1 195.588 353.947C195.04 354.809 194.477 355.656 193.655 356.503C192.832 357.365 191.995 357.93 190.899 358.495C190.077 359.06 188.966 359.357 187.869 359.357C186.758 359.357 185.662 359.357 184.551 359.06C183.455 358.777 182.344 358.495 181.521 357.93C180.699 357.365 179.862 356.503 179.04 355.656C178.492 354.809 177.655 353.947 177.381 352.818C177.107 351.971 176.833 350.827 176.833 349.697C176.833 348.553 176.833 347.423 177.107 346.279C177.381 345.15 177.929 344.005 178.492 343.158C179.04 342.311 179.862 341.449 180.699 340.884C181.521 340.32 182.618 339.458 183.729 339.175C184.825 338.893 185.662 338.893 186.758 338.893C187.869 338.893 188.966 339.175 190.077 339.458C191.173 339.755 191.995 340.32 192.832 340.884C193.655 341.449 194.477 342.593 195.04 343.441C195.588 344.288 196.136 345.15 196.41 346.279C196.684 347.423 196.684 348.553 196.684 349.697C196.684 350.827 196.41 351.971 196.136 353.1C195.862 354.23 195.314 355.092 194.477 355.939C193.929 356.786 191.995 357.93 191.995 357.93C191.995 357.93 191.173 359.357 190.625 360.486C189.514 362.478 187.307 366.446 185.662 369.299C184.003 372.137 182.07 374.976 180.411 377.532C178.766 379.806 177.381 382.079 175.448 384.353C173.24 386.909 170.211 390.03 168.003 392.586C166.084 394.578 163.877 396.851 162.766 397.981C162.218 398.546 161.944 399.125 161.396 399.408C160.833 399.69 160.011 399.972 159.462 400.255C158.914 400.537 158.077 400.819 157.529 400.819C156.707 400.819 156.144 400.819 155.322 400.819C154.774 400.819 153.937 400.537 153.389 400.255C152.84 399.972 152.018 399.69 151.455 399.125C150.907 398.843 150.359 398.263 150.085 397.698C149.537 397.134 149.248 396.569 148.974 395.989C148.7 395.425 148.426 394.578 148.152 394.013C147.877 393.151 147.877 392.586 147.877 391.739C147.877 391.16 147.877 390.313 148.152 389.748C148.426 389.183 148.7 388.321 148.974 387.756C149.248 387.192 150.359 386.047 150.359 386.047Z" fill="white"/>
</mask>
<g mask="url(#mask9_369_14168)">
<path d="M136.841 327.539H208.543V412.753H136.841V327.539Z" fill="#182B17"/>
</g>
</g>
</svg>
