<svg width="277" height="428" viewBox="0 0 277 428" fill="none" xmlns="http://www.w3.org/2000/svg">
<mask id="mask0_369_15003" style="mask-type:luminance" maskUnits="userSpaceOnUse" x="119" y="38" width="106" height="122">
<path d="M224.269 38.6389H119.471V159.787H224.269V38.6389Z" fill="white"/>
</mask>
<g mask="url(#mask0_369_15003)">
<mask id="mask1_369_15003" style="mask-type:luminance" maskUnits="userSpaceOnUse" x="119" y="38" width="106" height="122">
<path d="M208.818 42.6068C204.966 48.0014 202.484 50.8548 200.277 53.1285C198.069 55.3874 195.314 57.0964 193.107 59.3702C190.899 61.6439 188.692 63.9177 186.759 66.4738C185.1 68.7475 184.003 71.586 182.07 73.8598C180.137 76.1335 177.655 77.5453 175.448 79.8191C173.24 82.3752 171.322 86.0756 169.114 88.6317C167.181 91.1878 164.974 93.1792 163.041 95.4529C160.833 98.0091 158.626 101.13 156.418 103.686C154.226 106.242 151.744 108.234 149.248 110.79C146.767 113.628 144.011 116.749 141.53 119.587C139.048 122.441 136.841 125.279 134.634 127.835C132.426 130.109 129.397 132.948 128.026 134.359C127.463 135.221 127.189 135.504 126.641 136.068C125.819 136.633 124.434 137.213 123.611 138.06C122.775 138.907 121.678 140.051 121.13 141.181C120.582 142.325 120.019 143.737 119.745 144.881C119.471 146.01 119.471 147.437 119.745 148.567C120.019 149.711 120.293 151.123 120.856 152.267C121.404 153.396 122.226 154.823 123.063 155.67C123.885 156.517 124.982 157.379 126.093 157.944C127.189 158.509 128.574 158.791 129.671 159.073C131.056 159.371 132.152 159.073 133.537 158.791C134.634 158.509 136.019 158.226 137.115 157.662C138.226 157.097 139.048 155.953 139.885 155.105C140.707 154.244 141.53 153.114 142.078 151.985C142.641 150.84 142.915 149.429 142.915 148.002C142.915 146.858 142.915 145.446 142.641 144.301C142.366 143.172 141.804 141.745 141.256 140.616C140.707 139.472 139.596 138.624 138.774 137.777C137.678 136.915 136.567 136.351 135.47 135.786C134.359 135.221 132.989 134.939 131.604 134.939C130.507 134.939 129.122 135.221 128.026 135.504C126.915 135.786 125.545 136.351 124.434 137.213C123.337 138.06 122.775 138.907 121.952 140.051C121.13 141.181 120.293 142.325 120.019 143.454C119.745 144.599 119.745 146.01 119.745 147.437C119.745 148.567 120.019 149.993 120.293 151.123C120.582 152.267 121.404 153.396 122.226 154.541C123.063 155.388 123.885 156.517 124.982 157.097C126.093 157.944 127.463 158.509 128.574 158.791C129.671 159.073 131.056 159.073 132.152 159.073C133.263 159.073 135.744 158.226 135.744 158.226C135.744 158.226 145.396 148.567 148.7 144.881C151.181 142.325 152.566 140.051 154.5 137.777C156.418 135.504 158.078 133.512 160.011 131.239C161.944 128.965 163.589 126.973 165.522 124.714C167.729 122.441 169.937 120.167 172.144 117.611C174.625 114.758 177.107 111.072 179.314 108.234C181.247 105.677 183.455 103.968 185.1 101.412C186.759 99.1385 187.87 96.0177 189.514 93.7439C191.173 91.4702 193.381 89.4788 195.314 87.205C197.247 84.9313 198.892 82.3752 200.551 79.8191C202.21 77.2629 203.855 74.9892 205.788 72.4331C207.995 69.5946 210.477 67.0385 212.958 64.2C215.44 61.3616 219.306 58.2407 220.951 55.967C222.062 54.5403 222.336 53.1285 222.884 52.2666C223.158 51.7018 223.721 51.1371 223.995 50.5575C224.269 49.9928 224.269 49.1457 224.269 48.2986C224.269 47.7191 224.269 46.872 224.269 46.3073C224.269 45.7425 223.995 44.8806 223.721 44.3159C223.432 43.7511 223.158 42.8892 222.884 42.3245C222.61 41.7597 222.062 41.195 221.513 40.9127C220.951 40.3331 220.403 40.0507 219.854 39.7684C219.306 39.486 218.469 39.2036 217.921 38.9213C217.099 38.6389 216.551 38.6389 215.714 38.6389C215.166 38.6389 214.343 38.6389 213.781 38.9213C213.232 39.2036 212.41 39.486 211.862 39.7684C211.299 40.0507 210.751 40.3331 210.203 40.9127C209.654 41.4774 208.818 42.6068 208.818 42.6068Z" fill="white"/>
</mask>
<g mask="url(#mask1_369_15003)">
<path d="M235.291 27.2701H108.434V169.313H235.291V27.2701Z" fill="#6D800E"/>
</g>
</g>
<mask id="mask2_369_15003" style="mask-type:luminance" maskUnits="userSpaceOnUse" x="68" y="39" width="48" height="75">
<path d="M115.056 39.2036H68.1823V113.063H115.056V39.2036Z" fill="white"/>
</mask>
<g mask="url(#mask2_369_15003)">
<mask id="mask3_369_15003" style="mask-type:luminance" maskUnits="userSpaceOnUse" x="69" y="39" width="47" height="73">
<path d="M99.0707 43.4687C94.3819 51.4194 92.7228 54.2579 91.0637 56.814C89.419 59.6525 87.7599 62.491 86.1008 65.3294C84.7302 67.8856 83.0711 70.1593 81.6861 72.7154C80.3155 75.5687 78.6564 78.4072 77.2714 81.2457C75.9008 84.3665 73.4193 88.914 73.1452 90.6231C73.1452 91.1878 73.4193 91.4701 73.4193 92.0349C73.1452 92.8968 71.7602 93.7439 71.212 94.591C70.6638 95.4529 69.827 96.5824 69.5529 97.7267C69.2788 98.8561 69.0047 99.9856 69.0047 101.13C69.0047 102.259 69.2788 103.121 69.5529 104.251C69.827 105.395 70.3897 106.524 71.212 107.372C71.7602 108.233 72.8711 109.081 73.6935 109.645C74.5158 110.225 75.6267 110.79 76.7231 111.072C77.834 111.354 79.2046 111.354 80.3155 111.354C81.4119 111.354 82.2487 110.79 83.3452 110.507C84.4416 109.943 85.5525 109.645 86.3749 108.798C87.2116 108.233 87.7599 107.089 88.3081 106.242C88.8563 105.113 89.419 103.968 89.6931 102.839C89.9672 101.695 89.9672 100.565 89.6931 99.4208C89.419 98.2914 89.419 97.1471 88.8563 96.3C88.3081 95.1706 87.7599 94.3086 86.9231 93.4615C86.1008 92.6144 85.2784 91.7525 84.1675 91.1878C83.0711 90.6231 81.9602 90.3407 80.8637 90.3407C79.7528 90.3407 78.6564 90.0435 77.5599 90.3407C76.449 90.6231 75.3526 90.9054 74.5158 91.4701C73.4193 92.0349 72.597 92.8968 71.7602 93.7439C70.9379 94.591 70.3897 95.4529 69.827 96.5824C69.2788 97.4294 69.0047 98.5737 69.0047 99.7032C69.0047 100.847 69.0047 102.259 69.2788 103.404C69.5529 104.533 70.1011 105.677 70.6638 106.524C71.212 107.372 72.0343 108.516 72.8711 109.081C73.6935 109.943 74.7899 110.507 75.9008 110.79C76.9973 111.072 77.834 111.354 78.9305 111.354C80.0414 111.354 81.4119 111.354 82.5228 111.072C83.6193 110.79 85.2784 109.645 85.2784 109.645C85.2784 109.645 89.1304 100.847 91.0637 96.5824C92.9969 92.6144 95.2042 89.1964 96.8634 85.5108C98.2339 82.3751 98.508 79.2543 99.893 76.4158C101.264 73.295 103.76 70.7389 105.678 67.6032C107.337 64.7647 109.271 61.0792 110.641 58.5231C111.752 56.5317 113.123 54.2579 113.959 52.8312C114.234 51.9842 114.508 51.4194 114.782 50.8547C115.056 49.9928 115.056 49.4281 115.056 48.581C115.056 48.0014 115.056 47.1543 115.056 46.5896C115.056 45.7425 114.782 44.8806 114.508 44.3158C114.234 43.7511 113.959 43.1715 113.411 42.6068C112.849 42.0421 112.3 41.7597 111.752 41.195C111.204 40.9126 110.641 40.3331 110.093 40.0507C109.545 39.7683 108.722 39.486 108.16 39.486C107.337 39.2036 106.789 39.2036 105.952 39.2036C105.404 39.2036 104.582 39.486 104.034 39.7683C103.471 40.0507 102.649 40.3331 102.1 40.6154C101.552 40.9126 100.99 41.195 100.441 41.7597C99.893 42.3244 99.0707 43.4687 99.0707 43.4687Z" fill="white"/>
</mask>
<g mask="url(#mask3_369_15003)">
<path d="M126.093 27.8348H57.1455V121.579H126.093V27.8348Z" fill="#6D800E"/>
</g>
</g>
<mask id="mask4_369_15003" style="mask-type:luminance" maskUnits="userSpaceOnUse" x="125" y="193" width="72" height="35">
<path d="M196.136 193.729H125.573V227.821H196.136V193.729Z" fill="white"/>
</mask>
<g mask="url(#mask4_369_15003)">
<mask id="mask5_369_15003" style="mask-type:luminance" maskUnits="userSpaceOnUse" x="126" y="193" width="71" height="33">
<path d="M184.003 194.309C177.107 196.865 173.24 197.995 170.211 199.139C167.455 200.268 164.974 201.695 162.218 202.542C159.463 203.389 156.707 203.389 153.937 203.672C151.181 203.969 148.152 203.672 145.396 203.672C142.366 203.672 138.5 203.969 136.293 204.251C134.922 204.534 134.359 204.534 133.263 204.816C132.152 205.098 131.056 205.663 130.233 206.525C129.397 207.09 128.574 208.219 128.026 209.081C127.463 209.928 126.915 210.775 126.641 211.919C126.367 213.049 126.093 214.193 126.093 215.323C126.093 216.467 126.367 217.596 126.915 218.741C127.189 219.87 128.026 220.717 128.574 221.579C129.397 222.426 130.233 223.273 131.056 223.853C131.878 224.418 132.989 224.982 134.085 225.265C135.196 225.547 136.293 225.265 137.404 225.265C138.5 225.265 139.596 224.982 140.707 224.418C141.804 223.853 142.641 223.273 143.463 222.426C144.285 221.579 144.848 220.717 145.396 219.87C145.944 218.741 146.219 217.596 146.493 216.467C146.767 215.323 146.767 214.193 146.493 213.049C146.219 211.919 145.944 210.775 145.396 209.928C144.848 208.799 144.285 207.937 143.463 207.09C142.641 206.243 141.804 205.663 140.707 205.381C139.596 204.816 138.5 204.534 137.404 204.534C136.293 204.534 135.196 204.251 134.085 204.534C132.989 204.816 131.878 205.381 131.056 205.945C130.233 206.525 129.122 207.09 128.574 207.937C127.752 208.799 127.463 209.928 126.915 211.058C126.641 212.202 126.093 213.049 126.093 214.193C126.093 215.323 126.367 216.467 126.641 217.596C126.915 218.741 127.463 219.87 128.026 220.717C128.574 221.579 129.397 222.709 130.233 223.273C131.056 224.135 132.152 224.7 133.263 224.982C134.359 225.265 136.293 225.265 136.293 225.265C136.293 225.265 146.219 224.418 150.359 223.853C153.937 223.571 156.981 223.571 160.011 222.709C163.041 221.862 165.796 220.435 168.84 219.305C171.87 218.161 175.174 217.314 178.218 216.185C180.973 215.04 184.277 213.911 186.485 212.767C188.144 211.919 189.514 211.355 190.625 210.775C191.447 210.493 191.996 210.21 192.558 209.646C193.107 209.363 193.655 208.799 194.203 208.219C194.751 207.654 195.04 206.807 195.314 206.243C195.588 205.663 195.588 204.816 195.862 204.251C195.862 203.672 196.136 202.824 196.136 202.26C196.136 201.413 196.136 200.833 195.862 199.986C195.588 199.421 195.314 198.559 195.04 197.995C194.751 197.43 194.203 196.865 193.655 196.286C193.107 195.721 192.558 195.156 191.996 194.874C191.447 194.591 190.899 194.309 190.351 194.027C189.788 193.729 188.966 193.729 188.144 193.729C187.581 193.729 186.759 193.729 186.21 193.729C185.388 193.729 184.003 194.309 184.003 194.309Z" fill="white"/>
</mask>
<g mask="url(#mask5_369_15003)">
<path d="M207.173 182.376H116.167V236.351H207.173V182.376Z" fill="#6D800E"/>
</g>
</g>
<mask id="mask6_369_15003" style="mask-type:luminance" maskUnits="userSpaceOnUse" x="107" y="279" width="118" height="86">
<path d="M224.543 279.523H107.107V364.751H224.543V279.523Z" fill="white"/>
</mask>
<g mask="url(#mask6_369_15003)">
<mask id="mask7_369_15003" style="mask-type:luminance" maskUnits="userSpaceOnUse" x="108" y="279" width="117" height="85">
<path d="M220.951 347.705C213.781 342.029 211.299 340.32 209.092 338.328C206.61 336.337 204.403 334.063 201.647 332.072C198.892 330.095 195.862 328.104 192.832 326.112C189.788 324.121 186.485 321.847 183.455 320.153C180.699 318.444 178.492 317.315 175.736 315.605C172.692 313.896 169.388 311.905 166.633 310.211C164.151 308.502 161.67 307.075 159.189 305.663C156.707 304.237 153.937 302.825 151.181 301.398C148.7 299.972 145.944 298.56 143.463 296.851C140.982 294.859 139.322 292.586 136.567 290.327C132.989 287.191 126.367 281.796 123.337 280.385C121.952 279.805 120.856 279.523 119.745 279.523C118.648 279.523 117.263 279.805 116.167 280.087C115.056 280.385 113.96 280.949 112.849 281.796C112.026 282.361 110.916 283.505 110.367 284.353C109.545 285.497 108.997 286.626 108.723 287.771C108.434 288.9 108.16 290.327 108.16 291.456C108.16 292.586 108.16 294.012 108.723 295.157C109.271 296.286 109.819 297.415 110.641 298.277C111.478 299.125 112.301 300.269 113.123 300.834C114.234 301.398 115.33 301.963 116.441 302.245C117.538 302.543 118.923 302.543 120.019 302.543C121.13 302.543 122.5 302.245 123.611 301.681C124.708 301.116 125.819 300.551 126.641 299.689C127.463 298.842 128.3 297.995 128.848 296.851C129.397 295.721 129.945 294.577 130.233 293.448C130.507 292.303 130.507 290.891 130.507 289.747C130.507 288.618 129.945 287.191 129.397 286.062C128.848 284.917 128.026 283.788 127.189 282.941C126.367 282.079 125.545 281.514 124.434 280.949C123.337 280.385 121.952 280.087 120.856 279.805C119.745 279.523 118.374 279.523 117.263 279.805C116.167 280.087 115.056 280.385 113.96 280.949C112.849 281.514 111.752 282.644 110.916 283.505C110.093 284.353 109.545 285.497 108.997 286.626C108.434 287.771 108.16 288.9 108.16 290.03C108.16 291.174 108.16 292.586 108.434 293.73C108.723 294.859 109.271 296.004 109.819 297.133C110.367 298.277 111.478 299.125 112.301 299.972C113.123 300.834 115.33 301.963 115.33 301.963C115.33 301.963 118.086 304.519 119.745 305.946C121.678 307.655 124.708 309.349 126.915 311.058C129.122 312.767 131.056 315.041 133.537 316.735C135.745 318.444 138.5 319.573 140.982 321C143.463 322.427 146.219 323.274 148.7 324.686C151.181 325.83 153.389 327.257 156.144 328.668C159.189 330.377 162.766 332.369 165.796 334.063C168.84 335.49 171.87 336.901 174.626 338.328C177.381 339.755 179.863 341.167 182.344 342.593C185.1 344.287 188.144 346.279 190.625 347.988C193.107 349.697 195.04 351.109 197.521 352.818C200.277 354.527 203.307 356.786 205.788 358.495C207.721 359.921 209.38 361.333 210.751 362.195C211.573 362.76 212.136 363.042 212.684 363.325C213.232 363.607 214.069 363.889 214.617 363.889C215.44 363.889 215.988 363.889 216.825 363.889C217.373 363.889 218.195 363.607 218.744 363.325C219.306 363.042 220.129 362.76 220.677 362.477C221.239 362.195 221.788 361.615 222.336 361.051C222.884 360.486 223.158 359.639 223.432 359.059C223.721 358.495 223.995 357.648 224.269 357.083C224.543 356.503 224.543 355.656 224.543 355.091C224.543 354.23 224.543 353.665 224.269 352.818C224.269 352.253 223.995 351.391 223.721 350.826C223.432 350.262 223.158 349.697 222.61 349.117C222.062 348.553 220.951 347.705 220.951 347.705Z" fill="white"/>
</mask>
<g mask="url(#mask7_369_15003)">
<path d="M235.565 268.169H97.6858V376.105H235.565V268.169Z" fill="#6D800E"/>
</g>
</g>
<mask id="mask8_369_15003" style="mask-type:luminance" maskUnits="userSpaceOnUse" x="79" y="338" width="51" height="64">
<path d="M129.122 338.596H79.4787V401.399H129.122V338.596Z" fill="white"/>
</mask>
<g mask="url(#mask8_369_15003)">
<mask id="mask9_369_15003" style="mask-type:luminance" maskUnits="userSpaceOnUse" x="80" y="338" width="50" height="63">
<path d="M126.641 386.047C119.745 378.096 117.537 375.823 115.893 373.267C114.234 370.993 112.849 368.437 111.204 365.881C109.545 363.324 108.434 361.051 106.515 357.93C103.471 353.1 97.9598 342.876 95.2042 340.319C94.0933 339.175 93.271 339.175 92.1745 338.893C91.0637 338.61 90.2413 338.893 89.1304 338.893C88.034 338.893 86.9231 339.175 85.8266 339.755C85.0043 340.319 84.1675 340.884 83.3452 341.731C82.5228 342.593 81.9602 343.44 81.4119 344.287C80.8637 345.149 80.5896 346.279 80.3155 347.423C80.0414 348.553 80.0414 349.697 80.3155 350.826C80.5896 351.971 80.8637 353.1 81.4119 353.947C81.9602 354.809 82.5228 355.656 83.3452 356.503C84.1675 357.365 85.0043 357.93 86.1007 358.495C86.9231 359.059 88.034 359.357 89.1304 359.357C90.2413 359.357 91.3378 359.357 92.4487 359.059C93.5451 358.777 94.656 358.495 95.4784 357.93C96.3007 357.365 97.1375 356.503 97.9598 355.656C98.508 354.809 99.3448 353.947 99.6189 352.818C99.893 351.971 100.167 350.826 100.167 349.697C100.167 348.553 100.167 347.423 99.893 346.279C99.6189 345.149 99.0707 344.005 98.508 343.158C97.9598 342.311 97.1375 341.449 96.3007 340.884C95.4783 340.319 94.3819 339.458 93.271 339.175C92.1745 338.893 91.3378 338.893 90.2413 338.893C89.1304 338.893 88.034 339.175 86.9231 339.458C85.8266 339.755 85.0043 340.319 84.1675 340.884C83.3452 341.449 82.5228 342.593 81.9602 343.44C81.4119 344.287 80.8637 345.149 80.5896 346.279C80.3155 347.423 80.3155 348.553 80.3155 349.697C80.3155 350.826 80.5896 351.971 80.8637 353.1C81.1378 354.229 81.6861 355.091 82.5228 355.939C83.0711 356.786 85.0043 357.93 85.0043 357.93C85.0043 357.93 85.8266 359.357 86.3749 360.486C87.4857 362.477 89.6931 366.445 91.3378 369.299C92.9969 372.137 94.9301 374.976 96.5892 377.532C98.2339 379.805 99.6189 382.079 101.552 384.353C103.759 386.909 106.789 390.03 108.997 392.586C110.915 394.577 113.123 396.851 114.234 397.981C114.782 398.545 115.056 399.125 115.604 399.407C116.167 399.69 116.989 399.972 117.537 400.254C118.086 400.537 118.922 400.819 119.471 400.819C120.293 400.819 120.856 400.819 121.678 400.819C122.226 400.819 123.063 400.537 123.611 400.254C124.159 399.972 124.982 399.69 125.544 399.125C126.093 398.843 126.641 398.263 126.915 397.698C127.463 397.134 127.752 396.569 128.026 395.989C128.3 395.424 128.574 394.577 128.848 394.013C129.122 393.151 129.122 392.586 129.122 391.739C129.122 391.159 129.122 390.312 128.848 389.748C128.574 389.183 128.3 388.321 128.026 387.756C127.752 387.191 126.641 386.047 126.641 386.047Z" fill="white"/>
</mask>
<g mask="url(#mask9_369_15003)">
<path d="M140.159 327.539H68.4563V412.753H140.159V327.539Z" fill="#6D800E"/>
</g>
</g>
</svg>
