<svg width="336" height="231" viewBox="0 0 336 231" fill="none" xmlns="http://www.w3.org/2000/svg">
<rect width="336" height="231" rx="10" fill="#082142"/>
<path d="M97.0882 154.808H90.4162L89.3122 158H85.7842L91.8082 141.224H95.7202L101.744 158H98.1922L97.0882 154.808ZM96.1762 152.12L93.7522 145.112L91.3282 152.12H96.1762ZM103.132 151.328C103.132 150 103.404 148.824 103.948 147.8C104.508 146.76 105.26 145.952 106.204 145.376C107.148 144.8 108.188 144.512 109.324 144.512C110.268 144.512 111.1 144.696 111.82 145.064C112.556 145.416 113.148 145.872 113.596 146.432V144.704H116.98V164.336H113.596V156.176C113.148 156.752 112.548 157.232 111.796 157.616C111.044 158 110.196 158.192 109.252 158.192C108.132 158.192 107.1 157.904 106.156 157.328C105.228 156.736 104.492 155.92 103.948 154.88C103.404 153.84 103.132 152.656 103.132 151.328ZM113.596 151.352C113.596 150.536 113.428 149.832 113.092 149.24C112.756 148.648 112.316 148.2 111.772 147.896C111.244 147.592 110.676 147.44 110.068 147.44C109.476 147.44 108.908 147.592 108.364 147.896C107.836 148.2 107.404 148.648 107.068 149.24C106.732 149.816 106.564 150.512 106.564 151.328C106.564 152.144 106.732 152.856 107.068 153.464C107.404 154.056 107.836 154.504 108.364 154.808C108.908 155.112 109.476 155.264 110.068 155.264C110.676 155.264 111.244 155.112 111.772 154.808C112.316 154.504 112.756 154.056 113.092 153.464C113.428 152.872 113.596 152.168 113.596 151.352ZM132.813 144.704V158H129.429V156.32C128.997 156.896 128.429 157.352 127.725 157.688C127.037 158.008 126.285 158.168 125.469 158.168C124.429 158.168 123.509 157.952 122.709 157.52C121.909 157.072 121.277 156.424 120.813 155.576C120.365 154.712 120.141 153.688 120.141 152.504V144.704H123.501V152.024C123.501 153.08 123.765 153.896 124.293 154.472C124.821 155.032 125.541 155.312 126.453 155.312C127.381 155.312 128.109 155.032 128.637 154.472C129.165 153.896 129.429 153.08 129.429 152.024V144.704H132.813ZM148.489 151.064C148.489 151.544 148.457 151.976 148.393 152.36H138.673C138.753 153.32 139.089 154.072 139.681 154.616C140.273 155.16 141.001 155.432 141.865 155.432C143.113 155.432 144.001 154.896 144.529 153.824H148.153C147.769 155.104 147.033 156.16 145.945 156.992C144.857 157.808 143.521 158.216 141.937 158.216C140.657 158.216 139.505 157.936 138.481 157.376C137.473 156.8 136.681 155.992 136.105 154.952C135.545 153.912 135.265 152.712 135.265 151.352C135.265 149.976 135.545 148.768 136.105 147.728C136.665 146.688 137.449 145.888 138.457 145.328C139.465 144.768 140.625 144.488 141.937 144.488C143.201 144.488 144.329 144.76 145.321 145.304C146.329 145.848 147.105 146.624 147.649 147.632C148.209 148.624 148.489 149.768 148.489 151.064ZM145.009 150.104C144.993 149.24 144.681 148.552 144.073 148.04C143.465 147.512 142.721 147.248 141.841 147.248C141.009 147.248 140.305 147.504 139.729 148.016C139.169 148.512 138.825 149.208 138.697 150.104H145.009ZM150.077 151.352C150.077 149.976 150.357 148.776 150.917 147.752C151.477 146.712 152.253 145.912 153.245 145.352C154.237 144.776 155.373 144.488 156.653 144.488C158.301 144.488 159.661 144.904 160.733 145.736C161.821 146.552 162.549 147.704 162.917 149.192H159.293C159.101 148.616 158.773 148.168 158.309 147.848C157.861 147.512 157.301 147.344 156.629 147.344C155.669 147.344 154.909 147.696 154.349 148.4C153.789 149.088 153.509 150.072 153.509 151.352C153.509 152.616 153.789 153.6 154.349 154.304C154.909 154.992 155.669 155.336 156.629 155.336C157.989 155.336 158.877 154.728 159.293 153.512H162.917C162.549 154.952 161.821 156.096 160.733 156.944C159.645 157.792 158.285 158.216 156.653 158.216C155.373 158.216 154.237 157.936 153.245 157.376C152.253 156.8 151.477 156 150.917 154.976C150.357 153.936 150.077 152.728 150.077 151.352ZM167.083 143.12C166.491 143.12 165.995 142.936 165.595 142.568C165.211 142.184 165.019 141.712 165.019 141.152C165.019 140.592 165.211 140.128 165.595 139.76C165.995 139.376 166.491 139.184 167.083 139.184C167.675 139.184 168.163 139.376 168.547 139.76C168.947 140.128 169.147 140.592 169.147 141.152C169.147 141.712 168.947 142.184 168.547 142.568C168.163 142.936 167.675 143.12 167.083 143.12ZM168.739 144.704V158H165.379V144.704H168.739ZM188.57 144.512C190.202 144.512 191.514 145.016 192.506 146.024C193.514 147.016 194.018 148.408 194.018 150.2V158H190.658V150.656C190.658 149.616 190.394 148.824 189.866 148.28C189.338 147.72 188.618 147.44 187.706 147.44C186.794 147.44 186.066 147.72 185.522 148.28C184.994 148.824 184.73 149.616 184.73 150.656V158H181.37V150.656C181.37 149.616 181.106 148.824 180.578 148.28C180.05 147.72 179.33 147.44 178.418 147.44C177.49 147.44 176.754 147.72 176.21 148.28C175.682 148.824 175.418 149.616 175.418 150.656V158H172.058V144.704H175.418V146.312C175.85 145.752 176.402 145.312 177.074 144.992C177.762 144.672 178.514 144.512 179.33 144.512C180.37 144.512 181.298 144.736 182.114 145.184C182.93 145.616 183.562 146.24 184.01 147.056C184.442 146.288 185.066 145.672 185.882 145.208C186.714 144.744 187.61 144.512 188.57 144.512ZM209.567 151.064C209.567 151.544 209.535 151.976 209.471 152.36H199.751C199.831 153.32 200.167 154.072 200.759 154.616C201.351 155.16 202.079 155.432 202.943 155.432C204.191 155.432 205.079 154.896 205.607 153.824H209.231C208.847 155.104 208.111 156.16 207.023 156.992C205.935 157.808 204.599 158.216 203.015 158.216C201.735 158.216 200.583 157.936 199.559 157.376C198.551 156.8 197.759 155.992 197.183 154.952C196.623 153.912 196.343 152.712 196.343 151.352C196.343 149.976 196.623 148.768 197.183 147.728C197.743 146.688 198.527 145.888 199.535 145.328C200.543 144.768 201.703 144.488 203.015 144.488C204.279 144.488 205.407 144.76 206.399 145.304C207.407 145.848 208.183 146.624 208.727 147.632C209.287 148.624 209.567 149.768 209.567 151.064ZM206.087 150.104C206.071 149.24 205.759 148.552 205.151 148.04C204.543 147.512 203.799 147.248 202.919 147.248C202.087 147.248 201.383 147.504 200.807 148.016C200.247 148.512 199.903 149.208 199.775 150.104H206.087ZM219.387 144.512C220.971 144.512 222.251 145.016 223.227 146.024C224.203 147.016 224.691 148.408 224.691 150.2V158H221.331V150.656C221.331 149.6 221.067 148.792 220.539 148.232C220.011 147.656 219.291 147.368 218.379 147.368C217.451 147.368 216.715 147.656 216.171 148.232C215.643 148.792 215.379 149.6 215.379 150.656V158H212.019V144.704H215.379V146.36C215.827 145.784 216.395 145.336 217.083 145.016C217.787 144.68 218.555 144.512 219.387 144.512ZM231.798 147.464V153.896C231.798 154.344 231.902 154.672 232.11 154.88C232.334 155.072 232.702 155.168 233.214 155.168H234.774V158H232.662C229.83 158 228.414 156.624 228.414 153.872V147.464H226.83V144.704H228.414V141.416H231.798V144.704H234.774V147.464H231.798ZM243.095 158.216C241.815 158.216 240.663 157.936 239.639 157.376C238.615 156.8 237.807 155.992 237.215 154.952C236.639 153.912 236.351 152.712 236.351 151.352C236.351 149.992 236.647 148.792 237.239 147.752C237.847 146.712 238.671 145.912 239.711 145.352C240.751 144.776 241.911 144.488 243.191 144.488C244.471 144.488 245.631 144.776 246.671 145.352C247.711 145.912 248.527 146.712 249.119 147.752C249.727 148.792 250.031 149.992 250.031 151.352C250.031 152.712 249.719 153.912 249.095 154.952C248.487 155.992 247.655 156.8 246.599 157.376C245.559 157.936 244.391 158.216 243.095 158.216ZM243.095 155.288C243.703 155.288 244.271 155.144 244.799 154.856C245.343 154.552 245.775 154.104 246.095 153.512C246.415 152.92 246.575 152.2 246.575 151.352C246.575 150.088 246.239 149.12 245.567 148.448C244.911 147.76 244.103 147.416 243.143 147.416C242.183 147.416 241.375 147.76 240.719 148.448C240.079 149.12 239.759 150.088 239.759 151.352C239.759 152.616 240.071 153.592 240.695 154.28C241.335 154.952 242.135 155.288 243.095 155.288ZM141.511 182.288C141.127 181.584 140.599 181.048 139.927 180.68C139.255 180.312 138.471 180.128 137.575 180.128C136.583 180.128 135.703 180.352 134.935 180.8C134.167 181.248 133.567 181.888 133.135 182.72C132.703 183.552 132.487 184.512 132.487 185.6C132.487 186.72 132.703 187.696 133.135 188.528C133.583 189.36 134.199 190 134.983 190.448C135.767 190.896 136.679 191.12 137.719 191.12C138.999 191.12 140.047 190.784 140.863 190.112C141.679 189.424 142.215 188.472 142.471 187.256H136.711V184.688H145.783V187.616C145.559 188.784 145.079 189.864 144.343 190.856C143.607 191.848 142.655 192.648 141.487 193.256C140.335 193.848 139.039 194.144 137.599 194.144C135.983 194.144 134.519 193.784 133.207 193.064C131.911 192.328 130.887 191.312 130.135 190.016C129.399 188.72 129.031 187.248 129.031 185.6C129.031 183.952 129.399 182.48 130.135 181.184C130.887 179.872 131.911 178.856 133.207 178.136C134.519 177.4 135.975 177.032 137.575 177.032C139.463 177.032 141.103 177.496 142.495 178.424C143.887 179.336 144.847 180.624 145.375 182.288H141.511ZM151.629 176.24V194H148.269V176.24H151.629ZM160.853 194.216C159.573 194.216 158.421 193.936 157.397 193.376C156.373 192.8 155.565 191.992 154.973 190.952C154.397 189.912 154.109 188.712 154.109 187.352C154.109 185.992 154.405 184.792 154.997 183.752C155.605 182.712 156.429 181.912 157.469 181.352C158.509 180.776 159.669 180.488 160.949 180.488C162.229 180.488 163.389 180.776 164.429 181.352C165.469 181.912 166.285 182.712 166.877 183.752C167.485 184.792 167.789 185.992 167.789 187.352C167.789 188.712 167.477 189.912 166.853 190.952C166.245 191.992 165.413 192.8 164.357 193.376C163.317 193.936 162.149 194.216 160.853 194.216ZM160.853 191.288C161.461 191.288 162.029 191.144 162.557 190.856C163.101 190.552 163.533 190.104 163.853 189.512C164.173 188.92 164.333 188.2 164.333 187.352C164.333 186.088 163.997 185.12 163.325 184.448C162.669 183.76 161.861 183.416 160.901 183.416C159.941 183.416 159.133 183.76 158.477 184.448C157.837 185.12 157.517 186.088 157.517 187.352C157.517 188.616 157.829 189.592 158.453 190.28C159.093 190.952 159.893 191.288 160.853 191.288ZM173.614 182.648C174.046 182.008 174.638 181.488 175.39 181.088C176.158 180.688 177.03 180.488 178.006 180.488C179.142 180.488 180.166 180.768 181.078 181.328C182.006 181.888 182.734 182.688 183.262 183.728C183.806 184.752 184.078 185.944 184.078 187.304C184.078 188.664 183.806 189.872 183.262 190.928C182.734 191.968 182.006 192.776 181.078 193.352C180.166 193.928 179.142 194.216 178.006 194.216C177.014 194.216 176.142 194.024 175.39 193.64C174.654 193.24 174.062 192.728 173.614 192.104V194H170.254V176.24H173.614V182.648ZM180.646 187.304C180.646 186.504 180.478 185.816 180.142 185.24C179.822 184.648 179.39 184.2 178.846 183.896C178.318 183.592 177.742 183.44 177.118 183.44C176.51 183.44 175.934 183.6 175.39 183.92C174.862 184.224 174.43 184.672 174.094 185.264C173.774 185.856 173.614 186.552 173.614 187.352C173.614 188.152 173.774 188.848 174.094 189.44C174.43 190.032 174.862 190.488 175.39 190.808C175.934 191.112 176.51 191.264 177.118 191.264C177.742 191.264 178.318 191.104 178.846 190.784C179.39 190.464 179.822 190.008 180.142 189.416C180.478 188.824 180.646 188.12 180.646 187.304ZM185.655 187.304C185.655 185.96 185.919 184.768 186.447 183.728C186.991 182.688 187.719 181.888 188.631 181.328C189.559 180.768 190.591 180.488 191.727 180.488C192.719 180.488 193.583 180.688 194.319 181.088C195.071 181.488 195.671 181.992 196.119 182.6V180.704H199.503V194H196.119V192.056C195.687 192.68 195.087 193.2 194.319 193.616C193.567 194.016 192.695 194.216 191.703 194.216C190.583 194.216 189.559 193.928 188.631 193.352C187.719 192.776 186.991 191.968 186.447 190.928C185.919 189.872 185.655 188.664 185.655 187.304ZM196.119 187.352C196.119 186.536 195.959 185.84 195.639 185.264C195.319 184.672 194.887 184.224 194.343 183.92C193.799 183.6 193.215 183.44 192.591 183.44C191.967 183.44 191.391 183.592 190.863 183.896C190.335 184.2 189.903 184.648 189.567 185.24C189.247 185.816 189.087 186.504 189.087 187.304C189.087 188.104 189.247 188.808 189.567 189.416C189.903 190.008 190.335 190.464 190.863 190.784C191.407 191.104 191.983 191.264 192.591 191.264C193.215 191.264 193.799 191.112 194.343 190.808C194.887 190.488 195.319 190.04 195.639 189.464C195.959 188.872 196.119 188.168 196.119 187.352ZM206.145 176.24V194H202.785V176.24H206.145Z" fill="#B7CDEB"/>
<path fill-rule="evenodd" clip-rule="evenodd" d="M181.794 21C182.557 21 183.175 21.6184 183.175 22.3816V26.5175C183.175 27.2807 182.557 27.8991 181.794 27.8991C181.035 27.8991 180.417 27.2807 180.417 26.5175V22.3816C180.417 21.6184 181.035 21 181.794 21ZM169.382 47.2061C169.382 40.3509 174.939 34.7939 181.794 34.7939C188.649 34.7939 194.211 40.3509 194.211 47.2061C194.211 54.0658 188.649 59.6228 181.794 59.6228C174.939 59.6228 169.382 54.0658 169.382 47.2061ZM181.794 32.0351C173.417 32.0351 166.623 38.8289 166.623 47.2061C166.623 55.5877 173.417 62.3816 181.794 62.3816C190.175 62.3816 196.969 55.5877 196.969 47.2061C196.969 38.8289 190.175 32.0351 181.794 32.0351ZM130.759 83.0702C130.759 77.9342 133.316 73.3904 137.224 70.6447L138.228 71.3158C138.956 71.7982 139.057 72.8246 138.439 73.4386L134.675 77.2018C133.022 78.8596 134.193 81.693 136.535 81.693C137.154 81.693 137.658 82.193 137.658 82.8114V83.8772C137.658 85.3377 138.838 86.5175 140.298 86.5175C141.171 86.5175 141.724 87.4518 141.307 88.2149L139.211 92.0526L137.237 95.5044C133.32 92.7632 130.759 88.2149 130.759 83.0702ZM140.39 75.3904C142.189 73.5921 141.947 70.6272 139.921 69.136C141.763 68.3377 143.798 67.8991 145.934 67.8991C149.724 67.8991 153.189 69.2851 155.846 71.5833L151.237 73.5044C149.697 74.1447 148.693 75.6535 148.693 77.3246V79.2982C148.693 80.864 149.579 82.2982 150.978 82.9956L153.838 84.4254C154.197 84.6053 154.461 84.9342 154.557 85.3246L156.671 93.7851C153.925 96.5395 150.127 98.2412 145.934 98.2412C143.684 98.2412 141.553 97.7544 139.632 96.8772L141.618 93.3991L143.728 89.5351C145.127 86.9649 143.311 83.8421 140.417 83.7632V82.8114C140.417 80.7719 138.838 79.0965 136.838 78.943L140.39 75.3904ZM158.833 91.057C160.272 88.7368 161.105 86 161.105 83.0702C161.105 79.5439 159.904 76.2982 157.886 73.7237L152.298 76.0482C151.785 76.2632 151.452 76.7675 151.452 77.3246V79.2982C151.452 79.8202 151.746 80.2982 152.211 80.5307L155.07 81.9605C156.149 82.5 156.943 83.4825 157.232 84.6579L158.833 91.057ZM145.934 65.1404C136.031 65.1404 128 73.1667 128 83.0702C128 92.9737 136.031 101 145.934 101C155.838 101 163.864 92.9737 163.864 83.0702C163.864 73.1667 155.838 65.1404 145.934 65.1404ZM206.623 48.5877C207.386 48.5877 208 47.9693 208 47.2061C208 46.4474 207.386 45.8289 206.623 45.8289H202.482C201.724 45.8289 201.105 46.4474 201.105 47.2061C201.105 47.9693 201.724 48.5877 202.482 48.5877H206.623ZM200.325 65.7412C199.789 66.2763 198.912 66.2763 198.377 65.7412L195.447 62.8114C194.912 62.2763 194.912 61.4035 195.447 60.864C195.987 60.3246 196.86 60.3246 197.399 60.864L200.325 63.7895C200.864 64.3289 200.864 65.2018 200.325 65.7412ZM165.215 65.7412C164.675 66.2763 163.803 66.2763 163.263 65.7412C162.724 65.2018 162.724 64.3289 163.263 63.7895L166.189 60.864C166.728 60.3246 167.601 60.3246 168.14 60.864C168.68 61.4035 168.68 62.2763 168.14 62.8114L165.215 65.7412ZM181.794 66.5175C182.557 66.5175 183.175 67.136 183.175 67.8991V72.0351C183.175 72.7982 182.557 73.4167 181.794 73.4167C181.035 73.4167 180.417 72.7982 180.417 72.0351V67.8991C180.417 67.136 181.035 66.5175 181.794 66.5175ZM161.105 48.5877C161.868 48.5877 162.482 47.9693 162.482 47.2061C162.482 46.4474 161.868 45.8289 161.105 45.8289H156.969C156.206 45.8289 155.588 46.4474 155.588 47.2061C155.588 47.9693 156.206 48.5877 156.969 48.5877H161.105ZM168.14 33.5526C167.601 34.0921 166.728 34.0921 166.189 33.5526L163.263 30.6272C162.724 30.0877 162.724 29.2149 163.263 28.6754C163.803 28.1404 164.675 28.1404 165.215 28.6754L168.14 31.6053C168.68 32.1404 168.68 33.0132 168.14 33.5526ZM197.399 33.5526C196.86 34.0921 195.987 34.0921 195.447 33.5526C194.912 33.0132 194.912 32.1404 195.447 31.6053L198.377 28.6754C198.912 28.1404 199.789 28.1404 200.325 28.6754C200.864 29.2149 200.864 30.0877 200.325 30.6272L197.399 33.5526Z" fill="#B7CDEB"/>
</svg>
