<svg width="336" height="231" viewBox="0 0 336 231" fill="none" xmlns="http://www.w3.org/2000/svg">
<rect width="336" height="231" rx="10" fill="#42442D"/>
<path d="M121.016 143.96V148.16H126.656V150.824H121.016V155.264H127.376V158H117.656V141.224H127.376V143.96H121.016ZM137.773 158L135.037 153.872L132.613 158H129.013L133.357 151.328L128.965 144.704H132.757L135.469 148.808L137.917 144.704H141.517L137.149 151.328L141.565 158H137.773ZM147.302 147.464V153.896C147.302 154.344 147.406 154.672 147.614 154.88C147.838 155.072 148.206 155.168 148.718 155.168H150.278V158H148.166C145.334 158 143.918 156.624 143.918 153.872V147.464H142.334V144.704H143.918V141.416H147.302V144.704H150.278V147.464H147.302ZM154.399 143.12C153.807 143.12 153.311 142.936 152.911 142.568C152.527 142.184 152.335 141.712 152.335 141.152C152.335 140.592 152.527 140.128 152.911 139.76C153.311 139.376 153.807 139.184 154.399 139.184C154.991 139.184 155.479 139.376 155.863 139.76C156.263 140.128 156.463 140.592 156.463 141.152C156.463 141.712 156.263 142.184 155.863 142.568C155.479 142.936 154.991 143.12 154.399 143.12ZM156.055 144.704V158H152.695V144.704H156.055ZM166.743 144.512C168.327 144.512 169.607 145.016 170.583 146.024C171.559 147.016 172.047 148.408 172.047 150.2V158H168.687V150.656C168.687 149.6 168.423 148.792 167.895 148.232C167.367 147.656 166.647 147.368 165.735 147.368C164.807 147.368 164.071 147.656 163.527 148.232C162.999 148.792 162.735 149.6 162.735 150.656V158H159.375V144.704H162.735V146.36C163.183 145.784 163.751 145.336 164.439 145.016C165.143 144.68 165.911 144.512 166.743 144.512ZM180.93 155.336C182.29 155.336 183.178 154.728 183.594 153.512H187.218C186.882 154.808 186.258 155.864 185.346 156.68C184.45 157.496 183.322 157.984 181.962 158.144V159.08C182.842 159.08 183.578 159.304 184.17 159.752C184.778 160.2 185.082 160.848 185.082 161.696C185.082 162.56 184.77 163.224 184.146 163.688C183.538 164.152 182.786 164.384 181.89 164.384H178.482V162.416H181.338C181.722 162.416 182.01 162.36 182.202 162.248C182.41 162.136 182.514 161.936 182.514 161.648C182.514 161.36 182.41 161.16 182.202 161.048C182.01 160.952 181.722 160.904 181.338 160.904H179.85V158.144C178.762 157.984 177.802 157.608 176.97 157.016C176.154 156.408 175.514 155.624 175.05 154.664C174.602 153.688 174.378 152.584 174.378 151.352C174.378 149.976 174.658 148.776 175.218 147.752C175.778 146.712 176.554 145.912 177.546 145.352C178.538 144.776 179.674 144.488 180.954 144.488C182.602 144.488 183.962 144.904 185.034 145.736C186.122 146.552 186.85 147.704 187.218 149.192H183.594C183.402 148.616 183.074 148.168 182.61 147.848C182.162 147.512 181.602 147.344 180.93 147.344C179.97 147.344 179.21 147.696 178.65 148.4C178.09 149.088 177.81 150.072 177.81 151.352C177.81 152.616 178.09 153.6 178.65 154.304C179.21 154.992 179.97 155.336 180.93 155.336ZM188.815 151.304C188.815 149.96 189.079 148.768 189.607 147.728C190.151 146.688 190.879 145.888 191.791 145.328C192.719 144.768 193.751 144.488 194.887 144.488C195.879 144.488 196.743 144.688 197.479 145.088C198.231 145.488 198.831 145.992 199.279 146.6V144.704H202.663V158H199.279V156.056C198.847 156.68 198.247 157.2 197.479 157.616C196.727 158.016 195.855 158.216 194.863 158.216C193.743 158.216 192.719 157.928 191.791 157.352C190.879 156.776 190.151 155.968 189.607 154.928C189.079 153.872 188.815 152.664 188.815 151.304ZM199.279 151.352C199.279 150.536 199.119 149.84 198.799 149.264C198.479 148.672 198.047 148.224 197.503 147.92C196.959 147.6 196.375 147.44 195.751 147.44C195.127 147.44 194.551 147.592 194.023 147.896C193.495 148.2 193.063 148.648 192.727 149.24C192.407 149.816 192.247 150.504 192.247 151.304C192.247 152.104 192.407 152.808 192.727 153.416C193.063 154.008 193.495 154.464 194.023 154.784C194.567 155.104 195.143 155.264 195.751 155.264C196.375 155.264 196.959 155.112 197.503 154.808C198.047 154.488 198.479 154.04 198.799 153.464C199.119 152.872 199.279 152.168 199.279 151.352ZM191.887 143.432C192.031 142.376 192.359 141.592 192.871 141.08C193.399 140.552 194.063 140.288 194.863 140.288C195.199 140.288 195.495 140.344 195.751 140.456C196.007 140.552 196.295 140.696 196.615 140.888C197.095 141.192 197.495 141.344 197.815 141.344C198.407 141.344 198.751 141 198.847 140.312H200.647C200.503 141.368 200.167 142.16 199.639 142.688C199.127 143.2 198.471 143.456 197.671 143.456C197.335 143.456 197.039 143.408 196.783 143.312C196.527 143.2 196.239 143.048 195.919 142.856C195.455 142.536 195.055 142.376 194.719 142.376C194.127 142.376 193.775 142.728 193.663 143.432H191.887ZM211.849 158.216C210.569 158.216 209.417 157.936 208.393 157.376C207.369 156.8 206.561 155.992 205.969 154.952C205.393 153.912 205.105 152.712 205.105 151.352C205.105 149.992 205.401 148.792 205.993 147.752C206.601 146.712 207.425 145.912 208.465 145.352C209.505 144.776 210.665 144.488 211.945 144.488C213.225 144.488 214.385 144.776 215.425 145.352C216.465 145.912 217.281 146.712 217.873 147.752C218.481 148.792 218.785 149.992 218.785 151.352C218.785 152.712 218.473 153.912 217.849 154.952C217.241 155.992 216.409 156.8 215.353 157.376C214.313 157.936 213.145 158.216 211.849 158.216ZM211.849 155.288C212.457 155.288 213.025 155.144 213.553 154.856C214.097 154.552 214.529 154.104 214.849 153.512C215.169 152.92 215.329 152.2 215.329 151.352C215.329 150.088 214.993 149.12 214.321 148.448C213.665 147.76 212.857 147.416 211.897 147.416C210.937 147.416 210.129 147.76 209.473 148.448C208.833 149.12 208.513 150.088 208.513 151.352C208.513 152.616 208.825 153.592 209.449 154.28C210.089 154.952 210.889 155.288 211.849 155.288Z" fill="#E4E9BB"/>
<path d="M166.387 68.9588C166.396 69.1597 166.362 69.3556 166.294 69.5418C166.225 69.728 166.118 69.8995 165.981 70.0415C165.845 70.1885 165.688 70.3061 165.503 70.3845C165.322 70.4678 165.132 70.5119 164.931 70.5168C164.726 70.5217 164.531 70.4923 164.341 70.4188C164.155 70.3502 163.984 70.2424 163.838 70.1052C163.691 69.9631 163.574 69.8015 163.491 69.6153C163.408 69.434 163.364 69.2381 163.359 69.0323C163.354 68.8314 163.388 68.6354 163.467 68.4444C163.54 68.2582 163.647 68.0867 163.789 67.9398C163.926 67.7977 164.092 67.685 164.277 67.6017C164.463 67.5233 164.658 67.4841 164.863 67.4792C165.058 67.4743 165.254 67.5086 165.439 67.5772C165.625 67.6507 165.791 67.7585 165.937 67.8957C166.079 68.0377 166.191 68.1994 166.269 68.3807C166.347 68.5669 166.387 68.7579 166.387 68.9588ZM172.822 68.9931C172.827 68.7922 172.788 68.6012 172.715 68.415C172.641 68.2288 172.534 68.0622 172.392 67.9202C172.251 67.7781 172.09 67.6654 171.904 67.5919C171.719 67.5135 171.528 67.4743 171.328 67.4792C171.128 67.4743 170.932 67.5086 170.747 67.5821C170.561 67.6556 170.395 67.7634 170.254 67.9006C170.107 68.0377 169.995 68.1994 169.912 68.3807C169.834 68.5669 169.79 68.7579 169.78 68.9588C169.78 69.1646 169.819 69.3654 169.897 69.5565C169.975 69.7476 170.083 69.9191 170.229 70.066C170.376 70.213 170.547 70.3257 170.737 70.4041C170.928 70.4825 171.123 70.5217 171.333 70.5217C171.533 70.5168 171.723 70.4776 171.909 70.3992C172.09 70.3208 172.251 70.2081 172.392 70.066C172.534 69.924 172.637 69.7574 172.715 69.5712C172.788 69.385 172.822 69.194 172.822 68.9931ZM170.234 101.691C168.955 101.759 167.671 101.759 166.387 101.701C165.102 101.637 163.823 101.514 162.554 101.328C161.279 101.142 160.019 100.892 158.774 100.584C157.529 100.27 156.299 99.8976 155.088 99.4665C153.877 99.0353 152.69 98.5454 151.528 97.9918C150.366 97.4431 149.233 96.8405 148.13 96.1791C147.026 95.5177 145.957 94.8024 144.922 94.0381C143.887 93.2738 142.895 92.4556 141.943 91.5934C140.986 90.7262 140.078 89.8198 139.214 88.8645C138.349 87.914 137.534 86.9195 136.763 85.8808C135.996 84.8471 135.283 83.7791 134.619 82.6767C133.955 81.5695 133.349 80.4329 132.798 79.2717C132.246 78.1057 131.753 76.9152 131.318 75.7051C130.884 74.4901 130.508 73.2603 130.195 72.0061C129.878 70.7568 129.629 69.4928 129.433 68.219C129.243 66.9452 129.116 65.6616 129.053 64.378C128.984 63.0895 128.984 61.801 129.043 60.5125C129.106 59.224 129.228 57.9404 129.414 56.6666C129.599 55.3878 129.848 54.1287 130.161 52.8745C130.469 51.6252 130.84 50.3906 131.269 49.1756C131.699 47.9606 132.192 46.7701 132.739 45.604C133.286 44.438 133.887 43.3014 134.546 42.1941C135.205 41.0869 135.918 40.014 136.68 38.9753C137.441 37.9367 138.257 36.9421 139.116 35.9868C139.98 35.0265 140.884 34.1153 141.836 33.2481C142.788 32.3809 143.779 31.5628 144.809 30.7936C145.84 30.0195 146.904 29.3042 148.008 28.6379C149.106 27.9765 150.239 27.3641 151.396 26.8105C152.558 26.2569 153.745 25.762 154.951 25.326C156.162 24.89 157.392 24.5127 158.638 24.1992C159.883 23.8807 161.142 23.6308 162.412 23.4398C163.681 23.2438 164.961 23.1164 166.245 23.0527C167.524 22.9841 168.808 22.9841 170.093 23.0429C171.377 23.1066 172.656 23.2291 173.926 23.4153C175.2 23.6015 176.46 23.8513 177.705 24.1649C178.95 24.4735 180.18 24.8459 181.391 25.277C182.602 25.713 183.789 26.203 184.951 26.7517C186.113 27.3004 187.246 27.903 188.349 28.5644C189.453 29.2258 190.522 29.9411 191.557 30.7054C192.593 31.4746 193.584 32.2878 194.536 33.1501C195.493 34.0173 196.401 34.9236 197.265 35.879C198.13 36.8344 198.945 37.8289 199.717 38.8626C200.483 39.8964 201.196 40.9644 201.86 42.0717C202.524 43.174 203.13 44.3106 203.681 45.4766C204.233 46.6378 204.726 47.8283 205.161 49.0433C205.596 50.2534 205.971 51.488 206.284 52.7374C206.601 53.9867 206.85 55.2507 207.046 56.5245C207.236 57.7983 207.363 59.0819 207.427 60.3704C207.49 61.6589 207.495 62.9425 207.431 64.231C207.368 65.5195 207.246 66.8031 207.055 68.0769C206.87 69.3507 206.621 70.6147 206.308 71.8641C206.001 73.1183 205.63 74.348 205.195 75.563C204.765 76.778 204.277 77.9685 203.73 79.1346C203.179 80.3006 202.578 81.4372 201.919 82.5444C201.26 83.6468 200.547 84.7197 199.785 85.7584C199.023 86.7921 198.208 87.7915 197.348 88.7469C196.489 89.7023 195.581 90.6135 194.629 91.4856C193.681 92.3528 192.69 93.1709 191.66 93.9401C190.63 94.7093 189.565 95.4295 188.462 96.0909C187.363 96.7572 186.235 97.3696 185.073 97.9232C183.911 98.4768 182.729 98.9717 181.518 99.4077C180.312 99.8437 179.087 100.221 177.842 100.539C176.597 100.858 175.337 101.113 174.067 101.304C172.798 101.495 171.518 101.627 170.234 101.691ZM141.914 87.4976C143.638 85.5722 149.053 79.6 153.657 74.5097C153.584 73.1722 153.774 71.869 154.233 70.6049C154.692 69.3458 155.381 68.2239 156.299 67.249C156.509 66.9697 156.636 66.661 156.684 66.3181C156.899 65.2452 157.036 64.1526 157.28 63.0895C157.417 62.7073 157.344 62.3693 157.06 62.0753C155.337 60.1352 153.921 57.9894 152.812 55.6426C151.704 53.291 150.947 50.8315 150.542 48.2643C150.347 46.8092 150.425 45.3738 150.771 43.9481C150.825 43.6933 150.908 43.4533 151.015 43.2181C151.123 42.9829 151.255 42.7625 151.411 42.5567C151.567 42.3509 151.748 42.1647 151.948 42.0031C152.143 41.8365 152.358 41.6944 152.593 41.5817C152.822 41.4642 153.061 41.376 153.31 41.3172C153.564 41.2535 153.818 41.2192 154.077 41.2192C154.331 41.2143 154.59 41.2388 154.839 41.2927C155.093 41.3466 155.337 41.4299 155.571 41.5376C157.69 42.4391 159.409 43.8452 160.722 45.7461C162.832 48.4211 164.419 51.3754 165.488 54.6138C165.581 54.8881 165.669 55.1086 165.718 55.2605C167.368 54.8244 169.018 54.8244 170.664 55.2605C170.727 55.0841 170.835 54.7803 170.942 54.4766C172.295 50.2534 174.57 46.6035 177.759 43.5267C178.706 42.6596 179.775 41.9933 180.967 41.518C181.758 41.1898 182.558 41.1604 183.369 41.4299C187.734 36.9715 189.326 35.0216 190.664 33.6792C189.77 32.9737 188.847 32.3123 187.895 31.695C186.938 31.0777 185.957 30.5045 184.951 29.9803C183.94 29.4512 182.91 28.9759 181.86 28.5497C180.805 28.1186 179.736 27.7413 178.647 27.4131C177.558 27.0848 176.46 26.8105 175.347 26.5851C174.228 26.3597 173.11 26.1932 171.977 26.0707C170.849 25.9531 169.717 25.8894 168.579 25.8747C167.446 25.8649 166.308 25.9041 165.18 26.0021C164.048 26.0952 162.92 26.2422 161.802 26.443C160.683 26.6439 159.58 26.8987 158.481 27.2024C157.388 27.5062 156.308 27.8638 155.249 28.2704C154.189 28.6771 153.149 29.1327 152.129 29.6373C151.108 30.1371 150.117 30.6907 149.15 31.2884C148.183 31.8861 147.246 32.5279 146.338 33.2138C145.43 33.8997 144.555 34.6248 143.716 35.394C142.881 36.1632 142.075 36.9666 141.313 37.8093C140.547 38.6569 139.824 39.5338 139.145 40.4451C138.462 41.3564 137.822 42.297 137.231 43.2671C136.636 44.242 136.089 45.2366 135.586 46.2605C135.088 47.2845 134.634 48.328 134.233 49.3961C133.828 50.4592 133.476 51.5419 133.174 52.6394C132.871 53.7417 132.622 54.8489 132.427 55.9709C132.226 57.0928 132.08 58.2245 131.987 59.3611C131.894 60.4978 131.855 61.6344 131.87 62.7759C131.885 63.9126 131.953 65.0492 132.07 66.1858C132.192 67.3175 132.363 68.4444 132.588 69.5614C132.812 70.6784 133.091 71.7808 133.418 72.8733C133.75 73.9609 134.126 75.0388 134.555 76.0921C134.985 77.1455 135.464 78.1792 135.986 79.1934C136.513 80.2026 137.085 81.1873 137.7 82.1427C138.32 83.0981 138.979 84.024 139.682 84.9206C140.386 85.8122 141.133 86.6745 141.914 87.4976ZM171.684 76.5184C171.138 77.0916 170.561 77.6305 170.014 78.2086C169.746 78.4095 169.634 78.6789 169.687 79.0121C169.741 79.3501 169.931 79.5706 170.249 79.6784C170.942 80.036 171.675 80.2614 172.446 80.3545C173.222 80.4525 173.989 80.4035 174.746 80.2222C175.503 80.036 176.201 79.7225 176.846 79.2864C177.49 78.8455 178.042 78.3066 178.491 77.6697C178.945 77.0328 179.272 76.342 179.477 75.5826C179.678 74.8281 179.741 74.0638 179.663 73.2848C179.585 72.5059 179.375 71.7661 179.023 71.0655C178.677 70.3698 178.218 69.7525 177.646 69.2234C177.29 68.9294 177.021 68.5767 176.841 68.1504C176.655 67.7291 176.582 67.2882 176.611 66.8325C176.626 66.2691 176.582 65.7106 176.484 65.1619C176.382 64.6083 176.23 64.0693 176.025 63.5451C175.82 63.0258 175.566 62.5261 175.263 62.0557C174.956 61.5854 174.609 61.1494 174.219 60.7476C173.828 60.341 173.398 59.9834 172.939 59.6698C172.475 59.3513 171.987 59.0819 171.47 58.8663C170.952 58.6459 170.42 58.4842 169.873 58.3715C169.326 58.2588 168.769 58.2 168.213 58.2C167.651 58.2 167.095 58.2539 166.548 58.3666C166.001 58.4744 165.464 58.6361 164.951 58.8565C164.433 59.0721 163.94 59.3367 163.481 59.6502C163.017 59.9687 162.588 60.3263 162.192 60.7231C161.802 61.1249 161.455 61.5609 161.147 62.0312C160.84 62.5016 160.586 62.9964 160.376 63.5206C160.171 64.0399 160.014 64.5789 159.917 65.1325C159.814 65.6861 159.77 66.2397 159.78 66.8031C159.819 67.2637 159.746 67.7046 159.565 68.1259C159.389 68.5522 159.121 68.9098 158.769 69.2038C158.198 69.728 157.739 70.3355 157.388 71.0263C157.036 71.7171 156.821 72.4471 156.733 73.2212C156.65 73.9903 156.704 74.7497 156.894 75.5042C157.085 76.2538 157.397 76.9495 157.842 77.5815C158.281 78.2282 158.823 78.772 159.458 79.2227C160.097 79.6686 160.796 79.9919 161.548 80.1928C162.3 80.3888 163.066 80.4476 163.843 80.3692C164.614 80.2908 165.351 80.0752 166.05 79.7323C166.836 79.3354 166.929 78.7573 166.299 78.1106C165.762 77.5619 165.205 77.0328 164.682 76.4792C164.516 76.3371 164.389 76.1705 164.297 75.9794C164.204 75.7835 164.15 75.5826 164.14 75.367C164.136 75.1515 164.17 74.9457 164.248 74.7448C164.326 74.544 164.438 74.3676 164.595 74.2157C164.746 74.0687 164.922 73.9511 165.122 73.8728C165.322 73.7993 165.527 73.765 165.742 73.7748C165.957 73.7846 166.157 73.8336 166.347 73.9315C166.543 74.0246 166.709 74.1569 166.846 74.3186C167.28 74.7448 167.671 75.2152 168.193 75.7884C168.735 75.2005 169.111 74.7546 169.531 74.3382C169.668 74.1716 169.834 74.0344 170.029 73.9364C170.224 73.8385 170.43 73.7846 170.649 73.7699C170.869 73.7601 171.079 73.7944 171.279 73.8728C171.484 73.956 171.66 74.0687 171.816 74.2255C171.968 74.3823 172.085 74.5635 172.163 74.7644C172.241 74.9702 172.27 75.1809 172.261 75.4013C172.246 75.6169 172.192 75.8276 172.09 76.0186C171.992 76.2146 171.855 76.3812 171.684 76.5184ZM158.882 59.6012L162.807 56.2697C162.651 55.8239 162.461 55.1919 162.222 54.5844C161.011 51.2088 159.126 48.2692 156.567 45.7657C156.059 45.3003 155.503 44.9034 154.897 44.5703C154.062 44.1098 153.681 44.3204 153.53 45.2709C153.447 45.8049 153.423 46.3389 153.462 46.8729C153.813 50.3416 154.927 53.5408 156.797 56.4804C157.446 57.5876 158.227 58.6263 158.882 59.6012ZM177.671 59.322C180.18 56.1766 181.855 52.6296 182.695 48.6906C182.89 47.5539 182.939 46.4124 182.847 45.266C182.788 44.3155 182.329 44.1147 181.494 44.5752C180.932 44.874 180.41 45.2415 179.936 45.6677C176.899 48.6465 174.775 52.1788 173.569 56.2648L177.514 59.6061C177.558 59.5032 177.607 59.4101 177.671 59.322ZM204.56 60.5174C204.399 57.3476 203.838 54.2561 202.871 51.2333C201.894 48.2349 200.556 45.4081 198.862 42.7478C197.163 40.0924 195.161 37.6917 192.856 35.5458C191.196 37.1871 189.497 39.1811 185.42 43.3504C185.503 43.5169 185.576 43.6835 185.639 43.855C186.089 45.3052 186.167 46.7701 185.879 48.2594C185.449 50.8119 184.687 53.2518 183.584 55.5887C182.48 57.9257 181.079 60.0715 179.385 62.0165C179.057 62.3399 178.97 62.722 179.126 63.1581C179.389 64.1967 179.492 65.2648 179.702 66.3132C179.761 66.6806 179.907 67.0089 180.132 67.3028C180.713 67.9251 181.206 68.606 181.601 69.3605C182.002 70.1101 182.3 70.8989 182.485 71.7269C182.676 72.5598 182.754 73.3975 182.724 74.25C182.69 75.0976 182.549 75.9304 182.295 76.7388C182.041 77.5521 181.689 78.3164 181.23 79.0366C180.776 79.7519 180.234 80.3986 179.609 80.9718C178.984 81.545 178.291 82.0251 177.539 82.4171C176.782 82.8041 175.991 83.0883 175.161 83.2646C174.067 83.5047 172.964 83.5488 171.855 83.392C170.742 83.2352 169.692 82.8923 168.706 82.3583C168.364 82.2162 168.027 82.2162 167.685 82.3583C167.109 82.6669 166.509 82.9119 165.884 83.0981C165.254 83.2793 164.619 83.3969 163.97 83.4508C163.315 83.5047 162.666 83.49 162.021 83.4116C161.372 83.3283 160.742 83.1813 160.122 82.9756C159.507 82.7649 158.916 82.4906 158.354 82.1574C157.788 81.8292 157.265 81.4421 156.782 81.0012C156.299 80.5651 155.864 80.0801 155.478 79.551C155.097 79.0219 154.77 78.4585 154.497 77.8657L143.97 89.5063C145.298 90.7066 146.704 91.7991 148.193 92.7937C149.682 93.7833 151.235 94.6603 152.851 95.4197C154.468 96.1791 156.133 96.816 157.847 97.3304C159.555 97.8448 161.294 98.2319 163.061 98.4915C164.829 98.7463 166.606 98.8737 168.393 98.8639C170.18 98.859 171.958 98.7218 173.721 98.4523C175.488 98.1829 177.226 97.786 178.935 97.2618C180.639 96.7376 182.3 96.086 183.916 95.3168C185.527 94.5427 187.075 93.6609 188.555 92.6565C190.039 91.6571 191.44 90.5547 192.759 89.3446C194.077 88.1394 195.303 86.8411 196.43 85.4497C197.558 84.0632 198.584 82.5983 199.497 81.06C200.41 79.5167 201.206 77.9195 201.885 76.2587C202.563 74.6027 203.115 72.9027 203.545 71.1635C203.974 69.4242 204.272 67.6605 204.443 65.8772C204.614 64.0938 204.653 62.3056 204.56 60.5174Z" fill="#E4E9BB"/>
</svg>
