<svg width="84" height="88" viewBox="0 0 84 88" fill="none" xmlns="http://www.w3.org/2000/svg">
<path d="M74.0677 32.7396C75.3542 29.7396 77.0938 23.2656 72.1823 16.6719C66.8698 9.53646 58.7552 9.8125 55.4583 10.2865C54.0052 6.09896 49.7917 0 41.5 0C33.2135 0 28.9948 6.09896 27.5417 10.2865C24.2396 9.81771 16.1302 9.53646 10.8229 16.6719C5.91146 23.2656 7.64583 29.7396 8.93229 32.7396C4.47917 34.6094 0 39.7708 0 49.3646C0 59.8177 6.15104 66.3125 16.0573 66.3125H27.099V86.2083C27.099 87.0469 27.7813 87.724 28.6198 87.724C29.4583 87.724 30.1354 87.0469 30.1354 86.2083V64.7969C30.1354 64.5938 30.0938 64.3958 30.0208 64.2135C29.9427 64.026 29.8281 63.8594 29.6875 63.7188L20.349 54.3906C19.7552 53.7969 18.7969 53.7969 18.2031 54.3906C17.6094 54.9792 17.6094 55.9427 18.2031 56.5312L24.9531 63.276H16.0573C7.90104 63.276 3.03646 58.0781 3.03646 49.3646C3.03646 40.25 7.55208 35.9896 11.4219 35.1146C11.9062 35 12.3073 34.6615 12.4896 34.1979C12.6771 33.7396 12.625 33.2135 12.3542 32.7969C12.3073 32.7292 7.83333 25.7656 13.2604 18.4792C18.6771 11.1979 27.8594 13.4062 28.2448 13.5C28.6406 13.5938 29.0573 13.5312 29.4115 13.3229C29.7552 13.1094 30.0052 12.7656 30.099 12.3646C30.1875 11.9844 32.3542 3.03125 41.5 3.03125C50.651 3.03125 52.8177 11.9844 52.9062 12.3646C52.9948 12.7656 53.2448 13.1094 53.5938 13.3229C53.9427 13.5312 54.3646 13.5938 54.7604 13.5C55.1458 13.401 64.3177 11.1927 69.7448 18.4792C75.1302 25.7135 70.8333 32.5156 70.651 32.8021C70.3802 33.2188 70.3281 33.7396 70.5156 34.2031C70.7031 34.6615 71.099 35 71.5833 35.1146C75.4531 35.9896 79.9688 40.25 79.9688 49.3646C79.9688 58.0781 75.099 63.276 66.9479 63.276H58.0521L64.8021 56.5312C65.3958 55.9427 65.3958 54.9792 64.8021 54.3906C64.2083 53.7969 63.2448 53.7969 62.651 54.3906L53.3125 63.7188C53.1771 63.8594 53.0625 64.026 52.9844 64.2135C52.9115 64.3958 52.8698 64.5938 52.8698 64.7969V86.2083C52.8698 87.0469 53.5469 87.724 54.3854 87.724C55.224 87.724 55.9062 87.0469 55.9062 86.2083V66.3125H66.9479C76.849 66.3125 83.0052 59.8177 83.0052 49.3646C83.0052 39.7708 78.5208 34.6094 74.0677 32.7396Z" fill="#E8E1D6"/>
</svg>
