<svg width="95" height="94" viewBox="0 0 95 94" fill="none" xmlns="http://www.w3.org/2000/svg">
<mask id="mask0_6_4133" style="mask-type:luminance" maskUnits="userSpaceOnUse" x="0" y="0" width="95" height="94">
<path d="M0 0H94.0104V93.9271H0V0Z" fill="white"/>
</mask>
<g mask="url(#mask0_6_4133)">
<path fill-rule="evenodd" clip-rule="evenodd" d="M63.2135 0C64.1094 0 64.8333 0.723959 64.8333 1.61979V6.47917C64.8333 7.375 64.1094 8.10417 63.2135 8.10417C62.3177 8.10417 61.5938 7.375 61.5938 6.47917V1.61979C61.5938 0.723959 62.3177 0 63.2135 0ZM48.625 30.7969C48.625 22.7396 55.1563 16.2083 63.2135 16.2083C71.2708 16.2083 77.8021 22.7396 77.8021 30.7969C77.8021 38.849 71.2708 45.3802 63.2135 45.3802C55.1563 45.3802 48.625 38.849 48.625 30.7969ZM63.2135 12.9635C53.3646 12.9635 45.3854 20.9479 45.3854 30.7969C45.3854 40.6406 53.3646 48.625 63.2135 48.625C73.0625 48.625 81.0417 40.6406 81.0417 30.7969C81.0417 20.9479 73.0625 12.9635 63.2135 12.9635ZM3.23958 72.9375C3.23958 66.901 6.24479 61.5625 10.8333 58.3385L12.0208 59.125C12.8698 59.6927 12.9896 60.8958 12.2656 61.6198L7.84375 66.0417C5.89583 67.9896 7.27604 71.3177 10.0313 71.3177C10.7552 71.3177 11.3437 71.9062 11.3437 72.6354V73.8854C11.3437 75.599 12.7344 76.9896 14.4531 76.9896C15.474 76.9896 16.125 78.0833 15.6354 78.9792L13.1719 83.4948L10.8542 87.5521C6.25 84.3281 3.23958 78.9844 3.23958 72.9375ZM14.5573 63.9115C16.6719 61.7969 16.3854 58.3125 14.0104 56.5625C16.1719 55.625 18.5625 55.1094 21.0729 55.1094C25.526 55.1094 29.5938 56.7396 32.7188 59.4375L27.3073 61.6927C25.4948 62.4479 24.3125 64.2188 24.3125 66.1823V68.5C24.3125 70.3438 25.3542 72.026 27 72.849L30.3594 74.5312C30.7813 74.7396 31.0938 75.1302 31.2083 75.5885L33.6927 85.5312C30.4635 88.7656 26 90.7656 21.0729 90.7656C18.4323 90.7656 15.9219 90.1927 13.6667 89.1615L16.0052 85.0729L18.4792 80.5312C20.125 77.5156 17.9896 73.8438 14.5885 73.75V72.6354C14.5885 70.2344 12.7344 68.2708 10.3854 68.0885L14.5573 63.9115ZM36.2344 82.3229C37.9219 79.599 38.901 76.3802 38.901 72.9375C38.901 68.7917 37.4896 64.9792 35.1146 61.9531L28.5521 64.6875C27.9479 64.9375 27.5573 65.5312 27.5573 66.1823V68.5C27.5573 69.1146 27.901 69.6771 28.4531 69.9531L31.8073 71.6302C33.0781 72.2656 34.0052 73.4219 34.349 74.8021L36.2344 82.3229ZM21.0729 51.8646C9.43229 51.8646 0 61.3021 0 72.9375C0 84.5729 9.43229 94.0104 21.0729 94.0104C32.7083 94.0104 42.1406 84.5729 42.1406 72.9375C42.1406 61.3021 32.7083 51.8646 21.0729 51.8646ZM92.3906 32.4167C93.2865 32.4167 94.0104 31.6875 94.0104 30.7969C94.0104 29.901 93.2865 29.1719 92.3906 29.1719H87.526C86.6302 29.1719 85.9062 29.901 85.9062 30.7969C85.9062 31.6875 86.6302 32.4167 87.526 32.4167H92.3906ZM84.9896 52.5729C84.3594 53.2031 83.3333 53.2031 82.6979 52.5729L79.2604 49.1302C78.625 48.5 78.625 47.474 79.2604 46.8385C79.8906 46.2083 80.9167 46.2083 81.5521 46.8385L84.9896 50.276C85.625 50.9115 85.625 51.9375 84.9896 52.5729ZM43.7292 52.5729C43.099 53.2031 42.0729 53.2031 41.4375 52.5729C40.8021 51.9375 40.8021 50.9115 41.4375 50.276L44.875 46.8385C45.5104 46.2083 46.5365 46.2083 47.1667 46.8385C47.8021 47.474 47.8021 48.5 47.1667 49.1302L43.7292 52.5729ZM63.2135 53.4844C64.1094 53.4844 64.8333 54.2135 64.8333 55.1094V59.9688C64.8333 60.8646 64.1094 61.5885 63.2135 61.5885C62.3177 61.5885 61.5938 60.8646 61.5938 59.9688V55.1094C61.5938 54.2135 62.3177 53.4844 63.2135 53.4844ZM38.901 32.4167C39.7969 32.4167 40.5208 31.6875 40.5208 30.7969C40.5208 29.901 39.7969 29.1719 38.901 29.1719H34.0365C33.1406 29.1719 32.4167 29.901 32.4167 30.7969C32.4167 31.6875 33.1406 32.4167 34.0365 32.4167H38.901ZM47.1667 14.75C46.5365 15.3802 45.5104 15.3802 44.875 14.75L41.4375 11.3125C40.8021 10.6771 40.8021 9.65104 41.4375 9.01563C42.0729 8.38542 43.099 8.38542 43.7292 9.01563L47.1667 12.4583C47.8021 13.0885 47.8021 14.1146 47.1667 14.75ZM81.5521 14.75C80.9167 15.3802 79.8906 15.3802 79.2604 14.75C78.625 14.1146 78.625 13.0885 79.2604 12.4583L82.6979 9.01563C83.3333 8.38542 84.3594 8.38542 84.9896 9.01563C85.625 9.65104 85.625 10.6771 84.9896 11.3125L81.5521 14.75Z" fill="white"/>
</g>
</svg>
