<svg width="106" height="106" viewBox="0 0 106 106" fill="none" xmlns="http://www.w3.org/2000/svg">
<g clip-path="url(#clip0_6_4383)">
<mask id="mask0_6_4383" style="mask-type:luminance" maskUnits="userSpaceOnUse" x="0" y="0" width="106" height="106">
<path d="M0 0H105.339V105.339H0V0Z" fill="white"/>
</mask>
<g mask="url(#mask0_6_4383)">
<path d="M53 0C23.776 0 0 23.776 0 53C0 82.224 23.776 106 53 106C82.224 106 106 82.224 106 53C106 23.776 82.224 0 53 0ZM22.9688 72.4323C22.9688 67.3958 24.224 62.6563 26.4271 58.4844C27.3594 58.8854 28.2656 59.3177 29.1458 59.8281C31.4792 61.1875 31.7969 61.8958 31.8073 61.901C31.75 62.0469 31.3594 62.4271 31.0729 62.7031C30.2656 63.4948 29.1563 64.5729 28.3854 66.5C27.724 68.2031 26.8906 71.3906 28.6667 73.5469C29.5625 74.651 30.6667 74.8802 31.401 75.0365C31.9479 75.151 32.0938 75.1979 32.2396 75.3646C32.8281 76.0312 32.7969 77.625 32.1823 78.401C31.8906 78.7708 31.4844 78.8542 30.401 78.9844C29.6042 79.0781 28.6094 79.1979 27.5677 79.6458C26.4271 80.1354 25.4323 80.9583 24.5729 82.0469C23.5521 79.0208 22.9688 75.7969 22.9688 72.4323ZM28.9583 82.8906C29.5313 82.6458 30.1615 82.5729 30.8281 82.4896C32.1198 82.3333 33.7344 82.1406 34.9531 80.5938C36.6458 78.4531 36.6198 74.9896 34.8906 73.026C33.9427 71.9635 32.849 71.7344 32.125 71.5833C31.5729 71.4635 31.4948 71.4271 31.3958 71.3125C30.9635 70.7865 31.0833 69.3281 31.6719 67.7917C32.1563 66.5833 32.8594 65.8958 33.5365 65.2396C34.3646 64.4323 35.401 63.4271 35.3333 61.776C35.276 60.0573 33.9167 58.5156 30.9219 56.776C30.0573 56.2708 29.1719 55.8333 28.2708 55.4271C30.0104 52.9063 32.1354 50.6771 34.5417 48.7917C35.6875 49.9063 36.9531 50.7031 38.3281 51.151C39.2083 51.4323 40.026 51.5469 40.8073 51.5469C42.3906 51.5469 43.8177 51.0781 45.3021 50.5885C47.3906 49.901 49.5469 49.1927 52.8594 49.4635C54.8438 49.6198 56.0052 50.0365 57.125 50.4375C58.4479 50.9167 59.8125 51.4115 61.9792 51.2292C64.7448 51 67.4219 49.7969 69.9375 47.6562C71.3906 48.651 72.75 49.7708 74 51C72.2969 51.776 71.2135 52.8333 70.7604 54.2031C70.3542 55.3958 70.5781 56.4427 70.7552 57.2812C70.9271 58.0938 71.0469 58.6771 70.7656 59.4792C70.3906 60.5365 69.4844 61.7188 68.625 61.8542C68.0365 61.9479 67.3958 61.4115 66.4271 60.5104C65.2344 59.401 63.75 58.0156 61.5885 58.3177C59.7188 58.5781 58.9167 59.974 58.276 61.099C57.6927 62.125 57.1354 63.0885 55.7448 63.7865C54.1875 64.5677 52.6302 64.6667 51.3802 64.7448C49.9792 64.8385 48.2344 64.9479 47.7656 66.6562C47.276 68.401 48.7969 69.375 49.9115 70.0833C51.0156 70.7865 52.3958 71.6667 53.1927 73.2396C53.7969 74.4167 53.8125 75.4531 53.8229 76.5469C53.8385 77.9167 53.8594 79.6198 55.4219 80.875C56.4167 81.6823 57.6875 82.0156 58.9635 82.0156C60.3281 82.0156 61.6979 81.6302 62.7344 81.0208C64.7292 79.8333 65.5208 77.9115 66.151 76.3646C66.7396 74.9375 67.0521 74.2969 67.6458 74.125C67.9375 74.0312 68.2448 74.099 68.5208 74.1562C69.526 74.3802 70.1198 75.3073 71.0052 76.8073C71.9271 78.3698 73.0729 80.3125 75.3594 81.1615C76.9062 81.7188 78.1719 81.5104 79.8021 81.2396C80.4948 81.1198 81.1719 80.9323 81.8438 80.7188C80.1406 86.6406 76.6771 91.8281 72.0312 95.6458C71.3333 95.2448 70.7031 94.7969 70.2396 94.2448C69.4792 93.3646 68.9948 92.3073 68.5677 91.375C67.9167 89.9479 67.1771 88.3333 65.3802 88.3333H65.3438C63.6354 88.3542 62.9688 89.8802 62.4844 90.9948C62.0781 91.9219 61.5729 93.0781 60.5312 94.2031C58.099 96.8542 54.7604 97.1563 54.5938 97.1719C53.7969 97.25 51.0521 97.3802 48.7188 95.724C47.8073 95.0781 47.3854 94.4635 46.9844 93.875C46.4948 93.1615 45.8854 92.2708 44.625 91.9271C42.2708 91.2917 39.7292 93.0417 36.5 97.5C32.1771 94.6458 28.651 90.7031 26.276 86.0677C27.0052 84.4375 27.901 83.349 28.9635 82.8906H28.9583ZM37.5417 46.7344C42.0677 44 47.3438 42.401 53 42.401C57.9219 42.401 62.5573 43.6094 66.6562 45.7188C65.026 46.8906 63.3594 47.5677 61.6875 47.7083C60.2917 47.8177 59.5052 47.5417 58.3229 47.1146C57.1094 46.6771 55.599 46.1354 53.1406 45.9427C49.125 45.6146 46.3906 46.5104 44.1979 47.2344C42.2604 47.8698 40.9844 48.2917 39.4115 47.7865C38.75 47.5729 38.1302 47.2135 37.5417 46.7344ZM82.7188 76.5469C81.5833 77.1302 80.401 77.5469 79.1927 77.7604C77.7448 78.0052 77.2135 78.0729 76.5833 77.8438C75.4792 77.4323 74.8125 76.3073 74.0469 75.0104C73.0625 73.3438 71.8385 71.276 69.2292 70.6979C68.7917 70.6042 67.7865 70.3906 66.6406 70.7396C64.3698 71.401 63.5469 73.4115 62.8854 75.0208C62.3646 76.2969 61.9115 77.401 60.9375 77.9792C59.8021 78.6458 58.2396 78.6042 57.6406 78.1198C57.4167 77.9427 57.3698 77.6719 57.3542 76.5C57.3385 75.2552 57.3177 73.5417 56.3385 71.6302C55.5208 70.0208 54.3698 68.9219 53.3073 68.1198C54.4948 67.9688 55.8906 67.6615 57.3229 66.9479C59.6719 65.7708 60.6771 64.0156 61.3385 62.8542C61.599 62.401 61.9219 61.8385 62.0677 61.8177C62.5208 61.7552 63.1406 62.276 64.0208 63.0938C65.2083 64.1979 66.8281 65.724 69.1823 65.3438C71.5677 64.9531 73.3698 62.7083 74.099 60.6458C74.7083 58.9063 74.4219 57.5417 74.2083 56.5521C74.0833 55.9479 74.0156 55.5938 74.1094 55.3229C74.2917 54.7708 75.1875 54.2344 76.526 53.8229C80.5885 58.9427 83.0312 65.401 83.0312 72.4323C83.0312 73.8281 82.901 75.1927 82.7188 76.5417V76.5469ZM39.5781 99.2604C42.4531 95.3802 43.6615 95.3333 43.6458 95.3073C43.7292 95.375 43.9271 95.6615 44.0677 95.8698C44.5365 96.5573 45.25 97.599 46.6771 98.6042C49.9115 100.906 53.5313 100.828 54.9115 100.693C55.4063 100.651 59.8281 100.188 63.1302 96.599C64.3073 95.3229 64.9844 94.0365 65.4427 93.0365C65.9115 94.0469 66.5417 95.3646 67.5521 96.5417C67.9583 97.0156 68.4271 97.4427 68.9375 97.8438C64.3125 100.755 58.8594 102.464 53 102.464C48.1771 102.464 43.625 101.292 39.5781 99.2604ZM76.1042 96.724C82.5312 90.6042 86.5677 81.9896 86.5677 72.4323C86.5677 53.9219 71.5104 38.8646 53 38.8646C34.4896 38.8646 19.4323 53.9219 19.4323 72.4323C19.4323 81.9896 23.4688 90.6042 29.8958 96.724C14.2292 88.4115 3.53125 71.9375 3.53125 53C3.53125 25.724 25.724 3.53125 53 3.53125C80.276 3.53125 102.469 25.724 102.469 53C102.469 71.9375 91.7656 88.4115 76.1042 96.724Z" fill="#F4F1EC"/>
</g>
<path d="M98.4167 40.1146L95.9167 37.6198L86.5677 46.9688V42.4011H83.0312V51.2344C83.0312 52.2084 83.8229 53 84.8021 53H93.6354V49.4688H89.0625L98.4167 40.1146Z" fill="#F4F1EC"/>
<path d="M19.4325 42.401V38.8646H10.5991C9.62516 38.8646 8.8335 39.6562 8.8335 40.6354V49.4687H12.3647V44.8958L21.7189 54.25L24.2137 51.75L14.8647 42.401H19.4325Z" fill="#F4F1EC"/>
<path d="M64.7762 12.3646C64.3022 12.3646 63.8179 12.3958 63.3127 12.4531C61.6043 9.21873 57.6043 7.06769 53.0002 7.06769C48.396 7.06769 44.396 9.21873 42.6877 12.4531C42.1877 12.3958 41.7033 12.3646 41.2241 12.3646C35.0575 12.3646 30.0366 16.3281 30.0366 21.1979C30.0366 26.0729 35.0575 30.0312 41.2241 30.0312V26.5C37.0731 26.5 33.5679 24.0729 33.5679 21.1979C33.5679 18.3281 37.0731 15.901 41.2241 15.901C41.8908 15.901 42.5887 15.9844 43.422 16.1614C44.3283 16.3541 45.2397 15.8073 45.4897 14.9114C46.1929 12.4114 49.3543 10.5989 53.0002 10.5989C56.646 10.5989 59.8127 12.4114 60.5158 14.9114C60.7658 15.8073 61.672 16.3541 62.5835 16.1614C63.4116 15.9844 64.1095 15.901 64.7762 15.901C68.9272 15.901 72.4325 18.3281 72.4325 21.1979C72.4325 24.0729 68.9272 26.5 64.7762 26.5V30.0312C70.9481 30.0312 75.9689 26.0729 75.9689 21.1979C75.9689 16.3281 70.9481 12.3646 64.7762 12.3646Z" fill="#F4F1EC"/>
<path d="M51.2344 19.4323H54.7656V31.8021H51.2344V19.4323Z" fill="#F4F1EC"/>
<path d="M56.5991 34.849L60.1356 22.4792L63.5314 23.4531L59.995 35.8177L56.5991 34.849Z" fill="#F4F1EC"/>
<path d="M42.4688 23.4531L45.8646 22.4792L49.401 34.849L46 35.8177L42.4688 23.4531Z" fill="#F4F1EC"/>
</g>
<defs>
<clipPath id="clip0_6_4383">
<rect width="106" height="106" fill="white"/>
</clipPath>
</defs>
</svg>
