<svg width="86" height="86" viewBox="0 0 86 86" fill="none" xmlns="http://www.w3.org/2000/svg">
<mask id="mask0_191_11983" style="mask-type:luminance" maskUnits="userSpaceOnUse" x="0" y="0" width="86" height="86">
<path d="M0 0H86V86H0V0Z" fill="white"/>
</mask>
<g mask="url(#mask0_191_11983)">
<path d="M5.20682 43.6511C6.8646 49.0678 9.49368 53.6043 17.673 56.422C17.673 53.974 17.8702 52.0938 17.6511 50.2449C16.877 43.948 14.2552 37.4949 15.4164 31.3907C18.0236 17.8438 29.2994 7.84904 45.1834 0.057373C44.9351 3.948 44.0222 7.35946 44.6357 10.6147C45.9794 17.6511 52.742 22.2605 60.2056 26.4272C70.8315 32.3542 78.4704 39.8126 82.1584 49.0678C87.1464 61.5209 84.0426 72.6563 70.0939 81.6303C68.458 82.6667 66.4716 83.422 64.2442 84.1095C68.1805 77.2501 69.1518 70.4063 66.6469 62.948C64.0178 65.448 61.7174 67.6615 59.3877 69.8803C58.84 69.7188 58.3215 69.5782 57.7737 69.422C57.7737 67.3126 57.4013 65.1459 57.8468 63.073C59.709 54.172 52.9684 43.2813 41.7656 38.547C45.2345 46.5678 38.3405 50.9688 31.797 55.7865C19.1847 65.0782 18.0455 75.2605 27.6635 85.9376C-0.0732334 81.6824 -5.39711 63.3855 5.20682 43.6511Z" fill="#E8E1D6"/>
</g>
</svg>
