<svg width="106" height="106" viewBox="0 0 106 106" fill="none" xmlns="http://www.w3.org/2000/svg">
<path d="M51.8771 62.9877C51.8833 63.2449 51.8457 63.4896 51.7579 63.7343C51.6638 63.9727 51.532 64.186 51.3564 64.3742C51.1807 64.5624 50.9737 64.7067 50.7415 64.8133C50.5094 64.92 50.2585 64.9702 50.0075 64.9764C49.744 64.989 49.4931 64.9451 49.2484 64.8572C49.0037 64.7631 48.7904 64.6314 48.5959 64.4495C48.4077 64.2738 48.2634 64.0668 48.1568 63.8284C48.0501 63.59 47.9937 63.339 47.9874 63.0818C47.9811 62.8183 48.025 62.5674 48.1191 62.329C48.2132 62.0843 48.3513 61.871 48.5332 61.6828C48.7151 61.4946 48.9284 61.3503 49.1668 61.2499C49.4052 61.1432 49.6562 61.093 49.9134 61.093C50.1706 61.0805 50.4216 61.1244 50.66 61.2185C50.8984 61.3126 51.1117 61.4444 51.2936 61.6263C51.4818 61.802 51.6199 62.009 51.7202 62.2474C51.8269 62.4795 51.8771 62.7305 51.8771 62.9877ZM60.1395 63.0316C60.1458 62.7744 60.1019 62.5234 60.0078 62.285C59.9137 62.0466 59.7694 61.8396 59.5937 61.6514C59.4118 61.4695 59.2047 61.3314 58.9663 61.2311C58.7279 61.137 58.4832 61.0868 58.226 61.0868C57.9688 61.0868 57.7179 61.1307 57.4795 61.2248C57.2411 61.3189 57.0278 61.4506 56.8395 61.6263C56.6576 61.8082 56.5133 62.0153 56.4067 62.2474C56.3 62.4795 56.2435 62.7305 56.2373 62.9814C56.2373 63.2512 56.2812 63.5021 56.3816 63.7531C56.4819 63.9978 56.6262 64.2111 56.8145 64.3993C57.0027 64.5875 57.216 64.7318 57.4606 64.8321C57.7053 64.9325 57.9625 64.9827 58.226 64.9827C58.4832 64.9827 58.7279 64.9325 58.9663 64.8321C59.2047 64.7318 59.4118 64.5875 59.5874 64.4055C59.7694 64.2173 59.9074 64.0103 60.0015 63.7719C60.0956 63.5335 60.1458 63.2826 60.1395 63.0316ZM56.8207 104.902C55.1707 104.984 53.5208 104.99 51.8708 104.908C50.2208 104.833 48.5834 104.676 46.946 104.432C45.3148 104.193 43.6962 103.88 42.0964 103.478C40.4904 103.083 38.9157 102.606 37.3598 102.048C35.8039 101.495 34.2794 100.868 32.78 100.165C31.2869 99.4628 29.8314 98.6849 28.4135 97.8442C26.9957 96.9973 25.6217 96.0813 24.298 95.1026C22.968 94.1177 21.6882 93.0762 20.4648 91.9658C19.2414 90.8616 18.0745 89.6947 16.9578 88.4776C15.8474 87.2543 14.7997 85.9807 13.8147 84.657C12.8297 83.3332 11.9075 81.9656 11.0605 80.5477C10.2073 79.1361 9.42939 77.6806 8.72047 76.1875C8.01154 74.7006 7.3779 73.1761 6.81955 71.6203C6.25491 70.0707 5.77811 68.4897 5.37033 66.8899C4.96881 65.2901 4.64258 63.6715 4.39791 62.0404C4.15323 60.4029 3.99012 58.7655 3.90229 57.1155C3.82073 55.4656 3.81445 53.8156 3.89601 52.1656C3.9713 50.5156 4.13441 48.8782 4.37281 47.2408C4.61121 45.6096 4.93117 43.991 5.32641 42.3912C5.72793 40.7852 6.20472 39.2105 6.75681 37.6546C7.30889 36.0987 7.93626 34.5742 8.63891 33.0748C9.34156 31.5817 10.1195 30.1262 10.9664 28.7083C11.8134 27.2905 12.7231 25.9165 13.708 24.5928C14.6867 23.2628 15.7282 21.9892 16.8386 20.7596C17.9428 19.5362 19.1097 18.3693 20.333 17.2589C21.5501 16.1422 22.8237 15.0945 24.1474 14.1095C25.4712 13.1245 26.8451 12.2023 28.2567 11.3553C29.6745 10.5021 31.1238 9.72419 32.6169 9.01527C34.11 8.30634 35.6283 7.6727 37.1841 7.11435C38.74 6.55599 40.3147 6.07291 41.9145 5.66513C43.5205 5.26361 45.1329 4.93738 46.7703 4.69271C48.4015 4.44803 50.0389 4.28492 51.6889 4.19709C53.3388 4.11553 54.9888 4.10925 56.6388 4.19081C58.2888 4.2661 59.9262 4.42921 61.5636 4.66761C63.1948 4.90601 64.8134 5.22597 66.4194 5.62121C68.0192 6.02273 69.6002 6.49952 71.1561 7.05161C72.7119 7.60369 74.2364 8.23106 75.7296 8.93371C77.2227 9.63636 78.6782 10.4143 80.0961 11.2612C81.5139 12.1082 82.8878 13.0179 84.2179 14.0028C85.5416 14.9815 86.8214 16.0292 88.0448 17.1334C89.2682 18.2376 90.4413 19.4045 91.5518 20.6278C92.6622 21.8449 93.7099 23.1185 94.6949 24.4422C95.6799 25.766 96.6021 27.1399 97.449 28.5515C98.3023 29.9693 99.0865 31.4186 99.7891 32.9117C100.498 34.4048 101.132 35.9293 101.696 37.4789C102.255 39.0348 102.731 40.6095 103.139 42.2093C103.541 43.8153 103.867 45.4277 104.112 47.0651C104.356 48.6963 104.519 50.3337 104.607 51.9837C104.689 53.6336 104.689 55.2836 104.607 56.9336C104.532 58.5836 104.369 60.221 104.131 61.8522C103.886 63.4896 103.566 65.1019 103.171 66.708C102.769 68.3078 102.292 69.8887 101.74 71.4383C101.188 72.9942 100.555 74.5187 99.8519 76.0118C99.1492 77.505 98.3713 78.9605 97.5243 80.3783C96.6837 81.7962 95.7677 83.1701 94.789 84.4938C93.804 85.8239 92.7626 87.0974 91.6522 88.3271C90.548 89.5504 89.3874 90.7173 88.164 91.8278C86.9406 92.9382 85.6734 93.9859 84.3496 94.9709C83.0259 95.9621 81.6519 96.8781 80.2403 97.7313C78.8288 98.5845 77.3733 99.3625 75.8864 100.071C74.3933 100.78 72.8751 101.414 71.3192 101.979C69.7696 102.537 68.1886 103.02 66.5888 103.422C64.989 103.829 63.3767 104.156 61.7393 104.4C60.1081 104.651 58.4707 104.814 56.8207 104.902ZM20.4334 86.7273C22.648 84.2554 29.5993 76.6078 35.5216 70.0958C35.4275 68.3768 35.6722 66.708 36.2619 65.0956C36.8516 63.477 37.7362 62.0466 38.9157 60.7919C39.1854 60.4406 39.3485 60.0453 39.405 59.5999C39.681 58.226 39.863 56.8332 40.1767 55.4655C40.3461 54.9762 40.2582 54.5496 39.8944 54.1732C37.6797 51.6888 35.8604 48.9409 34.4363 45.9296C33.0121 42.9245 32.0397 39.7751 31.519 36.4814C31.2618 34.6244 31.3622 32.7799 31.8139 30.9606C31.8829 30.6343 31.9833 30.3207 32.1213 30.0195C32.2593 29.7184 32.4287 29.4361 32.6357 29.1726C32.8365 28.9154 33.0623 28.677 33.3195 28.4637C33.5768 28.2566 33.8528 28.0747 34.1477 27.9241C34.4425 27.7798 34.7562 27.6669 35.0762 27.5853C35.3961 27.5101 35.7224 27.4661 36.0549 27.4599C36.3874 27.4536 36.7136 27.4912 37.0398 27.5602C37.3661 27.6293 37.6735 27.7359 37.9746 27.8739C40.7037 29.0283 42.912 30.8226 44.5996 33.263C47.3036 36.6822 49.3488 40.4715 50.7227 44.6121C50.8419 44.9634 50.9548 45.252 51.0176 45.4402C53.1318 44.8819 55.2523 44.8819 57.3728 45.4402C57.4481 45.2206 57.5861 44.8317 57.7241 44.4427C59.4682 39.0285 62.3855 34.3546 66.4822 30.4148C67.6993 29.3106 69.0795 28.4574 70.604 27.8488C71.6203 27.4285 72.6492 27.3909 73.6906 27.7296C79.3056 22.0269 81.3445 19.5299 83.0698 17.8047C81.9217 16.9013 80.736 16.0543 79.5063 15.2638C78.283 14.4734 77.022 13.7456 75.7233 13.0681C74.4309 12.3968 73.1072 11.7882 71.7521 11.2361C70.4032 10.6903 69.023 10.2073 67.6303 9.78693C66.2312 9.36659 64.8134 9.00899 63.383 8.72668C61.9526 8.43809 60.5096 8.21851 59.0604 8.06794C57.6049 7.91738 56.1494 7.82954 54.694 7.817C53.2322 7.79818 51.7767 7.85464 50.3212 7.97384C48.8657 8.09931 47.4228 8.28752 45.9861 8.54474C44.5494 8.80196 43.1253 9.12192 41.72 9.51716C40.3147 9.90613 38.9282 10.3578 37.5668 10.8786C36.1992 11.3993 34.8629 11.9827 33.5579 12.6289C32.2467 13.2751 30.9732 13.9777 29.731 14.7431C28.4825 15.5085 27.278 16.3304 26.1174 17.2087C24.9505 18.087 23.8275 19.0218 22.7484 20.0067C21.6693 20.9854 20.6404 22.0206 19.6555 23.0997C18.6768 24.1787 17.7483 25.3017 16.87 26.4686C15.9979 27.6355 15.1761 28.8464 14.4107 30.0885C13.6516 31.3307 12.9489 32.6106 12.3027 33.9218C11.6565 35.2267 11.0794 36.5692 10.5587 37.9306C10.0442 39.2983 9.59251 40.6848 9.20354 42.0901C8.81457 43.4954 8.49461 44.9195 8.23739 46.3562C7.98645 47.7928 7.79824 49.2358 7.67904 50.6913C7.55984 52.1468 7.50965 53.6023 7.52847 55.064C7.54102 56.5258 7.62885 57.9813 7.78569 59.4305C7.93626 60.8797 8.16211 62.3227 8.4507 63.7531C8.73929 65.1835 9.09689 66.6013 9.51722 67.9941C9.93756 69.3931 10.4269 70.767 10.979 72.1159C11.5248 73.471 12.1396 74.7947 12.8172 76.0871C13.4885 77.3795 14.2225 78.6405 15.0192 79.8639C15.8097 81.0935 16.6629 82.2792 17.5663 83.421C18.4698 84.5691 19.4234 85.667 20.4334 86.7273ZM58.684 72.6617C57.9751 73.402 57.2348 74.0921 56.5384 74.8261C56.1871 75.0896 56.0491 75.4347 56.1181 75.8613C56.1871 76.2879 56.4255 76.5702 56.8395 76.7082C57.7304 77.1725 58.6715 77.4611 59.6627 77.5803C60.6539 77.6995 61.6389 77.643 62.6113 77.4046C63.5837 77.1662 64.4872 76.771 65.3153 76.2063C66.1434 75.648 66.8461 74.9579 67.4232 74.136C68.013 73.3267 68.4333 72.4358 68.6905 71.4697C68.954 70.5036 69.0293 69.5186 68.9352 68.5273C68.8348 67.5298 68.5588 66.5825 68.1133 65.6854C67.6679 64.7882 67.0782 64.004 66.3442 63.3202C65.8862 62.95 65.5411 62.4921 65.3027 61.9525C65.0706 61.413 64.9702 60.8484 65.0141 60.2586C65.0267 59.5434 64.9702 58.8282 64.8448 58.1193C64.7193 57.4104 64.5248 56.7203 64.2613 56.0553C63.9978 55.384 63.6716 54.7504 63.2763 54.1418C62.8874 53.5395 62.4419 52.9812 61.94 52.4667C61.4319 51.9523 60.8861 51.4943 60.2901 51.0865C59.7003 50.685 59.0667 50.34 58.408 50.0576C57.743 49.7816 57.0591 49.5683 56.3565 49.424C55.6475 49.2797 54.9386 49.2107 54.2172 49.2107C53.502 49.2044 52.7868 49.2797 52.0841 49.4177C51.3752 49.562 50.6913 49.7691 50.0263 50.0451C49.3613 50.3211 48.734 50.6662 48.138 51.0677C47.542 51.4692 46.9899 51.9272 46.488 52.4416C45.9861 52.9561 45.5344 53.5082 45.1391 54.1104C44.7502 54.719 44.4177 55.3526 44.1542 56.0176C43.8844 56.6889 43.6899 57.3728 43.5582 58.0817C43.4327 58.7906 43.37 59.5058 43.3888 60.221C43.4327 60.8107 43.3449 61.3754 43.1128 61.9212C42.8806 62.4607 42.5418 62.925 42.0839 63.3014C41.3561 63.9664 40.7601 64.7443 40.3147 65.6352C39.863 66.5198 39.5807 67.4545 39.474 68.4395C39.3674 69.4245 39.4301 70.4032 39.6748 71.363C39.9194 72.3229 40.3272 73.2138 40.8919 74.0294C41.4628 74.8512 42.1529 75.5539 42.9747 76.1248C43.7966 76.7019 44.6874 77.116 45.6599 77.367C46.626 77.6179 47.6047 77.6932 48.6022 77.5928C49.5997 77.4924 50.5471 77.2227 51.4442 76.7772C52.448 76.2753 52.5672 75.5288 51.7641 74.7069C51.074 74.0043 50.3588 73.3267 49.6813 72.6115C49.4743 72.4358 49.3049 72.2225 49.1857 71.9716C49.0665 71.7269 49.0037 71.4634 48.9912 71.1937C48.9786 70.9176 49.0225 70.6478 49.1229 70.3969C49.2296 70.1397 49.3739 69.9138 49.5684 69.7193C49.7628 69.5249 49.9887 69.3806 50.2459 69.2802C50.5031 69.1798 50.7729 69.1359 51.0427 69.1484C51.3187 69.161 51.5822 69.23 51.8269 69.3492C52.0716 69.4747 52.2849 69.6378 52.4605 69.8511C53.0252 70.3906 53.5208 70.9992 54.1983 71.7332C54.8884 70.9741 55.3778 70.4032 55.9173 69.8762C56.093 69.6566 56.3063 69.4872 56.5572 69.3555C56.8082 69.23 57.0717 69.161 57.354 69.1484C57.63 69.1359 57.8998 69.1798 58.1633 69.2802C58.4268 69.3806 58.6526 69.5311 58.8534 69.7319C59.0479 69.9264 59.1984 70.1585 59.2926 70.422C59.3929 70.6855 59.4368 70.9553 59.418 71.2313C59.4055 71.5136 59.3302 71.7771 59.2047 72.0281C59.073 72.279 58.9036 72.486 58.684 72.6617ZM42.2344 51.005L47.2722 46.7389C47.0777 46.1617 46.833 45.3587 46.5256 44.5745C44.9635 40.2582 42.5418 36.494 39.2607 33.2818C38.6082 32.6858 37.8868 32.1777 37.1088 31.7573C36.0423 31.1676 35.553 31.4311 35.3522 32.6545C35.2518 33.332 35.2205 34.0159 35.2707 34.706C35.7224 39.1414 37.1465 43.2444 39.5493 47.0024C40.39 48.4265 41.3938 49.7502 42.2344 51.005ZM66.3755 50.6474C69.5939 46.6134 71.7458 42.0775 72.8249 37.0335C73.0821 35.578 73.1448 34.1162 73.0194 32.6482C72.9503 31.4248 72.3606 31.1676 71.2878 31.7573C70.5601 32.1463 69.8951 32.6106 69.2865 33.1626C65.378 36.9708 62.6552 41.4941 61.1056 46.7263L66.1748 51.0112C66.225 50.8795 66.294 50.7603 66.3755 50.6474ZM100.918 52.1719C100.718 48.1191 99.9961 44.1541 98.754 40.2895C97.4992 36.4438 95.7802 32.8239 93.597 29.4235C91.42 26.0169 88.8478 22.9428 85.8867 20.195C83.7473 22.3029 81.5641 24.8563 76.3319 30.1952C76.4385 30.4022 76.5326 30.6155 76.6142 30.8414C77.1913 32.6921 77.2917 34.5742 76.9153 36.4814C76.3695 39.7437 75.3845 42.8743 73.9667 45.8668C72.5551 48.8594 70.7546 51.601 68.5776 54.0916C68.1573 54.512 68.0443 55.0013 68.2451 55.5597C68.5776 56.8897 68.7156 58.2573 68.9854 59.5999C69.0607 60.0642 69.2489 60.4908 69.5375 60.8672C70.284 61.6577 70.9114 62.536 71.4258 63.4959C71.9403 64.4557 72.3167 65.4721 72.5614 66.5323C72.806 67.5926 72.9064 68.6716 72.8625 69.757C72.8249 70.8486 72.6367 71.9089 72.3167 72.9503C71.9905 73.9917 71.5325 74.9704 70.949 75.8864C70.3656 76.8086 69.6692 77.6367 68.8662 78.3707C68.0569 79.1048 67.1723 79.7196 66.1999 80.2152C65.2337 80.7171 64.2174 81.0747 63.1509 81.3068C61.7456 81.6142 60.3277 81.6644 58.8973 81.4637C57.4732 81.2692 56.1243 80.8237 54.8508 80.1462C54.4179 79.958 53.9788 79.958 53.5459 80.1462C52.8056 80.5414 52.0339 80.8551 51.2246 81.0872C50.4216 81.3256 49.5997 81.4762 48.7653 81.5452C47.9309 81.6142 47.0965 81.5954 46.2621 81.4888C45.434 81.3884 44.6184 81.2002 43.8279 80.9304C43.0312 80.6606 42.2721 80.3156 41.5506 79.889C40.8291 79.4624 40.1578 78.9667 39.5368 78.4084C38.9157 77.8438 38.3573 77.2227 37.8617 76.5451C37.3661 75.8675 36.9457 75.1523 36.6007 74.387L23.0684 89.2995C24.7748 90.8365 26.5879 92.2356 28.5014 93.5028C30.4086 94.7701 32.4036 95.8931 34.4864 96.8655C36.563 97.8442 38.7024 98.6598 40.8981 99.3185C43.1002 99.9773 45.3336 100.473 47.6047 100.799C49.8758 101.132 52.1594 101.288 54.4556 101.282C56.7517 101.276 59.0291 101.1 61.3001 100.755C63.5712 100.41 65.7984 99.902 67.9941 99.2307C70.1899 98.5531 72.323 97.725 74.3933 96.7338C76.4636 95.7488 78.4524 94.6133 80.3596 93.3335C82.2605 92.0536 84.061 90.6358 85.7612 89.0924C87.4551 87.5428 89.0298 85.8803 90.479 84.1049C91.9282 82.3232 93.2394 80.4473 94.4126 78.4774C95.5858 76.5075 96.6146 74.456 97.4804 72.3355C98.3524 70.215 99.0676 68.038 99.6197 65.8108C100.172 63.5837 100.555 61.3252 100.774 59.0415C100.994 56.7579 101.038 54.468 100.918 52.1719Z" fill="#E8E1D6"/>
</svg>
