<svg width="53" height="43" viewBox="0 0 53 43" fill="none" xmlns="http://www.w3.org/2000/svg">
<mask id="mask0_191_13147" style="mask-type:luminance" maskUnits="userSpaceOnUse" x="0" y="0" width="53" height="43">
<path d="M0 0H53V43H0V0Z" fill="white"/>
</mask>
<g mask="url(#mask0_191_13147)">
<path d="M18.6342 0.52019C18.8662 0.267335 19.1513 0.108395 19.4827 0.0361508C19.8076 -0.0360947 20.1258 2.80472e-05 20.4373 0.137293C20.7489 0.274559 20.9942 0.491293 21.1798 0.794719C21.3654 1.09092 21.4582 1.41602 21.4582 1.77725V10.4972C24.8789 10.2732 28.2332 10.6561 31.5213 11.6603C34.8159 12.6573 37.8653 14.2105 40.6628 16.3273C42.4461 17.7722 44.0636 19.3977 45.522 21.2183C46.9738 23.0388 48.2333 25.0039 49.294 27.1134C50.3546 29.223 51.1899 31.4264 51.8064 33.731C52.4229 36.0356 52.8074 38.3836 52.9466 40.7749C52.9665 41.1289 52.8936 41.4612 52.7213 41.7719C52.5555 42.0753 52.3235 42.3137 52.0186 42.4654C51.7203 42.6244 51.4087 42.6822 51.0772 42.6316C50.7458 42.5882 50.4541 42.4437 50.2088 42.2126C47.3052 39.4528 44.0901 37.1988 40.57 35.4577C37.05 33.7166 33.3708 32.5535 29.5259 31.9683C26.8411 31.5998 24.1563 31.542 21.4582 31.8021V40.8688C21.4582 41.23 21.3654 41.5551 21.1798 41.8586C20.9942 42.1548 20.7489 42.3715 20.4373 42.5088C20.1258 42.646 19.8076 42.6822 19.4761 42.6099C19.1513 42.5449 18.8662 42.3787 18.6276 42.1259L0.410685 22.5837C0.0924864 22.2369 -0.0732422 21.8179 -0.0732422 21.3266C-0.0732422 20.8354 0.0924864 20.4164 0.410685 20.0696L18.6342 0.52019ZM18.1436 36.5775V30.2055C18.1436 29.7648 18.2829 29.3675 18.5613 29.0351C18.8331 28.6956 19.1778 28.5005 19.5954 28.4427C23.0492 27.9659 26.503 27.9659 29.9568 28.45C36.9837 29.4758 43.3609 32.2284 49.0819 36.722C48.4322 33.2181 47.2124 29.9527 45.4292 26.9328C43.6393 23.913 41.4053 21.3411 38.7271 19.2171C35.9959 17.1798 33.0194 15.7277 29.7977 14.868C26.5693 14.001 23.3077 13.7843 20.0064 14.2033C19.5092 14.2756 19.0784 14.1311 18.7071 13.7699C18.3293 13.4159 18.1436 12.9752 18.1436 12.4406V6.06858L3.93076 21.3266L18.1436 36.5775Z" fill="#5077CF"/>
</g>
</svg>
