<svg width="53" height="43" viewBox="0 0 53 43" fill="none" xmlns="http://www.w3.org/2000/svg">
<mask id="mask0_191_13130" style="mask-type:luminance" maskUnits="userSpaceOnUse" x="0" y="0" width="53" height="43">
<path d="M0 0H53V43H0V0Z" fill="white"/>
</mask>
<g mask="url(#mask0_191_13130)">
<path d="M18.6347 0.52019C18.8667 0.267335 19.1518 0.108395 19.4832 0.0361508C19.808 -0.0360947 20.1262 2.80472e-05 20.4378 0.137293C20.7494 0.274559 20.9947 0.491293 21.1803 0.794719C21.3659 1.09092 21.4587 1.41602 21.4587 1.77725V10.4972C24.8793 10.2732 28.2337 10.6561 31.5217 11.6603C34.8164 12.6573 37.8658 14.2105 40.6633 16.3273C42.4466 17.7722 44.0641 19.3977 45.5225 21.2183C46.9743 23.0388 48.2338 25.0039 49.2945 27.1134C50.3551 29.223 51.1904 31.4264 51.8069 33.731C52.4234 36.0356 52.8079 38.3836 52.9471 40.7749C52.967 41.1289 52.8941 41.4612 52.7217 41.7719C52.556 42.0753 52.324 42.3137 52.0191 42.4654C51.7207 42.6244 51.4092 42.6822 51.0777 42.6316C50.7463 42.5882 50.4546 42.4437 50.2093 42.2126C47.3057 39.4528 44.0906 37.1988 40.5705 35.4577C37.0504 33.7166 33.3713 32.5535 29.5264 31.9683C26.8416 31.5998 24.1568 31.542 21.4587 31.8021V40.8688C21.4587 41.23 21.3659 41.5551 21.1803 41.8586C20.9947 42.1548 20.7494 42.3715 20.4378 42.5088C20.1262 42.646 19.808 42.6822 19.4766 42.6099C19.1518 42.5449 18.8667 42.3787 18.6281 42.1259L0.411174 22.5837C0.0929747 22.2369 -0.0727539 21.8179 -0.0727539 21.3266C-0.0727539 20.8354 0.0929747 20.4164 0.411174 20.0696L18.6347 0.52019ZM18.1441 36.5775V30.2055C18.1441 29.7648 18.2833 29.3675 18.5618 29.0351C18.8336 28.6956 19.1783 28.5005 19.5959 28.4427C23.0497 27.9659 26.5035 27.9659 29.9573 28.45C36.9842 29.4758 43.3614 32.2284 49.0823 36.722C48.4327 33.2181 47.2129 29.9527 45.4297 26.9328C43.6398 23.913 41.4058 21.3411 38.7276 19.2171C35.9964 17.1798 33.0199 15.7277 29.7982 14.868C26.5698 14.001 23.3082 13.7843 20.0069 14.2033C19.5097 14.2756 19.0788 14.1311 18.7076 13.7699C18.3297 13.4159 18.1441 12.9752 18.1441 12.4406V6.06858L3.93125 21.3266L18.1441 36.5775Z" fill="#50CF59"/>
</g>
</svg>
