<svg width="283" height="62" viewBox="0 0 283 62" fill="none" xmlns="http://www.w3.org/2000/svg">
<mask id="mask0_50_5523" style="mask-type:luminance" maskUnits="userSpaceOnUse" x="0" y="8" width="283" height="54">
<path d="M0.260742 8.47919H282.927V62H0.260742V8.47919Z" fill="white"/>
</mask>
<g mask="url(#mask0_50_5523)">
<path d="M265.901 8.88025H17.0942L0.98999 35.4115L17.0942 61.9375H265.901L282.006 35.4115L265.901 8.88025Z" fill="#2B5370"/>
</g>
<path d="M265.902 1H17.0944L0.990234 27.526L17.0944 54.0573H265.902L282.006 27.526L265.902 1Z" fill="#5083CF"/>
<mask id="mask1_50_5523" style="mask-type:luminance" maskUnits="userSpaceOnUse" x="0" y="0" width="283" height="56">
<path d="M0 0H283V55.1458H0V0Z" fill="white"/>
</mask>
<g mask="url(#mask1_50_5523)">
<path d="M265.901 55H17.0939C16.7606 55 16.4533 54.8281 16.2814 54.5469L0.177246 28.0156C-0.00504565 27.7136 -0.00504565 27.3386 0.177246 27.0417L16.2814 0.510437C16.4533 0.229186 16.7606 0.057312 17.0939 0.057312H265.901C266.235 0.057312 266.542 0.229186 266.714 0.510437L282.818 27.0417C283 27.3386 283 27.7136 282.818 28.0156L266.714 54.5469C266.542 54.8281 266.235 55 265.901 55ZM17.6304 53.1146H265.37L280.901 27.5261L265.37 1.94273H17.6304L2.09391 27.5261L17.6304 53.1146Z" fill="#17212B"/>
</g>
<path d="M84.4248 27.3629C84.4248 25.6963 84.7686 24.2171 85.4665 22.9254C86.1592 21.6234 87.1436 20.6077 88.4248 19.8838C89.7008 19.1494 91.1748 18.7796 92.8415 18.7796C94.9508 18.7796 96.7269 19.3421 98.1748 20.4671C99.6175 21.5921 100.55 23.1286 100.966 25.0713H95.904C95.5967 24.4359 95.1748 23.9463 94.6331 23.6129C94.0915 23.2692 93.4717 23.0921 92.779 23.0921C91.68 23.0921 90.805 23.4827 90.154 24.2588C89.5133 25.04 89.1956 26.0713 89.1956 27.3629C89.1956 28.6859 89.5133 29.7327 90.154 30.5088C90.805 31.2744 91.68 31.6546 92.779 31.6546C93.4717 31.6546 94.0915 31.4879 94.6331 31.1546C95.1748 30.8213 95.5967 30.3369 95.904 29.6963H100.966C100.55 31.6286 99.6175 33.165 98.1748 34.3004C96.7269 35.4254 94.9508 35.9879 92.8415 35.9879C91.1748 35.9879 89.7008 35.6286 88.4248 34.9046C87.1436 34.1702 86.1592 33.1494 85.4665 31.8421C84.7686 30.54 84.4248 29.0452 84.4248 27.3629Z" fill="black"/>
<path d="M109.451 36.0296C108.102 36.0296 106.893 35.7535 105.826 35.1962C104.768 34.6285 103.935 33.8317 103.326 32.8004C102.727 31.7587 102.43 30.5296 102.43 29.1129C102.43 27.7275 102.732 26.5087 103.346 25.4671C103.956 24.4254 104.794 23.6285 105.867 23.0712C106.935 22.5192 108.138 22.2379 109.471 22.2379C110.815 22.2379 112.018 22.5192 113.076 23.0712C114.143 23.6285 114.982 24.4254 115.596 25.4671C116.221 26.5087 116.534 27.7275 116.534 29.1129C116.534 30.5192 116.221 31.7379 115.596 32.7796C114.982 33.8212 114.143 34.6285 113.076 35.1962C112.003 35.7535 110.794 36.0296 109.451 36.0296ZM109.451 31.9462C110.102 31.9462 110.648 31.7067 111.096 31.2171C111.539 30.7327 111.763 30.0296 111.763 29.1129C111.763 28.2119 111.539 27.5244 111.096 27.0504C110.648 26.566 110.107 26.3212 109.471 26.3212C108.831 26.3212 108.294 26.566 107.867 27.0504C107.435 27.5244 107.221 28.2119 107.221 29.1129C107.221 30.0452 107.43 30.7535 107.846 31.2379C108.263 31.7119 108.794 31.9462 109.451 31.9462Z" fill="black"/>
<path d="M136.047 22.2796C137.74 22.2796 139.068 22.7952 140.026 23.8213C140.995 24.8369 141.485 26.2327 141.485 28.0088V35.8629H136.797V28.6338C136.797 27.915 136.594 27.3577 136.193 26.9671C135.787 26.5661 135.24 26.3629 134.547 26.3629C133.865 26.3629 133.323 26.5661 132.922 26.9671C132.516 27.3577 132.318 27.915 132.318 28.6338V35.8629H127.631V28.6338C127.631 27.915 127.427 27.3577 127.026 26.9671C126.636 26.5661 126.099 26.3629 125.422 26.3629C124.714 26.3629 124.157 26.5661 123.756 26.9671C123.349 27.3577 123.151 27.915 123.151 28.6338V35.8629H118.464V22.4046H123.151V24.1754C123.568 23.6077 124.11 23.1494 124.776 22.8004C125.443 22.4567 126.203 22.2796 127.068 22.2796C128.068 22.2796 128.948 22.4984 129.714 22.9254C130.49 23.3577 131.099 23.9671 131.547 24.7588C132.032 24.0244 132.662 23.4254 133.443 22.9671C134.235 22.5088 135.099 22.2796 136.047 22.2796Z" fill="black"/>
<path d="M156.926 28.9671C156.926 29.3421 156.905 29.7119 156.863 30.0712H147.947C147.999 30.8108 148.202 31.3577 148.551 31.7171C148.91 32.0817 149.374 32.2587 149.947 32.2587C150.723 32.2587 151.28 31.915 151.613 31.2171H156.634C156.426 32.1337 156.02 32.9619 155.426 33.6962C154.827 34.4202 154.072 34.9879 153.155 35.4046C152.238 35.8212 151.228 36.0296 150.134 36.0296C148.801 36.0296 147.618 35.7535 146.592 35.1962C145.561 34.6285 144.759 33.8317 144.176 32.8004C143.592 31.7587 143.301 30.5296 143.301 29.1129C143.301 27.7119 143.582 26.4983 144.155 25.4671C144.738 24.4254 145.54 23.6285 146.572 23.0712C147.598 22.5192 148.785 22.2379 150.134 22.2379C151.467 22.2379 152.639 22.5087 153.655 23.0504C154.681 23.5921 155.478 24.3733 156.051 25.3837C156.634 26.3994 156.926 27.5921 156.926 28.9671ZM152.134 27.8004C152.134 27.2171 151.936 26.7692 151.551 26.4462C151.16 26.1129 150.681 25.9462 150.113 25.9462C149.53 25.9462 149.051 26.1077 148.676 26.4254C148.311 26.7327 148.077 27.191 147.967 27.8004H152.134Z" fill="black"/>
<path d="M164.793 32.0296C165.637 32.0296 166.2 31.5869 166.481 30.6962H171.46C171.179 32.1285 170.59 33.2952 169.689 34.1962C168.783 35.1025 167.653 35.6702 166.293 35.9046V36.7587C167.069 36.7587 167.778 36.9879 168.418 37.4462C169.069 37.9046 169.397 38.6181 169.397 39.5921C169.397 40.5608 169.049 41.2796 168.356 41.7379C167.674 42.2067 166.861 42.4462 165.918 42.4462H162.022V39.9671H165.377C165.903 39.9671 166.168 39.8004 166.168 39.4671C166.168 39.1337 165.903 38.9671 165.377 38.9671H163.502V35.9046C161.845 35.6442 160.528 34.915 159.543 33.7171C158.569 32.5087 158.085 30.9775 158.085 29.1129C158.085 27.7275 158.366 26.5087 158.939 25.4671C159.522 24.4254 160.325 23.6285 161.356 23.0712C162.382 22.5192 163.564 22.2379 164.897 22.2379C166.606 22.2379 168.043 22.7067 169.21 23.6337C170.377 24.566 171.127 25.8733 171.46 27.5504H166.481C166.189 26.6754 165.627 26.2379 164.793 26.2379C164.21 26.2379 163.741 26.4827 163.397 26.9671C163.049 27.4567 162.877 28.1702 162.877 29.1129C162.877 30.0608 163.049 30.7796 163.397 31.2796C163.741 31.7796 164.21 32.0296 164.793 32.0296Z" fill="black"/>
<path d="M172.653 29.1129C172.653 27.7275 172.903 26.5087 173.403 25.4671C173.903 24.4254 174.591 23.6285 175.466 23.0712C176.341 22.5192 177.31 22.2379 178.382 22.2379C179.31 22.2379 180.112 22.4254 180.778 22.8004C181.455 23.165 181.976 23.6546 182.341 24.2796V22.4046H187.049V35.8629H182.341V33.9879C181.976 34.6129 181.455 35.1129 180.778 35.4879C180.096 35.8525 179.299 36.0296 178.382 36.0296C177.31 36.0296 176.341 35.7535 175.466 35.1962C174.591 34.6285 173.903 33.8212 173.403 32.7796C172.903 31.7379 172.653 30.5192 172.653 29.1129ZM182.341 29.1129C182.341 28.2535 182.101 27.5817 181.632 27.0921C181.159 26.5921 180.58 26.3421 179.903 26.3421C179.195 26.3421 178.601 26.5869 178.132 27.0712C177.674 27.5608 177.445 28.2379 177.445 29.1129C177.445 29.9775 177.674 30.665 178.132 31.1754C178.601 31.6754 179.195 31.9254 179.903 31.9254C180.58 31.9254 181.159 31.6858 181.632 31.1962C182.101 30.6962 182.341 30.0035 182.341 29.1129Z" fill="black"/>
<path d="M194.432 24.7796C194.958 24.0036 195.598 23.3942 196.348 22.9463C197.109 22.5036 197.921 22.2796 198.786 22.2796V27.3004H197.452C196.437 27.3004 195.682 27.5036 195.182 27.9046C194.682 28.2952 194.432 28.9879 194.432 29.9879V35.8629H189.744V22.4046H194.432V24.7796Z" fill="black"/>
</svg>
