<svg width="283" height="62" viewBox="0 0 283 62" fill="none" xmlns="http://www.w3.org/2000/svg">
<mask id="mask0_50_5443" style="mask-type:luminance" maskUnits="userSpaceOnUse" x="0" y="8" width="283" height="54">
<path d="M0.260254 8.47919H282.927V62H0.260254V8.47919Z" fill="white"/>
</mask>
<g mask="url(#mask0_50_5443)">
<path d="M265.901 8.88025H17.0937L0.989502 35.4115L17.0937 61.9375H265.901L282.005 35.4115L265.901 8.88025Z" fill="#737D1F"/>
</g>
<path d="M265.901 1H17.0934L0.989258 27.526L17.0934 54.0573H265.901L282.005 27.526L265.901 1Z" fill="#AECF50"/>
<mask id="mask1_50_5443" style="mask-type:luminance" maskUnits="userSpaceOnUse" x="0" y="0" width="283" height="56">
<path d="M0 0H283V55.1458H0V0Z" fill="white"/>
</mask>
<g mask="url(#mask1_50_5443)">
<path d="M265.901 55H17.0939C16.7606 55 16.4533 54.8281 16.2814 54.5469L0.177246 28.0156C-0.00504565 27.7136 -0.00504565 27.3386 0.177246 27.0417L16.2814 0.510437C16.4533 0.229186 16.7606 0.057312 17.0939 0.057312H265.901C266.235 0.057312 266.542 0.229186 266.714 0.510437L282.818 27.0417C283 27.3386 283 27.7136 282.818 28.0156L266.714 54.5469C266.542 54.8281 266.235 55 265.901 55ZM17.6304 53.1146H265.37L280.901 27.5261L265.37 1.94273H17.6304L2.09391 27.5261L17.6304 53.1146Z" fill="#182B17"/>
</g>
<path d="M84.4243 23.7664C84.4243 22.0998 84.7681 20.6206 85.466 19.3289C86.1587 18.0269 87.1431 17.0112 88.4243 16.2873C89.7004 15.5529 91.1743 15.1831 92.841 15.1831C94.9504 15.1831 96.7264 15.7456 98.1743 16.8706C99.617 17.9956 100.549 19.5321 100.966 21.4748H95.9035C95.5962 20.8394 95.1743 20.3498 94.6327 20.0164C94.091 19.6727 93.4712 19.4956 92.7785 19.4956C91.6795 19.4956 90.8045 19.8862 90.1535 20.6623C89.5129 21.4435 89.1952 22.4748 89.1952 23.7664C89.1952 25.0894 89.5129 26.1362 90.1535 26.9123C90.8045 27.6779 91.6795 28.0581 92.7785 28.0581C93.4712 28.0581 94.091 27.8914 94.6327 27.5581C95.1743 27.2248 95.5962 26.7404 95.9035 26.0998H100.966C100.549 28.0321 99.617 29.5685 98.1743 30.7039C96.7264 31.8289 94.9504 32.3914 92.841 32.3914C91.1743 32.3914 89.7004 32.0321 88.4243 31.3081C87.1431 30.5737 86.1587 29.5529 85.466 28.2456C84.7681 26.9435 84.4243 25.4487 84.4243 23.7664Z" fill="black"/>
<path d="M109.45 32.4331C108.101 32.4331 106.892 32.157 105.825 31.5998C104.767 31.032 103.934 30.2352 103.325 29.2039C102.726 28.1623 102.429 26.9331 102.429 25.5164C102.429 24.131 102.731 22.9123 103.345 21.8706C103.955 20.8289 104.793 20.032 105.866 19.4748C106.934 18.9227 108.137 18.6414 109.47 18.6414C110.814 18.6414 112.017 18.9227 113.075 19.4748C114.142 20.032 114.981 20.8289 115.595 21.8706C116.22 22.9123 116.533 24.131 116.533 25.5164C116.533 26.9227 116.22 28.1414 115.595 29.1831C114.981 30.2248 114.142 31.032 113.075 31.5998C112.002 32.157 110.793 32.4331 109.45 32.4331ZM109.45 28.3498C110.101 28.3498 110.647 28.1102 111.095 27.6206C111.538 27.1362 111.762 26.4331 111.762 25.5164C111.762 24.6154 111.538 23.9279 111.095 23.4539C110.647 22.9695 110.106 22.7248 109.47 22.7248C108.83 22.7248 108.293 22.9695 107.866 23.4539C107.434 23.9279 107.22 24.6154 107.22 25.5164C107.22 26.4487 107.429 27.157 107.845 27.6414C108.262 28.1154 108.793 28.3498 109.45 28.3498Z" fill="black"/>
<path d="M136.047 18.6831C137.74 18.6831 139.068 19.1987 140.026 20.2248C140.995 21.2404 141.485 22.6362 141.485 24.4123V32.2664H136.797V25.0373C136.797 24.3185 136.594 23.7612 136.193 23.3706C135.787 22.9696 135.24 22.7664 134.547 22.7664C133.865 22.7664 133.323 22.9696 132.922 23.3706C132.516 23.7612 132.318 24.3185 132.318 25.0373V32.2664H127.631V25.0373C127.631 24.3185 127.427 23.7612 127.026 23.3706C126.636 22.9696 126.099 22.7664 125.422 22.7664C124.714 22.7664 124.157 22.9696 123.756 23.3706C123.349 23.7612 123.151 24.3185 123.151 25.0373V32.2664H118.464V18.8081H123.151V20.5789C123.568 20.0112 124.11 19.5529 124.776 19.2039C125.443 18.8602 126.203 18.6831 127.068 18.6831C128.068 18.6831 128.948 18.9019 129.714 19.3289C130.49 19.7612 131.099 20.3706 131.547 21.1623C132.032 20.4279 132.662 19.8289 133.443 19.3706C134.235 18.9123 135.099 18.6831 136.047 18.6831Z" fill="black"/>
<path d="M156.926 25.3706C156.926 25.7456 156.905 26.1154 156.863 26.4748H147.947C147.999 27.2143 148.202 27.7612 148.551 28.1206C148.91 28.4852 149.374 28.6623 149.947 28.6623C150.723 28.6623 151.28 28.3185 151.613 27.6206H156.634C156.426 28.5373 156.02 29.3654 155.426 30.0998C154.827 30.8237 154.072 31.3914 153.155 31.8081C152.238 32.2248 151.228 32.4331 150.134 32.4331C148.801 32.4331 147.618 32.157 146.592 31.5998C145.561 31.032 144.759 30.2352 144.176 29.2039C143.592 28.1623 143.301 26.9331 143.301 25.5164C143.301 24.1154 143.582 22.9018 144.155 21.8706C144.738 20.8289 145.54 20.032 146.572 19.4748C147.598 18.9227 148.785 18.6414 150.134 18.6414C151.467 18.6414 152.639 18.9123 153.655 19.4539C154.681 19.9956 155.478 20.7768 156.051 21.7873C156.634 22.8029 156.926 23.9956 156.926 25.3706ZM152.134 24.2039C152.134 23.6206 151.936 23.1727 151.551 22.8498C151.16 22.5164 150.681 22.3498 150.113 22.3498C149.53 22.3498 149.051 22.5112 148.676 22.8289C148.311 23.1362 148.077 23.5945 147.967 24.2039H152.134Z" fill="black"/>
<path d="M164.793 28.4331C165.637 28.4331 166.199 27.9904 166.48 27.0998H171.459C171.178 28.532 170.59 29.6987 169.689 30.5998C168.782 31.506 167.652 32.0737 166.293 32.3081V33.1623C167.069 33.1623 167.777 33.3914 168.418 33.8498C169.069 34.3081 169.397 35.0216 169.397 35.9956C169.397 36.9643 169.048 37.6831 168.355 38.1414C167.673 38.6102 166.861 38.8498 165.918 38.8498H162.022V36.3706H165.376C165.902 36.3706 166.168 36.2039 166.168 35.8706C166.168 35.5373 165.902 35.3706 165.376 35.3706H163.501V32.3081C161.845 32.0477 160.527 31.3185 159.543 30.1206C158.569 28.9123 158.084 27.381 158.084 25.5164C158.084 24.131 158.366 22.9123 158.939 21.8706C159.522 20.8289 160.324 20.032 161.355 19.4748C162.381 18.9227 163.564 18.6414 164.897 18.6414C166.605 18.6414 168.043 19.1102 169.209 20.0373C170.376 20.9695 171.126 22.2768 171.459 23.9539H166.48C166.189 23.0789 165.626 22.6414 164.793 22.6414C164.209 22.6414 163.741 22.8862 163.397 23.3706C163.048 23.8602 162.876 24.5737 162.876 25.5164C162.876 26.4643 163.048 27.1831 163.397 27.6831C163.741 28.1831 164.209 28.4331 164.793 28.4331Z" fill="black"/>
<path d="M172.653 25.5164C172.653 24.131 172.903 22.9123 173.403 21.8706C173.903 20.8289 174.59 20.032 175.465 19.4748C176.34 18.9227 177.309 18.6414 178.382 18.6414C179.309 18.6414 180.111 18.8289 180.778 19.2039C181.455 19.5685 181.976 20.0581 182.34 20.6831V18.8081H187.049V32.2664H182.34V30.3914C181.976 31.0164 181.455 31.5164 180.778 31.8914C180.096 32.256 179.299 32.4331 178.382 32.4331C177.309 32.4331 176.34 32.157 175.465 31.5998C174.59 31.032 173.903 30.2248 173.403 29.1831C172.903 28.1414 172.653 26.9227 172.653 25.5164ZM182.34 25.5164C182.34 24.657 182.101 23.9852 181.632 23.4956C181.158 22.9956 180.58 22.7456 179.903 22.7456C179.194 22.7456 178.601 22.9904 178.132 23.4748C177.674 23.9643 177.444 24.6414 177.444 25.5164C177.444 26.381 177.674 27.0685 178.132 27.5789C178.601 28.0789 179.194 28.3289 179.903 28.3289C180.58 28.3289 181.158 28.0893 181.632 27.5998C182.101 27.0998 182.34 26.407 182.34 25.5164Z" fill="black"/>
<path d="M194.431 21.1831C194.957 20.4071 195.598 19.7977 196.348 19.3498C197.108 18.9071 197.921 18.6831 198.785 18.6831V23.7039H197.452C196.436 23.7039 195.681 23.9071 195.181 24.3081C194.681 24.6987 194.431 25.3914 194.431 26.3914V32.2664H189.744V18.8081H194.431V21.1831Z" fill="black"/>
</svg>
