<svg width="345" height="72" viewBox="0 0 345 72" fill="none" xmlns="http://www.w3.org/2000/svg">
<mask id="mask0_50_5745" style="mask-type:luminance" maskUnits="userSpaceOnUse" x="0" y="0" width="344" height="72">
<path d="M0 0H343.921V72H0V0Z" fill="white"/>
</mask>
<g mask="url(#mask0_50_5745)">
<mask id="mask1_50_5745" style="mask-type:luminance" maskUnits="userSpaceOnUse" x="0" y="0" width="346" height="72">
<path d="M13.2905 0H331.715C335.24 0 338.626 1.5 341.118 4.16667C343.61 6.83333 345.006 10.4506 345.006 14.2222V57.0062C345.006 60.7778 343.61 64.3951 341.118 67.0617C338.626 69.7284 335.24 71.2284 331.715 71.2284H13.2905C9.766 71.2284 6.38568 69.7284 3.89371 67.0617C1.39597 64.3951 0 60.7778 0 57.0062V14.2222C0 10.4506 1.39597 6.83333 3.89371 4.16667C6.38568 1.5 9.766 0 13.2905 0Z" fill="white"/>
</mask>
<g mask="url(#mask1_50_5745)">
<path d="M0 0H343.143V72H0V0Z" fill="white" fill-opacity="0.22"/>
</g>
</g>
<mask id="mask2_50_5745" style="mask-type:luminance" maskUnits="userSpaceOnUse" x="0" y="0" width="345" height="72">
<path d="M0 0H345V71.2296H0V0Z" fill="white"/>
</mask>
<g mask="url(#mask2_50_5745)">
<mask id="mask3_50_5745" style="mask-type:luminance" maskUnits="userSpaceOnUse" x="0" y="0" width="345" height="72">
<path d="M13.2923 0H331.702C335.227 0 338.607 1.49632 341.101 4.16743C343.595 6.83236 344.994 10.4495 344.994 14.2212V57.0084C344.994 60.7801 343.595 64.3973 341.101 67.0622C338.607 69.7333 335.227 71.2296 331.702 71.2296H13.2923C9.76763 71.2296 6.38697 69.7333 3.89323 67.0622C1.40525 64.3973 0 60.7801 0 57.0084V14.2212C0 10.4495 1.40525 6.83236 3.89323 4.16743C6.38697 1.49632 9.76763 0 13.2923 0Z" fill="white"/>
</mask>
<g mask="url(#mask3_50_5745)">
<path d="M13.2923 0H331.702C335.227 0 338.607 1.49632 341.101 4.16743C343.595 6.83236 344.994 10.4495 344.994 14.2212V57.0084C344.994 60.7802 343.595 64.3973 341.101 67.0622C338.607 69.7333 335.227 71.2296 331.702 71.2296H13.2923C9.76763 71.2296 6.38697 69.7333 3.89323 67.0622C1.40525 64.3973 0 60.7802 0 57.0084V14.2212C0 10.4495 1.40525 6.83236 3.89323 4.16743C6.38697 1.49632 9.76763 0 13.2923 0Z" stroke="#BFFFCE" stroke-width="6.00013"/>
</g>
</g>
<path d="M150.584 43.168C149.352 43.168 148.248 42.968 147.272 42.568C146.296 42.168 145.512 41.576 144.92 40.792C144.344 40.008 144.04 39.064 144.008 37.96H148.376C148.44 38.584 148.656 39.064 149.024 39.4C149.392 39.72 149.872 39.88 150.464 39.88C151.072 39.88 151.552 39.744 151.904 39.472C152.256 39.184 152.432 38.792 152.432 38.296C152.432 37.88 152.288 37.536 152 37.264C151.728 36.992 151.384 36.768 150.968 36.592C150.568 36.416 149.992 36.216 149.24 35.992C148.152 35.656 147.264 35.32 146.576 34.984C145.888 34.648 145.296 34.152 144.8 33.496C144.304 32.84 144.056 31.984 144.056 30.928C144.056 29.36 144.624 28.136 145.76 27.256C146.896 26.36 148.376 25.912 150.2 25.912C152.056 25.912 153.552 26.36 154.688 27.256C155.824 28.136 156.432 29.368 156.512 30.952H152.072C152.04 30.408 151.84 29.984 151.472 29.68C151.104 29.36 150.632 29.2 150.056 29.2C149.56 29.2 149.16 29.336 148.856 29.608C148.552 29.864 148.4 30.24 148.4 30.736C148.4 31.28 148.656 31.704 149.168 32.008C149.68 32.312 150.48 32.64 151.568 32.992C152.656 33.36 153.536 33.712 154.208 34.048C154.896 34.384 155.488 34.872 155.984 35.512C156.48 36.152 156.728 36.976 156.728 37.984C156.728 38.944 156.48 39.816 155.984 40.6C155.504 41.384 154.8 42.008 153.872 42.472C152.944 42.936 151.848 43.168 150.584 43.168ZM158.438 36.28C158.438 34.904 158.694 33.696 159.206 32.656C159.734 31.616 160.446 30.816 161.342 30.256C162.238 29.696 163.238 29.416 164.342 29.416C165.286 29.416 166.11 29.608 166.814 29.992C167.534 30.376 168.086 30.88 168.47 31.504V29.608H172.574V43H168.47V41.104C168.07 41.728 167.51 42.232 166.79 42.616C166.086 43 165.262 43.192 164.318 43.192C163.23 43.192 162.238 42.912 161.342 42.352C160.446 41.776 159.734 40.968 159.206 39.928C158.694 38.872 158.438 37.656 158.438 36.28ZM168.47 36.304C168.47 35.28 168.182 34.472 167.606 33.88C167.046 33.288 166.358 32.992 165.542 32.992C164.726 32.992 164.03 33.288 163.454 33.88C162.894 34.456 162.614 35.256 162.614 36.28C162.614 37.304 162.894 38.12 163.454 38.728C164.03 39.32 164.726 39.616 165.542 39.616C166.358 39.616 167.046 39.32 167.606 38.728C168.182 38.136 168.47 37.328 168.47 36.304ZM177.607 28.216C176.887 28.216 176.295 28.008 175.831 27.592C175.383 27.16 175.159 26.632 175.159 26.008C175.159 25.368 175.383 24.84 175.831 24.424C176.295 23.992 176.887 23.776 177.607 23.776C178.311 23.776 178.887 23.992 179.335 24.424C179.799 24.84 180.031 25.368 180.031 26.008C180.031 26.632 179.799 27.16 179.335 27.592C178.887 28.008 178.311 28.216 177.607 28.216ZM179.647 29.608V43H175.543V29.608H179.647ZM186.725 31.84C187.205 31.104 187.805 30.528 188.525 30.112C189.245 29.68 190.045 29.464 190.925 29.464V33.808H189.797C188.773 33.808 188.005 34.032 187.493 34.48C186.981 34.912 186.725 35.68 186.725 36.784V43H182.621V29.608H186.725V31.84Z" fill="black" fill-opacity="0.9"/>
</svg>
