<svg width="345" height="72" viewBox="0 0 345 72" fill="none" xmlns="http://www.w3.org/2000/svg">
<mask id="mask0_50_5751" style="mask-type:luminance" maskUnits="userSpaceOnUse" x="0" y="0" width="344" height="72">
<path d="M0 0H343.921V72H0V0Z" fill="white"/>
</mask>
<g mask="url(#mask0_50_5751)">
<mask id="mask1_50_5751" style="mask-type:luminance" maskUnits="userSpaceOnUse" x="0" y="0" width="346" height="72">
<path d="M13.2905 0H331.715C335.24 0 338.626 1.5 341.118 4.16667C343.61 6.83333 345.006 10.4506 345.006 14.2222V57.0062C345.006 60.7778 343.61 64.3951 341.118 67.0617C338.626 69.7284 335.24 71.2284 331.715 71.2284H13.2905C9.766 71.2284 6.38568 69.7284 3.89371 67.0617C1.39597 64.3951 0 60.7778 0 57.0062V14.2222C0 10.4506 1.39597 6.83333 3.89371 4.16667C6.38568 1.5 9.766 0 13.2905 0Z" fill="white"/>
</mask>
<g mask="url(#mask1_50_5751)">
<path d="M0 0H343.143V72H0V0Z" fill="white" fill-opacity="0.22"/>
</g>
</g>
<mask id="mask2_50_5751" style="mask-type:luminance" maskUnits="userSpaceOnUse" x="0" y="0" width="345" height="72">
<path d="M0 0H345V71.2296H0V0Z" fill="white"/>
</mask>
<g mask="url(#mask2_50_5751)">
<mask id="mask3_50_5751" style="mask-type:luminance" maskUnits="userSpaceOnUse" x="0" y="0" width="345" height="72">
<path d="M13.2923 0H331.702C335.227 0 338.607 1.49632 341.101 4.16743C343.595 6.83236 344.994 10.4495 344.994 14.2212V57.0084C344.994 60.7801 343.595 64.3973 341.101 67.0622C338.607 69.7333 335.227 71.2296 331.702 71.2296H13.2923C9.76763 71.2296 6.38697 69.7333 3.89323 67.0622C1.40525 64.3973 0 60.7801 0 57.0084V14.2212C0 10.4495 1.40525 6.83236 3.89323 4.16743C6.38697 1.49632 9.76763 0 13.2923 0Z" fill="white"/>
</mask>
<g mask="url(#mask3_50_5751)">
<path d="M13.2923 0H331.702C335.227 0 338.607 1.49632 341.101 4.16743C343.595 6.83236 344.994 10.4495 344.994 14.2212V57.0084C344.994 60.7802 343.595 64.3973 341.101 67.0622C338.607 69.7333 335.227 71.2296 331.702 71.2296H13.2923C9.76763 71.2296 6.38697 69.7333 3.89323 67.0622C1.40525 64.3973 0 60.7802 0 57.0084V14.2212C0 10.4495 1.40525 6.83236 3.89323 4.16743C6.38697 1.49632 9.76763 0 13.2923 0Z" stroke="#F9EDDF" stroke-width="6.00013"/>
</g>
</g>
<path d="M156.584 42.168C155.352 42.168 154.248 41.968 153.272 41.568C152.296 41.168 151.512 40.576 150.92 39.792C150.344 39.008 150.04 38.064 150.008 36.96H154.376C154.44 37.584 154.656 38.064 155.024 38.4C155.392 38.72 155.872 38.88 156.464 38.88C157.072 38.88 157.552 38.744 157.904 38.472C158.256 38.184 158.432 37.792 158.432 37.296C158.432 36.88 158.288 36.536 158 36.264C157.728 35.992 157.384 35.768 156.968 35.592C156.568 35.416 155.992 35.216 155.24 34.992C154.152 34.656 153.264 34.32 152.576 33.984C151.888 33.648 151.296 33.152 150.8 32.496C150.304 31.84 150.056 30.984 150.056 29.928C150.056 28.36 150.624 27.136 151.76 26.256C152.896 25.36 154.376 24.912 156.2 24.912C158.056 24.912 159.552 25.36 160.688 26.256C161.824 27.136 162.432 28.368 162.512 29.952H158.072C158.04 29.408 157.84 28.984 157.472 28.68C157.104 28.36 156.632 28.2 156.056 28.2C155.56 28.2 155.16 28.336 154.856 28.608C154.552 28.864 154.4 29.24 154.4 29.736C154.4 30.28 154.656 30.704 155.168 31.008C155.68 31.312 156.48 31.64 157.568 31.992C158.656 32.36 159.536 32.712 160.208 33.048C160.896 33.384 161.488 33.872 161.984 34.512C162.48 35.152 162.728 35.976 162.728 36.984C162.728 37.944 162.48 38.816 161.984 39.6C161.504 40.384 160.8 41.008 159.872 41.472C158.944 41.936 157.848 42.168 156.584 42.168ZM164.438 35.28C164.438 33.904 164.694 32.696 165.206 31.656C165.734 30.616 166.446 29.816 167.342 29.256C168.238 28.696 169.238 28.416 170.342 28.416C171.286 28.416 172.11 28.608 172.814 28.992C173.534 29.376 174.086 29.88 174.47 30.504V28.608H178.574V42H174.47V40.104C174.07 40.728 173.51 41.232 172.79 41.616C172.086 42 171.262 42.192 170.318 42.192C169.23 42.192 168.238 41.912 167.342 41.352C166.446 40.776 165.734 39.968 165.206 38.928C164.694 37.872 164.438 36.656 164.438 35.28ZM174.47 35.304C174.47 34.28 174.182 33.472 173.606 32.88C173.046 32.288 172.358 31.992 171.542 31.992C170.726 31.992 170.03 32.288 169.454 32.88C168.894 33.456 168.614 34.256 168.614 35.28C168.614 36.304 168.894 37.12 169.454 37.728C170.03 38.32 170.726 38.616 171.542 38.616C172.358 38.616 173.046 38.32 173.606 37.728C174.182 37.136 174.47 36.328 174.47 35.304ZM183.607 27.216C182.887 27.216 182.295 27.008 181.831 26.592C181.383 26.16 181.159 25.632 181.159 25.008C181.159 24.368 181.383 23.84 181.831 23.424C182.295 22.992 182.887 22.776 183.607 22.776C184.311 22.776 184.887 22.992 185.335 23.424C185.799 23.84 186.031 24.368 186.031 25.008C186.031 25.632 185.799 26.16 185.335 26.592C184.887 27.008 184.311 27.216 183.607 27.216ZM185.647 28.608V42H181.543V28.608H185.647ZM192.725 30.84C193.205 30.104 193.805 29.528 194.525 29.112C195.245 28.68 196.045 28.464 196.925 28.464V32.808H195.797C194.773 32.808 194.005 33.032 193.493 33.48C192.981 33.912 192.725 34.68 192.725 35.784V42H188.621V28.608H192.725V30.84Z" fill="black"/>
<mask id="mask4_50_5751" style="mask-type:luminance" maskUnits="userSpaceOnUse" x="0" y="0" width="344" height="72">
<path d="M0 0H343.921V72H0V0Z" fill="white"/>
</mask>
<g mask="url(#mask4_50_5751)">
<mask id="mask5_50_5751" style="mask-type:luminance" maskUnits="userSpaceOnUse" x="0" y="0" width="346" height="72">
<path d="M13.2905 0H331.715C335.24 0 338.626 1.5 341.118 4.16667C343.61 6.83333 345.006 10.4506 345.006 14.2222V57.0062C345.006 60.7778 343.61 64.3951 341.118 67.0617C338.626 69.7284 335.24 71.2284 331.715 71.2284H13.2905C9.766 71.2284 6.38568 69.7284 3.89371 67.0617C1.39597 64.3951 0 60.7778 0 57.0062V14.2222C0 10.4506 1.39597 6.83333 3.89371 4.16667C6.38568 1.5 9.766 0 13.2905 0Z" fill="white"/>
</mask>
<g mask="url(#mask5_50_5751)">
<path d="M0 0H343.143V72H0V0Z" fill="white" fill-opacity="0.22"/>
</g>
</g>
<mask id="mask6_50_5751" style="mask-type:luminance" maskUnits="userSpaceOnUse" x="0" y="0" width="345" height="72">
<path d="M0 0H345V71.2296H0V0Z" fill="white"/>
</mask>
<g mask="url(#mask6_50_5751)">
</g>
<mask id="mask7_50_5751" style="mask-type:luminance" maskUnits="userSpaceOnUse" x="0" y="0" width="345" height="72">
<path d="M13.2923 0H331.702C335.227 0 338.607 1.49632 341.101 4.16743C343.595 6.83236 344.994 10.4495 344.994 14.2212V57.0084C344.994 60.7801 343.595 64.3973 341.101 67.0622C338.607 69.7333 335.227 71.2296 331.702 71.2296H13.2923C9.76763 71.2296 6.38697 69.7333 3.89323 67.0622C1.40525 64.3973 0 60.7801 0 57.0084V14.2212C0 10.4495 1.40525 6.83236 3.89323 4.16743C6.38697 1.49632 9.76763 0 13.2923 0Z" fill="white"/>
</mask>
<g mask="url(#mask7_50_5751)">
<path d="M156.584 42.168C155.352 42.168 154.248 41.968 153.272 41.568C152.296 41.168 151.512 40.576 150.92 39.792C150.344 39.008 150.04 38.064 150.008 36.96H154.376C154.44 37.584 154.656 38.064 155.024 38.4C155.392 38.72 155.872 38.88 156.464 38.88C157.072 38.88 157.552 38.744 157.904 38.472C158.256 38.184 158.432 37.792 158.432 37.296C158.432 36.88 158.288 36.536 158 36.264C157.728 35.992 157.384 35.768 156.968 35.592C156.568 35.416 155.992 35.216 155.24 34.992C154.152 34.656 153.264 34.32 152.576 33.984C151.888 33.648 151.296 33.152 150.8 32.496C150.304 31.84 150.056 30.984 150.056 29.928C150.056 28.36 150.624 27.136 151.76 26.256C152.896 25.36 154.376 24.912 156.2 24.912C158.056 24.912 159.552 25.36 160.688 26.256C161.824 27.136 162.432 28.368 162.512 29.952H158.072C158.04 29.408 157.84 28.984 157.472 28.68C157.104 28.36 156.632 28.2 156.056 28.2C155.56 28.2 155.16 28.336 154.856 28.608C154.552 28.864 154.4 29.24 154.4 29.736C154.4 30.28 154.656 30.704 155.168 31.008C155.68 31.312 156.48 31.64 157.568 31.992C158.656 32.36 159.536 32.712 160.208 33.048C160.896 33.384 161.488 33.872 161.984 34.512C162.48 35.152 162.728 35.976 162.728 36.984C162.728 37.944 162.48 38.816 161.984 39.6C161.504 40.384 160.8 41.008 159.872 41.472C158.944 41.936 157.848 42.168 156.584 42.168ZM164.438 35.28C164.438 33.904 164.694 32.696 165.206 31.656C165.734 30.616 166.446 29.816 167.342 29.256C168.238 28.696 169.238 28.416 170.342 28.416C171.286 28.416 172.11 28.608 172.814 28.992C173.534 29.376 174.086 29.88 174.47 30.504V28.608H178.574V42H174.47V40.104C174.07 40.728 173.51 41.232 172.79 41.616C172.086 42 171.262 42.192 170.318 42.192C169.23 42.192 168.238 41.912 167.342 41.352C166.446 40.776 165.734 39.968 165.206 38.928C164.694 37.872 164.438 36.656 164.438 35.28ZM174.47 35.304C174.47 34.28 174.182 33.472 173.606 32.88C173.046 32.288 172.358 31.992 171.542 31.992C170.726 31.992 170.03 32.288 169.454 32.88C168.894 33.456 168.614 34.256 168.614 35.28C168.614 36.304 168.894 37.12 169.454 37.728C170.03 38.32 170.726 38.616 171.542 38.616C172.358 38.616 173.046 38.32 173.606 37.728C174.182 37.136 174.47 36.328 174.47 35.304ZM183.607 27.216C182.887 27.216 182.295 27.008 181.831 26.592C181.383 26.16 181.159 25.632 181.159 25.008C181.159 24.368 181.383 23.84 181.831 23.424C182.295 22.992 182.887 22.776 183.607 22.776C184.311 22.776 184.887 22.992 185.335 23.424C185.799 23.84 186.031 24.368 186.031 25.008C186.031 25.632 185.799 26.16 185.335 26.592C184.887 27.008 184.311 27.216 183.607 27.216ZM185.647 28.608V42H181.543V28.608H185.647ZM192.725 30.84C193.205 30.104 193.805 29.528 194.525 29.112C195.245 28.68 196.045 28.464 196.925 28.464V32.808H195.797C194.773 32.808 194.005 33.032 193.493 33.48C192.981 33.912 192.725 34.68 192.725 35.784V42H188.621V28.608H192.725V30.84Z" fill="black"/>
<path d="M156.584 42.168C155.352 42.168 154.248 41.968 153.272 41.568C152.296 41.168 151.512 40.576 150.92 39.792C150.344 39.008 150.04 38.064 150.008 36.96H154.376C154.44 37.584 154.656 38.064 155.024 38.4C155.392 38.72 155.872 38.88 156.464 38.88C157.072 38.88 157.552 38.744 157.904 38.472C158.256 38.184 158.432 37.792 158.432 37.296C158.432 36.88 158.288 36.536 158 36.264C157.728 35.992 157.384 35.768 156.968 35.592C156.568 35.416 155.992 35.216 155.24 34.992C154.152 34.656 153.264 34.32 152.576 33.984C151.888 33.648 151.296 33.152 150.8 32.496C150.304 31.84 150.056 30.984 150.056 29.928C150.056 28.36 150.624 27.136 151.76 26.256C152.896 25.36 154.376 24.912 156.2 24.912C158.056 24.912 159.552 25.36 160.688 26.256C161.824 27.136 162.432 28.368 162.512 29.952H158.072C158.04 29.408 157.84 28.984 157.472 28.68C157.104 28.36 156.632 28.2 156.056 28.2C155.56 28.2 155.16 28.336 154.856 28.608C154.552 28.864 154.4 29.24 154.4 29.736C154.4 30.28 154.656 30.704 155.168 31.008C155.68 31.312 156.48 31.64 157.568 31.992C158.656 32.36 159.536 32.712 160.208 33.048C160.896 33.384 161.488 33.872 161.984 34.512C162.48 35.152 162.728 35.976 162.728 36.984C162.728 37.944 162.48 38.816 161.984 39.6C161.504 40.384 160.8 41.008 159.872 41.472C158.944 41.936 157.848 42.168 156.584 42.168ZM164.438 35.28C164.438 33.904 164.694 32.696 165.206 31.656C165.734 30.616 166.446 29.816 167.342 29.256C168.238 28.696 169.238 28.416 170.342 28.416C171.286 28.416 172.11 28.608 172.814 28.992C173.534 29.376 174.086 29.88 174.47 30.504V28.608H178.574V42H174.47V40.104C174.07 40.728 173.51 41.232 172.79 41.616C172.086 42 171.262 42.192 170.318 42.192C169.23 42.192 168.238 41.912 167.342 41.352C166.446 40.776 165.734 39.968 165.206 38.928C164.694 37.872 164.438 36.656 164.438 35.28ZM174.47 35.304C174.47 34.28 174.182 33.472 173.606 32.88C173.046 32.288 172.358 31.992 171.542 31.992C170.726 31.992 170.03 32.288 169.454 32.88C168.894 33.456 168.614 34.256 168.614 35.28C168.614 36.304 168.894 37.12 169.454 37.728C170.03 38.32 170.726 38.616 171.542 38.616C172.358 38.616 173.046 38.32 173.606 37.728C174.182 37.136 174.47 36.328 174.47 35.304ZM183.607 27.216C182.887 27.216 182.295 27.008 181.831 26.592C181.383 26.16 181.159 25.632 181.159 25.008C181.159 24.368 181.383 23.84 181.831 23.424C182.295 22.992 182.887 22.776 183.607 22.776C184.311 22.776 184.887 22.992 185.335 23.424C185.799 23.84 186.031 24.368 186.031 25.008C186.031 25.632 185.799 26.16 185.335 26.592C184.887 27.008 184.311 27.216 183.607 27.216ZM185.647 28.608V42H181.543V28.608H185.647ZM192.725 30.84C193.205 30.104 193.805 29.528 194.525 29.112C195.245 28.68 196.045 28.464 196.925 28.464V32.808H195.797C194.773 32.808 194.005 33.032 193.493 33.48C192.981 33.912 192.725 34.68 192.725 35.784V42H188.621V28.608H192.725V30.84Z" fill="black"/>
</g>
</svg>
