<svg width="345" height="72" viewBox="0 0 345 72" fill="none" xmlns="http://www.w3.org/2000/svg">
<path d="M150.584 41.168C149.352 41.168 148.248 40.968 147.272 40.568C146.296 40.168 145.512 39.576 144.92 38.792C144.344 38.008 144.04 37.064 144.008 35.96H148.376C148.44 36.584 148.656 37.064 149.024 37.4C149.392 37.72 149.872 37.88 150.464 37.88C151.072 37.88 151.552 37.744 151.904 37.472C152.256 37.184 152.432 36.792 152.432 36.296C152.432 35.88 152.288 35.536 152 35.264C151.728 34.992 151.384 34.768 150.968 34.592C150.568 34.416 149.992 34.216 149.24 33.992C148.152 33.656 147.264 33.32 146.576 32.984C145.888 32.648 145.296 32.152 144.8 31.496C144.304 30.84 144.056 29.984 144.056 28.928C144.056 27.36 144.624 26.136 145.76 25.256C146.896 24.36 148.376 23.912 150.2 23.912C152.056 23.912 153.552 24.36 154.688 25.256C155.824 26.136 156.432 27.368 156.512 28.952H152.072C152.04 28.408 151.84 27.984 151.472 27.68C151.104 27.36 150.632 27.2 150.056 27.2C149.56 27.2 149.16 27.336 148.856 27.608C148.552 27.864 148.4 28.24 148.4 28.736C148.4 29.28 148.656 29.704 149.168 30.008C149.68 30.312 150.48 30.64 151.568 30.992C152.656 31.36 153.536 31.712 154.208 32.048C154.896 32.384 155.488 32.872 155.984 33.512C156.48 34.152 156.728 34.976 156.728 35.984C156.728 36.944 156.48 37.816 155.984 38.6C155.504 39.384 154.8 40.008 153.872 40.472C152.944 40.936 151.848 41.168 150.584 41.168ZM158.438 34.28C158.438 32.904 158.694 31.696 159.206 30.656C159.734 29.616 160.446 28.816 161.342 28.256C162.238 27.696 163.238 27.416 164.342 27.416C165.286 27.416 166.11 27.608 166.814 27.992C167.534 28.376 168.086 28.88 168.47 29.504V27.608H172.574V41H168.47V39.104C168.07 39.728 167.51 40.232 166.79 40.616C166.086 41 165.262 41.192 164.318 41.192C163.23 41.192 162.238 40.912 161.342 40.352C160.446 39.776 159.734 38.968 159.206 37.928C158.694 36.872 158.438 35.656 158.438 34.28ZM168.47 34.304C168.47 33.28 168.182 32.472 167.606 31.88C167.046 31.288 166.358 30.992 165.542 30.992C164.726 30.992 164.03 31.288 163.454 31.88C162.894 32.456 162.614 33.256 162.614 34.28C162.614 35.304 162.894 36.12 163.454 36.728C164.03 37.32 164.726 37.616 165.542 37.616C166.358 37.616 167.046 37.32 167.606 36.728C168.182 36.136 168.47 35.328 168.47 34.304ZM177.607 26.216C176.887 26.216 176.295 26.008 175.831 25.592C175.383 25.16 175.159 24.632 175.159 24.008C175.159 23.368 175.383 22.84 175.831 22.424C176.295 21.992 176.887 21.776 177.607 21.776C178.311 21.776 178.887 21.992 179.335 22.424C179.799 22.84 180.031 23.368 180.031 24.008C180.031 24.632 179.799 25.16 179.335 25.592C178.887 26.008 178.311 26.216 177.607 26.216ZM179.647 27.608V41H175.543V27.608H179.647ZM186.725 29.84C187.205 29.104 187.805 28.528 188.525 28.112C189.245 27.68 190.045 27.464 190.925 27.464V31.808H189.797C188.773 31.808 188.005 32.032 187.493 32.48C186.981 32.912 186.725 33.68 186.725 34.784V41H182.621V27.608H186.725V29.84Z" fill="black"/>
<mask id="mask0_50_8487" style="mask-type:luminance" maskUnits="userSpaceOnUse" x="0" y="0" width="345" height="72">
<path d="M0 0H345V71.2296H0V0Z" fill="white"/>
</mask>
<g mask="url(#mask0_50_8487)">
<mask id="mask1_50_8487" style="mask-type:luminance" maskUnits="userSpaceOnUse" x="0" y="0" width="345" height="72">
<path d="M13.2923 0H331.702C335.227 0 338.607 1.49632 341.101 4.16743C343.595 6.83236 344.994 10.4495 344.994 14.2212V57.0084C344.994 60.7801 343.595 64.3973 341.101 67.0622C338.607 69.7333 335.227 71.2296 331.702 71.2296H13.2923C9.76763 71.2296 6.38697 69.7333 3.89323 67.0622C1.40525 64.3973 0 60.7801 0 57.0084V14.2212C0 10.4495 1.40525 6.83236 3.89323 4.16743C6.38697 1.49632 9.76763 0 13.2923 0Z" fill="white"/>
</mask>
<g mask="url(#mask1_50_8487)">
<path d="M13.2923 0H331.702C335.227 0 338.607 1.49632 341.101 4.16743C343.595 6.83236 344.994 10.4495 344.994 14.2212V57.0084C344.994 60.7802 343.595 64.3973 341.101 67.0622C338.607 69.7333 335.227 71.2296 331.702 71.2296H13.2923C9.76763 71.2296 6.38697 69.7333 3.89323 67.0622C1.40525 64.3973 0 60.7802 0 57.0084V14.2212C0 10.4495 1.40525 6.83236 3.89323 4.16743C6.38697 1.49632 9.76763 0 13.2923 0Z" stroke="#F2F4DE" stroke-width="6.00013"/>
</g>
</g>
</svg>
