<svg width="345" height="72" viewBox="0 0 345 72" fill="none" xmlns="http://www.w3.org/2000/svg">
<path d="M147.584 40.168C146.352 40.168 145.248 39.968 144.272 39.568C143.296 39.168 142.512 38.576 141.92 37.792C141.344 37.008 141.04 36.064 141.008 34.96H145.376C145.44 35.584 145.656 36.064 146.024 36.4C146.392 36.72 146.872 36.88 147.464 36.88C148.072 36.88 148.552 36.744 148.904 36.472C149.256 36.184 149.432 35.792 149.432 35.296C149.432 34.88 149.288 34.536 149 34.264C148.728 33.992 148.384 33.768 147.968 33.592C147.568 33.416 146.992 33.216 146.24 32.992C145.152 32.656 144.264 32.32 143.576 31.984C142.888 31.648 142.296 31.152 141.8 30.496C141.304 29.84 141.056 28.984 141.056 27.928C141.056 26.36 141.624 25.136 142.76 24.256C143.896 23.36 145.376 22.912 147.2 22.912C149.056 22.912 150.552 23.36 151.688 24.256C152.824 25.136 153.432 26.368 153.512 27.952H149.072C149.04 27.408 148.84 26.984 148.472 26.68C148.104 26.36 147.632 26.2 147.056 26.2C146.56 26.2 146.16 26.336 145.856 26.608C145.552 26.864 145.4 27.24 145.4 27.736C145.4 28.28 145.656 28.704 146.168 29.008C146.68 29.312 147.48 29.64 148.568 29.992C149.656 30.36 150.536 30.712 151.208 31.048C151.896 31.384 152.488 31.872 152.984 32.512C153.48 33.152 153.728 33.976 153.728 34.984C153.728 35.944 153.48 36.816 152.984 37.6C152.504 38.384 151.8 39.008 150.872 39.472C149.944 39.936 148.848 40.168 147.584 40.168ZM155.438 33.28C155.438 31.904 155.694 30.696 156.206 29.656C156.734 28.616 157.446 27.816 158.342 27.256C159.238 26.696 160.238 26.416 161.342 26.416C162.286 26.416 163.11 26.608 163.814 26.992C164.534 27.376 165.086 27.88 165.47 28.504V26.608H169.574V40H165.47V38.104C165.07 38.728 164.51 39.232 163.79 39.616C163.086 40 162.262 40.192 161.318 40.192C160.23 40.192 159.238 39.912 158.342 39.352C157.446 38.776 156.734 37.968 156.206 36.928C155.694 35.872 155.438 34.656 155.438 33.28ZM165.47 33.304C165.47 32.28 165.182 31.472 164.606 30.88C164.046 30.288 163.358 29.992 162.542 29.992C161.726 29.992 161.03 30.288 160.454 30.88C159.894 31.456 159.614 32.256 159.614 33.28C159.614 34.304 159.894 35.12 160.454 35.728C161.03 36.32 161.726 36.616 162.542 36.616C163.358 36.616 164.046 36.32 164.606 35.728C165.182 35.136 165.47 34.328 165.47 33.304ZM174.607 25.216C173.887 25.216 173.295 25.008 172.831 24.592C172.383 24.16 172.159 23.632 172.159 23.008C172.159 22.368 172.383 21.84 172.831 21.424C173.295 20.992 173.887 20.776 174.607 20.776C175.311 20.776 175.887 20.992 176.335 21.424C176.799 21.84 177.031 22.368 177.031 23.008C177.031 23.632 176.799 24.16 176.335 24.592C175.887 25.008 175.311 25.216 174.607 25.216ZM176.647 26.608V40H172.543V26.608H176.647ZM183.725 28.84C184.205 28.104 184.805 27.528 185.525 27.112C186.245 26.68 187.045 26.464 187.925 26.464V30.808H186.797C185.773 30.808 185.005 31.032 184.493 31.48C183.981 31.912 183.725 32.68 183.725 33.784V40H179.621V26.608H183.725V28.84Z" fill="black"/>
<mask id="mask0_50_8242" style="mask-type:luminance" maskUnits="userSpaceOnUse" x="0" y="0" width="345" height="72">
<path d="M0 0H345V71.2296H0V0Z" fill="white"/>
</mask>
<g mask="url(#mask0_50_8242)">
<mask id="mask1_50_8242" style="mask-type:luminance" maskUnits="userSpaceOnUse" x="0" y="0" width="345" height="72">
<path d="M13.2923 0H331.702C335.227 0 338.607 1.49632 341.101 4.16743C343.595 6.83236 344.994 10.4495 344.994 14.2212V57.0084C344.994 60.7801 343.595 64.3973 341.101 67.0622C338.607 69.7333 335.227 71.2296 331.702 71.2296H13.2923C9.76763 71.2296 6.38697 69.7333 3.89323 67.0622C1.40525 64.3973 0 60.7801 0 57.0084V14.2212C0 10.4495 1.40525 6.83236 3.89323 4.16743C6.38697 1.49632 9.76763 0 13.2923 0Z" fill="white"/>
</mask>
<g mask="url(#mask1_50_8242)">
<path d="M13.2923 0H331.702C335.227 0 338.607 1.49632 341.101 4.16743C343.595 6.83236 344.994 10.4495 344.994 14.2212V57.0084C344.994 60.7802 343.595 64.3973 341.101 67.0622C338.607 69.7333 335.227 71.2296 331.702 71.2296H13.2923C9.76763 71.2296 6.38697 69.7333 3.89323 67.0622C1.40525 64.3973 0 60.7802 0 57.0084V14.2212C0 10.4495 1.40525 6.83236 3.89323 4.16743C6.38697 1.49632 9.76763 0 13.2923 0Z" stroke="#C1FFE9" stroke-width="6.00013"/>
</g>
</g>
</svg>
