<svg width="345" height="72" viewBox="0 0 345 72" fill="none" xmlns="http://www.w3.org/2000/svg">
<path d="M149.584 45.168C148.352 45.168 147.248 44.968 146.272 44.568C145.296 44.168 144.512 43.576 143.92 42.792C143.344 42.008 143.04 41.064 143.008 39.96H147.376C147.44 40.584 147.656 41.064 148.024 41.4C148.392 41.72 148.872 41.88 149.464 41.88C150.072 41.88 150.552 41.744 150.904 41.472C151.256 41.184 151.432 40.792 151.432 40.296C151.432 39.88 151.288 39.536 151 39.264C150.728 38.992 150.384 38.768 149.968 38.592C149.568 38.416 148.992 38.216 148.24 37.992C147.152 37.656 146.264 37.32 145.576 36.984C144.888 36.648 144.296 36.152 143.8 35.496C143.304 34.84 143.056 33.984 143.056 32.928C143.056 31.36 143.624 30.136 144.76 29.256C145.896 28.36 147.376 27.912 149.2 27.912C151.056 27.912 152.552 28.36 153.688 29.256C154.824 30.136 155.432 31.368 155.512 32.952H151.072C151.04 32.408 150.84 31.984 150.472 31.68C150.104 31.36 149.632 31.2 149.056 31.2C148.56 31.2 148.16 31.336 147.856 31.608C147.552 31.864 147.4 32.24 147.4 32.736C147.4 33.28 147.656 33.704 148.168 34.008C148.68 34.312 149.48 34.64 150.568 34.992C151.656 35.36 152.536 35.712 153.208 36.048C153.896 36.384 154.488 36.872 154.984 37.512C155.48 38.152 155.728 38.976 155.728 39.984C155.728 40.944 155.48 41.816 154.984 42.6C154.504 43.384 153.8 44.008 152.872 44.472C151.944 44.936 150.848 45.168 149.584 45.168ZM157.438 38.28C157.438 36.904 157.694 35.696 158.206 34.656C158.734 33.616 159.446 32.816 160.342 32.256C161.238 31.696 162.238 31.416 163.342 31.416C164.286 31.416 165.11 31.608 165.814 31.992C166.534 32.376 167.086 32.88 167.47 33.504V31.608H171.574V45H167.47V43.104C167.07 43.728 166.51 44.232 165.79 44.616C165.086 45 164.262 45.192 163.318 45.192C162.23 45.192 161.238 44.912 160.342 44.352C159.446 43.776 158.734 42.968 158.206 41.928C157.694 40.872 157.438 39.656 157.438 38.28ZM167.47 38.304C167.47 37.28 167.182 36.472 166.606 35.88C166.046 35.288 165.358 34.992 164.542 34.992C163.726 34.992 163.03 35.288 162.454 35.88C161.894 36.456 161.614 37.256 161.614 38.28C161.614 39.304 161.894 40.12 162.454 40.728C163.03 41.32 163.726 41.616 164.542 41.616C165.358 41.616 166.046 41.32 166.606 40.728C167.182 40.136 167.47 39.328 167.47 38.304ZM176.607 30.216C175.887 30.216 175.295 30.008 174.831 29.592C174.383 29.16 174.159 28.632 174.159 28.008C174.159 27.368 174.383 26.84 174.831 26.424C175.295 25.992 175.887 25.776 176.607 25.776C177.311 25.776 177.887 25.992 178.335 26.424C178.799 26.84 179.031 27.368 179.031 28.008C179.031 28.632 178.799 29.16 178.335 29.592C177.887 30.008 177.311 30.216 176.607 30.216ZM178.647 31.608V45H174.543V31.608H178.647ZM185.725 33.84C186.205 33.104 186.805 32.528 187.525 32.112C188.245 31.68 189.045 31.464 189.925 31.464V35.808H188.797C187.773 35.808 187.005 36.032 186.493 36.48C185.981 36.912 185.725 37.68 185.725 38.784V45H181.621V31.608H185.725V33.84Z" fill="black"/>
<mask id="mask0_50_8333" style="mask-type:luminance" maskUnits="userSpaceOnUse" x="0" y="0" width="345" height="72">
<path d="M0 0H345V71.2296H0V0Z" fill="white"/>
</mask>
<g mask="url(#mask0_50_8333)">
<mask id="mask1_50_8333" style="mask-type:luminance" maskUnits="userSpaceOnUse" x="0" y="0" width="345" height="72">
<path d="M13.2923 0H331.702C335.227 0 338.607 1.49632 341.101 4.16743C343.595 6.83236 344.994 10.4495 344.994 14.2212V57.0084C344.994 60.7801 343.595 64.3973 341.101 67.0622C338.607 69.7333 335.227 71.2296 331.702 71.2296H13.2923C9.76763 71.2296 6.38697 69.7333 3.89323 67.0622C1.40525 64.3973 0 60.7801 0 57.0084V14.2212C0 10.4495 1.40525 6.83236 3.89323 4.16743C6.38697 1.49632 9.76763 0 13.2923 0Z" fill="white"/>
</mask>
<g mask="url(#mask1_50_8333)">
<path d="M13.2923 0H331.702C335.227 0 338.607 1.49632 341.101 4.16743C343.595 6.83236 344.994 10.4495 344.994 14.2212V57.0084C344.994 60.7802 343.595 64.3973 341.101 67.0622C338.607 69.7333 335.227 71.2296 331.702 71.2296H13.2923C9.76763 71.2296 6.38697 69.7333 3.89323 67.0622C1.40525 64.3973 0 60.7802 0 57.0084V14.2212C0 10.4495 1.40525 6.83236 3.89323 4.16743C6.38697 1.49632 9.76763 0 13.2923 0Z" stroke="#B7CDEB" stroke-width="6.00013"/>
</g>
</g>
</svg>
