<svg width="419" height="699" viewBox="0 0 419 699" fill="none" xmlns="http://www.w3.org/2000/svg">
<path d="M0 0H468V727H0V0Z" fill="white"/>
<path fill-rule="evenodd" clip-rule="evenodd" d="M209.371 25.3946C188.966 25.3946 172.423 42.215 172.423 62.9599V88.0035H234C240.804 88.0035 246.318 93.6141 246.318 100.531C246.318 107.442 240.804 113.053 234 113.053H172.423V225.755H234C240.804 225.755 246.318 231.36 246.318 238.276C246.318 245.193 240.804 250.798 234 250.798H172.423V276.147C172.423 281.452 169.132 286.183 164.212 287.955C82.875 317.182 24.6352 396.053 24.6352 488.724C24.6352 606.294 118.369 701.605 234 701.605C349.631 701.605 443.371 606.294 443.371 488.724C443.371 396.053 385.125 317.182 303.794 287.955C298.868 286.183 295.582 281.452 295.582 276.147V175.662H234C227.202 175.662 221.688 170.057 221.688 163.14C221.688 156.223 227.202 150.618 234 150.618H295.582V62.9599C295.582 42.215 279.04 25.3946 258.635 25.3946H209.371ZM147.788 238.305V267.469C61.2372 302.364 0 388.256 0 488.724C0 620.128 104.767 726.649 234 726.649C363.233 726.649 468 620.128 468 488.724C468 388.256 406.768 302.364 320.212 267.469V62.9599C320.212 28.3812 292.641 0.351035 258.635 0.351035H209.371C175.359 0.351035 147.788 28.3812 147.788 62.9599V238.248C147.788 238.253 147.788 238.265 147.788 238.276C147.788 238.282 147.788 238.294 147.788 238.305ZM234 350.978C214.935 350.978 196.787 354.983 180.33 362.211C198.41 375.74 200.588 402.665 184.515 419.002L152.788 451.262C170.665 452.654 184.741 467.846 184.741 486.376V495.002C210.603 495.744 226.812 524.102 214.308 547.414L195.492 582.487L177.745 614.068C194.876 622.032 213.929 626.469 234 626.469C271.462 626.469 305.377 611.012 329.9 586.021L311.01 509.198C310.139 505.653 307.787 502.672 304.569 501.032L279.057 488.062C266.542 481.697 258.635 468.692 258.635 454.461V436.548C258.635 421.384 267.599 407.7 281.37 401.871L322.513 384.441C298.772 363.592 267.837 350.978 234 350.978ZM340.718 403.856L290.843 424.987C286.256 426.932 283.265 431.495 283.265 436.548V454.461C283.265 459.209 285.9 463.542 290.074 465.665L315.586 478.636C325.234 483.539 332.292 492.487 334.91 503.121L349.196 561.247C362.051 540.186 369.476 515.338 369.476 488.724C369.476 456.711 358.737 427.248 340.718 403.856ZM98.5293 488.724C98.5293 442.078 121.338 400.841 156.232 375.924L165.224 382.018C171.688 386.403 172.593 395.702 167.102 401.296L133.503 435.454C118.714 450.491 129.188 476.202 150.101 476.202C155.627 476.202 160.106 480.759 160.106 486.376V496.043C160.106 509.29 170.67 520.028 183.695 520.028C191.465 520.028 196.403 528.487 192.681 535.421L173.984 570.276L156.368 601.627C121.394 576.716 98.5293 535.433 98.5293 488.724ZM73.8941 488.724C73.8941 398.815 145.577 325.935 234 325.935C322.423 325.935 394.106 398.815 394.106 488.724C394.106 578.632 322.423 651.518 234 651.518C145.577 651.518 73.8941 578.632 73.8941 488.724Z" fill="#5055CF"/>
</svg>
