<svg width="1166" height="752" viewBox="0 0 1166 752" fill="none" xmlns="http://www.w3.org/2000/svg">
<path d="M0 -0.00012207H468V727H0V-0.00012207Z" fill="#F1F1F1"/>
<path fill-rule="evenodd" clip-rule="evenodd" d="M907.371 50.4382C886.966 50.4382 870.423 67.2586 870.423 88.0035V113.047H932C938.804 113.047 944.318 118.658 944.318 125.575C944.318 132.486 938.804 138.096 932 138.096H870.423V250.798H932C938.804 250.798 944.318 256.403 944.318 263.32C944.318 270.237 938.804 275.842 932 275.842H870.423V301.19C870.423 306.496 867.132 311.226 862.212 312.999C780.875 342.226 722.635 421.097 722.635 513.767C722.635 631.337 816.369 726.649 932 726.649C1047.63 726.649 1141.37 631.337 1141.37 513.767C1141.37 421.097 1083.13 342.226 1001.79 312.999C996.868 311.226 993.582 306.496 993.582 301.19V200.705H932C925.202 200.705 919.688 195.1 919.688 188.184C919.688 181.267 925.202 175.662 932 175.662H993.582V88.0035C993.582 67.2586 977.04 50.4382 956.635 50.4382H907.371ZM845.788 263.349V292.513C759.237 327.408 698 413.299 698 513.767C698 645.171 802.767 751.693 932 751.693C1061.23 751.693 1166 645.171 1166 513.767C1166 413.299 1104.77 327.408 1018.21 292.513V88.0035C1018.21 53.4248 990.641 25.3946 956.635 25.3946H907.371C873.359 25.3946 845.788 53.4248 845.788 88.0035V263.291C845.788 263.297 845.788 263.308 845.788 263.32C845.788 263.326 845.788 263.337 845.788 263.349ZM932 376.022C912.935 376.022 894.787 380.027 878.33 387.255C896.41 400.783 898.588 427.709 882.515 444.046L850.788 476.305C868.665 477.698 882.741 492.89 882.741 511.419V520.045C908.603 520.788 924.812 549.146 912.308 572.457L893.492 607.531L875.745 639.112C892.876 647.076 911.929 651.513 932 651.513C969.462 651.513 1003.38 636.056 1027.9 611.064L1009.01 534.242C1008.14 530.697 1005.79 527.716 1002.57 526.076L977.057 513.105C964.541 506.741 956.635 493.736 956.635 479.505V461.591C956.635 446.428 965.599 432.744 979.37 426.915L1020.51 409.484C996.772 388.636 965.837 376.022 932 376.022ZM1038.72 428.9L988.843 450.03C984.256 451.975 981.265 456.539 981.265 461.591V479.505C981.265 484.252 983.9 488.586 988.074 490.709L1013.59 503.68C1023.23 508.582 1030.29 517.531 1032.91 528.165L1047.2 586.291C1060.05 565.23 1067.48 540.382 1067.48 513.767C1067.48 481.755 1056.74 452.292 1038.72 428.9ZM796.529 513.767C796.529 467.121 819.338 425.884 854.232 400.968L863.224 407.062C869.688 411.446 870.593 420.746 865.102 426.339L831.503 460.498C816.714 475.534 827.188 501.245 848.101 501.245C853.627 501.245 858.106 505.803 858.106 511.419V521.087C858.106 534.334 868.67 545.072 881.695 545.072C889.465 545.072 894.403 553.531 890.681 560.465L871.984 595.32L854.368 626.67C819.394 601.759 796.529 560.476 796.529 513.767ZM771.894 513.767C771.894 423.859 843.577 350.978 932 350.978C1020.42 350.978 1092.11 423.859 1092.11 513.767C1092.11 603.675 1020.42 676.562 932 676.562C843.577 676.562 771.894 603.675 771.894 513.767Z" fill="#5055CF" fill-opacity="0.7"/>
</svg>
