<svg width="770" height="737" viewBox="0 0 770 737" fill="none" xmlns="http://www.w3.org/2000/svg">
<mask id="mask0_536_6332" style="mask-type:luminance" maskUnits="userSpaceOnUse" x="0" y="0" width="770" height="737">
<path d="M0 0H770V737H0V0Z" fill="white"/>
</mask>
<g mask="url(#mask0_536_6332)">
<path d="M385 0C172.689 0 0 165.326 0 368.5C0 571.712 172.689 737 385 737C597.271 737 770 571.712 770 368.5C770 165.326 597.271 0 385 0ZM166.833 503.617C166.833 468.609 175.977 435.674 191.939 406.655C198.716 409.419 205.333 412.413 211.71 415.983C228.674 425.426 230.96 430.339 231.04 430.377C230.639 431.375 227.792 434.062 225.706 435.982C219.811 441.471 211.79 448.956 206.176 462.391C201.403 474.213 195.307 496.362 208.221 511.371C214.718 519.048 222.739 520.66 228.072 521.735C232.043 522.541 233.126 522.848 234.208 523.999C238.459 528.644 238.219 539.699 233.767 545.111C231.642 547.683 228.674 548.259 220.814 549.142C214.998 549.833 207.78 550.677 200.24 553.748C191.939 557.203 184.72 562.884 178.504 570.446C171.044 549.449 166.833 526.993 166.833 503.617ZM210.346 576.319C214.517 574.63 219.089 574.131 223.942 573.555C233.326 572.48 245.036 571.098 253.899 560.35C266.171 545.495 265.971 521.389 253.418 507.762C246.56 500.354 238.62 498.742 233.366 497.705C229.316 496.899 228.754 496.631 228.072 495.824C224.904 492.178 225.746 482.044 230.078 471.335C233.567 462.928 238.66 458.168 243.593 453.6C249.648 447.958 257.108 441.01 256.667 429.533C256.266 417.595 246.36 406.847 224.583 394.756C218.327 391.263 211.91 388.23 205.333 385.39C217.966 367.847 233.406 352.34 250.932 339.25C259.193 347.004 268.417 352.532 278.403 355.641C284.82 357.599 290.755 358.405 296.41 358.405C307.92 358.405 318.307 355.142 329.055 351.764C344.214 346.966 359.895 342.052 383.957 343.895C398.395 345.008 406.817 347.887 414.958 350.689C424.543 353.99 434.489 357.445 450.209 356.178C470.302 354.604 489.712 346.236 507.999 331.343C518.547 338.252 528.453 346.045 537.556 354.604C525.164 360.017 517.304 367.348 513.975 376.868C511.047 385.159 512.652 392.414 513.975 398.287C515.218 403.891 516.101 407.96 514.055 413.564C511.328 420.934 504.711 429.111 498.495 430.07C494.204 430.723 489.552 426.999 482.533 420.704C473.871 412.989 463.043 403.392 447.362 405.465C433.767 407.269 427.952 417.019 423.299 424.811C419.048 431.951 415.038 438.669 404.932 443.505C393.622 448.917 382.313 449.608 373.209 450.184C363.023 450.798 350.35 451.604 346.981 463.427C343.372 475.595 354.481 482.351 362.542 487.264C370.603 492.178 380.589 498.281 386.404 509.221C390.775 517.397 390.855 524.614 390.976 532.214C391.096 541.733 391.216 553.594 402.566 562.308C409.824 567.912 419.048 570.254 428.312 570.254C438.218 570.254 448.164 567.567 455.704 563.306C470.181 555.092 475.916 541.695 480.528 530.947C484.779 521.044 487.065 516.591 491.356 515.363C493.482 514.748 495.728 515.209 497.693 515.593C505.032 517.167 509.363 523.615 515.78 534.018C522.477 544.881 530.819 558.393 547.422 564.304C558.611 568.181 567.835 566.722 579.706 564.841C584.719 563.997 589.652 562.73 594.504 561.233C582.112 602.421 556.967 638.465 523.239 664.989C518.146 662.225 513.574 659.116 510.205 655.277C504.671 649.136 501.182 641.804 498.094 635.317C493.361 625.375 487.987 614.167 474.914 614.167H474.633C462.241 614.32 457.388 624.915 453.859 632.668C450.931 639.117 447.282 647.14 439.702 654.97C422.016 673.395 397.793 675.507 396.55 675.622C390.775 676.159 370.803 677.08 353.879 665.526C347.262 661.074 344.214 656.813 341.286 652.706C337.717 647.716 333.306 641.535 324.122 639.156C307.037 634.741 288.59 646.909 265.129 677.886C233.727 658.041 208.101 630.634 190.856 598.429C196.149 587.105 202.646 579.505 210.346 576.319ZM272.708 324.933C305.554 305.932 343.893 294.8 385 294.8C420.733 294.8 454.38 303.245 484.178 317.87C472.347 326.007 460.235 330.729 448.084 331.688C437.937 332.494 432.243 330.537 423.62 327.581C414.837 324.549 403.849 320.787 386.003 319.405C356.807 317.14 336.995 323.397 321.034 328.387C306.997 332.802 297.693 335.757 286.264 332.264C281.451 330.767 276.959 328.272 272.708 324.933ZM600.881 532.214C592.619 536.283 584.037 539.162 575.254 540.659C564.747 542.348 560.857 542.847 556.285 541.234C548.264 538.394 543.452 530.563 537.877 521.543C530.698 509.95 521.835 495.556 502.866 491.564C499.698 490.911 492.399 489.414 484.057 491.832C467.574 496.439 461.599 510.411 456.786 521.619C453.017 530.486 449.728 538.164 442.63 542.156C434.408 546.8 423.019 546.532 418.687 543.154C417.083 541.925 416.722 540.044 416.602 531.907C416.482 523.232 416.361 511.332 409.223 498.012C403.287 486.842 394.946 479.204 387.206 473.638C395.828 472.563 405.974 470.452 416.361 465.462C433.446 457.285 440.745 445.079 445.557 437.018C447.442 433.87 449.808 429.955 450.851 429.802C454.14 429.379 458.671 433.026 465.008 438.669C473.67 446.346 485.421 456.94 502.505 454.33C519.87 451.643 532.944 436.02 538.278 421.664C542.649 409.572 540.604 400.091 539.04 393.182C538.118 388.998 537.636 386.541 538.318 384.66C539.642 380.822 546.139 377.098 555.884 374.219C585.401 409.841 603.127 454.714 603.127 503.617C603.127 513.328 602.204 522.809 600.841 532.175L600.881 532.214ZM287.507 690.17C308.361 663.185 317.144 662.839 317.023 662.647C317.625 663.146 319.069 665.104 320.071 666.563C323.52 671.361 328.654 678.577 339.041 685.564C362.542 701.609 388.85 701.033 398.876 700.073C402.445 699.805 434.609 696.58 458.551 671.63C467.133 662.763 472.026 653.819 475.395 646.871C478.764 653.896 483.335 663.07 490.674 671.207C493.642 674.547 497.051 677.503 500.741 680.305C467.133 700.534 427.551 712.433 385 712.433C349.949 712.433 316.903 704.296 287.507 690.131V690.17ZM552.836 672.474C599.517 629.943 628.833 570.062 628.833 503.617C628.833 374.91 519.429 270.233 385 270.233C250.531 270.233 141.167 374.91 141.167 503.617C141.167 570.062 170.443 629.943 217.164 672.474C103.348 614.704 25.6667 500.162 25.6667 368.5C25.6667 178.876 186.845 24.5667 385 24.5667C583.115 24.5667 744.333 178.876 744.333 368.5C744.333 500.162 666.611 614.704 552.836 672.474Z" fill="#19C4AF"/>
</g>
<path d="M714.897 278.909L696.73 261.559L628.834 326.583V294.8H603.167V356.217C603.167 363.011 608.902 368.5 616 368.5H680.167V343.934H646.961L714.897 278.909Z" fill="#19C4AF"/>
<path d="M141.167 294.801V270.234H77.0003C69.9019 270.234 64.167 275.723 64.167 282.517V343.934H89.8337V312.189L157.73 377.176L175.897 359.825L107.961 294.801H141.167Z" fill="#19C4AF"/>
<path d="M470.543 85.9838C467.053 85.9838 463.564 86.2141 459.915 86.598C447.483 64.1041 418.447 49.1338 385 49.1338C351.553 49.1338 322.478 64.1041 310.086 86.598C306.436 86.1757 302.907 85.9838 299.458 85.9838C254.622 85.9838 218.167 113.545 218.167 147.4C218.167 181.256 254.622 208.817 299.458 208.817V184.25C269.3 184.25 243.834 167.361 243.834 147.4C243.834 127.44 269.3 110.55 299.458 110.55C304.311 110.55 309.364 111.126 315.42 112.355C321.997 113.698 328.574 109.898 330.419 103.679C335.552 86.2909 358.491 73.7005 385 73.7005C411.469 73.7005 434.449 86.2909 439.582 103.679C441.387 109.898 448.004 113.698 454.581 112.355C460.597 111.126 465.69 110.55 470.543 110.55C500.701 110.55 526.167 127.44 526.167 147.4C526.167 167.361 500.701 184.25 470.543 184.25V208.817C515.339 208.817 551.834 181.256 551.834 147.4C551.834 113.545 515.339 85.9838 470.543 85.9838Z" fill="#19C4AF"/>
<path d="M372.167 135.117H397.834V221.101H372.167V135.117Z" fill="#19C4AF"/>
<path d="M411.148 242.289L436.815 156.306L461.479 163.061L435.813 249.045L411.148 242.289Z" fill="#19C4AF"/>
<path d="M308.481 163.061L333.146 156.306L358.812 242.289L334.148 249.045L308.481 163.061Z" fill="#19C4AF"/>
</svg>
