<svg width="514" height="724" viewBox="0 0 514 724" fill="none" xmlns="http://www.w3.org/2000/svg">
<path d="M0 0H613.854V736H0V0Z" fill="white"/>
<path d="M0.00524902 475.573C0.00524902 405.745 18.8855 349.13 49.099 305.724C49.099 391.594 69.8698 421.786 115.193 421.786C145.401 421.786 176.563 399.141 176.563 360.453C176.563 325.542 152.958 262.318 152.958 194.38C152.958 126.443 175.615 53.7865 268.141 0C247.37 54.7292 238.875 100.964 238.875 138.708C238.875 238.729 299.297 284.021 353.115 284.021C396.547 284.021 441.865 255.714 441.865 173.62C471.135 205.703 484.354 242.505 484.354 279.302C484.354 337.807 452.25 389.703 452.25 436.885C452.25 475.573 483.406 498.219 513.62 498.219C567.438 498.219 583.49 450.094 583.49 370.833C599.536 398.198 613.698 451.979 613.698 498.219C613.698 635.979 483.406 736 338.01 736C460.75 689.766 483.406 628.432 483.406 559.552C453.193 613.333 422.036 620.885 406.932 620.885C314.406 620.885 414.484 444.432 253.036 321.766C279.474 378.38 289.859 427.448 289.859 467.078C289.859 552 243.594 598.24 199.219 598.24C161.453 598.24 123.688 568.042 108.583 503.88C108.583 593.521 135.016 678.443 253.036 736C68.9271 705.807 0.00524902 590.688 0.00524902 475.573Z" fill="#ED6E40"/>
</svg>
