<svg width="254" height="68" viewBox="0 0 254 68" fill="none" xmlns="http://www.w3.org/2000/svg">
<rect width="254" height="68" rx="15" fill="#31762D"/>
<path d="M38.358 29.3V32.8H43.058V35.02H38.358V38.72H43.658V41H35.558V27.02H43.658V29.3H38.358ZM52.3425 29.76C53.6625 29.76 54.7292 30.18 55.5425 31.02C56.3558 31.8467 56.7625 33.0067 56.7625 34.5V41H53.9625V34.88C53.9625 34 53.7425 33.3267 53.3025 32.86C52.8625 32.38 52.2625 32.14 51.5025 32.14C50.7292 32.14 50.1158 32.38 49.6625 32.86C49.2225 33.3267 49.0025 34 49.0025 34.88V41H46.2025V29.92H49.0025V31.3C49.3758 30.82 49.8492 30.4467 50.4225 30.18C51.0092 29.9 51.6492 29.76 52.3425 29.76ZM64.0452 38.42L66.8452 29.92H69.8252L65.7252 41H62.3252L58.2452 29.92H61.2452L64.0452 38.42ZM72.8178 28.6C72.3245 28.6 71.9111 28.4467 71.5778 28.14C71.2578 27.82 71.0978 27.4267 71.0978 26.96C71.0978 26.4933 71.2578 26.1067 71.5778 25.8C71.9111 25.48 72.3245 25.32 72.8178 25.32C73.3111 25.32 73.7178 25.48 74.0378 25.8C74.3711 26.1067 74.5378 26.4933 74.5378 26.96C74.5378 27.4267 74.3711 27.82 74.0378 28.14C73.7178 28.4467 73.3111 28.6 72.8178 28.6ZM74.1978 29.92V41H71.3978V29.92H74.1978ZM76.2442 35.42C76.2442 34.3 76.4642 33.3067 76.9042 32.44C77.3575 31.5733 77.9642 30.9067 78.7242 30.44C79.4975 29.9733 80.3575 29.74 81.3042 29.74C82.1309 29.74 82.8509 29.9067 83.4642 30.24C84.0909 30.5733 84.5909 30.9933 84.9642 31.5V29.92H87.7842V41H84.9642V39.38C84.6042 39.9 84.1042 40.3333 83.4642 40.68C82.8375 41.0133 82.1109 41.18 81.2842 41.18C80.3509 41.18 79.4975 40.94 78.7242 40.46C77.9642 39.98 77.3575 39.3067 76.9042 38.44C76.4642 37.56 76.2442 36.5533 76.2442 35.42ZM84.9642 35.46C84.9642 34.78 84.8309 34.2 84.5642 33.72C84.2975 33.2267 83.9375 32.8533 83.4842 32.6C83.0309 32.3333 82.5442 32.2 82.0242 32.2C81.5042 32.2 81.0242 32.3267 80.5842 32.58C80.1442 32.8333 79.7842 33.2067 79.5042 33.7C79.2375 34.18 79.1042 34.7533 79.1042 35.42C79.1042 36.0867 79.2375 36.6733 79.5042 37.18C79.7842 37.6733 80.1442 38.0533 80.5842 38.32C81.0375 38.5867 81.5175 38.72 82.0242 38.72C82.5442 38.72 83.0309 38.5933 83.4842 38.34C83.9375 38.0733 84.2975 37.7 84.5642 37.22C84.8309 36.7267 84.9642 36.14 84.9642 35.46ZM93.3189 31.64C93.6789 31.0533 94.1456 30.5933 94.7189 30.26C95.3056 29.9267 95.9722 29.76 96.7189 29.76V32.7H95.9789C95.0989 32.7 94.4322 32.9067 93.9789 33.32C93.5389 33.7333 93.3189 34.4533 93.3189 35.48V41H90.5189V29.92H93.3189V31.64ZM117.13 29.76C118.49 29.76 119.584 30.18 120.41 31.02C121.25 31.8467 121.67 33.0067 121.67 34.5V41H118.87V34.88C118.87 34.0133 118.65 33.3533 118.21 32.9C117.77 32.4333 117.17 32.2 116.41 32.2C115.65 32.2 115.044 32.4333 114.59 32.9C114.15 33.3533 113.93 34.0133 113.93 34.88V41H111.13V34.88C111.13 34.0133 110.91 33.3533 110.47 32.9C110.03 32.4333 109.43 32.2 108.67 32.2C107.897 32.2 107.284 32.4333 106.83 32.9C106.39 33.3533 106.17 34.0133 106.17 34.88V41H103.37V29.92H106.17V31.26C106.53 30.7933 106.99 30.4267 107.55 30.16C108.124 29.8933 108.75 29.76 109.43 29.76C110.297 29.76 111.07 29.9467 111.75 30.32C112.43 30.68 112.957 31.2 113.33 31.88C113.69 31.24 114.21 30.7267 114.89 30.34C115.584 29.9533 116.33 29.76 117.13 29.76ZM134.627 35.22C134.627 35.62 134.601 35.98 134.547 36.3H126.447C126.514 37.1 126.794 37.7267 127.287 38.18C127.781 38.6333 128.387 38.86 129.107 38.86C130.147 38.86 130.887 38.4133 131.327 37.52H134.347C134.027 38.5867 133.414 39.4667 132.507 40.16C131.601 40.84 130.487 41.18 129.167 41.18C128.101 41.18 127.141 40.9467 126.287 40.48C125.447 40 124.787 39.3267 124.307 38.46C123.841 37.5933 123.607 36.5933 123.607 35.46C123.607 34.3133 123.841 33.3067 124.307 32.44C124.774 31.5733 125.427 30.9067 126.267 30.44C127.107 29.9733 128.074 29.74 129.167 29.74C130.221 29.74 131.161 29.9667 131.987 30.42C132.827 30.8733 133.474 31.52 133.927 32.36C134.394 33.1867 134.627 34.14 134.627 35.22ZM131.727 34.42C131.714 33.7 131.454 33.1267 130.947 32.7C130.441 32.26 129.821 32.04 129.087 32.04C128.394 32.04 127.807 32.2533 127.327 32.68C126.861 33.0933 126.574 33.6733 126.467 34.42H131.727ZM142.811 29.76C144.131 29.76 145.198 30.18 146.011 31.02C146.825 31.8467 147.231 33.0067 147.231 34.5V41H144.431V34.88C144.431 34 144.211 33.3267 143.771 32.86C143.331 32.38 142.731 32.14 141.971 32.14C141.198 32.14 140.585 32.38 140.131 32.86C139.691 33.3267 139.471 34 139.471 34.88V41H136.671V29.92H139.471V31.3C139.845 30.82 140.318 30.4467 140.891 30.18C141.478 29.9 142.118 29.76 142.811 29.76ZM154.134 41.18C153.227 41.18 152.414 41.02 151.694 40.7C150.974 40.3667 150.401 39.92 149.974 39.36C149.561 38.8 149.334 38.18 149.294 37.5H152.114C152.167 37.9267 152.374 38.28 152.734 38.56C153.107 38.84 153.567 38.98 154.114 38.98C154.647 38.98 155.061 38.8733 155.354 38.66C155.661 38.4467 155.814 38.1733 155.814 37.84C155.814 37.48 155.627 37.2133 155.254 37.04C154.894 36.8533 154.314 36.6533 153.514 36.44C152.687 36.24 152.007 36.0333 151.474 35.82C150.954 35.6067 150.501 35.28 150.114 34.84C149.741 34.4 149.554 33.8067 149.554 33.06C149.554 32.4467 149.727 31.8867 150.074 31.38C150.434 30.8733 150.941 30.4733 151.594 30.18C152.261 29.8867 153.041 29.74 153.934 29.74C155.254 29.74 156.307 30.0733 157.094 30.74C157.881 31.3933 158.314 32.28 158.394 33.4H155.714C155.674 32.96 155.487 32.6133 155.154 32.36C154.834 32.0933 154.401 31.96 153.854 31.96C153.347 31.96 152.954 32.0533 152.674 32.24C152.407 32.4267 152.274 32.6867 152.274 33.02C152.274 33.3933 152.461 33.68 152.834 33.88C153.207 34.0667 153.787 34.26 154.574 34.46C155.374 34.66 156.034 34.8667 156.554 35.08C157.074 35.2933 157.521 35.6267 157.894 36.08C158.281 36.52 158.481 37.1067 158.494 37.84C158.494 38.48 158.314 39.0533 157.954 39.56C157.607 40.0667 157.101 40.4667 156.434 40.76C155.781 41.04 155.014 41.18 154.134 41.18ZM160.072 35.42C160.072 34.3 160.292 33.3067 160.732 32.44C161.186 31.5733 161.792 30.9067 162.552 30.44C163.326 29.9733 164.186 29.74 165.132 29.74C165.959 29.74 166.679 29.9067 167.292 30.24C167.919 30.5733 168.419 30.9933 168.792 31.5V29.92H171.612V41H168.792V39.38C168.432 39.9 167.932 40.3333 167.292 40.68C166.666 41.0133 165.939 41.18 165.112 41.18C164.179 41.18 163.326 40.94 162.552 40.46C161.792 39.98 161.186 39.3067 160.732 38.44C160.292 37.56 160.072 36.5533 160.072 35.42ZM168.792 35.46C168.792 34.78 168.659 34.2 168.392 33.72C168.126 33.2267 167.766 32.8533 167.312 32.6C166.859 32.3333 166.372 32.2 165.852 32.2C165.332 32.2 164.852 32.3267 164.412 32.58C163.972 32.8333 163.612 33.2067 163.332 33.7C163.066 34.18 162.932 34.7533 162.932 35.42C162.932 36.0867 163.066 36.6733 163.332 37.18C163.612 37.6733 163.972 38.0533 164.412 38.32C164.866 38.5867 165.346 38.72 165.852 38.72C166.372 38.72 166.859 38.5933 167.312 38.34C167.766 38.0733 168.126 37.7 168.392 37.22C168.659 36.7267 168.792 36.14 168.792 35.46ZM178.687 29.74C179.514 29.74 180.24 29.9067 180.867 30.24C181.494 30.56 181.987 30.98 182.347 31.5V29.92H185.167V41.08C185.167 42.1067 184.96 43.02 184.547 43.82C184.134 44.6333 183.514 45.2733 182.687 45.74C181.86 46.22 180.86 46.46 179.687 46.46C178.114 46.46 176.82 46.0933 175.807 45.36C174.807 44.6267 174.24 43.6267 174.107 42.36H176.887C177.034 42.8667 177.347 43.2667 177.827 43.56C178.32 43.8667 178.914 44.02 179.607 44.02C180.42 44.02 181.08 43.7733 181.587 43.28C182.094 42.8 182.347 42.0667 182.347 41.08V39.36C181.987 39.88 181.487 40.3133 180.847 40.66C180.22 41.0067 179.5 41.18 178.687 41.18C177.754 41.18 176.9 40.94 176.127 40.46C175.354 39.98 174.74 39.3067 174.287 38.44C173.847 37.56 173.627 36.5533 173.627 35.42C173.627 34.3 173.847 33.3067 174.287 32.44C174.74 31.5733 175.347 30.9067 176.107 30.44C176.88 29.9733 177.74 29.74 178.687 29.74ZM182.347 35.46C182.347 34.78 182.214 34.2 181.947 33.72C181.68 33.2267 181.32 32.8533 180.867 32.6C180.414 32.3333 179.927 32.2 179.407 32.2C178.887 32.2 178.407 32.3267 177.967 32.58C177.527 32.8333 177.167 33.2067 176.887 33.7C176.62 34.18 176.487 34.7533 176.487 35.42C176.487 36.0867 176.62 36.6733 176.887 37.18C177.167 37.6733 177.527 38.0533 177.967 38.32C178.42 38.5867 178.9 38.72 179.407 38.72C179.927 38.72 180.414 38.5933 180.867 38.34C181.32 38.0733 181.68 37.7 181.947 37.22C182.214 36.7267 182.347 36.14 182.347 35.46ZM198.202 35.22C198.202 35.62 198.175 35.98 198.122 36.3H190.022C190.088 37.1 190.368 37.7267 190.862 38.18C191.355 38.6333 191.962 38.86 192.682 38.86C193.722 38.86 194.462 38.4133 194.902 37.52H197.922C197.602 38.5867 196.988 39.4667 196.082 40.16C195.175 40.84 194.062 41.18 192.742 41.18C191.675 41.18 190.715 40.9467 189.862 40.48C189.022 40 188.362 39.3267 187.882 38.46C187.415 37.5933 187.182 36.5933 187.182 35.46C187.182 34.3133 187.415 33.3067 187.882 32.44C188.348 31.5733 189.002 30.9067 189.842 30.44C190.682 29.9733 191.648 29.74 192.742 29.74C193.795 29.74 194.735 29.9667 195.562 30.42C196.402 30.8733 197.048 31.52 197.502 32.36C197.968 33.1867 198.202 34.14 198.202 35.22ZM195.302 34.42C195.288 33.7 195.028 33.1267 194.522 32.7C194.015 32.26 193.395 32.04 192.662 32.04C191.968 32.04 191.382 32.2533 190.902 32.68C190.435 33.0933 190.148 33.6733 190.042 34.42H195.302ZM214.005 29.76C215.365 29.76 216.459 30.18 217.285 31.02C218.125 31.8467 218.545 33.0067 218.545 34.5V41H215.745V34.88C215.745 34.0133 215.525 33.3533 215.085 32.9C214.645 32.4333 214.045 32.2 213.285 32.2C212.525 32.2 211.919 32.4333 211.465 32.9C211.025 33.3533 210.805 34.0133 210.805 34.88V41H208.005V34.88C208.005 34.0133 207.785 33.3533 207.345 32.9C206.905 32.4333 206.305 32.2 205.545 32.2C204.772 32.2 204.159 32.4333 203.705 32.9C203.265 33.3533 203.045 34.0133 203.045 34.88V41H200.245V29.92H203.045V31.26C203.405 30.7933 203.865 30.4267 204.425 30.16C204.999 29.8933 205.625 29.76 206.305 29.76C207.172 29.76 207.945 29.9467 208.625 30.32C209.305 30.68 209.832 31.2 210.205 31.88C210.565 31.24 211.085 30.7267 211.765 30.34C212.459 29.9533 213.205 29.76 214.005 29.76Z" fill="white"/>
</svg>
